<?xml version="1.0" encoding="us-ascii" standalone="no"?><svg xmlns="http://www.w3.org/2000/svg" xmlns:xlink="http://www.w3.org/1999/xlink" contentStyleType="text/css" height="1686px" preserveAspectRatio="none" style="width:1188px;height:1686px;background:#FFFFFF;" version="1.1" viewBox="0 0 1188 1686" width="1188px" zoomAndPan="magnify"><defs/><g><text fill="#888888" font-family="sans-serif" font-size="10" lengthAdjust="spacing" textLength="45" x="1129" y="9.2822">Schema</text><text fill="#000000" font-family="sans-serif" font-size="14" font-weight="bold" lengthAdjust="spacing" textLength="97" x="538.5" y="35.6357">All schemas</text><!--class Commonground--><g id="elem_Commonground"><rect codeLine="4" fill="#F1F1F1" height="96.8906" id="Commonground" rx="2.5" ry="2.5" style="stroke:#181818;stroke-width:0.5;" width="234" x="7" y="113.9375"/><ellipse cx="62.25" cy="129.9375" fill="#ADD1B2" rx="11" ry="11" style="stroke:#181818;stroke-width:1.0;"/><path d="M64.5938,125.6094 C63.6563,125.1719 63.0625,125.0313 62.1875,125.0313 C59.5625,125.0313 57.5625,127.1094 57.5625,129.8281 L57.5625,130.9531 C57.5625,133.5313 59.6719,135.4219 62.5625,135.4219 C63.7813,135.4219 64.9375,135.125 65.6875,134.5781 C66.2656,134.1719 66.5938,133.7188 66.5938,133.3281 C66.5938,132.875 66.2031,132.4844 65.7344,132.4844 C65.5156,132.4844 65.3125,132.5625 65.125,132.75 C64.6719,133.2344 64.6719,133.2344 64.4844,133.3281 C64.0625,133.5938 63.375,133.7188 62.6094,133.7188 C60.5625,133.7188 59.2656,132.625 59.2656,130.9219 L59.2656,129.8281 C59.2656,128.0469 60.5156,126.7344 62.25,126.7344 C62.8281,126.7344 63.4375,126.8906 63.9063,127.1406 C64.3906,127.4219 64.5625,127.6406 64.6563,128.0469 C64.7188,128.4531 64.75,128.5781 64.8906,128.7031 C65.0313,128.8438 65.2656,128.9531 65.4844,128.9531 C65.75,128.9531 66.0156,128.8125 66.1875,128.5938 C66.2969,128.4375 66.3281,128.25 66.3281,127.8281 L66.3281,126.4063 C66.3281,125.9688 66.3125,125.8438 66.2188,125.6875 C66.0625,125.4219 65.7813,125.2813 65.4844,125.2813 C65.1875,125.2813 64.9844,125.375 64.7656,125.6875 L64.5938,125.6094 Z " fill="#000000"/><text fill="#000000" font-family="sans-serif" font-size="14" lengthAdjust="spacing" textLength="115" x="82.75" y="134.7842">Commonground</text><line style="stroke:#181818;stroke-width:0.5;" x1="8" x2="240" y1="145.9375" y2="145.9375"/><ellipse cx="18" cy="159.5859" fill="none" rx="3" ry="3" style="stroke:#038048;stroke-width:1.0;"/><text fill="#000000" font-family="sans-serif" font-size="14" lengthAdjust="spacing" textLength="208" x="27" y="162.9326">intendedOrganisations: array</text><ellipse cx="18" cy="175.8828" fill="none" rx="3" ry="3" style="stroke:#038048;stroke-width:1.0;"/><text fill="#000000" font-family="sans-serif" font-size="14" lengthAdjust="spacing" textLength="167" x="27" y="179.2295">installationType: string</text><ellipse cx="18" cy="192.1797" fill="none" rx="3" ry="3" style="stroke:#038048;stroke-width:1.0;"/><text fill="#000000" font-family="sans-serif" font-size="14" lengthAdjust="spacing" textLength="122" x="27" y="195.5264">layerType: string</text><line style="stroke:#181818;stroke-width:0.5;" x1="8" x2="240" y1="202.8281" y2="202.8281"/></g><!--class Description--><g id="elem_Description"><rect codeLine="9" fill="#F1F1F1" height="210.9688" id="Description" rx="2.5" ry="2.5" style="stroke:#181818;stroke-width:0.5;" width="211" x="276.5" y="56.9375"/><ellipse cx="335.75" cy="72.9375" fill="#ADD1B2" rx="11" ry="11" style="stroke:#181818;stroke-width:1.0;"/><path d="M338.0938,68.6094 C337.1563,68.1719 336.5625,68.0313 335.6875,68.0313 C333.0625,68.0313 331.0625,70.1094 331.0625,72.8281 L331.0625,73.9531 C331.0625,76.5313 333.1719,78.4219 336.0625,78.4219 C337.2813,78.4219 338.4375,78.125 339.1875,77.5781 C339.7656,77.1719 340.0938,76.7188 340.0938,76.3281 C340.0938,75.875 339.7031,75.4844 339.2344,75.4844 C339.0156,75.4844 338.8125,75.5625 338.625,75.75 C338.1719,76.2344 338.1719,76.2344 337.9844,76.3281 C337.5625,76.5938 336.875,76.7188 336.1094,76.7188 C334.0625,76.7188 332.7656,75.625 332.7656,73.9219 L332.7656,72.8281 C332.7656,71.0469 334.0156,69.7344 335.75,69.7344 C336.3281,69.7344 336.9375,69.8906 337.4063,70.1406 C337.8906,70.4219 338.0625,70.6406 338.1563,71.0469 C338.2188,71.4531 338.25,71.5781 338.3906,71.7031 C338.5313,71.8438 338.7656,71.9531 338.9844,71.9531 C339.25,71.9531 339.5156,71.8125 339.6875,71.5938 C339.7969,71.4375 339.8281,71.25 339.8281,70.8281 L339.8281,69.4063 C339.8281,68.9688 339.8125,68.8438 339.7188,68.6875 C339.5625,68.4219 339.2813,68.2813 338.9844,68.2813 C338.6875,68.2813 338.4844,68.375 338.2656,68.6875 L338.0938,68.6094 Z " fill="#000000"/><text fill="#000000" font-family="sans-serif" font-size="14" lengthAdjust="spacing" textLength="84" x="356.25" y="77.7842">Description</text><line style="stroke:#181818;stroke-width:0.5;" x1="277.5" x2="486.5" y1="88.9375" y2="88.9375"/><ellipse cx="287.5" cy="102.5859" fill="none" rx="3" ry="3" style="stroke:#038048;stroke-width:1.0;"/><text fill="#000000" font-family="sans-serif" font-size="14" lengthAdjust="spacing" textLength="64" x="296.5" y="105.9326">id: string</text><ellipse cx="287.5" cy="118.8828" fill="none" rx="3" ry="3" style="stroke:#038048;stroke-width:1.0;"/><text fill="#000000" font-family="sans-serif" font-size="14" lengthAdjust="spacing" textLength="154" x="296.5" y="122.2295">localisedName: string</text><ellipse cx="287.5" cy="135.1797" fill="none" rx="3" ry="3" style="stroke:#038048;stroke-width:1.0;"/><text fill="#000000" font-family="sans-serif" font-size="14" lengthAdjust="spacing" textLength="173" x="296.5" y="138.5264">shortDescription: string</text><ellipse cx="287.5" cy="151.4766" fill="none" rx="3" ry="3" style="stroke:#038048;stroke-width:1.0;"/><text fill="#000000" font-family="sans-serif" font-size="14" lengthAdjust="spacing" textLength="166" x="296.5" y="154.8232">longDescription: string</text><ellipse cx="287.5" cy="167.7734" fill="none" rx="3" ry="3" style="stroke:#038048;stroke-width:1.0;"/><text fill="#000000" font-family="sans-serif" font-size="14" lengthAdjust="spacing" textLength="161" x="296.5" y="171.1201">documentation: string</text><ellipse cx="287.5" cy="184.0703" fill="none" rx="3" ry="3" style="stroke:#038048;stroke-width:1.0;"/><text fill="#000000" font-family="sans-serif" font-size="14" lengthAdjust="spacing" textLength="185" x="296.5" y="187.417">apiDocumentation: string</text><ellipse cx="287.5" cy="200.3672" fill="none" rx="3" ry="3" style="stroke:#038048;stroke-width:1.0;"/><text fill="#000000" font-family="sans-serif" font-size="14" lengthAdjust="spacing" textLength="105" x="296.5" y="203.7139">features: array</text><ellipse cx="287.5" cy="216.6641" fill="none" rx="3" ry="3" style="stroke:#038048;stroke-width:1.0;"/><text fill="#000000" font-family="sans-serif" font-size="14" lengthAdjust="spacing" textLength="132" x="296.5" y="220.0107">screenshots: array</text><ellipse cx="287.5" cy="232.9609" fill="none" rx="3" ry="3" style="stroke:#038048;stroke-width:1.0;"/><text fill="#000000" font-family="sans-serif" font-size="14" lengthAdjust="spacing" textLength="91" x="296.5" y="236.3076">videos: array</text><ellipse cx="287.5" cy="249.2578" fill="none" rx="3" ry="3" style="stroke:#038048;stroke-width:1.0;"/><text fill="#000000" font-family="sans-serif" font-size="14" lengthAdjust="spacing" textLength="94" x="296.5" y="252.6045">awards: array</text><line style="stroke:#181818;stroke-width:0.5;" x1="277.5" x2="486.5" y1="259.9063" y2="259.9063"/></g><!--class Localisation--><g id="elem_Localisation"><rect codeLine="21" fill="#F1F1F1" height="80.5938" id="Localisation" rx="2.5" ry="2.5" style="stroke:#181818;stroke-width:0.5;" width="218" x="523" y="121.9375"/><ellipse cx="585.25" cy="137.9375" fill="#ADD1B2" rx="11" ry="11" style="stroke:#181818;stroke-width:1.0;"/><path d="M587.5938,133.6094 C586.6563,133.1719 586.0625,133.0313 585.1875,133.0313 C582.5625,133.0313 580.5625,135.1094 580.5625,137.8281 L580.5625,138.9531 C580.5625,141.5313 582.6719,143.4219 585.5625,143.4219 C586.7813,143.4219 587.9375,143.125 588.6875,142.5781 C589.2656,142.1719 589.5938,141.7188 589.5938,141.3281 C589.5938,140.875 589.2031,140.4844 588.7344,140.4844 C588.5156,140.4844 588.3125,140.5625 588.125,140.75 C587.6719,141.2344 587.6719,141.2344 587.4844,141.3281 C587.0625,141.5938 586.375,141.7188 585.6094,141.7188 C583.5625,141.7188 582.2656,140.625 582.2656,138.9219 L582.2656,137.8281 C582.2656,136.0469 583.5156,134.7344 585.25,134.7344 C585.8281,134.7344 586.4375,134.8906 586.9063,135.1406 C587.3906,135.4219 587.5625,135.6406 587.6563,136.0469 C587.7188,136.4531 587.75,136.5781 587.8906,136.7031 C588.0313,136.8438 588.2656,136.9531 588.4844,136.9531 C588.75,136.9531 589.0156,136.8125 589.1875,136.5938 C589.2969,136.4375 589.3281,136.25 589.3281,135.8281 L589.3281,134.4063 C589.3281,133.9688 589.3125,133.8438 589.2188,133.6875 C589.0625,133.4219 588.7813,133.2813 588.4844,133.2813 C588.1875,133.2813 587.9844,133.375 587.7656,133.6875 L587.5938,133.6094 Z " fill="#000000"/><text fill="#000000" font-family="sans-serif" font-size="14" lengthAdjust="spacing" textLength="85" x="605.75" y="142.7842">Localisation</text><line style="stroke:#181818;stroke-width:0.5;" x1="524" x2="740" y1="153.9375" y2="153.9375"/><ellipse cx="534" cy="167.5859" fill="none" rx="3" ry="3" style="stroke:#038048;stroke-width:1.0;"/><text fill="#000000" font-family="sans-serif" font-size="14" lengthAdjust="spacing" textLength="192" x="543" y="170.9326">localisationReady: boolean</text><ellipse cx="534" cy="183.8828" fill="none" rx="3" ry="3" style="stroke:#038048;stroke-width:1.0;"/><text fill="#000000" font-family="sans-serif" font-size="14" lengthAdjust="spacing" textLength="183" x="543" y="187.2295">availableLanguages: array</text><line style="stroke:#181818;stroke-width:0.5;" x1="524" x2="740" y1="194.5313" y2="194.5313"/></g><!--class ApplicationSync--><g id="elem_ApplicationSync"><rect codeLine="25" fill="#F1F1F1" height="210.9688" id="ApplicationSync" rx="2.5" ry="2.5" style="stroke:#181818;stroke-width:0.5;" width="216" x="776" y="56.9375"/><ellipse cx="821.25" cy="72.9375" fill="#ADD1B2" rx="11" ry="11" style="stroke:#181818;stroke-width:1.0;"/><path d="M823.5938,68.6094 C822.6563,68.1719 822.0625,68.0313 821.1875,68.0313 C818.5625,68.0313 816.5625,70.1094 816.5625,72.8281 L816.5625,73.9531 C816.5625,76.5313 818.6719,78.4219 821.5625,78.4219 C822.7813,78.4219 823.9375,78.125 824.6875,77.5781 C825.2656,77.1719 825.5938,76.7188 825.5938,76.3281 C825.5938,75.875 825.2031,75.4844 824.7344,75.4844 C824.5156,75.4844 824.3125,75.5625 824.125,75.75 C823.6719,76.2344 823.6719,76.2344 823.4844,76.3281 C823.0625,76.5938 822.375,76.7188 821.6094,76.7188 C819.5625,76.7188 818.2656,75.625 818.2656,73.9219 L818.2656,72.8281 C818.2656,71.0469 819.5156,69.7344 821.25,69.7344 C821.8281,69.7344 822.4375,69.8906 822.9063,70.1406 C823.3906,70.4219 823.5625,70.6406 823.6563,71.0469 C823.7188,71.4531 823.75,71.5781 823.8906,71.7031 C824.0313,71.8438 824.2656,71.9531 824.4844,71.9531 C824.75,71.9531 825.0156,71.8125 825.1875,71.5938 C825.2969,71.4375 825.3281,71.25 825.3281,70.8281 L825.3281,69.4063 C825.3281,68.9688 825.3125,68.8438 825.2188,68.6875 C825.0625,68.4219 824.7813,68.2813 824.4844,68.2813 C824.1875,68.2813 823.9844,68.375 823.7656,68.6875 L823.5938,68.6094 Z " fill="#000000"/><text fill="#000000" font-family="sans-serif" font-size="14" lengthAdjust="spacing" textLength="117" x="841.75" y="77.7842">ApplicationSync</text><line style="stroke:#181818;stroke-width:0.5;" x1="777" x2="991" y1="88.9375" y2="88.9375"/><ellipse cx="787" cy="102.5859" fill="none" rx="3" ry="3" style="stroke:#038048;stroke-width:1.0;"/><text fill="#000000" font-family="sans-serif" font-size="14" lengthAdjust="spacing" textLength="91" x="796" y="105.9326">name: string</text><ellipse cx="787" cy="118.8828" fill="none" rx="3" ry="3" style="stroke:#038048;stroke-width:1.0;"/><text fill="#000000" font-family="sans-serif" font-size="14" lengthAdjust="spacing" textLength="173" x="796" y="122.2295">shortDescription: string</text><ellipse cx="787" cy="135.1797" fill="none" rx="3" ry="3" style="stroke:#038048;stroke-width:1.0;"/><text fill="#000000" font-family="sans-serif" font-size="14" lengthAdjust="spacing" textLength="133" x="796" y="138.5264">description: string</text><ellipse cx="787" cy="151.4766" fill="none" rx="3" ry="3" style="stroke:#038048;stroke-width:1.0;"/><text fill="#000000" font-family="sans-serif" font-size="14" lengthAdjust="spacing" textLength="190" x="796" y="154.8232">detailPageImageUrl: string</text><ellipse cx="787" cy="167.7734" fill="none" rx="3" ry="3" style="stroke:#038048;stroke-width:1.0;"/><text fill="#000000" font-family="sans-serif" font-size="14" lengthAdjust="spacing" textLength="180" x="796" y="171.1201">documentationUrl: string</text><ellipse cx="787" cy="184.0703" fill="none" rx="3" ry="3" style="stroke:#038048;stroke-width:1.0;"/><text fill="#000000" font-family="sans-serif" font-size="14" lengthAdjust="spacing" textLength="111" x="796" y="187.417">demoUrl: string</text><ellipse cx="787" cy="200.3672" fill="none" rx="3" ry="3" style="stroke:#038048;stroke-width:1.0;"/><text fill="#000000" font-family="sans-serif" font-size="14" lengthAdjust="spacing" textLength="168" x="796" y="203.7139">bpmnProcessUrl: string</text><ellipse cx="787" cy="216.6641" fill="none" rx="3" ry="3" style="stroke:#038048;stroke-width:1.0;"/><text fill="#000000" font-family="sans-serif" font-size="14" lengthAdjust="spacing" textLength="147" x="796" y="220.0107">isPublished: boolean</text><ellipse cx="787" cy="232.9609" fill="none" rx="3" ry="3" style="stroke:#038048;stroke-width:1.0;"/><text fill="#000000" font-family="sans-serif" font-size="14" lengthAdjust="spacing" textLength="89" x="796" y="236.3076">owner: array</text><ellipse cx="787" cy="249.2578" fill="none" rx="3" ry="3" style="stroke:#038048;stroke-width:1.0;"/><text fill="#000000" font-family="sans-serif" font-size="14" lengthAdjust="spacing" textLength="136" x="796" y="252.6045">components: array</text><line style="stroke:#181818;stroke-width:0.5;" x1="777" x2="991" y1="259.9063" y2="259.9063"/></g><!--class DependsOn--><g id="elem_DependsOn"><rect codeLine="37" fill="#F1F1F1" height="96.8906" id="DependsOn" rx="2.5" ry="2.5" style="stroke:#181818;stroke-width:0.5;" width="154" x="1027" y="113.9375"/><ellipse cx="1059.1" cy="129.9375" fill="#ADD1B2" rx="11" ry="11" style="stroke:#181818;stroke-width:1.0;"/><path d="M1061.4438,125.6094 C1060.5063,125.1719 1059.9125,125.0313 1059.0375,125.0313 C1056.4125,125.0313 1054.4125,127.1094 1054.4125,129.8281 L1054.4125,130.9531 C1054.4125,133.5313 1056.5219,135.4219 1059.4125,135.4219 C1060.6313,135.4219 1061.7875,135.125 1062.5375,134.5781 C1063.1156,134.1719 1063.4438,133.7188 1063.4438,133.3281 C1063.4438,132.875 1063.0531,132.4844 1062.5844,132.4844 C1062.3656,132.4844 1062.1625,132.5625 1061.975,132.75 C1061.5219,133.2344 1061.5219,133.2344 1061.3344,133.3281 C1060.9125,133.5938 1060.225,133.7188 1059.4594,133.7188 C1057.4125,133.7188 1056.1156,132.625 1056.1156,130.9219 L1056.1156,129.8281 C1056.1156,128.0469 1057.3656,126.7344 1059.1,126.7344 C1059.6781,126.7344 1060.2875,126.8906 1060.7563,127.1406 C1061.2406,127.4219 1061.4125,127.6406 1061.5063,128.0469 C1061.5688,128.4531 1061.6,128.5781 1061.7406,128.7031 C1061.8813,128.8438 1062.1156,128.9531 1062.3344,128.9531 C1062.6,128.9531 1062.8656,128.8125 1063.0375,128.5938 C1063.1469,128.4375 1063.1781,128.25 1063.1781,127.8281 L1063.1781,126.4063 C1063.1781,125.9688 1063.1625,125.8438 1063.0688,125.6875 C1062.9125,125.4219 1062.6313,125.2813 1062.3344,125.2813 C1062.0375,125.2813 1061.8344,125.375 1061.6156,125.6875 L1061.4438,125.6094 Z " fill="#000000"/><text fill="#000000" font-family="sans-serif" font-size="14" lengthAdjust="spacing" textLength="84" x="1076.9" y="134.7842">DependsOn</text><line style="stroke:#181818;stroke-width:0.5;" x1="1028" x2="1180" y1="145.9375" y2="145.9375"/><ellipse cx="1038" cy="159.5859" fill="none" rx="3" ry="3" style="stroke:#038048;stroke-width:1.0;"/><text fill="#000000" font-family="sans-serif" font-size="14" lengthAdjust="spacing" textLength="82" x="1047" y="162.9326">open: array</text><ellipse cx="1038" cy="175.8828" fill="none" rx="3" ry="3" style="stroke:#038048;stroke-width:1.0;"/><text fill="#000000" font-family="sans-serif" font-size="14" lengthAdjust="spacing" textLength="128" x="1047" y="179.2295">proprietary: array</text><ellipse cx="1038" cy="192.1797" fill="none" rx="3" ry="3" style="stroke:#038048;stroke-width:1.0;"/><text fill="#000000" font-family="sans-serif" font-size="14" lengthAdjust="spacing" textLength="111" x="1047" y="195.5264">hardware: array</text><line style="stroke:#181818;stroke-width:0.5;" x1="1028" x2="1180" y1="202.8281" y2="202.8281"/></g><!--class Nl--><g id="elem_Nl"><rect codeLine="42" fill="#F1F1F1" height="113.1875" id="Nl" rx="2.5" ry="2.5" style="stroke:#181818;stroke-width:0.5;" width="175" x="36.5" y="409.4375"/><ellipse cx="112.75" cy="425.4375" fill="#ADD1B2" rx="11" ry="11" style="stroke:#181818;stroke-width:1.0;"/><path d="M115.0938,421.1094 C114.1563,420.6719 113.5625,420.5313 112.6875,420.5313 C110.0625,420.5313 108.0625,422.6094 108.0625,425.3281 L108.0625,426.4531 C108.0625,429.0313 110.1719,430.9219 113.0625,430.9219 C114.2813,430.9219 115.4375,430.625 116.1875,430.0781 C116.7656,429.6719 117.0938,429.2188 117.0938,428.8281 C117.0938,428.375 116.7031,427.9844 116.2344,427.9844 C116.0156,427.9844 115.8125,428.0625 115.625,428.25 C115.1719,428.7344 115.1719,428.7344 114.9844,428.8281 C114.5625,429.0938 113.875,429.2188 113.1094,429.2188 C111.0625,429.2188 109.7656,428.125 109.7656,426.4219 L109.7656,425.3281 C109.7656,423.5469 111.0156,422.2344 112.75,422.2344 C113.3281,422.2344 113.9375,422.3906 114.4063,422.6406 C114.8906,422.9219 115.0625,423.1406 115.1563,423.5469 C115.2188,423.9531 115.25,424.0781 115.3906,424.2031 C115.5313,424.3438 115.7656,424.4531 115.9844,424.4531 C116.25,424.4531 116.5156,424.3125 116.6875,424.0938 C116.7969,423.9375 116.8281,423.75 116.8281,423.3281 L116.8281,421.9063 C116.8281,421.4688 116.8125,421.3438 116.7188,421.1875 C116.5625,420.9219 116.2813,420.7813 115.9844,420.7813 C115.6875,420.7813 115.4844,420.875 115.2656,421.1875 L115.0938,421.1094 Z " fill="#000000"/><text fill="#000000" font-family="sans-serif" font-size="14" lengthAdjust="spacing" textLength="14" x="133.25" y="430.2842">Nl</text><line style="stroke:#181818;stroke-width:0.5;" x1="37.5" x2="210.5" y1="441.4375" y2="441.4375"/><ellipse cx="47.5" cy="455.0859" fill="none" rx="3" ry="3" style="stroke:#038048;stroke-width:1.0;"/><text fill="#000000" font-family="sans-serif" font-size="14" lengthAdjust="spacing" textLength="149" x="56.5" y="458.4326">commonground: Any</text><ellipse cx="47.5" cy="471.3828" fill="none" rx="3" ry="3" style="stroke:#038048;stroke-width:1.0;"/><text fill="#000000" font-family="sans-serif" font-size="14" lengthAdjust="spacing" textLength="90" x="56.5" y="474.7295">gemma: Any</text><ellipse cx="47.5" cy="487.6797" fill="none" rx="3" ry="3" style="stroke:#038048;stroke-width:1.0;"/><text fill="#000000" font-family="sans-serif" font-size="14" lengthAdjust="spacing" textLength="88" x="56.5" y="491.0264">apm: object</text><ellipse cx="47.5" cy="503.9766" fill="none" rx="3" ry="3" style="stroke:#038048;stroke-width:1.0;"/><text fill="#000000" font-family="sans-serif" font-size="14" lengthAdjust="spacing" textLength="67" x="56.5" y="507.3232">upl: array</text><line style="stroke:#181818;stroke-width:0.5;" x1="37.5" x2="210.5" y1="514.625" y2="514.625"/></g><!--class Organisation--><g id="elem_Organisation"><rect codeLine="48" fill="#F1F1F1" height="276.1563" id="Organisation" rx="2.5" ry="2.5" style="stroke:#181818;stroke-width:0.5;" width="168" x="247" y="327.9375"/><ellipse cx="282.25" cy="343.9375" fill="#ADD1B2" rx="11" ry="11" style="stroke:#181818;stroke-width:1.0;"/><path d="M284.5938,339.6094 C283.6563,339.1719 283.0625,339.0313 282.1875,339.0313 C279.5625,339.0313 277.5625,341.1094 277.5625,343.8281 L277.5625,344.9531 C277.5625,347.5313 279.6719,349.4219 282.5625,349.4219 C283.7813,349.4219 284.9375,349.125 285.6875,348.5781 C286.2656,348.1719 286.5938,347.7188 286.5938,347.3281 C286.5938,346.875 286.2031,346.4844 285.7344,346.4844 C285.5156,346.4844 285.3125,346.5625 285.125,346.75 C284.6719,347.2344 284.6719,347.2344 284.4844,347.3281 C284.0625,347.5938 283.375,347.7188 282.6094,347.7188 C280.5625,347.7188 279.2656,346.625 279.2656,344.9219 L279.2656,343.8281 C279.2656,342.0469 280.5156,340.7344 282.25,340.7344 C282.8281,340.7344 283.4375,340.8906 283.9063,341.1406 C284.3906,341.4219 284.5625,341.6406 284.6563,342.0469 C284.7188,342.4531 284.75,342.5781 284.8906,342.7031 C285.0313,342.8438 285.2656,342.9531 285.4844,342.9531 C285.75,342.9531 286.0156,342.8125 286.1875,342.5938 C286.2969,342.4375 286.3281,342.25 286.3281,341.8281 L286.3281,340.4063 C286.3281,339.9688 286.3125,339.8438 286.2188,339.6875 C286.0625,339.4219 285.7813,339.2813 285.4844,339.2813 C285.1875,339.2813 284.9844,339.375 284.7656,339.6875 L284.5938,339.6094 Z " fill="#000000"/><text fill="#000000" font-family="sans-serif" font-size="14" lengthAdjust="spacing" textLength="91" x="300.75" y="348.7842">Organisation</text><line style="stroke:#181818;stroke-width:0.5;" x1="248" x2="414" y1="359.9375" y2="359.9375"/><ellipse cx="258" cy="373.5859" fill="none" rx="3" ry="3" style="stroke:#038048;stroke-width:1.0;"/><text fill="#000000" font-family="sans-serif" font-size="14" lengthAdjust="spacing" textLength="91" x="267" y="376.9326">name: string</text><ellipse cx="258" cy="389.8828" fill="none" rx="3" ry="3" style="stroke:#038048;stroke-width:1.0;"/><text fill="#000000" font-family="sans-serif" font-size="14" lengthAdjust="spacing" textLength="133" x="267" y="393.2295">description: string</text><ellipse cx="258" cy="406.1797" fill="none" rx="3" ry="3" style="stroke:#038048;stroke-width:1.0;"/><text fill="#000000" font-family="sans-serif" font-size="14" lengthAdjust="spacing" textLength="82" x="267" y="409.5264">logo: string</text><ellipse cx="258" cy="422.4766" fill="none" rx="3" ry="3" style="stroke:#038048;stroke-width:1.0;"/><text fill="#000000" font-family="sans-serif" font-size="14" lengthAdjust="spacing" textLength="109" x="267" y="425.8232">supports: array</text><ellipse cx="258" cy="438.7734" fill="none" rx="3" ry="3" style="stroke:#038048;stroke-width:1.0;"/><text fill="#000000" font-family="sans-serif" font-size="14" lengthAdjust="spacing" textLength="81" x="267" y="442.1201">owns: array</text><ellipse cx="258" cy="455.0703" fill="none" rx="3" ry="3" style="stroke:#038048;stroke-width:1.0;"/><text fill="#000000" font-family="sans-serif" font-size="14" lengthAdjust="spacing" textLength="76" x="267" y="458.417">uses: array</text><ellipse cx="258" cy="471.3672" fill="none" rx="3" ry="3" style="stroke:#038048;stroke-width:1.0;"/><text fill="#000000" font-family="sans-serif" font-size="14" lengthAdjust="spacing" textLength="94" x="267" y="474.7139">token: string</text><ellipse cx="258" cy="487.6641" fill="none" rx="3" ry="3" style="stroke:#038048;stroke-width:1.0;"/><text fill="#000000" font-family="sans-serif" font-size="14" lengthAdjust="spacing" textLength="98" x="267" y="491.0107">github: string</text><ellipse cx="258" cy="503.9609" fill="none" rx="3" ry="3" style="stroke:#038048;stroke-width:1.0;"/><text fill="#000000" font-family="sans-serif" font-size="14" lengthAdjust="spacing" textLength="93" x="267" y="507.3076">gitlab: string</text><ellipse cx="258" cy="520.2578" fill="none" rx="3" ry="3" style="stroke:#038048;stroke-width:1.0;"/><text fill="#000000" font-family="sans-serif" font-size="14" lengthAdjust="spacing" textLength="108" x="267" y="523.6045">website: string</text><ellipse cx="258" cy="536.5547" fill="none" rx="3" ry="3" style="stroke:#038048;stroke-width:1.0;"/><text fill="#000000" font-family="sans-serif" font-size="14" lengthAdjust="spacing" textLength="97" x="267" y="539.9014">phone: string</text><ellipse cx="258" cy="552.8516" fill="none" rx="3" ry="3" style="stroke:#038048;stroke-width:1.0;"/><text fill="#000000" font-family="sans-serif" font-size="14" lengthAdjust="spacing" textLength="90" x="267" y="556.1982">email: string</text><ellipse cx="258" cy="569.1484" fill="none" rx="3" ry="3" style="stroke:#038048;stroke-width:1.0;"/><text fill="#000000" font-family="sans-serif" font-size="14" lengthAdjust="spacing" textLength="85" x="267" y="572.4951">type: string</text><ellipse cx="258" cy="585.4453" fill="none" rx="3" ry="3" style="stroke:#038048;stroke-width:1.0;"/><text fill="#000000" font-family="sans-serif" font-size="14" lengthAdjust="spacing" textLength="142" x="267" y="588.792">catalogusAPI: string</text><line style="stroke:#181818;stroke-width:0.5;" x1="248" x2="414" y1="596.0938" y2="596.0938"/></g><!--class Maintenance--><g id="elem_Maintenance"><rect codeLine="64" fill="#F1F1F1" height="96.8906" id="Maintenance" rx="2.5" ry="2.5" style="stroke:#181818;stroke-width:0.5;" width="155" x="450.5" y="417.4375"/><ellipse cx="479.45" cy="433.4375" fill="#ADD1B2" rx="11" ry="11" style="stroke:#181818;stroke-width:1.0;"/><path d="M481.7938,429.1094 C480.8563,428.6719 480.2625,428.5313 479.3875,428.5313 C476.7625,428.5313 474.7625,430.6094 474.7625,433.3281 L474.7625,434.4531 C474.7625,437.0313 476.8719,438.9219 479.7625,438.9219 C480.9813,438.9219 482.1375,438.625 482.8875,438.0781 C483.4656,437.6719 483.7938,437.2188 483.7938,436.8281 C483.7938,436.375 483.4031,435.9844 482.9344,435.9844 C482.7156,435.9844 482.5125,436.0625 482.325,436.25 C481.8719,436.7344 481.8719,436.7344 481.6844,436.8281 C481.2625,437.0938 480.575,437.2188 479.8094,437.2188 C477.7625,437.2188 476.4656,436.125 476.4656,434.4219 L476.4656,433.3281 C476.4656,431.5469 477.7156,430.2344 479.45,430.2344 C480.0281,430.2344 480.6375,430.3906 481.1063,430.6406 C481.5906,430.9219 481.7625,431.1406 481.8563,431.5469 C481.9188,431.9531 481.95,432.0781 482.0906,432.2031 C482.2313,432.3438 482.4656,432.4531 482.6844,432.4531 C482.95,432.4531 483.2156,432.3125 483.3875,432.0938 C483.4969,431.9375 483.5281,431.75 483.5281,431.3281 L483.5281,429.9063 C483.5281,429.4688 483.5125,429.3438 483.4188,429.1875 C483.2625,428.9219 482.9813,428.7813 482.6844,428.7813 C482.3875,428.7813 482.1844,428.875 481.9656,429.1875 L481.7938,429.1094 Z " fill="#000000"/><text fill="#000000" font-family="sans-serif" font-size="14" lengthAdjust="spacing" textLength="92" x="496.55" y="438.2842">Maintenance</text><line style="stroke:#181818;stroke-width:0.5;" x1="451.5" x2="604.5" y1="449.4375" y2="449.4375"/><ellipse cx="461.5" cy="463.0859" fill="none" rx="3" ry="3" style="stroke:#038048;stroke-width:1.0;"/><text fill="#000000" font-family="sans-serif" font-size="14" lengthAdjust="spacing" textLength="85" x="470.5" y="466.4326">type: string</text><ellipse cx="461.5" cy="479.3828" fill="none" rx="3" ry="3" style="stroke:#038048;stroke-width:1.0;"/><text fill="#000000" font-family="sans-serif" font-size="14" lengthAdjust="spacing" textLength="129" x="470.5" y="482.7295">contractors: array</text><ellipse cx="461.5" cy="495.6797" fill="none" rx="3" ry="3" style="stroke:#038048;stroke-width:1.0;"/><text fill="#000000" font-family="sans-serif" font-size="14" lengthAdjust="spacing" textLength="108" x="470.5" y="499.0264">contacts: array</text><line style="stroke:#181818;stroke-width:0.5;" x1="451.5" x2="604.5" y1="506.3281" y2="506.3281"/></g><!--class Application--><g id="elem_Application"><rect codeLine="69" fill="#F1F1F1" height="210.9688" id="Application" rx="2.5" ry="2.5" style="stroke:#181818;stroke-width:0.5;" width="216" x="641" y="360.4375"/><ellipse cx="703.25" cy="376.4375" fill="#ADD1B2" rx="11" ry="11" style="stroke:#181818;stroke-width:1.0;"/><path d="M705.5938,372.1094 C704.6563,371.6719 704.0625,371.5313 703.1875,371.5313 C700.5625,371.5313 698.5625,373.6094 698.5625,376.3281 L698.5625,377.4531 C698.5625,380.0313 700.6719,381.9219 703.5625,381.9219 C704.7813,381.9219 705.9375,381.625 706.6875,381.0781 C707.2656,380.6719 707.5938,380.2188 707.5938,379.8281 C707.5938,379.375 707.2031,378.9844 706.7344,378.9844 C706.5156,378.9844 706.3125,379.0625 706.125,379.25 C705.6719,379.7344 705.6719,379.7344 705.4844,379.8281 C705.0625,380.0938 704.375,380.2188 703.6094,380.2188 C701.5625,380.2188 700.2656,379.125 700.2656,377.4219 L700.2656,376.3281 C700.2656,374.5469 701.5156,373.2344 703.25,373.2344 C703.8281,373.2344 704.4375,373.3906 704.9063,373.6406 C705.3906,373.9219 705.5625,374.1406 705.6563,374.5469 C705.7188,374.9531 705.75,375.0781 705.8906,375.2031 C706.0313,375.3438 706.2656,375.4531 706.4844,375.4531 C706.75,375.4531 707.0156,375.3125 707.1875,375.0938 C707.2969,374.9375 707.3281,374.75 707.3281,374.3281 L707.3281,372.9063 C707.3281,372.4688 707.3125,372.3438 707.2188,372.1875 C707.0625,371.9219 706.7813,371.7813 706.4844,371.7813 C706.1875,371.7813 705.9844,371.875 705.7656,372.1875 L705.5938,372.1094 Z " fill="#000000"/><text fill="#000000" font-family="sans-serif" font-size="14" lengthAdjust="spacing" textLength="83" x="723.75" y="381.2842">Application</text><line style="stroke:#181818;stroke-width:0.5;" x1="642" x2="856" y1="392.4375" y2="392.4375"/><ellipse cx="652" cy="406.0859" fill="none" rx="3" ry="3" style="stroke:#038048;stroke-width:1.0;"/><text fill="#000000" font-family="sans-serif" font-size="14" lengthAdjust="spacing" textLength="91" x="661" y="409.4326">name: string</text><ellipse cx="652" cy="422.3828" fill="none" rx="3" ry="3" style="stroke:#038048;stroke-width:1.0;"/><text fill="#000000" font-family="sans-serif" font-size="14" lengthAdjust="spacing" textLength="173" x="661" y="425.7295">shortDescription: string</text><ellipse cx="652" cy="438.6797" fill="none" rx="3" ry="3" style="stroke:#038048;stroke-width:1.0;"/><text fill="#000000" font-family="sans-serif" font-size="14" lengthAdjust="spacing" textLength="133" x="661" y="442.0264">description: string</text><ellipse cx="652" cy="454.9766" fill="none" rx="3" ry="3" style="stroke:#038048;stroke-width:1.0;"/><text fill="#000000" font-family="sans-serif" font-size="14" lengthAdjust="spacing" textLength="190" x="661" y="458.3232">detailPageImageUrl: string</text><ellipse cx="652" cy="471.2734" fill="none" rx="3" ry="3" style="stroke:#038048;stroke-width:1.0;"/><text fill="#000000" font-family="sans-serif" font-size="14" lengthAdjust="spacing" textLength="180" x="661" y="474.6201">documentationUrl: string</text><ellipse cx="652" cy="487.5703" fill="none" rx="3" ry="3" style="stroke:#038048;stroke-width:1.0;"/><text fill="#000000" font-family="sans-serif" font-size="14" lengthAdjust="spacing" textLength="111" x="661" y="490.917">demoUrl: string</text><ellipse cx="652" cy="503.8672" fill="none" rx="3" ry="3" style="stroke:#038048;stroke-width:1.0;"/><text fill="#000000" font-family="sans-serif" font-size="14" lengthAdjust="spacing" textLength="168" x="661" y="507.2139">bpmnProcessUrl: string</text><ellipse cx="652" cy="520.1641" fill="none" rx="3" ry="3" style="stroke:#038048;stroke-width:1.0;"/><text fill="#000000" font-family="sans-serif" font-size="14" lengthAdjust="spacing" textLength="147" x="661" y="523.5107">isPublished: boolean</text><ellipse cx="652" cy="536.4609" fill="none" rx="3" ry="3" style="stroke:#038048;stroke-width:1.0;"/><text fill="#000000" font-family="sans-serif" font-size="14" lengthAdjust="spacing" textLength="80" x="661" y="539.8076">owner: Any</text><ellipse cx="652" cy="552.7578" fill="none" rx="3" ry="3" style="stroke:#038048;stroke-width:1.0;"/><text fill="#000000" font-family="sans-serif" font-size="14" lengthAdjust="spacing" textLength="136" x="661" y="556.1045">components: array</text><line style="stroke:#181818;stroke-width:0.5;" x1="642" x2="856" y1="563.4063" y2="563.4063"/></g><!--class Source--><g id="elem_Source"><rect codeLine="81" fill="#F1F1F1" height="96.8906" id="Source" rx="2.5" ry="2.5" style="stroke:#181818;stroke-width:0.5;" width="159" x="892.5" y="417.4375"/><ellipse cx="943.25" cy="433.4375" fill="#ADD1B2" rx="11" ry="11" style="stroke:#181818;stroke-width:1.0;"/><path d="M945.5938,429.1094 C944.6563,428.6719 944.0625,428.5313 943.1875,428.5313 C940.5625,428.5313 938.5625,430.6094 938.5625,433.3281 L938.5625,434.4531 C938.5625,437.0313 940.6719,438.9219 943.5625,438.9219 C944.7813,438.9219 945.9375,438.625 946.6875,438.0781 C947.2656,437.6719 947.5938,437.2188 947.5938,436.8281 C947.5938,436.375 947.2031,435.9844 946.7344,435.9844 C946.5156,435.9844 946.3125,436.0625 946.125,436.25 C945.6719,436.7344 945.6719,436.7344 945.4844,436.8281 C945.0625,437.0938 944.375,437.2188 943.6094,437.2188 C941.5625,437.2188 940.2656,436.125 940.2656,434.4219 L940.2656,433.3281 C940.2656,431.5469 941.5156,430.2344 943.25,430.2344 C943.8281,430.2344 944.4375,430.3906 944.9063,430.6406 C945.3906,430.9219 945.5625,431.1406 945.6563,431.5469 C945.7188,431.9531 945.75,432.0781 945.8906,432.2031 C946.0313,432.3438 946.2656,432.4531 946.4844,432.4531 C946.75,432.4531 947.0156,432.3125 947.1875,432.0938 C947.2969,431.9375 947.3281,431.75 947.3281,431.3281 L947.3281,429.9063 C947.3281,429.4688 947.3125,429.3438 947.2188,429.1875 C947.0625,428.9219 946.7813,428.7813 946.4844,428.7813 C946.1875,428.7813 945.9844,428.875 945.7656,429.1875 L945.5938,429.1094 Z " fill="#000000"/><text fill="#000000" font-family="sans-serif" font-size="14" lengthAdjust="spacing" textLength="49" x="963.75" y="438.2842">Source</text><line style="stroke:#181818;stroke-width:0.5;" x1="893.5" x2="1050.5" y1="449.4375" y2="449.4375"/><ellipse cx="903.5" cy="463.0859" fill="none" rx="3" ry="3" style="stroke:#038048;stroke-width:1.0;"/><text fill="#000000" font-family="sans-serif" font-size="14" lengthAdjust="spacing" textLength="91" x="912.5" y="466.4326">name: string</text><ellipse cx="903.5" cy="479.3828" fill="none" rx="3" ry="3" style="stroke:#038048;stroke-width:1.0;"/><text fill="#000000" font-family="sans-serif" font-size="14" lengthAdjust="spacing" textLength="133" x="912.5" y="482.7295">description: string</text><ellipse cx="903.5" cy="495.6797" fill="none" rx="3" ry="3" style="stroke:#038048;stroke-width:1.0;"/><text fill="#000000" font-family="sans-serif" font-size="14" lengthAdjust="spacing" textLength="109" x="912.5" y="499.0264">location: string</text><line style="stroke:#181818;stroke-width:0.5;" x1="893.5" x2="1050.5" y1="506.3281" y2="506.3281"/></g><!--class Owner--><g id="elem_Owner"><rect codeLine="86" fill="#F1F1F1" height="96.8906" id="Owner" rx="2.5" ry="2.5" style="stroke:#181818;stroke-width:0.5;" width="148" x="50" y="842.9375"/><ellipse cx="96.75" cy="858.9375" fill="#ADD1B2" rx="11" ry="11" style="stroke:#181818;stroke-width:1.0;"/><path d="M99.0938,854.6094 C98.1563,854.1719 97.5625,854.0313 96.6875,854.0313 C94.0625,854.0313 92.0625,856.1094 92.0625,858.8281 L92.0625,859.9531 C92.0625,862.5313 94.1719,864.4219 97.0625,864.4219 C98.2813,864.4219 99.4375,864.125 100.1875,863.5781 C100.7656,863.1719 101.0938,862.7188 101.0938,862.3281 C101.0938,861.875 100.7031,861.4844 100.2344,861.4844 C100.0156,861.4844 99.8125,861.5625 99.625,861.75 C99.1719,862.2344 99.1719,862.2344 98.9844,862.3281 C98.5625,862.5938 97.875,862.7188 97.1094,862.7188 C95.0625,862.7188 93.7656,861.625 93.7656,859.9219 L93.7656,858.8281 C93.7656,857.0469 95.0156,855.7344 96.75,855.7344 C97.3281,855.7344 97.9375,855.8906 98.4063,856.1406 C98.8906,856.4219 99.0625,856.6406 99.1563,857.0469 C99.2188,857.4531 99.25,857.5781 99.3906,857.7031 C99.5313,857.8438 99.7656,857.9531 99.9844,857.9531 C100.25,857.9531 100.5156,857.8125 100.6875,857.5938 C100.7969,857.4375 100.8281,857.25 100.8281,856.8281 L100.8281,855.4063 C100.8281,854.9688 100.8125,854.8438 100.7188,854.6875 C100.5625,854.4219 100.2813,854.2813 99.9844,854.2813 C99.6875,854.2813 99.4844,854.375 99.2656,854.6875 L99.0938,854.6094 Z " fill="#000000"/><text fill="#000000" font-family="sans-serif" font-size="14" lengthAdjust="spacing" textLength="46" x="117.25" y="863.7842">Owner</text><line style="stroke:#181818;stroke-width:0.5;" x1="51" x2="197" y1="874.9375" y2="874.9375"/><ellipse cx="61" cy="888.5859" fill="none" rx="3" ry="3" style="stroke:#038048;stroke-width:1.0;"/><text fill="#000000" font-family="sans-serif" font-size="14" lengthAdjust="spacing" textLength="114" x="70" y="891.9326">fullName: string</text><ellipse cx="61" cy="904.8828" fill="none" rx="3" ry="3" style="stroke:#038048;stroke-width:1.0;"/><text fill="#000000" font-family="sans-serif" font-size="14" lengthAdjust="spacing" textLength="90" x="70" y="908.2295">email: string</text><ellipse cx="61" cy="921.1797" fill="none" rx="3" ry="3" style="stroke:#038048;stroke-width:1.0;"/><text fill="#000000" font-family="sans-serif" font-size="14" lengthAdjust="spacing" textLength="122" x="70" y="924.5264">pictureUrl: string</text><line style="stroke:#181818;stroke-width:0.5;" x1="51" x2="197" y1="931.8281" y2="931.8281"/></g><!--class Installation--><g id="elem_Installation"><rect codeLine="91" fill="#F1F1F1" height="113.1875" id="Installation" rx="2.5" ry="2.5" style="stroke:#181818;stroke-width:0.5;" width="170" x="233" y="834.9375"/><ellipse cx="274.1" cy="850.9375" fill="#ADD1B2" rx="11" ry="11" style="stroke:#181818;stroke-width:1.0;"/><path d="M276.4438,846.6094 C275.5063,846.1719 274.9125,846.0313 274.0375,846.0313 C271.4125,846.0313 269.4125,848.1094 269.4125,850.8281 L269.4125,851.9531 C269.4125,854.5313 271.5219,856.4219 274.4125,856.4219 C275.6313,856.4219 276.7875,856.125 277.5375,855.5781 C278.1156,855.1719 278.4438,854.7188 278.4438,854.3281 C278.4438,853.875 278.0531,853.4844 277.5844,853.4844 C277.3656,853.4844 277.1625,853.5625 276.975,853.75 C276.5219,854.2344 276.5219,854.2344 276.3344,854.3281 C275.9125,854.5938 275.225,854.7188 274.4594,854.7188 C272.4125,854.7188 271.1156,853.625 271.1156,851.9219 L271.1156,850.8281 C271.1156,849.0469 272.3656,847.7344 274.1,847.7344 C274.6781,847.7344 275.2875,847.8906 275.7563,848.1406 C276.2406,848.4219 276.4125,848.6406 276.5063,849.0469 C276.5688,849.4531 276.6,849.5781 276.7406,849.7031 C276.8813,849.8438 277.1156,849.9531 277.3344,849.9531 C277.6,849.9531 277.8656,849.8125 278.0375,849.5938 C278.1469,849.4375 278.1781,849.25 278.1781,848.8281 L278.1781,847.4063 C278.1781,846.9688 278.1625,846.8438 278.0688,846.6875 C277.9125,846.4219 277.6313,846.2813 277.3344,846.2813 C277.0375,846.2813 276.8344,846.375 276.6156,846.6875 L276.4438,846.6094 Z " fill="#000000"/><text fill="#000000" font-family="sans-serif" font-size="14" lengthAdjust="spacing" textLength="80" x="293.9" y="855.7842">Installation</text><line style="stroke:#181818;stroke-width:0.5;" x1="234" x2="402" y1="866.9375" y2="866.9375"/><ellipse cx="244" cy="880.5859" fill="none" rx="3" ry="3" style="stroke:#038048;stroke-width:1.0;"/><text fill="#000000" font-family="sans-serif" font-size="14" lengthAdjust="spacing" textLength="141" x="253" y="883.9326">organization: string</text><ellipse cx="244" cy="896.8828" fill="none" rx="3" ry="3" style="stroke:#038048;stroke-width:1.0;"/><text fill="#000000" font-family="sans-serif" font-size="14" lengthAdjust="spacing" textLength="135" x="253" y="900.2295">component: string</text><ellipse cx="244" cy="913.1797" fill="none" rx="3" ry="3" style="stroke:#038048;stroke-width:1.0;"/><text fill="#000000" font-family="sans-serif" font-size="14" lengthAdjust="spacing" textLength="103" x="253" y="916.5264">version: string</text><ellipse cx="244" cy="929.4766" fill="none" rx="3" ry="3" style="stroke:#038048;stroke-width:1.0;"/><text fill="#000000" font-family="sans-serif" font-size="14" lengthAdjust="spacing" textLength="144" x="253" y="932.8232">environment: string</text><line style="stroke:#181818;stroke-width:0.5;" x1="234" x2="402" y1="940.125" y2="940.125"/></g><!--class Contractor--><g id="elem_Contractor"><rect codeLine="97" fill="#F1F1F1" height="80.5938" id="Contractor" rx="2.5" ry="2.5" style="stroke:#181818;stroke-width:0.5;" width="151" x="438.5" y="850.9375"/><ellipse cx="471.5" cy="866.9375" fill="#ADD1B2" rx="11" ry="11" style="stroke:#181818;stroke-width:1.0;"/><path d="M473.8438,862.6094 C472.9063,862.1719 472.3125,862.0313 471.4375,862.0313 C468.8125,862.0313 466.8125,864.1094 466.8125,866.8281 L466.8125,867.9531 C466.8125,870.5313 468.9219,872.4219 471.8125,872.4219 C473.0313,872.4219 474.1875,872.125 474.9375,871.5781 C475.5156,871.1719 475.8438,870.7188 475.8438,870.3281 C475.8438,869.875 475.4531,869.4844 474.9844,869.4844 C474.7656,869.4844 474.5625,869.5625 474.375,869.75 C473.9219,870.2344 473.9219,870.2344 473.7344,870.3281 C473.3125,870.5938 472.625,870.7188 471.8594,870.7188 C469.8125,870.7188 468.5156,869.625 468.5156,867.9219 L468.5156,866.8281 C468.5156,865.0469 469.7656,863.7344 471.5,863.7344 C472.0781,863.7344 472.6875,863.8906 473.1563,864.1406 C473.6406,864.4219 473.8125,864.6406 473.9063,865.0469 C473.9688,865.4531 474,865.5781 474.1406,865.7031 C474.2813,865.8438 474.5156,865.9531 474.7344,865.9531 C475,865.9531 475.2656,865.8125 475.4375,865.5938 C475.5469,865.4375 475.5781,865.25 475.5781,864.8281 L475.5781,863.4063 C475.5781,862.9688 475.5625,862.8438 475.4688,862.6875 C475.3125,862.4219 475.0313,862.2813 474.7344,862.2813 C474.4375,862.2813 474.2344,862.375 474.0156,862.6875 L473.8438,862.6094 Z " fill="#000000"/><text fill="#000000" font-family="sans-serif" font-size="14" lengthAdjust="spacing" textLength="79" x="489.5" y="871.7842">Contractor</text><line style="stroke:#181818;stroke-width:0.5;" x1="439.5" x2="588.5" y1="882.9375" y2="882.9375"/><ellipse cx="449.5" cy="896.5859" fill="none" rx="3" ry="3" style="stroke:#038048;stroke-width:1.0;"/><text fill="#000000" font-family="sans-serif" font-size="14" lengthAdjust="spacing" textLength="125" x="458.5" y="899.9326">organisation: Any</text><ellipse cx="449.5" cy="912.8828" fill="none" rx="3" ry="3" style="stroke:#038048;stroke-width:1.0;"/><text fill="#000000" font-family="sans-serif" font-size="14" lengthAdjust="spacing" textLength="83" x="458.5" y="916.2295">until: string</text><line style="stroke:#181818;stroke-width:0.5;" x1="439.5" x2="588.5" y1="923.5313" y2="923.5313"/></g><!--class IntendedAudience--><g id="elem_IntendedAudience"><rect codeLine="101" fill="#F1F1F1" height="96.8906" id="IntendedAudience" rx="2.5" ry="2.5" style="stroke:#181818;stroke-width:0.5;" width="232" x="625" y="842.9375"/><ellipse cx="671.25" cy="858.9375" fill="#ADD1B2" rx="11" ry="11" style="stroke:#181818;stroke-width:1.0;"/><path d="M673.5938,854.6094 C672.6563,854.1719 672.0625,854.0313 671.1875,854.0313 C668.5625,854.0313 666.5625,856.1094 666.5625,858.8281 L666.5625,859.9531 C666.5625,862.5313 668.6719,864.4219 671.5625,864.4219 C672.7813,864.4219 673.9375,864.125 674.6875,863.5781 C675.2656,863.1719 675.5938,862.7188 675.5938,862.3281 C675.5938,861.875 675.2031,861.4844 674.7344,861.4844 C674.5156,861.4844 674.3125,861.5625 674.125,861.75 C673.6719,862.2344 673.6719,862.2344 673.4844,862.3281 C673.0625,862.5938 672.375,862.7188 671.6094,862.7188 C669.5625,862.7188 668.2656,861.625 668.2656,859.9219 L668.2656,858.8281 C668.2656,857.0469 669.5156,855.7344 671.25,855.7344 C671.8281,855.7344 672.4375,855.8906 672.9063,856.1406 C673.3906,856.4219 673.5625,856.6406 673.6563,857.0469 C673.7188,857.4531 673.75,857.5781 673.8906,857.7031 C674.0313,857.8438 674.2656,857.9531 674.4844,857.9531 C674.75,857.9531 675.0156,857.8125 675.1875,857.5938 C675.2969,857.4375 675.3281,857.25 675.3281,856.8281 L675.3281,855.4063 C675.3281,854.9688 675.3125,854.8438 675.2188,854.6875 C675.0625,854.4219 674.7813,854.2813 674.4844,854.2813 C674.1875,854.2813 673.9844,854.375 673.7656,854.6875 L673.5938,854.6094 Z " fill="#000000"/><text fill="#000000" font-family="sans-serif" font-size="14" lengthAdjust="spacing" textLength="131" x="691.75" y="863.7842">IntendedAudience</text><line style="stroke:#181818;stroke-width:0.5;" x1="626" x2="856" y1="874.9375" y2="874.9375"/><ellipse cx="636" cy="888.5859" fill="none" rx="3" ry="3" style="stroke:#038048;stroke-width:1.0;"/><text fill="#000000" font-family="sans-serif" font-size="14" lengthAdjust="spacing" textLength="112" x="645" y="891.9326">countries: array</text><ellipse cx="636" cy="904.8828" fill="none" rx="3" ry="3" style="stroke:#038048;stroke-width:1.0;"/><text fill="#000000" font-family="sans-serif" font-size="14" lengthAdjust="spacing" textLength="206" x="645" y="908.2295">unsupportedCountries: array</text><ellipse cx="636" cy="921.1797" fill="none" rx="3" ry="3" style="stroke:#038048;stroke-width:1.0;"/><text fill="#000000" font-family="sans-serif" font-size="14" lengthAdjust="spacing" textLength="88" x="645" y="924.5264">scope: array</text><line style="stroke:#181818;stroke-width:0.5;" x1="626" x2="856" y1="931.8281" y2="931.8281"/></g><!--class Component--><g id="elem_Component"><rect codeLine="106" fill="#F1F1F1" height="455.4219" id="Component" rx="2.5" ry="2.5" style="stroke:#181818;stroke-width:0.5;" width="220" x="892" y="663.9375"/><ellipse cx="954.75" cy="679.9375" fill="#ADD1B2" rx="11" ry="11" style="stroke:#181818;stroke-width:1.0;"/><path d="M957.0938,675.6094 C956.1563,675.1719 955.5625,675.0313 954.6875,675.0313 C952.0625,675.0313 950.0625,677.1094 950.0625,679.8281 L950.0625,680.9531 C950.0625,683.5313 952.1719,685.4219 955.0625,685.4219 C956.2813,685.4219 957.4375,685.125 958.1875,684.5781 C958.7656,684.1719 959.0938,683.7188 959.0938,683.3281 C959.0938,682.875 958.7031,682.4844 958.2344,682.4844 C958.0156,682.4844 957.8125,682.5625 957.625,682.75 C957.1719,683.2344 957.1719,683.2344 956.9844,683.3281 C956.5625,683.5938 955.875,683.7188 955.1094,683.7188 C953.0625,683.7188 951.7656,682.625 951.7656,680.9219 L951.7656,679.8281 C951.7656,678.0469 953.0156,676.7344 954.75,676.7344 C955.3281,676.7344 955.9375,676.8906 956.4063,677.1406 C956.8906,677.4219 957.0625,677.6406 957.1563,678.0469 C957.2188,678.4531 957.25,678.5781 957.3906,678.7031 C957.5313,678.8438 957.7656,678.9531 957.9844,678.9531 C958.25,678.9531 958.5156,678.8125 958.6875,678.5938 C958.7969,678.4375 958.8281,678.25 958.8281,677.8281 L958.8281,676.4063 C958.8281,675.9688 958.8125,675.8438 958.7188,675.6875 C958.5625,675.4219 958.2813,675.2813 957.9844,675.2813 C957.6875,675.2813 957.4844,675.375 957.2656,675.6875 L957.0938,675.6094 Z " fill="#000000"/><text fill="#000000" font-family="sans-serif" font-size="14" lengthAdjust="spacing" textLength="86" x="975.25" y="684.7842">Component</text><line style="stroke:#181818;stroke-width:0.5;" x1="893" x2="1111" y1="695.9375" y2="695.9375"/><ellipse cx="903" cy="709.5859" fill="none" rx="3" ry="3" style="stroke:#038048;stroke-width:1.0;"/><text fill="#000000" font-family="sans-serif" font-size="14" lengthAdjust="spacing" textLength="145" x="912" y="712.9326">applicationId: string</text><ellipse cx="903" cy="725.8828" fill="none" rx="3" ry="3" style="stroke:#038048;stroke-width:1.0;"/><text fill="#000000" font-family="sans-serif" font-size="14" lengthAdjust="spacing" textLength="91" x="912" y="729.2295">name: string</text><ellipse cx="903" cy="742.1797" fill="none" rx="3" ry="3" style="stroke:#038048;stroke-width:1.0;"/><text fill="#000000" font-family="sans-serif" font-size="14" lengthAdjust="spacing" textLength="154" x="912" y="745.5264">applicationSuite: Any</text><ellipse cx="903" cy="758.4766" fill="none" rx="3" ry="3" style="stroke:#038048;stroke-width:1.0;"/><text fill="#000000" font-family="sans-serif" font-size="14" lengthAdjust="spacing" textLength="54" x="912" y="761.8232">url: Any</text><ellipse cx="903" cy="774.7734" fill="none" rx="3" ry="3" style="stroke:#038048;stroke-width:1.0;"/><text fill="#000000" font-family="sans-serif" font-size="14" lengthAdjust="spacing" textLength="130" x="912" y="778.1201">landingURL: string</text><ellipse cx="903" cy="791.0703" fill="none" rx="3" ry="3" style="stroke:#038048;stroke-width:1.0;"/><text fill="#000000" font-family="sans-serif" font-size="14" lengthAdjust="spacing" textLength="125" x="912" y="794.417">isBasedOn: string</text><ellipse cx="903" cy="807.3672" fill="none" rx="3" ry="3" style="stroke:#038048;stroke-width:1.0;"/><text fill="#000000" font-family="sans-serif" font-size="14" lengthAdjust="spacing" textLength="168" x="912" y="810.7139">softwareVersion: string</text><ellipse cx="903" cy="823.6641" fill="none" rx="3" ry="3" style="stroke:#038048;stroke-width:1.0;"/><text fill="#000000" font-family="sans-serif" font-size="14" lengthAdjust="spacing" textLength="138" x="912" y="827.0107">releaseDate: string</text><ellipse cx="903" cy="839.9609" fill="none" rx="3" ry="3" style="stroke:#038048;stroke-width:1.0;"/><text fill="#000000" font-family="sans-serif" font-size="14" lengthAdjust="spacing" textLength="82" x="912" y="843.3076">logo: string</text><ellipse cx="903" cy="856.2578" fill="none" rx="3" ry="3" style="stroke:#038048;stroke-width:1.0;"/><text fill="#000000" font-family="sans-serif" font-size="14" lengthAdjust="spacing" textLength="116" x="912" y="859.6045">platforms: array</text><ellipse cx="903" cy="872.5547" fill="none" rx="3" ry="3" style="stroke:#038048;stroke-width:1.0;"/><text fill="#000000" font-family="sans-serif" font-size="14" lengthAdjust="spacing" textLength="121" x="912" y="875.9014">categories: array</text><ellipse cx="903" cy="888.8516" fill="none" rx="3" ry="3" style="stroke:#038048;stroke-width:1.0;"/><text fill="#000000" font-family="sans-serif" font-size="14" lengthAdjust="spacing" textLength="96" x="912" y="892.1982">usedBy: array</text><ellipse cx="903" cy="905.1484" fill="none" rx="3" ry="3" style="stroke:#038048;stroke-width:1.0;"/><text fill="#000000" font-family="sans-serif" font-size="14" lengthAdjust="spacing" textLength="115" x="912" y="908.4951">roadmap: string</text><ellipse cx="903" cy="921.4453" fill="none" rx="3" ry="3" style="stroke:#038048;stroke-width:1.0;"/><text fill="#000000" font-family="sans-serif" font-size="14" lengthAdjust="spacing" textLength="194" x="912" y="924.792">developmentStatus: string</text><ellipse cx="903" cy="937.7422" fill="none" rx="3" ry="3" style="stroke:#038048;stroke-width:1.0;"/><text fill="#000000" font-family="sans-serif" font-size="14" lengthAdjust="spacing" textLength="150" x="912" y="941.0889">softwareType: string</text><ellipse cx="903" cy="954.0391" fill="none" rx="3" ry="3" style="stroke:#038048;stroke-width:1.0;"/><text fill="#000000" font-family="sans-serif" font-size="14" lengthAdjust="spacing" textLength="167" x="912" y="957.3857">intendedAudience: Any</text><ellipse cx="903" cy="970.3359" fill="none" rx="3" ry="3" style="stroke:#038048;stroke-width:1.0;"/><text fill="#000000" font-family="sans-serif" font-size="14" lengthAdjust="spacing" textLength="118" x="912" y="973.6826">description: Any</text><ellipse cx="903" cy="986.6328" fill="none" rx="3" ry="3" style="stroke:#038048;stroke-width:1.0;"/><text fill="#000000" font-family="sans-serif" font-size="14" lengthAdjust="spacing" textLength="70" x="912" y="989.9795">legal: Any</text><ellipse cx="903" cy="1002.9297" fill="none" rx="3" ry="3" style="stroke:#038048;stroke-width:1.0;"/><text fill="#000000" font-family="sans-serif" font-size="14" lengthAdjust="spacing" textLength="130" x="912" y="1006.2764">maintenance: Any</text><ellipse cx="903" cy="1019.2266" fill="none" rx="3" ry="3" style="stroke:#038048;stroke-width:1.0;"/><text fill="#000000" font-family="sans-serif" font-size="14" lengthAdjust="spacing" textLength="117" x="912" y="1022.5732">localisation: Any</text><ellipse cx="903" cy="1035.5234" fill="none" rx="3" ry="3" style="stroke:#038048;stroke-width:1.0;"/><text fill="#000000" font-family="sans-serif" font-size="14" lengthAdjust="spacing" textLength="118" x="912" y="1038.8701">dependsOn: Any</text><ellipse cx="903" cy="1051.8203" fill="none" rx="3" ry="3" style="stroke:#038048;stroke-width:1.0;"/><text fill="#000000" font-family="sans-serif" font-size="14" lengthAdjust="spacing" textLength="49" x="912" y="1055.167">nl: Any</text><ellipse cx="903" cy="1068.1172" fill="none" rx="3" ry="3" style="stroke:#038048;stroke-width:1.0;"/><text fill="#000000" font-family="sans-serif" font-size="14" lengthAdjust="spacing" textLength="126" x="912" y="1071.4639">inputTypes: array</text><ellipse cx="903" cy="1084.4141" fill="none" rx="3" ry="3" style="stroke:#038048;stroke-width:1.0;"/><text fill="#000000" font-family="sans-serif" font-size="14" lengthAdjust="spacing" textLength="137" x="912" y="1087.7607">outputTypes: array</text><ellipse cx="903" cy="1100.7109" fill="none" rx="3" ry="3" style="stroke:#038048;stroke-width:1.0;"/><text fill="#000000" font-family="sans-serif" font-size="14" lengthAdjust="spacing" textLength="79" x="912" y="1104.0576">rating: Any</text><line style="stroke:#181818;stroke-width:0.5;" x1="893" x2="1111" y1="1111.3594" y2="1111.3594"/></g><!--class GithubEvent--><g id="elem_GithubEvent"><rect codeLine="133" fill="#F1F1F1" height="64.2969" id="GithubEvent" rx="2.5" ry="2.5" style="stroke:#181818;stroke-width:0.5;" width="124" x="62" y="1301.4375"/><ellipse cx="77.45" cy="1317.4375" fill="#ADD1B2" rx="11" ry="11" style="stroke:#181818;stroke-width:1.0;"/><path d="M79.7938,1313.1094 C78.8563,1312.6719 78.2625,1312.5313 77.3875,1312.5313 C74.7625,1312.5313 72.7625,1314.6094 72.7625,1317.3281 L72.7625,1318.4531 C72.7625,1321.0313 74.8719,1322.9219 77.7625,1322.9219 C78.9813,1322.9219 80.1375,1322.625 80.8875,1322.0781 C81.4656,1321.6719 81.7938,1321.2188 81.7938,1320.8281 C81.7938,1320.375 81.4031,1319.9844 80.9344,1319.9844 C80.7156,1319.9844 80.5125,1320.0625 80.325,1320.25 C79.8719,1320.7344 79.8719,1320.7344 79.6844,1320.8281 C79.2625,1321.0938 78.575,1321.2188 77.8094,1321.2188 C75.7625,1321.2188 74.4656,1320.125 74.4656,1318.4219 L74.4656,1317.3281 C74.4656,1315.5469 75.7156,1314.2344 77.45,1314.2344 C78.0281,1314.2344 78.6375,1314.3906 79.1063,1314.6406 C79.5906,1314.9219 79.7625,1315.1406 79.8563,1315.5469 C79.9188,1315.9531 79.95,1316.0781 80.0906,1316.2031 C80.2313,1316.3438 80.4656,1316.4531 80.6844,1316.4531 C80.95,1316.4531 81.2156,1316.3125 81.3875,1316.0938 C81.4969,1315.9375 81.5281,1315.75 81.5281,1315.3281 L81.5281,1313.9063 C81.5281,1313.4688 81.5125,1313.3438 81.4188,1313.1875 C81.2625,1312.9219 80.9813,1312.7813 80.6844,1312.7813 C80.3875,1312.7813 80.1844,1312.875 79.9656,1313.1875 L79.7938,1313.1094 Z " fill="#000000"/><text fill="#000000" font-family="sans-serif" font-size="14" lengthAdjust="spacing" textLength="91" x="91.55" y="1322.2842">GithubEvent</text><line style="stroke:#181818;stroke-width:0.5;" x1="63" x2="185" y1="1333.4375" y2="1333.4375"/><ellipse cx="73" cy="1347.0859" fill="none" rx="3" ry="3" style="stroke:#038048;stroke-width:1.0;"/><text fill="#000000" font-family="sans-serif" font-size="14" lengthAdjust="spacing" textLength="98" x="82" y="1350.4326">source: string</text><line style="stroke:#181818;stroke-width:0.5;" x1="63" x2="185" y1="1357.7344" y2="1357.7344"/></g><!--class Gemma--><g id="elem_Gemma"><rect codeLine="136" fill="#F1F1F1" height="129.4844" id="Gemma" rx="2.5" ry="2.5" style="stroke:#181818;stroke-width:0.5;" width="249" x="221.5" y="1268.9375"/><ellipse cx="313.75" cy="1284.9375" fill="#ADD1B2" rx="11" ry="11" style="stroke:#181818;stroke-width:1.0;"/><path d="M316.0938,1280.6094 C315.1563,1280.1719 314.5625,1280.0313 313.6875,1280.0313 C311.0625,1280.0313 309.0625,1282.1094 309.0625,1284.8281 L309.0625,1285.9531 C309.0625,1288.5313 311.1719,1290.4219 314.0625,1290.4219 C315.2813,1290.4219 316.4375,1290.125 317.1875,1289.5781 C317.7656,1289.1719 318.0938,1288.7188 318.0938,1288.3281 C318.0938,1287.875 317.7031,1287.4844 317.2344,1287.4844 C317.0156,1287.4844 316.8125,1287.5625 316.625,1287.75 C316.1719,1288.2344 316.1719,1288.2344 315.9844,1288.3281 C315.5625,1288.5938 314.875,1288.7188 314.1094,1288.7188 C312.0625,1288.7188 310.7656,1287.625 310.7656,1285.9219 L310.7656,1284.8281 C310.7656,1283.0469 312.0156,1281.7344 313.75,1281.7344 C314.3281,1281.7344 314.9375,1281.8906 315.4063,1282.1406 C315.8906,1282.4219 316.0625,1282.6406 316.1563,1283.0469 C316.2188,1283.4531 316.25,1283.5781 316.3906,1283.7031 C316.5313,1283.8438 316.7656,1283.9531 316.9844,1283.9531 C317.25,1283.9531 317.5156,1283.8125 317.6875,1283.5938 C317.7969,1283.4375 317.8281,1283.25 317.8281,1282.8281 L317.8281,1281.4063 C317.8281,1280.9688 317.8125,1280.8438 317.7188,1280.6875 C317.5625,1280.4219 317.2813,1280.2813 316.9844,1280.2813 C316.6875,1280.2813 316.4844,1280.375 316.2656,1280.6875 L316.0938,1280.6094 Z " fill="#000000"/><text fill="#000000" font-family="sans-serif" font-size="14" lengthAdjust="spacing" textLength="56" x="334.25" y="1289.7842">Gemma</text><line style="stroke:#181818;stroke-width:0.5;" x1="222.5" x2="469.5" y1="1300.9375" y2="1300.9375"/><ellipse cx="232.5" cy="1314.5859" fill="none" rx="3" ry="3" style="stroke:#038048;stroke-width:1.0;"/><text fill="#000000" font-family="sans-serif" font-size="14" lengthAdjust="spacing" textLength="158" x="241.5" y="1317.9326">bedrijfsfuncties: array</text><ellipse cx="232.5" cy="1330.8828" fill="none" rx="3" ry="3" style="stroke:#038048;stroke-width:1.0;"/><text fill="#000000" font-family="sans-serif" font-size="14" lengthAdjust="spacing" textLength="158" x="241.5" y="1334.2295">bedrijfsservices: array</text><ellipse cx="232.5" cy="1347.1797" fill="none" rx="3" ry="3" style="stroke:#038048;stroke-width:1.0;"/><text fill="#000000" font-family="sans-serif" font-size="14" lengthAdjust="spacing" textLength="174" x="241.5" y="1350.5264">applicatiefunctie: string</text><ellipse cx="232.5" cy="1363.4766" fill="none" rx="3" ry="3" style="stroke:#038048;stroke-width:1.0;"/><text fill="#000000" font-family="sans-serif" font-size="14" lengthAdjust="spacing" textLength="96" x="241.5" y="1366.8232">model: string</text><ellipse cx="232.5" cy="1379.7734" fill="none" rx="3" ry="3" style="stroke:#038048;stroke-width:1.0;"/><text fill="#000000" font-family="sans-serif" font-size="14" lengthAdjust="spacing" textLength="223" x="241.5" y="1383.1201">referentieComponenten: array</text><line style="stroke:#181818;stroke-width:0.5;" x1="222.5" x2="469.5" y1="1390.4219" y2="1390.4219"/></g><!--class Catalogi--><g id="elem_Catalogi"><rect codeLine="143" fill="#F1F1F1" height="113.1875" id="Catalogi" rx="2.5" ry="2.5" style="stroke:#181818;stroke-width:0.5;" width="151" x="505.5" y="1276.9375"/><ellipse cx="547.5" cy="1292.9375" fill="#ADD1B2" rx="11" ry="11" style="stroke:#181818;stroke-width:1.0;"/><path d="M549.8438,1288.6094 C548.9063,1288.1719 548.3125,1288.0313 547.4375,1288.0313 C544.8125,1288.0313 542.8125,1290.1094 542.8125,1292.8281 L542.8125,1293.9531 C542.8125,1296.5313 544.9219,1298.4219 547.8125,1298.4219 C549.0313,1298.4219 550.1875,1298.125 550.9375,1297.5781 C551.5156,1297.1719 551.8438,1296.7188 551.8438,1296.3281 C551.8438,1295.875 551.4531,1295.4844 550.9844,1295.4844 C550.7656,1295.4844 550.5625,1295.5625 550.375,1295.75 C549.9219,1296.2344 549.9219,1296.2344 549.7344,1296.3281 C549.3125,1296.5938 548.625,1296.7188 547.8594,1296.7188 C545.8125,1296.7188 544.5156,1295.625 544.5156,1293.9219 L544.5156,1292.8281 C544.5156,1291.0469 545.7656,1289.7344 547.5,1289.7344 C548.0781,1289.7344 548.6875,1289.8906 549.1563,1290.1406 C549.6406,1290.4219 549.8125,1290.6406 549.9063,1291.0469 C549.9688,1291.4531 550,1291.5781 550.1406,1291.7031 C550.2813,1291.8438 550.5156,1291.9531 550.7344,1291.9531 C551,1291.9531 551.2656,1291.8125 551.4375,1291.5938 C551.5469,1291.4375 551.5781,1291.25 551.5781,1290.8281 L551.5781,1289.4063 C551.5781,1288.9688 551.5625,1288.8438 551.4688,1288.6875 C551.3125,1288.4219 551.0313,1288.2813 550.7344,1288.2813 C550.4375,1288.2813 550.2344,1288.375 550.0156,1288.6875 L549.8438,1288.6094 Z " fill="#000000"/><text fill="#000000" font-family="sans-serif" font-size="14" lengthAdjust="spacing" textLength="59" x="567.5" y="1297.7842">Catalogi</text><line style="stroke:#181818;stroke-width:0.5;" x1="506.5" x2="655.5" y1="1308.9375" y2="1308.9375"/><ellipse cx="516.5" cy="1322.5859" fill="none" rx="3" ry="3" style="stroke:#038048;stroke-width:1.0;"/><text fill="#000000" font-family="sans-serif" font-size="14" lengthAdjust="spacing" textLength="83" x="525.5" y="1325.9326">source: Any</text><ellipse cx="516.5" cy="1338.8828" fill="none" rx="3" ry="3" style="stroke:#038048;stroke-width:1.0;"/><text fill="#000000" font-family="sans-serif" font-size="14" lengthAdjust="spacing" textLength="125" x="525.5" y="1342.2295">organisation: Any</text><ellipse cx="516.5" cy="1355.1797" fill="none" rx="3" ry="3" style="stroke:#038048;stroke-width:1.0;"/><text fill="#000000" font-family="sans-serif" font-size="14" lengthAdjust="spacing" textLength="77" x="525.5" y="1358.5264">rsin: string</text><ellipse cx="516.5" cy="1371.4766" fill="none" rx="3" ry="3" style="stroke:#038048;stroke-width:1.0;"/><text fill="#000000" font-family="sans-serif" font-size="14" lengthAdjust="spacing" textLength="74" x="525.5" y="1374.8232">pki: string</text><line style="stroke:#181818;stroke-width:0.5;" x1="506.5" x2="655.5" y1="1382.125" y2="1382.125"/></g><!--class Dependency--><g id="elem_Dependency"><rect codeLine="149" fill="#F1F1F1" height="96.8906" id="Dependency" rx="2.5" ry="2.5" style="stroke:#181818;stroke-width:0.5;" width="129" x="691.5" y="1284.9375"/><ellipse cx="709.2" cy="1300.9375" fill="#ADD1B2" rx="11" ry="11" style="stroke:#181818;stroke-width:1.0;"/><path d="M711.5438,1296.6094 C710.6063,1296.1719 710.0125,1296.0313 709.1375,1296.0313 C706.5125,1296.0313 704.5125,1298.1094 704.5125,1300.8281 L704.5125,1301.9531 C704.5125,1304.5313 706.6219,1306.4219 709.5125,1306.4219 C710.7313,1306.4219 711.8875,1306.125 712.6375,1305.5781 C713.2156,1305.1719 713.5438,1304.7188 713.5438,1304.3281 C713.5438,1303.875 713.1531,1303.4844 712.6844,1303.4844 C712.4656,1303.4844 712.2625,1303.5625 712.075,1303.75 C711.6219,1304.2344 711.6219,1304.2344 711.4344,1304.3281 C711.0125,1304.5938 710.325,1304.7188 709.5594,1304.7188 C707.5125,1304.7188 706.2156,1303.625 706.2156,1301.9219 L706.2156,1300.8281 C706.2156,1299.0469 707.4656,1297.7344 709.2,1297.7344 C709.7781,1297.7344 710.3875,1297.8906 710.8563,1298.1406 C711.3406,1298.4219 711.5125,1298.6406 711.6063,1299.0469 C711.6688,1299.4531 711.7,1299.5781 711.8406,1299.7031 C711.9813,1299.8438 712.2156,1299.9531 712.4344,1299.9531 C712.7,1299.9531 712.9656,1299.8125 713.1375,1299.5938 C713.2469,1299.4375 713.2781,1299.25 713.2781,1298.8281 L713.2781,1297.4063 C713.2781,1296.9688 713.2625,1296.8438 713.1688,1296.6875 C713.0125,1296.4219 712.7313,1296.2813 712.4344,1296.2813 C712.1375,1296.2813 711.9344,1296.375 711.7156,1296.6875 L711.5438,1296.6094 Z " fill="#000000"/><text fill="#000000" font-family="sans-serif" font-size="14" lengthAdjust="spacing" textLength="91" x="723.8" y="1305.7842">Dependency</text><line style="stroke:#181818;stroke-width:0.5;" x1="692.5" x2="819.5" y1="1316.9375" y2="1316.9375"/><ellipse cx="702.5" cy="1330.5859" fill="none" rx="3" ry="3" style="stroke:#038048;stroke-width:1.0;"/><text fill="#000000" font-family="sans-serif" font-size="14" lengthAdjust="spacing" textLength="64" x="711.5" y="1333.9326">id: string</text><ellipse cx="702.5" cy="1346.8828" fill="none" rx="3" ry="3" style="stroke:#038048;stroke-width:1.0;"/><text fill="#000000" font-family="sans-serif" font-size="14" lengthAdjust="spacing" textLength="91" x="711.5" y="1350.2295">name: string</text><ellipse cx="702.5" cy="1363.1797" fill="none" rx="3" ry="3" style="stroke:#038048;stroke-width:1.0;"/><text fill="#000000" font-family="sans-serif" font-size="14" lengthAdjust="spacing" textLength="103" x="711.5" y="1366.5264">version: string</text><line style="stroke:#181818;stroke-width:0.5;" x1="692.5" x2="819.5" y1="1373.8281" y2="1373.8281"/></g><!--class Repository--><g id="elem_Repository"><rect codeLine="154" fill="#F1F1F1" height="308.75" id="Repository" rx="2.5" ry="2.5" style="stroke:#181818;stroke-width:0.5;" width="292" x="856" y="1178.9375"/><ellipse cx="958.25" cy="1194.9375" fill="#ADD1B2" rx="11" ry="11" style="stroke:#181818;stroke-width:1.0;"/><path d="M960.5938,1190.6094 C959.6563,1190.1719 959.0625,1190.0313 958.1875,1190.0313 C955.5625,1190.0313 953.5625,1192.1094 953.5625,1194.8281 L953.5625,1195.9531 C953.5625,1198.5313 955.6719,1200.4219 958.5625,1200.4219 C959.7813,1200.4219 960.9375,1200.125 961.6875,1199.5781 C962.2656,1199.1719 962.5938,1198.7188 962.5938,1198.3281 C962.5938,1197.875 962.2031,1197.4844 961.7344,1197.4844 C961.5156,1197.4844 961.3125,1197.5625 961.125,1197.75 C960.6719,1198.2344 960.6719,1198.2344 960.4844,1198.3281 C960.0625,1198.5938 959.375,1198.7188 958.6094,1198.7188 C956.5625,1198.7188 955.2656,1197.625 955.2656,1195.9219 L955.2656,1194.8281 C955.2656,1193.0469 956.5156,1191.7344 958.25,1191.7344 C958.8281,1191.7344 959.4375,1191.8906 959.9063,1192.1406 C960.3906,1192.4219 960.5625,1192.6406 960.6563,1193.0469 C960.7188,1193.4531 960.75,1193.5781 960.8906,1193.7031 C961.0313,1193.8438 961.2656,1193.9531 961.4844,1193.9531 C961.75,1193.9531 962.0156,1193.8125 962.1875,1193.5938 C962.2969,1193.4375 962.3281,1193.25 962.3281,1192.8281 L962.3281,1191.4063 C962.3281,1190.9688 962.3125,1190.8438 962.2188,1190.6875 C962.0625,1190.4219 961.7813,1190.2813 961.4844,1190.2813 C961.1875,1190.2813 960.9844,1190.375 960.7656,1190.6875 L960.5938,1190.6094 Z " fill="#000000"/><text fill="#000000" font-family="sans-serif" font-size="14" lengthAdjust="spacing" textLength="79" x="978.75" y="1199.7842">Repository</text><line style="stroke:#181818;stroke-width:0.5;" x1="857" x2="1147" y1="1210.9375" y2="1210.9375"/><ellipse cx="867" cy="1224.5859" fill="none" rx="3" ry="3" style="stroke:#038048;stroke-width:1.0;"/><text fill="#000000" font-family="sans-serif" font-size="14" lengthAdjust="spacing" textLength="125" x="876" y="1227.9326">organisation: Any</text><ellipse cx="867" cy="1240.8828" fill="none" rx="3" ry="3" style="stroke:#038048;stroke-width:1.0;"/><text fill="#000000" font-family="sans-serif" font-size="14" lengthAdjust="spacing" textLength="120" x="876" y="1244.2295">component: Any</text><ellipse cx="867" cy="1257.1797" fill="none" rx="3" ry="3" style="stroke:#038048;stroke-width:1.0;"/><text fill="#000000" font-family="sans-serif" font-size="14" lengthAdjust="spacing" textLength="98" x="876" y="1260.5264">source: string</text><ellipse cx="867" cy="1273.4766" fill="none" rx="3" ry="3" style="stroke:#038048;stroke-width:1.0;"/><text fill="#000000" font-family="sans-serif" font-size="14" lengthAdjust="spacing" textLength="91" x="876" y="1276.8232">name: string</text><ellipse cx="867" cy="1289.7734" fill="none" rx="3" ry="3" style="stroke:#038048;stroke-width:1.0;"/><text fill="#000000" font-family="sans-serif" font-size="14" lengthAdjust="spacing" textLength="69" x="876" y="1293.1201">url: string</text><ellipse cx="867" cy="1306.0703" fill="none" rx="3" ry="3" style="stroke:#038048;stroke-width:1.0;"/><text fill="#000000" font-family="sans-serif" font-size="14" lengthAdjust="spacing" textLength="121" x="876" y="1309.417">avatar_url: string</text><ellipse cx="867" cy="1322.3672" fill="none" rx="3" ry="3" style="stroke:#038048;stroke-width:1.0;"/><text fill="#000000" font-family="sans-serif" font-size="14" lengthAdjust="spacing" textLength="136" x="876" y="1325.7139">last_change: string</text><ellipse cx="867" cy="1338.6641" fill="none" rx="3" ry="3" style="stroke:#038048;stroke-width:1.0;"/><text fill="#000000" font-family="sans-serif" font-size="14" lengthAdjust="spacing" textLength="100" x="876" y="1342.0107">stars: number</text><ellipse cx="867" cy="1354.9609" fill="none" rx="3" ry="3" style="stroke:#038048;stroke-width:1.0;"/><text fill="#000000" font-family="sans-serif" font-size="14" lengthAdjust="spacing" textLength="143" x="876" y="1358.3076">fork_count: number</text><ellipse cx="867" cy="1371.2578" fill="none" rx="3" ry="3" style="stroke:#038048;stroke-width:1.0;"/><text fill="#000000" font-family="sans-serif" font-size="14" lengthAdjust="spacing" textLength="192" x="876" y="1374.6045">issue_open_count: number</text><ellipse cx="867" cy="1387.5547" fill="none" rx="3" ry="3" style="stroke:#038048;stroke-width:1.0;"/><text fill="#000000" font-family="sans-serif" font-size="14" lengthAdjust="spacing" textLength="266" x="876" y="1390.9014">merge_request_open_count: number</text><ellipse cx="867" cy="1403.8516" fill="none" rx="3" ry="3" style="stroke:#038048;stroke-width:1.0;"/><text fill="#000000" font-family="sans-serif" font-size="14" lengthAdjust="spacing" textLength="221" x="876" y="1407.1982">programming_languages: array</text><ellipse cx="867" cy="1420.1484" fill="none" rx="3" ry="3" style="stroke:#038048;stroke-width:1.0;"/><text fill="#000000" font-family="sans-serif" font-size="14" lengthAdjust="spacing" textLength="90" x="876" y="1423.4951">topics: array</text><ellipse cx="867" cy="1436.4453" fill="none" rx="3" ry="3" style="stroke:#038048;stroke-width:1.0;"/><text fill="#000000" font-family="sans-serif" font-size="14" lengthAdjust="spacing" textLength="109" x="876" y="1439.792">content: string</text><ellipse cx="867" cy="1452.7422" fill="none" rx="3" ry="3" style="stroke:#038048;stroke-width:1.0;"/><text fill="#000000" font-family="sans-serif" font-size="14" lengthAdjust="spacing" textLength="155" x="876" y="1456.0889">publiccode_url: string</text><ellipse cx="867" cy="1469.0391" fill="none" rx="3" ry="3" style="stroke:#038048;stroke-width:1.0;"/><text fill="#000000" font-family="sans-serif" font-size="14" lengthAdjust="spacing" textLength="153" x="876" y="1472.3857">default_owner: string</text><line style="stroke:#181818;stroke-width:0.5;" x1="857" x2="1147" y1="1479.6875" y2="1479.6875"/></g><!--class Legal--><g id="elem_Legal"><rect codeLine="172" fill="#F1F1F1" height="113.1875" id="Legal" rx="2.5" ry="2.5" style="stroke:#181818;stroke-width:0.5;" width="215" x="16.5" y="1547.9375"/><ellipse cx="100.75" cy="1563.9375" fill="#ADD1B2" rx="11" ry="11" style="stroke:#181818;stroke-width:1.0;"/><path d="M103.0938,1559.6094 C102.1563,1559.1719 101.5625,1559.0313 100.6875,1559.0313 C98.0625,1559.0313 96.0625,1561.1094 96.0625,1563.8281 L96.0625,1564.9531 C96.0625,1567.5313 98.1719,1569.4219 101.0625,1569.4219 C102.2813,1569.4219 103.4375,1569.125 104.1875,1568.5781 C104.7656,1568.1719 105.0938,1567.7188 105.0938,1567.3281 C105.0938,1566.875 104.7031,1566.4844 104.2344,1566.4844 C104.0156,1566.4844 103.8125,1566.5625 103.625,1566.75 C103.1719,1567.2344 103.1719,1567.2344 102.9844,1567.3281 C102.5625,1567.5938 101.875,1567.7188 101.1094,1567.7188 C99.0625,1567.7188 97.7656,1566.625 97.7656,1564.9219 L97.7656,1563.8281 C97.7656,1562.0469 99.0156,1560.7344 100.75,1560.7344 C101.3281,1560.7344 101.9375,1560.8906 102.4063,1561.1406 C102.8906,1561.4219 103.0625,1561.6406 103.1563,1562.0469 C103.2188,1562.4531 103.25,1562.5781 103.3906,1562.7031 C103.5313,1562.8438 103.7656,1562.9531 103.9844,1562.9531 C104.25,1562.9531 104.5156,1562.8125 104.6875,1562.5938 C104.7969,1562.4375 104.8281,1562.25 104.8281,1561.8281 L104.8281,1560.4063 C104.8281,1559.9688 104.8125,1559.8438 104.7188,1559.6875 C104.5625,1559.4219 104.2813,1559.2813 103.9844,1559.2813 C103.6875,1559.2813 103.4844,1559.375 103.2656,1559.6875 L103.0938,1559.6094 Z " fill="#000000"/><text fill="#000000" font-family="sans-serif" font-size="14" lengthAdjust="spacing" textLength="38" x="121.25" y="1568.7842">Legal</text><line style="stroke:#181818;stroke-width:0.5;" x1="17.5" x2="230.5" y1="1579.9375" y2="1579.9375"/><ellipse cx="27.5" cy="1593.5859" fill="none" rx="3" ry="3" style="stroke:#038048;stroke-width:1.0;"/><text fill="#000000" font-family="sans-serif" font-size="14" lengthAdjust="spacing" textLength="101" x="36.5" y="1596.9326">license: string</text><ellipse cx="27.5" cy="1609.8828" fill="none" rx="3" ry="3" style="stroke:#038048;stroke-width:1.0;"/><text fill="#000000" font-family="sans-serif" font-size="14" lengthAdjust="spacing" textLength="189" x="36.5" y="1613.2295">mainCopyrightOwner: Any</text><ellipse cx="27.5" cy="1626.1797" fill="none" rx="3" ry="3" style="stroke:#038048;stroke-width:1.0;"/><text fill="#000000" font-family="sans-serif" font-size="14" lengthAdjust="spacing" textLength="116" x="36.5" y="1629.5264">repoOwner: Any</text><ellipse cx="27.5" cy="1642.4766" fill="none" rx="3" ry="3" style="stroke:#038048;stroke-width:1.0;"/><text fill="#000000" font-family="sans-serif" font-size="14" lengthAdjust="spacing" textLength="130" x="36.5" y="1645.8232">authorsFile: string</text><line style="stroke:#181818;stroke-width:0.5;" x1="17.5" x2="230.5" y1="1653.125" y2="1653.125"/></g><!--class Contact--><g id="elem_Contact"><rect codeLine="178" fill="#F1F1F1" height="113.1875" id="Contact" rx="2.5" ry="2.5" style="stroke:#181818;stroke-width:0.5;" width="146" x="267" y="1547.9375"/><ellipse cx="307.2" cy="1563.9375" fill="#ADD1B2" rx="11" ry="11" style="stroke:#181818;stroke-width:1.0;"/><path d="M309.5438,1559.6094 C308.6063,1559.1719 308.0125,1559.0313 307.1375,1559.0313 C304.5125,1559.0313 302.5125,1561.1094 302.5125,1563.8281 L302.5125,1564.9531 C302.5125,1567.5313 304.6219,1569.4219 307.5125,1569.4219 C308.7313,1569.4219 309.8875,1569.125 310.6375,1568.5781 C311.2156,1568.1719 311.5438,1567.7188 311.5438,1567.3281 C311.5438,1566.875 311.1531,1566.4844 310.6844,1566.4844 C310.4656,1566.4844 310.2625,1566.5625 310.075,1566.75 C309.6219,1567.2344 309.6219,1567.2344 309.4344,1567.3281 C309.0125,1567.5938 308.325,1567.7188 307.5594,1567.7188 C305.5125,1567.7188 304.2156,1566.625 304.2156,1564.9219 L304.2156,1563.8281 C304.2156,1562.0469 305.4656,1560.7344 307.2,1560.7344 C307.7781,1560.7344 308.3875,1560.8906 308.8563,1561.1406 C309.3406,1561.4219 309.5125,1561.6406 309.6063,1562.0469 C309.6688,1562.4531 309.7,1562.5781 309.8406,1562.7031 C309.9813,1562.8438 310.2156,1562.9531 310.4344,1562.9531 C310.7,1562.9531 310.9656,1562.8125 311.1375,1562.5938 C311.2469,1562.4375 311.2781,1562.25 311.2781,1561.8281 L311.2781,1560.4063 C311.2781,1559.9688 311.2625,1559.8438 311.1688,1559.6875 C311.0125,1559.4219 310.7313,1559.2813 310.4344,1559.2813 C310.1375,1559.2813 309.9344,1559.375 309.7156,1559.6875 L309.5438,1559.6094 Z " fill="#000000"/><text fill="#000000" font-family="sans-serif" font-size="14" lengthAdjust="spacing" textLength="58" x="326.8" y="1568.7842">Contact</text><line style="stroke:#181818;stroke-width:0.5;" x1="268" x2="412" y1="1579.9375" y2="1579.9375"/><ellipse cx="278" cy="1593.5859" fill="none" rx="3" ry="3" style="stroke:#038048;stroke-width:1.0;"/><text fill="#000000" font-family="sans-serif" font-size="14" lengthAdjust="spacing" textLength="91" x="287" y="1596.9326">name: string</text><ellipse cx="278" cy="1609.8828" fill="none" rx="3" ry="3" style="stroke:#038048;stroke-width:1.0;"/><text fill="#000000" font-family="sans-serif" font-size="14" lengthAdjust="spacing" textLength="90" x="287" y="1613.2295">email: string</text><ellipse cx="278" cy="1626.1797" fill="none" rx="3" ry="3" style="stroke:#038048;stroke-width:1.0;"/><text fill="#000000" font-family="sans-serif" font-size="14" lengthAdjust="spacing" textLength="97" x="287" y="1629.5264">phone: string</text><ellipse cx="278" cy="1642.4766" fill="none" rx="3" ry="3" style="stroke:#038048;stroke-width:1.0;"/><text fill="#000000" font-family="sans-serif" font-size="14" lengthAdjust="spacing" textLength="120" x="287" y="1645.8232">affiliation: string</text><line style="stroke:#181818;stroke-width:0.5;" x1="268" x2="412" y1="1653.125" y2="1653.125"/></g><!--class Rating--><g id="elem_Rating"><rect codeLine="184" fill="#F1F1F1" height="96.8906" id="Rating" rx="2.5" ry="2.5" style="stroke:#181818;stroke-width:0.5;" width="165" x="448.5" y="1555.9375"/><ellipse cx="503.25" cy="1571.9375" fill="#ADD1B2" rx="11" ry="11" style="stroke:#181818;stroke-width:1.0;"/><path d="M505.5938,1567.6094 C504.6563,1567.1719 504.0625,1567.0313 503.1875,1567.0313 C500.5625,1567.0313 498.5625,1569.1094 498.5625,1571.8281 L498.5625,1572.9531 C498.5625,1575.5313 500.6719,1577.4219 503.5625,1577.4219 C504.7813,1577.4219 505.9375,1577.125 506.6875,1576.5781 C507.2656,1576.1719 507.5938,1575.7188 507.5938,1575.3281 C507.5938,1574.875 507.2031,1574.4844 506.7344,1574.4844 C506.5156,1574.4844 506.3125,1574.5625 506.125,1574.75 C505.6719,1575.2344 505.6719,1575.2344 505.4844,1575.3281 C505.0625,1575.5938 504.375,1575.7188 503.6094,1575.7188 C501.5625,1575.7188 500.2656,1574.625 500.2656,1572.9219 L500.2656,1571.8281 C500.2656,1570.0469 501.5156,1568.7344 503.25,1568.7344 C503.8281,1568.7344 504.4375,1568.8906 504.9063,1569.1406 C505.3906,1569.4219 505.5625,1569.6406 505.6563,1570.0469 C505.7188,1570.4531 505.75,1570.5781 505.8906,1570.7031 C506.0313,1570.8438 506.2656,1570.9531 506.4844,1570.9531 C506.75,1570.9531 507.0156,1570.8125 507.1875,1570.5938 C507.2969,1570.4375 507.3281,1570.25 507.3281,1569.8281 L507.3281,1568.4063 C507.3281,1567.9688 507.3125,1567.8438 507.2188,1567.6875 C507.0625,1567.4219 506.7813,1567.2813 506.4844,1567.2813 C506.1875,1567.2813 505.9844,1567.375 505.7656,1567.6875 L505.5938,1567.6094 Z " fill="#000000"/><text fill="#000000" font-family="sans-serif" font-size="14" lengthAdjust="spacing" textLength="47" x="523.75" y="1576.7842">Rating</text><line style="stroke:#181818;stroke-width:0.5;" x1="449.5" x2="612.5" y1="1587.9375" y2="1587.9375"/><ellipse cx="459.5" cy="1601.5859" fill="none" rx="3" ry="3" style="stroke:#038048;stroke-width:1.0;"/><text fill="#000000" font-family="sans-serif" font-size="14" lengthAdjust="spacing" textLength="105" x="468.5" y="1604.9326">rating: integer</text><ellipse cx="459.5" cy="1617.8828" fill="none" rx="3" ry="3" style="stroke:#038048;stroke-width:1.0;"/><text fill="#000000" font-family="sans-serif" font-size="14" lengthAdjust="spacing" textLength="139" x="468.5" y="1621.2295">maxRating: integer</text><ellipse cx="459.5" cy="1634.1797" fill="none" rx="3" ry="3" style="stroke:#038048;stroke-width:1.0;"/><text fill="#000000" font-family="sans-serif" font-size="14" lengthAdjust="spacing" textLength="93" x="468.5" y="1637.5264">results: array</text><line style="stroke:#181818;stroke-width:0.5;" x1="449.5" x2="612.5" y1="1644.8281" y2="1644.8281"/></g><!--class ComponentUrl--><g id="elem_ComponentUrl"><rect codeLine="189" fill="#F1F1F1" height="64.2969" id="ComponentUrl" rx="2.5" ry="2.5" style="stroke:#181818;stroke-width:0.5;" width="171" x="648.5" y="1572.4375"/><ellipse cx="678.8" cy="1588.4375" fill="#ADD1B2" rx="11" ry="11" style="stroke:#181818;stroke-width:1.0;"/><path d="M681.1438,1584.1094 C680.2063,1583.6719 679.6125,1583.5313 678.7375,1583.5313 C676.1125,1583.5313 674.1125,1585.6094 674.1125,1588.3281 L674.1125,1589.4531 C674.1125,1592.0313 676.2219,1593.9219 679.1125,1593.9219 C680.3313,1593.9219 681.4875,1593.625 682.2375,1593.0781 C682.8156,1592.6719 683.1438,1592.2188 683.1438,1591.8281 C683.1438,1591.375 682.7531,1590.9844 682.2844,1590.9844 C682.0656,1590.9844 681.8625,1591.0625 681.675,1591.25 C681.2219,1591.7344 681.2219,1591.7344 681.0344,1591.8281 C680.6125,1592.0938 679.925,1592.2188 679.1594,1592.2188 C677.1125,1592.2188 675.8156,1591.125 675.8156,1589.4219 L675.8156,1588.3281 C675.8156,1586.5469 677.0656,1585.2344 678.8,1585.2344 C679.3781,1585.2344 679.9875,1585.3906 680.4563,1585.6406 C680.9406,1585.9219 681.1125,1586.1406 681.2063,1586.5469 C681.2688,1586.9531 681.3,1587.0781 681.4406,1587.2031 C681.5813,1587.3438 681.8156,1587.4531 682.0344,1587.4531 C682.3,1587.4531 682.5656,1587.3125 682.7375,1587.0938 C682.8469,1586.9375 682.8781,1586.75 682.8781,1586.3281 L682.8781,1584.9063 C682.8781,1584.4688 682.8625,1584.3438 682.7688,1584.1875 C682.6125,1583.9219 682.3313,1583.7813 682.0344,1583.7813 C681.7375,1583.7813 681.5344,1583.875 681.3156,1584.1875 L681.1438,1584.1094 Z " fill="#000000"/><text fill="#000000" font-family="sans-serif" font-size="14" lengthAdjust="spacing" textLength="105" x="696.2" y="1593.2842">ComponentUrl</text><line style="stroke:#181818;stroke-width:0.5;" x1="649.5" x2="818.5" y1="1604.4375" y2="1604.4375"/><ellipse cx="659.5" cy="1618.0859" fill="none" rx="3" ry="3" style="stroke:#038048;stroke-width:1.0;"/><text fill="#000000" font-family="sans-serif" font-size="14" lengthAdjust="spacing" textLength="145" x="668.5" y="1621.4326">repositoryUrl: string</text><line style="stroke:#181818;stroke-width:0.5;" x1="649.5" x2="818.5" y1="1628.7344" y2="1628.7344"/></g><text fill="#888888" font-family="sans-serif" font-size="10" lengthAdjust="spacing" textLength="341" x="416.5" y="1676.4072">Common Gateway Plugin | Opencatalogi | Opencatalogibundle</text><!--SRC=[tLTDZ-Cs3BtFh_2z_o2tsPbsCC1q4oJTNWDQeXtjwAlwoDHjzx-NTYp7akq5zhgN0AOaKY8VtsE2219trQEKbMSNLE0V6cC2kbtrP9Gokdg1W1_GLGSPMw6h_wgzHSqWW3IjA3xhgBd4wk62m7iNfy7b0vFW_UYlTOOsLVy-LDKlbT01DKU-ToreuI48e_sk0kUW6pTuyYo7XJywIpVrmGdT3eiIEdIPzTiOwXazSyBsfr8adXyr3AJmo3-3oftwYt5XThuufjkjDMvOLAW3B5R0YkVDnGOXH8VPgoa0egQRXCny5HnDPe4FS7oofDU_tHu7i-VBcUb8nUbsLMsCHD0tFrSG4cg9Rw3R22qkV3vQAmKRpfywpKQt-eUonpVjWS8VAEohefylJcudTh68ofIssYfzS8QXz-MIy8TOKo8koFCCc0_T0_QUMcQKDPh2BbBnZ8HuxlSfjuO-voUjCzO9UfFhvkOBbOhAXQMxptBqmsRzGHsfRyTQL0hkds3LhZBrLsHX-8vMbWxdpRHL9xu9yDRa1OtMKaapr56kik_eS_W6yuwvsrQ4IwnB4o4kCtrWxKN8BselL8JCGeGYygA6aXX6Eeh-yV2wu8RVOM0Tq0p7x2pF6nqSi62Spo5186JXUxtni_P5WjzsLvnCT5D6Vm1lBAV42SHztD5R4wLSyFGI1bQmdaddJqlUNcSoahfsw99_beGyFJ6pNj7vSYVggt16g_dURvFO9GXbyVmOB-KpwY3MhdkJnSV81TvnoeWPQ6FUR56FBOhyQMtTCsCNdFEKtZXwXZk2NtEXN5HojlKKXswTtj8dFdr8q9oEV3c-5JZx1AIw-poHtZIXfyO_LvBiaB3eyHaAObWmbQNoDiQfl6NfM6iMEQChVCh8sHdW2co1sIjAO_lodgZ9eb-zys8g4KNnxZd9cc1A5BOmovkwizDipqozv-v67RgRzCoJq3Q6_dOvTyUmPdRaMxUtmmaaBmDf_tgzmyGFFRw0wqilKUEM6haJNnlVHCr2aVQqvj5T1SlN9bZXU3BBgJ8SPG6B1XtTJE24vRiAJp1FKsf-_PIXzPOa2EO8jEzYPS3iSq_bxTRdoqNRbFoH71tH6X8zuxhlyiICb9AfACPgr5ZGFCrvD9QSIpFT99pPXMQ_GhLeCrL9HrMZkr6nSU_dWOSoi_0-uhaVX5OM5ReMpmx_YaXXDZRHqDGwK8f2dsKvXDw62kBtXHoND6rx5MECuB9u9CS6egGBt1IjgCDRtuPfM2PmQbyWaFhooTZEYVOIzhaeEgfXOO8OIF7zRqBYgZIGCcn9vOgmBMOWQ1eXnRfo7eTM7hsdlkv9fKtrWB-FAsRw3qBfyPjIGRgQd4wOpRJsVm00]--></g></svg>