<?xml version="1.0" encoding="us-ascii" standalone="no"?><svg xmlns="http://www.w3.org/2000/svg" xmlns:xlink="http://www.w3.org/1999/xlink" contentStyleType="text/css" height="1618px" preserveAspectRatio="none" style="width:1188px;height:1618px;background:#FFFFFF;" version="1.1" viewBox="0 0 1188 1618" width="1188px" zoomAndPan="magnify"><defs/><g><!--class Commonground--><g id="elem_Commonground"><rect codeLine="1" fill="#F1F1F1" height="96.8906" id="Commonground" rx="2.5" ry="2.5" style="stroke:#181818;stroke-width:0.5;" width="234" x="7" y="64"/><ellipse cx="62.25" cy="80" fill="#ADD1B2" rx="11" ry="11" style="stroke:#181818;stroke-width:1.0;"/><path d="M64.5938,75.6719 C63.6563,75.2344 63.0625,75.0938 62.1875,75.0938 C59.5625,75.0938 57.5625,77.1719 57.5625,79.8906 L57.5625,81.0156 C57.5625,83.5938 59.6719,85.4844 62.5625,85.4844 C63.7813,85.4844 64.9375,85.1875 65.6875,84.6406 C66.2656,84.2344 66.5938,83.7813 66.5938,83.3906 C66.5938,82.9375 66.2031,82.5469 65.7344,82.5469 C65.5156,82.5469 65.3125,82.625 65.125,82.8125 C64.6719,83.2969 64.6719,83.2969 64.4844,83.3906 C64.0625,83.6563 63.375,83.7813 62.6094,83.7813 C60.5625,83.7813 59.2656,82.6875 59.2656,80.9844 L59.2656,79.8906 C59.2656,78.1094 60.5156,76.7969 62.25,76.7969 C62.8281,76.7969 63.4375,76.9531 63.9063,77.2031 C64.3906,77.4844 64.5625,77.7031 64.6563,78.1094 C64.7188,78.5156 64.75,78.6406 64.8906,78.7656 C65.0313,78.9063 65.2656,79.0156 65.4844,79.0156 C65.75,79.0156 66.0156,78.875 66.1875,78.6563 C66.2969,78.5 66.3281,78.3125 66.3281,77.8906 L66.3281,76.4688 C66.3281,76.0313 66.3125,75.9063 66.2188,75.75 C66.0625,75.4844 65.7813,75.3438 65.4844,75.3438 C65.1875,75.3438 64.9844,75.4375 64.7656,75.75 L64.5938,75.6719 Z " fill="#000000"/><text fill="#000000" font-family="sans-serif" font-size="14" lengthAdjust="spacing" textLength="115" x="82.75" y="84.8467">Commonground</text><line style="stroke:#181818;stroke-width:0.5;" x1="8" x2="240" y1="96" y2="96"/><ellipse cx="18" cy="109.6484" fill="none" rx="3" ry="3" style="stroke:#038048;stroke-width:1.0;"/><text fill="#000000" font-family="sans-serif" font-size="14" lengthAdjust="spacing" textLength="208" x="27" y="112.9951">intendedOrganisations: array</text><ellipse cx="18" cy="125.9453" fill="none" rx="3" ry="3" style="stroke:#038048;stroke-width:1.0;"/><text fill="#000000" font-family="sans-serif" font-size="14" lengthAdjust="spacing" textLength="167" x="27" y="129.292">installationType: string</text><ellipse cx="18" cy="142.2422" fill="none" rx="3" ry="3" style="stroke:#038048;stroke-width:1.0;"/><text fill="#000000" font-family="sans-serif" font-size="14" lengthAdjust="spacing" textLength="122" x="27" y="145.5889">layerType: string</text><line style="stroke:#181818;stroke-width:0.5;" x1="8" x2="240" y1="152.8906" y2="152.8906"/></g><!--class Description--><g id="elem_Description"><rect codeLine="6" fill="#F1F1F1" height="210.9688" id="Description" rx="2.5" ry="2.5" style="stroke:#181818;stroke-width:0.5;" width="211" x="276.5" y="7"/><ellipse cx="335.75" cy="23" fill="#ADD1B2" rx="11" ry="11" style="stroke:#181818;stroke-width:1.0;"/><path d="M338.0938,18.6719 C337.1563,18.2344 336.5625,18.0938 335.6875,18.0938 C333.0625,18.0938 331.0625,20.1719 331.0625,22.8906 L331.0625,24.0156 C331.0625,26.5938 333.1719,28.4844 336.0625,28.4844 C337.2813,28.4844 338.4375,28.1875 339.1875,27.6406 C339.7656,27.2344 340.0938,26.7813 340.0938,26.3906 C340.0938,25.9375 339.7031,25.5469 339.2344,25.5469 C339.0156,25.5469 338.8125,25.625 338.625,25.8125 C338.1719,26.2969 338.1719,26.2969 337.9844,26.3906 C337.5625,26.6563 336.875,26.7813 336.1094,26.7813 C334.0625,26.7813 332.7656,25.6875 332.7656,23.9844 L332.7656,22.8906 C332.7656,21.1094 334.0156,19.7969 335.75,19.7969 C336.3281,19.7969 336.9375,19.9531 337.4063,20.2031 C337.8906,20.4844 338.0625,20.7031 338.1563,21.1094 C338.2188,21.5156 338.25,21.6406 338.3906,21.7656 C338.5313,21.9063 338.7656,22.0156 338.9844,22.0156 C339.25,22.0156 339.5156,21.875 339.6875,21.6563 C339.7969,21.5 339.8281,21.3125 339.8281,20.8906 L339.8281,19.4688 C339.8281,19.0313 339.8125,18.9063 339.7188,18.75 C339.5625,18.4844 339.2813,18.3438 338.9844,18.3438 C338.6875,18.3438 338.4844,18.4375 338.2656,18.75 L338.0938,18.6719 Z " fill="#000000"/><text fill="#000000" font-family="sans-serif" font-size="14" lengthAdjust="spacing" textLength="84" x="356.25" y="27.8467">Description</text><line style="stroke:#181818;stroke-width:0.5;" x1="277.5" x2="486.5" y1="39" y2="39"/><ellipse cx="287.5" cy="52.6484" fill="none" rx="3" ry="3" style="stroke:#038048;stroke-width:1.0;"/><text fill="#000000" font-family="sans-serif" font-size="14" lengthAdjust="spacing" textLength="64" x="296.5" y="55.9951">id: string</text><ellipse cx="287.5" cy="68.9453" fill="none" rx="3" ry="3" style="stroke:#038048;stroke-width:1.0;"/><text fill="#000000" font-family="sans-serif" font-size="14" lengthAdjust="spacing" textLength="154" x="296.5" y="72.292">localisedName: string</text><ellipse cx="287.5" cy="85.2422" fill="none" rx="3" ry="3" style="stroke:#038048;stroke-width:1.0;"/><text fill="#000000" font-family="sans-serif" font-size="14" lengthAdjust="spacing" textLength="173" x="296.5" y="88.5889">shortDescription: string</text><ellipse cx="287.5" cy="101.5391" fill="none" rx="3" ry="3" style="stroke:#038048;stroke-width:1.0;"/><text fill="#000000" font-family="sans-serif" font-size="14" lengthAdjust="spacing" textLength="166" x="296.5" y="104.8857">longDescription: string</text><ellipse cx="287.5" cy="117.8359" fill="none" rx="3" ry="3" style="stroke:#038048;stroke-width:1.0;"/><text fill="#000000" font-family="sans-serif" font-size="14" lengthAdjust="spacing" textLength="161" x="296.5" y="121.1826">documentation: string</text><ellipse cx="287.5" cy="134.1328" fill="none" rx="3" ry="3" style="stroke:#038048;stroke-width:1.0;"/><text fill="#000000" font-family="sans-serif" font-size="14" lengthAdjust="spacing" textLength="185" x="296.5" y="137.4795">apiDocumentation: string</text><ellipse cx="287.5" cy="150.4297" fill="none" rx="3" ry="3" style="stroke:#038048;stroke-width:1.0;"/><text fill="#000000" font-family="sans-serif" font-size="14" lengthAdjust="spacing" textLength="105" x="296.5" y="153.7764">features: array</text><ellipse cx="287.5" cy="166.7266" fill="none" rx="3" ry="3" style="stroke:#038048;stroke-width:1.0;"/><text fill="#000000" font-family="sans-serif" font-size="14" lengthAdjust="spacing" textLength="132" x="296.5" y="170.0732">screenshots: array</text><ellipse cx="287.5" cy="183.0234" fill="none" rx="3" ry="3" style="stroke:#038048;stroke-width:1.0;"/><text fill="#000000" font-family="sans-serif" font-size="14" lengthAdjust="spacing" textLength="91" x="296.5" y="186.3701">videos: array</text><ellipse cx="287.5" cy="199.3203" fill="none" rx="3" ry="3" style="stroke:#038048;stroke-width:1.0;"/><text fill="#000000" font-family="sans-serif" font-size="14" lengthAdjust="spacing" textLength="94" x="296.5" y="202.667">awards: array</text><line style="stroke:#181818;stroke-width:0.5;" x1="277.5" x2="486.5" y1="209.9688" y2="209.9688"/></g><!--class Localisation--><g id="elem_Localisation"><rect codeLine="18" fill="#F1F1F1" height="80.5938" id="Localisation" rx="2.5" ry="2.5" style="stroke:#181818;stroke-width:0.5;" width="218" x="523" y="72"/><ellipse cx="585.25" cy="88" fill="#ADD1B2" rx="11" ry="11" style="stroke:#181818;stroke-width:1.0;"/><path d="M587.5938,83.6719 C586.6563,83.2344 586.0625,83.0938 585.1875,83.0938 C582.5625,83.0938 580.5625,85.1719 580.5625,87.8906 L580.5625,89.0156 C580.5625,91.5938 582.6719,93.4844 585.5625,93.4844 C586.7813,93.4844 587.9375,93.1875 588.6875,92.6406 C589.2656,92.2344 589.5938,91.7813 589.5938,91.3906 C589.5938,90.9375 589.2031,90.5469 588.7344,90.5469 C588.5156,90.5469 588.3125,90.625 588.125,90.8125 C587.6719,91.2969 587.6719,91.2969 587.4844,91.3906 C587.0625,91.6563 586.375,91.7813 585.6094,91.7813 C583.5625,91.7813 582.2656,90.6875 582.2656,88.9844 L582.2656,87.8906 C582.2656,86.1094 583.5156,84.7969 585.25,84.7969 C585.8281,84.7969 586.4375,84.9531 586.9063,85.2031 C587.3906,85.4844 587.5625,85.7031 587.6563,86.1094 C587.7188,86.5156 587.75,86.6406 587.8906,86.7656 C588.0313,86.9063 588.2656,87.0156 588.4844,87.0156 C588.75,87.0156 589.0156,86.875 589.1875,86.6563 C589.2969,86.5 589.3281,86.3125 589.3281,85.8906 L589.3281,84.4688 C589.3281,84.0313 589.3125,83.9063 589.2188,83.75 C589.0625,83.4844 588.7813,83.3438 588.4844,83.3438 C588.1875,83.3438 587.9844,83.4375 587.7656,83.75 L587.5938,83.6719 Z " fill="#000000"/><text fill="#000000" font-family="sans-serif" font-size="14" lengthAdjust="spacing" textLength="85" x="605.75" y="92.8467">Localisation</text><line style="stroke:#181818;stroke-width:0.5;" x1="524" x2="740" y1="104" y2="104"/><ellipse cx="534" cy="117.6484" fill="none" rx="3" ry="3" style="stroke:#038048;stroke-width:1.0;"/><text fill="#000000" font-family="sans-serif" font-size="14" lengthAdjust="spacing" textLength="192" x="543" y="120.9951">localisationReady: boolean</text><ellipse cx="534" cy="133.9453" fill="none" rx="3" ry="3" style="stroke:#038048;stroke-width:1.0;"/><text fill="#000000" font-family="sans-serif" font-size="14" lengthAdjust="spacing" textLength="183" x="543" y="137.292">availableLanguages: array</text><line style="stroke:#181818;stroke-width:0.5;" x1="524" x2="740" y1="144.5938" y2="144.5938"/></g><!--class ApplicationSync--><g id="elem_ApplicationSync"><rect codeLine="22" fill="#F1F1F1" height="210.9688" id="ApplicationSync" rx="2.5" ry="2.5" style="stroke:#181818;stroke-width:0.5;" width="216" x="776" y="7"/><ellipse cx="821.25" cy="23" fill="#ADD1B2" rx="11" ry="11" style="stroke:#181818;stroke-width:1.0;"/><path d="M823.5938,18.6719 C822.6563,18.2344 822.0625,18.0938 821.1875,18.0938 C818.5625,18.0938 816.5625,20.1719 816.5625,22.8906 L816.5625,24.0156 C816.5625,26.5938 818.6719,28.4844 821.5625,28.4844 C822.7813,28.4844 823.9375,28.1875 824.6875,27.6406 C825.2656,27.2344 825.5938,26.7813 825.5938,26.3906 C825.5938,25.9375 825.2031,25.5469 824.7344,25.5469 C824.5156,25.5469 824.3125,25.625 824.125,25.8125 C823.6719,26.2969 823.6719,26.2969 823.4844,26.3906 C823.0625,26.6563 822.375,26.7813 821.6094,26.7813 C819.5625,26.7813 818.2656,25.6875 818.2656,23.9844 L818.2656,22.8906 C818.2656,21.1094 819.5156,19.7969 821.25,19.7969 C821.8281,19.7969 822.4375,19.9531 822.9063,20.2031 C823.3906,20.4844 823.5625,20.7031 823.6563,21.1094 C823.7188,21.5156 823.75,21.6406 823.8906,21.7656 C824.0313,21.9063 824.2656,22.0156 824.4844,22.0156 C824.75,22.0156 825.0156,21.875 825.1875,21.6563 C825.2969,21.5 825.3281,21.3125 825.3281,20.8906 L825.3281,19.4688 C825.3281,19.0313 825.3125,18.9063 825.2188,18.75 C825.0625,18.4844 824.7813,18.3438 824.4844,18.3438 C824.1875,18.3438 823.9844,18.4375 823.7656,18.75 L823.5938,18.6719 Z " fill="#000000"/><text fill="#000000" font-family="sans-serif" font-size="14" lengthAdjust="spacing" textLength="117" x="841.75" y="27.8467">ApplicationSync</text><line style="stroke:#181818;stroke-width:0.5;" x1="777" x2="991" y1="39" y2="39"/><ellipse cx="787" cy="52.6484" fill="none" rx="3" ry="3" style="stroke:#038048;stroke-width:1.0;"/><text fill="#000000" font-family="sans-serif" font-size="14" lengthAdjust="spacing" textLength="91" x="796" y="55.9951">name: string</text><ellipse cx="787" cy="68.9453" fill="none" rx="3" ry="3" style="stroke:#038048;stroke-width:1.0;"/><text fill="#000000" font-family="sans-serif" font-size="14" lengthAdjust="spacing" textLength="173" x="796" y="72.292">shortDescription: string</text><ellipse cx="787" cy="85.2422" fill="none" rx="3" ry="3" style="stroke:#038048;stroke-width:1.0;"/><text fill="#000000" font-family="sans-serif" font-size="14" lengthAdjust="spacing" textLength="133" x="796" y="88.5889">description: string</text><ellipse cx="787" cy="101.5391" fill="none" rx="3" ry="3" style="stroke:#038048;stroke-width:1.0;"/><text fill="#000000" font-family="sans-serif" font-size="14" lengthAdjust="spacing" textLength="190" x="796" y="104.8857">detailPageImageUrl: string</text><ellipse cx="787" cy="117.8359" fill="none" rx="3" ry="3" style="stroke:#038048;stroke-width:1.0;"/><text fill="#000000" font-family="sans-serif" font-size="14" lengthAdjust="spacing" textLength="180" x="796" y="121.1826">documentationUrl: string</text><ellipse cx="787" cy="134.1328" fill="none" rx="3" ry="3" style="stroke:#038048;stroke-width:1.0;"/><text fill="#000000" font-family="sans-serif" font-size="14" lengthAdjust="spacing" textLength="111" x="796" y="137.4795">demoUrl: string</text><ellipse cx="787" cy="150.4297" fill="none" rx="3" ry="3" style="stroke:#038048;stroke-width:1.0;"/><text fill="#000000" font-family="sans-serif" font-size="14" lengthAdjust="spacing" textLength="168" x="796" y="153.7764">bpmnProcessUrl: string</text><ellipse cx="787" cy="166.7266" fill="none" rx="3" ry="3" style="stroke:#038048;stroke-width:1.0;"/><text fill="#000000" font-family="sans-serif" font-size="14" lengthAdjust="spacing" textLength="147" x="796" y="170.0732">isPublished: boolean</text><ellipse cx="787" cy="183.0234" fill="none" rx="3" ry="3" style="stroke:#038048;stroke-width:1.0;"/><text fill="#000000" font-family="sans-serif" font-size="14" lengthAdjust="spacing" textLength="89" x="796" y="186.3701">owner: array</text><ellipse cx="787" cy="199.3203" fill="none" rx="3" ry="3" style="stroke:#038048;stroke-width:1.0;"/><text fill="#000000" font-family="sans-serif" font-size="14" lengthAdjust="spacing" textLength="136" x="796" y="202.667">components: array</text><line style="stroke:#181818;stroke-width:0.5;" x1="777" x2="991" y1="209.9688" y2="209.9688"/></g><!--class DependsOn--><g id="elem_DependsOn"><rect codeLine="34" fill="#F1F1F1" height="96.8906" id="DependsOn" rx="2.5" ry="2.5" style="stroke:#181818;stroke-width:0.5;" width="154" x="1027" y="64"/><ellipse cx="1059.1" cy="80" fill="#ADD1B2" rx="11" ry="11" style="stroke:#181818;stroke-width:1.0;"/><path d="M1061.4438,75.6719 C1060.5063,75.2344 1059.9125,75.0938 1059.0375,75.0938 C1056.4125,75.0938 1054.4125,77.1719 1054.4125,79.8906 L1054.4125,81.0156 C1054.4125,83.5938 1056.5219,85.4844 1059.4125,85.4844 C1060.6313,85.4844 1061.7875,85.1875 1062.5375,84.6406 C1063.1156,84.2344 1063.4438,83.7813 1063.4438,83.3906 C1063.4438,82.9375 1063.0531,82.5469 1062.5844,82.5469 C1062.3656,82.5469 1062.1625,82.625 1061.975,82.8125 C1061.5219,83.2969 1061.5219,83.2969 1061.3344,83.3906 C1060.9125,83.6563 1060.225,83.7813 1059.4594,83.7813 C1057.4125,83.7813 1056.1156,82.6875 1056.1156,80.9844 L1056.1156,79.8906 C1056.1156,78.1094 1057.3656,76.7969 1059.1,76.7969 C1059.6781,76.7969 1060.2875,76.9531 1060.7563,77.2031 C1061.2406,77.4844 1061.4125,77.7031 1061.5063,78.1094 C1061.5688,78.5156 1061.6,78.6406 1061.7406,78.7656 C1061.8813,78.9063 1062.1156,79.0156 1062.3344,79.0156 C1062.6,79.0156 1062.8656,78.875 1063.0375,78.6563 C1063.1469,78.5 1063.1781,78.3125 1063.1781,77.8906 L1063.1781,76.4688 C1063.1781,76.0313 1063.1625,75.9063 1063.0688,75.75 C1062.9125,75.4844 1062.6313,75.3438 1062.3344,75.3438 C1062.0375,75.3438 1061.8344,75.4375 1061.6156,75.75 L1061.4438,75.6719 Z " fill="#000000"/><text fill="#000000" font-family="sans-serif" font-size="14" lengthAdjust="spacing" textLength="84" x="1076.9" y="84.8467">DependsOn</text><line style="stroke:#181818;stroke-width:0.5;" x1="1028" x2="1180" y1="96" y2="96"/><ellipse cx="1038" cy="109.6484" fill="none" rx="3" ry="3" style="stroke:#038048;stroke-width:1.0;"/><text fill="#000000" font-family="sans-serif" font-size="14" lengthAdjust="spacing" textLength="82" x="1047" y="112.9951">open: array</text><ellipse cx="1038" cy="125.9453" fill="none" rx="3" ry="3" style="stroke:#038048;stroke-width:1.0;"/><text fill="#000000" font-family="sans-serif" font-size="14" lengthAdjust="spacing" textLength="128" x="1047" y="129.292">proprietary: array</text><ellipse cx="1038" cy="142.2422" fill="none" rx="3" ry="3" style="stroke:#038048;stroke-width:1.0;"/><text fill="#000000" font-family="sans-serif" font-size="14" lengthAdjust="spacing" textLength="111" x="1047" y="145.5889">hardware: array</text><line style="stroke:#181818;stroke-width:0.5;" x1="1028" x2="1180" y1="152.8906" y2="152.8906"/></g><!--class Nl--><g id="elem_Nl"><rect codeLine="39" fill="#F1F1F1" height="113.1875" id="Nl" rx="2.5" ry="2.5" style="stroke:#181818;stroke-width:0.5;" width="175" x="36.5" y="359.5"/><ellipse cx="112.75" cy="375.5" fill="#ADD1B2" rx="11" ry="11" style="stroke:#181818;stroke-width:1.0;"/><path d="M115.0938,371.1719 C114.1563,370.7344 113.5625,370.5938 112.6875,370.5938 C110.0625,370.5938 108.0625,372.6719 108.0625,375.3906 L108.0625,376.5156 C108.0625,379.0938 110.1719,380.9844 113.0625,380.9844 C114.2813,380.9844 115.4375,380.6875 116.1875,380.1406 C116.7656,379.7344 117.0938,379.2813 117.0938,378.8906 C117.0938,378.4375 116.7031,378.0469 116.2344,378.0469 C116.0156,378.0469 115.8125,378.125 115.625,378.3125 C115.1719,378.7969 115.1719,378.7969 114.9844,378.8906 C114.5625,379.1563 113.875,379.2813 113.1094,379.2813 C111.0625,379.2813 109.7656,378.1875 109.7656,376.4844 L109.7656,375.3906 C109.7656,373.6094 111.0156,372.2969 112.75,372.2969 C113.3281,372.2969 113.9375,372.4531 114.4063,372.7031 C114.8906,372.9844 115.0625,373.2031 115.1563,373.6094 C115.2188,374.0156 115.25,374.1406 115.3906,374.2656 C115.5313,374.4063 115.7656,374.5156 115.9844,374.5156 C116.25,374.5156 116.5156,374.375 116.6875,374.1563 C116.7969,374 116.8281,373.8125 116.8281,373.3906 L116.8281,371.9688 C116.8281,371.5313 116.8125,371.4063 116.7188,371.25 C116.5625,370.9844 116.2813,370.8438 115.9844,370.8438 C115.6875,370.8438 115.4844,370.9375 115.2656,371.25 L115.0938,371.1719 Z " fill="#000000"/><text fill="#000000" font-family="sans-serif" font-size="14" lengthAdjust="spacing" textLength="14" x="133.25" y="380.3467">Nl</text><line style="stroke:#181818;stroke-width:0.5;" x1="37.5" x2="210.5" y1="391.5" y2="391.5"/><ellipse cx="47.5" cy="405.1484" fill="none" rx="3" ry="3" style="stroke:#038048;stroke-width:1.0;"/><text fill="#000000" font-family="sans-serif" font-size="14" lengthAdjust="spacing" textLength="149" x="56.5" y="408.4951">commonground: Any</text><ellipse cx="47.5" cy="421.4453" fill="none" rx="3" ry="3" style="stroke:#038048;stroke-width:1.0;"/><text fill="#000000" font-family="sans-serif" font-size="14" lengthAdjust="spacing" textLength="90" x="56.5" y="424.792">gemma: Any</text><ellipse cx="47.5" cy="437.7422" fill="none" rx="3" ry="3" style="stroke:#038048;stroke-width:1.0;"/><text fill="#000000" font-family="sans-serif" font-size="14" lengthAdjust="spacing" textLength="88" x="56.5" y="441.0889">apm: object</text><ellipse cx="47.5" cy="454.0391" fill="none" rx="3" ry="3" style="stroke:#038048;stroke-width:1.0;"/><text fill="#000000" font-family="sans-serif" font-size="14" lengthAdjust="spacing" textLength="67" x="56.5" y="457.3857">upl: array</text><line style="stroke:#181818;stroke-width:0.5;" x1="37.5" x2="210.5" y1="464.6875" y2="464.6875"/></g><!--class Organisation--><g id="elem_Organisation"><rect codeLine="45" fill="#F1F1F1" height="276.1563" id="Organisation" rx="2.5" ry="2.5" style="stroke:#181818;stroke-width:0.5;" width="168" x="247" y="278"/><ellipse cx="282.25" cy="294" fill="#ADD1B2" rx="11" ry="11" style="stroke:#181818;stroke-width:1.0;"/><path d="M284.5938,289.6719 C283.6563,289.2344 283.0625,289.0938 282.1875,289.0938 C279.5625,289.0938 277.5625,291.1719 277.5625,293.8906 L277.5625,295.0156 C277.5625,297.5938 279.6719,299.4844 282.5625,299.4844 C283.7813,299.4844 284.9375,299.1875 285.6875,298.6406 C286.2656,298.2344 286.5938,297.7813 286.5938,297.3906 C286.5938,296.9375 286.2031,296.5469 285.7344,296.5469 C285.5156,296.5469 285.3125,296.625 285.125,296.8125 C284.6719,297.2969 284.6719,297.2969 284.4844,297.3906 C284.0625,297.6563 283.375,297.7813 282.6094,297.7813 C280.5625,297.7813 279.2656,296.6875 279.2656,294.9844 L279.2656,293.8906 C279.2656,292.1094 280.5156,290.7969 282.25,290.7969 C282.8281,290.7969 283.4375,290.9531 283.9063,291.2031 C284.3906,291.4844 284.5625,291.7031 284.6563,292.1094 C284.7188,292.5156 284.75,292.6406 284.8906,292.7656 C285.0313,292.9063 285.2656,293.0156 285.4844,293.0156 C285.75,293.0156 286.0156,292.875 286.1875,292.6563 C286.2969,292.5 286.3281,292.3125 286.3281,291.8906 L286.3281,290.4688 C286.3281,290.0313 286.3125,289.9063 286.2188,289.75 C286.0625,289.4844 285.7813,289.3438 285.4844,289.3438 C285.1875,289.3438 284.9844,289.4375 284.7656,289.75 L284.5938,289.6719 Z " fill="#000000"/><text fill="#000000" font-family="sans-serif" font-size="14" lengthAdjust="spacing" textLength="91" x="300.75" y="298.8467">Organisation</text><line style="stroke:#181818;stroke-width:0.5;" x1="248" x2="414" y1="310" y2="310"/><ellipse cx="258" cy="323.6484" fill="none" rx="3" ry="3" style="stroke:#038048;stroke-width:1.0;"/><text fill="#000000" font-family="sans-serif" font-size="14" lengthAdjust="spacing" textLength="91" x="267" y="326.9951">name: string</text><ellipse cx="258" cy="339.9453" fill="none" rx="3" ry="3" style="stroke:#038048;stroke-width:1.0;"/><text fill="#000000" font-family="sans-serif" font-size="14" lengthAdjust="spacing" textLength="133" x="267" y="343.292">description: string</text><ellipse cx="258" cy="356.2422" fill="none" rx="3" ry="3" style="stroke:#038048;stroke-width:1.0;"/><text fill="#000000" font-family="sans-serif" font-size="14" lengthAdjust="spacing" textLength="82" x="267" y="359.5889">logo: string</text><ellipse cx="258" cy="372.5391" fill="none" rx="3" ry="3" style="stroke:#038048;stroke-width:1.0;"/><text fill="#000000" font-family="sans-serif" font-size="14" lengthAdjust="spacing" textLength="109" x="267" y="375.8857">supports: array</text><ellipse cx="258" cy="388.8359" fill="none" rx="3" ry="3" style="stroke:#038048;stroke-width:1.0;"/><text fill="#000000" font-family="sans-serif" font-size="14" lengthAdjust="spacing" textLength="81" x="267" y="392.1826">owns: array</text><ellipse cx="258" cy="405.1328" fill="none" rx="3" ry="3" style="stroke:#038048;stroke-width:1.0;"/><text fill="#000000" font-family="sans-serif" font-size="14" lengthAdjust="spacing" textLength="76" x="267" y="408.4795">uses: array</text><ellipse cx="258" cy="421.4297" fill="none" rx="3" ry="3" style="stroke:#038048;stroke-width:1.0;"/><text fill="#000000" font-family="sans-serif" font-size="14" lengthAdjust="spacing" textLength="94" x="267" y="424.7764">token: string</text><ellipse cx="258" cy="437.7266" fill="none" rx="3" ry="3" style="stroke:#038048;stroke-width:1.0;"/><text fill="#000000" font-family="sans-serif" font-size="14" lengthAdjust="spacing" textLength="98" x="267" y="441.0732">github: string</text><ellipse cx="258" cy="454.0234" fill="none" rx="3" ry="3" style="stroke:#038048;stroke-width:1.0;"/><text fill="#000000" font-family="sans-serif" font-size="14" lengthAdjust="spacing" textLength="93" x="267" y="457.3701">gitlab: string</text><ellipse cx="258" cy="470.3203" fill="none" rx="3" ry="3" style="stroke:#038048;stroke-width:1.0;"/><text fill="#000000" font-family="sans-serif" font-size="14" lengthAdjust="spacing" textLength="108" x="267" y="473.667">website: string</text><ellipse cx="258" cy="486.6172" fill="none" rx="3" ry="3" style="stroke:#038048;stroke-width:1.0;"/><text fill="#000000" font-family="sans-serif" font-size="14" lengthAdjust="spacing" textLength="97" x="267" y="489.9639">phone: string</text><ellipse cx="258" cy="502.9141" fill="none" rx="3" ry="3" style="stroke:#038048;stroke-width:1.0;"/><text fill="#000000" font-family="sans-serif" font-size="14" lengthAdjust="spacing" textLength="90" x="267" y="506.2607">email: string</text><ellipse cx="258" cy="519.2109" fill="none" rx="3" ry="3" style="stroke:#038048;stroke-width:1.0;"/><text fill="#000000" font-family="sans-serif" font-size="14" lengthAdjust="spacing" textLength="85" x="267" y="522.5576">type: string</text><ellipse cx="258" cy="535.5078" fill="none" rx="3" ry="3" style="stroke:#038048;stroke-width:1.0;"/><text fill="#000000" font-family="sans-serif" font-size="14" lengthAdjust="spacing" textLength="142" x="267" y="538.8545">catalogusAPI: string</text><line style="stroke:#181818;stroke-width:0.5;" x1="248" x2="414" y1="546.1563" y2="546.1563"/></g><!--class Maintenance--><g id="elem_Maintenance"><rect codeLine="61" fill="#F1F1F1" height="96.8906" id="Maintenance" rx="2.5" ry="2.5" style="stroke:#181818;stroke-width:0.5;" width="155" x="450.5" y="367.5"/><ellipse cx="479.45" cy="383.5" fill="#ADD1B2" rx="11" ry="11" style="stroke:#181818;stroke-width:1.0;"/><path d="M481.7938,379.1719 C480.8563,378.7344 480.2625,378.5938 479.3875,378.5938 C476.7625,378.5938 474.7625,380.6719 474.7625,383.3906 L474.7625,384.5156 C474.7625,387.0938 476.8719,388.9844 479.7625,388.9844 C480.9813,388.9844 482.1375,388.6875 482.8875,388.1406 C483.4656,387.7344 483.7938,387.2813 483.7938,386.8906 C483.7938,386.4375 483.4031,386.0469 482.9344,386.0469 C482.7156,386.0469 482.5125,386.125 482.325,386.3125 C481.8719,386.7969 481.8719,386.7969 481.6844,386.8906 C481.2625,387.1563 480.575,387.2813 479.8094,387.2813 C477.7625,387.2813 476.4656,386.1875 476.4656,384.4844 L476.4656,383.3906 C476.4656,381.6094 477.7156,380.2969 479.45,380.2969 C480.0281,380.2969 480.6375,380.4531 481.1063,380.7031 C481.5906,380.9844 481.7625,381.2031 481.8563,381.6094 C481.9188,382.0156 481.95,382.1406 482.0906,382.2656 C482.2313,382.4063 482.4656,382.5156 482.6844,382.5156 C482.95,382.5156 483.2156,382.375 483.3875,382.1563 C483.4969,382 483.5281,381.8125 483.5281,381.3906 L483.5281,379.9688 C483.5281,379.5313 483.5125,379.4063 483.4188,379.25 C483.2625,378.9844 482.9813,378.8438 482.6844,378.8438 C482.3875,378.8438 482.1844,378.9375 481.9656,379.25 L481.7938,379.1719 Z " fill="#000000"/><text fill="#000000" font-family="sans-serif" font-size="14" lengthAdjust="spacing" textLength="92" x="496.55" y="388.3467">Maintenance</text><line style="stroke:#181818;stroke-width:0.5;" x1="451.5" x2="604.5" y1="399.5" y2="399.5"/><ellipse cx="461.5" cy="413.1484" fill="none" rx="3" ry="3" style="stroke:#038048;stroke-width:1.0;"/><text fill="#000000" font-family="sans-serif" font-size="14" lengthAdjust="spacing" textLength="85" x="470.5" y="416.4951">type: string</text><ellipse cx="461.5" cy="429.4453" fill="none" rx="3" ry="3" style="stroke:#038048;stroke-width:1.0;"/><text fill="#000000" font-family="sans-serif" font-size="14" lengthAdjust="spacing" textLength="129" x="470.5" y="432.792">contractors: array</text><ellipse cx="461.5" cy="445.7422" fill="none" rx="3" ry="3" style="stroke:#038048;stroke-width:1.0;"/><text fill="#000000" font-family="sans-serif" font-size="14" lengthAdjust="spacing" textLength="108" x="470.5" y="449.0889">contacts: array</text><line style="stroke:#181818;stroke-width:0.5;" x1="451.5" x2="604.5" y1="456.3906" y2="456.3906"/></g><!--class Application--><g id="elem_Application"><rect codeLine="66" fill="#F1F1F1" height="210.9688" id="Application" rx="2.5" ry="2.5" style="stroke:#181818;stroke-width:0.5;" width="216" x="641" y="310.5"/><ellipse cx="703.25" cy="326.5" fill="#ADD1B2" rx="11" ry="11" style="stroke:#181818;stroke-width:1.0;"/><path d="M705.5938,322.1719 C704.6563,321.7344 704.0625,321.5938 703.1875,321.5938 C700.5625,321.5938 698.5625,323.6719 698.5625,326.3906 L698.5625,327.5156 C698.5625,330.0938 700.6719,331.9844 703.5625,331.9844 C704.7813,331.9844 705.9375,331.6875 706.6875,331.1406 C707.2656,330.7344 707.5938,330.2813 707.5938,329.8906 C707.5938,329.4375 707.2031,329.0469 706.7344,329.0469 C706.5156,329.0469 706.3125,329.125 706.125,329.3125 C705.6719,329.7969 705.6719,329.7969 705.4844,329.8906 C705.0625,330.1563 704.375,330.2813 703.6094,330.2813 C701.5625,330.2813 700.2656,329.1875 700.2656,327.4844 L700.2656,326.3906 C700.2656,324.6094 701.5156,323.2969 703.25,323.2969 C703.8281,323.2969 704.4375,323.4531 704.9063,323.7031 C705.3906,323.9844 705.5625,324.2031 705.6563,324.6094 C705.7188,325.0156 705.75,325.1406 705.8906,325.2656 C706.0313,325.4063 706.2656,325.5156 706.4844,325.5156 C706.75,325.5156 707.0156,325.375 707.1875,325.1563 C707.2969,325 707.3281,324.8125 707.3281,324.3906 L707.3281,322.9688 C707.3281,322.5313 707.3125,322.4063 707.2188,322.25 C707.0625,321.9844 706.7813,321.8438 706.4844,321.8438 C706.1875,321.8438 705.9844,321.9375 705.7656,322.25 L705.5938,322.1719 Z " fill="#000000"/><text fill="#000000" font-family="sans-serif" font-size="14" lengthAdjust="spacing" textLength="83" x="723.75" y="331.3467">Application</text><line style="stroke:#181818;stroke-width:0.5;" x1="642" x2="856" y1="342.5" y2="342.5"/><ellipse cx="652" cy="356.1484" fill="none" rx="3" ry="3" style="stroke:#038048;stroke-width:1.0;"/><text fill="#000000" font-family="sans-serif" font-size="14" lengthAdjust="spacing" textLength="91" x="661" y="359.4951">name: string</text><ellipse cx="652" cy="372.4453" fill="none" rx="3" ry="3" style="stroke:#038048;stroke-width:1.0;"/><text fill="#000000" font-family="sans-serif" font-size="14" lengthAdjust="spacing" textLength="173" x="661" y="375.792">shortDescription: string</text><ellipse cx="652" cy="388.7422" fill="none" rx="3" ry="3" style="stroke:#038048;stroke-width:1.0;"/><text fill="#000000" font-family="sans-serif" font-size="14" lengthAdjust="spacing" textLength="133" x="661" y="392.0889">description: string</text><ellipse cx="652" cy="405.0391" fill="none" rx="3" ry="3" style="stroke:#038048;stroke-width:1.0;"/><text fill="#000000" font-family="sans-serif" font-size="14" lengthAdjust="spacing" textLength="190" x="661" y="408.3857">detailPageImageUrl: string</text><ellipse cx="652" cy="421.3359" fill="none" rx="3" ry="3" style="stroke:#038048;stroke-width:1.0;"/><text fill="#000000" font-family="sans-serif" font-size="14" lengthAdjust="spacing" textLength="180" x="661" y="424.6826">documentationUrl: string</text><ellipse cx="652" cy="437.6328" fill="none" rx="3" ry="3" style="stroke:#038048;stroke-width:1.0;"/><text fill="#000000" font-family="sans-serif" font-size="14" lengthAdjust="spacing" textLength="111" x="661" y="440.9795">demoUrl: string</text><ellipse cx="652" cy="453.9297" fill="none" rx="3" ry="3" style="stroke:#038048;stroke-width:1.0;"/><text fill="#000000" font-family="sans-serif" font-size="14" lengthAdjust="spacing" textLength="168" x="661" y="457.2764">bpmnProcessUrl: string</text><ellipse cx="652" cy="470.2266" fill="none" rx="3" ry="3" style="stroke:#038048;stroke-width:1.0;"/><text fill="#000000" font-family="sans-serif" font-size="14" lengthAdjust="spacing" textLength="147" x="661" y="473.5732">isPublished: boolean</text><ellipse cx="652" cy="486.5234" fill="none" rx="3" ry="3" style="stroke:#038048;stroke-width:1.0;"/><text fill="#000000" font-family="sans-serif" font-size="14" lengthAdjust="spacing" textLength="80" x="661" y="489.8701">owner: Any</text><ellipse cx="652" cy="502.8203" fill="none" rx="3" ry="3" style="stroke:#038048;stroke-width:1.0;"/><text fill="#000000" font-family="sans-serif" font-size="14" lengthAdjust="spacing" textLength="136" x="661" y="506.167">components: array</text><line style="stroke:#181818;stroke-width:0.5;" x1="642" x2="856" y1="513.4688" y2="513.4688"/></g><!--class Source--><g id="elem_Source"><rect codeLine="78" fill="#F1F1F1" height="96.8906" id="Source" rx="2.5" ry="2.5" style="stroke:#181818;stroke-width:0.5;" width="159" x="892.5" y="367.5"/><ellipse cx="943.25" cy="383.5" fill="#ADD1B2" rx="11" ry="11" style="stroke:#181818;stroke-width:1.0;"/><path d="M945.5938,379.1719 C944.6563,378.7344 944.0625,378.5938 943.1875,378.5938 C940.5625,378.5938 938.5625,380.6719 938.5625,383.3906 L938.5625,384.5156 C938.5625,387.0938 940.6719,388.9844 943.5625,388.9844 C944.7813,388.9844 945.9375,388.6875 946.6875,388.1406 C947.2656,387.7344 947.5938,387.2813 947.5938,386.8906 C947.5938,386.4375 947.2031,386.0469 946.7344,386.0469 C946.5156,386.0469 946.3125,386.125 946.125,386.3125 C945.6719,386.7969 945.6719,386.7969 945.4844,386.8906 C945.0625,387.1563 944.375,387.2813 943.6094,387.2813 C941.5625,387.2813 940.2656,386.1875 940.2656,384.4844 L940.2656,383.3906 C940.2656,381.6094 941.5156,380.2969 943.25,380.2969 C943.8281,380.2969 944.4375,380.4531 944.9063,380.7031 C945.3906,380.9844 945.5625,381.2031 945.6563,381.6094 C945.7188,382.0156 945.75,382.1406 945.8906,382.2656 C946.0313,382.4063 946.2656,382.5156 946.4844,382.5156 C946.75,382.5156 947.0156,382.375 947.1875,382.1563 C947.2969,382 947.3281,381.8125 947.3281,381.3906 L947.3281,379.9688 C947.3281,379.5313 947.3125,379.4063 947.2188,379.25 C947.0625,378.9844 946.7813,378.8438 946.4844,378.8438 C946.1875,378.8438 945.9844,378.9375 945.7656,379.25 L945.5938,379.1719 Z " fill="#000000"/><text fill="#000000" font-family="sans-serif" font-size="14" lengthAdjust="spacing" textLength="49" x="963.75" y="388.3467">Source</text><line style="stroke:#181818;stroke-width:0.5;" x1="893.5" x2="1050.5" y1="399.5" y2="399.5"/><ellipse cx="903.5" cy="413.1484" fill="none" rx="3" ry="3" style="stroke:#038048;stroke-width:1.0;"/><text fill="#000000" font-family="sans-serif" font-size="14" lengthAdjust="spacing" textLength="91" x="912.5" y="416.4951">name: string</text><ellipse cx="903.5" cy="429.4453" fill="none" rx="3" ry="3" style="stroke:#038048;stroke-width:1.0;"/><text fill="#000000" font-family="sans-serif" font-size="14" lengthAdjust="spacing" textLength="133" x="912.5" y="432.792">description: string</text><ellipse cx="903.5" cy="445.7422" fill="none" rx="3" ry="3" style="stroke:#038048;stroke-width:1.0;"/><text fill="#000000" font-family="sans-serif" font-size="14" lengthAdjust="spacing" textLength="109" x="912.5" y="449.0889">location: string</text><line style="stroke:#181818;stroke-width:0.5;" x1="893.5" x2="1050.5" y1="456.3906" y2="456.3906"/></g><!--class Owner--><g id="elem_Owner"><rect codeLine="83" fill="#F1F1F1" height="96.8906" id="Owner" rx="2.5" ry="2.5" style="stroke:#181818;stroke-width:0.5;" width="148" x="50" y="793"/><ellipse cx="96.75" cy="809" fill="#ADD1B2" rx="11" ry="11" style="stroke:#181818;stroke-width:1.0;"/><path d="M99.0938,804.6719 C98.1563,804.2344 97.5625,804.0938 96.6875,804.0938 C94.0625,804.0938 92.0625,806.1719 92.0625,808.8906 L92.0625,810.0156 C92.0625,812.5938 94.1719,814.4844 97.0625,814.4844 C98.2813,814.4844 99.4375,814.1875 100.1875,813.6406 C100.7656,813.2344 101.0938,812.7813 101.0938,812.3906 C101.0938,811.9375 100.7031,811.5469 100.2344,811.5469 C100.0156,811.5469 99.8125,811.625 99.625,811.8125 C99.1719,812.2969 99.1719,812.2969 98.9844,812.3906 C98.5625,812.6563 97.875,812.7813 97.1094,812.7813 C95.0625,812.7813 93.7656,811.6875 93.7656,809.9844 L93.7656,808.8906 C93.7656,807.1094 95.0156,805.7969 96.75,805.7969 C97.3281,805.7969 97.9375,805.9531 98.4063,806.2031 C98.8906,806.4844 99.0625,806.7031 99.1563,807.1094 C99.2188,807.5156 99.25,807.6406 99.3906,807.7656 C99.5313,807.9063 99.7656,808.0156 99.9844,808.0156 C100.25,808.0156 100.5156,807.875 100.6875,807.6563 C100.7969,807.5 100.8281,807.3125 100.8281,806.8906 L100.8281,805.4688 C100.8281,805.0313 100.8125,804.9063 100.7188,804.75 C100.5625,804.4844 100.2813,804.3438 99.9844,804.3438 C99.6875,804.3438 99.4844,804.4375 99.2656,804.75 L99.0938,804.6719 Z " fill="#000000"/><text fill="#000000" font-family="sans-serif" font-size="14" lengthAdjust="spacing" textLength="46" x="117.25" y="813.8467">Owner</text><line style="stroke:#181818;stroke-width:0.5;" x1="51" x2="197" y1="825" y2="825"/><ellipse cx="61" cy="838.6484" fill="none" rx="3" ry="3" style="stroke:#038048;stroke-width:1.0;"/><text fill="#000000" font-family="sans-serif" font-size="14" lengthAdjust="spacing" textLength="114" x="70" y="841.9951">fullName: string</text><ellipse cx="61" cy="854.9453" fill="none" rx="3" ry="3" style="stroke:#038048;stroke-width:1.0;"/><text fill="#000000" font-family="sans-serif" font-size="14" lengthAdjust="spacing" textLength="90" x="70" y="858.292">email: string</text><ellipse cx="61" cy="871.2422" fill="none" rx="3" ry="3" style="stroke:#038048;stroke-width:1.0;"/><text fill="#000000" font-family="sans-serif" font-size="14" lengthAdjust="spacing" textLength="122" x="70" y="874.5889">pictureUrl: string</text><line style="stroke:#181818;stroke-width:0.5;" x1="51" x2="197" y1="881.8906" y2="881.8906"/></g><!--class Installation--><g id="elem_Installation"><rect codeLine="88" fill="#F1F1F1" height="113.1875" id="Installation" rx="2.5" ry="2.5" style="stroke:#181818;stroke-width:0.5;" width="170" x="233" y="785"/><ellipse cx="274.1" cy="801" fill="#ADD1B2" rx="11" ry="11" style="stroke:#181818;stroke-width:1.0;"/><path d="M276.4438,796.6719 C275.5063,796.2344 274.9125,796.0938 274.0375,796.0938 C271.4125,796.0938 269.4125,798.1719 269.4125,800.8906 L269.4125,802.0156 C269.4125,804.5938 271.5219,806.4844 274.4125,806.4844 C275.6313,806.4844 276.7875,806.1875 277.5375,805.6406 C278.1156,805.2344 278.4438,804.7813 278.4438,804.3906 C278.4438,803.9375 278.0531,803.5469 277.5844,803.5469 C277.3656,803.5469 277.1625,803.625 276.975,803.8125 C276.5219,804.2969 276.5219,804.2969 276.3344,804.3906 C275.9125,804.6563 275.225,804.7813 274.4594,804.7813 C272.4125,804.7813 271.1156,803.6875 271.1156,801.9844 L271.1156,800.8906 C271.1156,799.1094 272.3656,797.7969 274.1,797.7969 C274.6781,797.7969 275.2875,797.9531 275.7563,798.2031 C276.2406,798.4844 276.4125,798.7031 276.5063,799.1094 C276.5688,799.5156 276.6,799.6406 276.7406,799.7656 C276.8813,799.9063 277.1156,800.0156 277.3344,800.0156 C277.6,800.0156 277.8656,799.875 278.0375,799.6563 C278.1469,799.5 278.1781,799.3125 278.1781,798.8906 L278.1781,797.4688 C278.1781,797.0313 278.1625,796.9063 278.0688,796.75 C277.9125,796.4844 277.6313,796.3438 277.3344,796.3438 C277.0375,796.3438 276.8344,796.4375 276.6156,796.75 L276.4438,796.6719 Z " fill="#000000"/><text fill="#000000" font-family="sans-serif" font-size="14" lengthAdjust="spacing" textLength="80" x="293.9" y="805.8467">Installation</text><line style="stroke:#181818;stroke-width:0.5;" x1="234" x2="402" y1="817" y2="817"/><ellipse cx="244" cy="830.6484" fill="none" rx="3" ry="3" style="stroke:#038048;stroke-width:1.0;"/><text fill="#000000" font-family="sans-serif" font-size="14" lengthAdjust="spacing" textLength="141" x="253" y="833.9951">organization: string</text><ellipse cx="244" cy="846.9453" fill="none" rx="3" ry="3" style="stroke:#038048;stroke-width:1.0;"/><text fill="#000000" font-family="sans-serif" font-size="14" lengthAdjust="spacing" textLength="135" x="253" y="850.292">component: string</text><ellipse cx="244" cy="863.2422" fill="none" rx="3" ry="3" style="stroke:#038048;stroke-width:1.0;"/><text fill="#000000" font-family="sans-serif" font-size="14" lengthAdjust="spacing" textLength="103" x="253" y="866.5889">version: string</text><ellipse cx="244" cy="879.5391" fill="none" rx="3" ry="3" style="stroke:#038048;stroke-width:1.0;"/><text fill="#000000" font-family="sans-serif" font-size="14" lengthAdjust="spacing" textLength="144" x="253" y="882.8857">environment: string</text><line style="stroke:#181818;stroke-width:0.5;" x1="234" x2="402" y1="890.1875" y2="890.1875"/></g><!--class Contractor--><g id="elem_Contractor"><rect codeLine="94" fill="#F1F1F1" height="80.5938" id="Contractor" rx="2.5" ry="2.5" style="stroke:#181818;stroke-width:0.5;" width="151" x="438.5" y="801"/><ellipse cx="471.5" cy="817" fill="#ADD1B2" rx="11" ry="11" style="stroke:#181818;stroke-width:1.0;"/><path d="M473.8438,812.6719 C472.9063,812.2344 472.3125,812.0938 471.4375,812.0938 C468.8125,812.0938 466.8125,814.1719 466.8125,816.8906 L466.8125,818.0156 C466.8125,820.5938 468.9219,822.4844 471.8125,822.4844 C473.0313,822.4844 474.1875,822.1875 474.9375,821.6406 C475.5156,821.2344 475.8438,820.7813 475.8438,820.3906 C475.8438,819.9375 475.4531,819.5469 474.9844,819.5469 C474.7656,819.5469 474.5625,819.625 474.375,819.8125 C473.9219,820.2969 473.9219,820.2969 473.7344,820.3906 C473.3125,820.6563 472.625,820.7813 471.8594,820.7813 C469.8125,820.7813 468.5156,819.6875 468.5156,817.9844 L468.5156,816.8906 C468.5156,815.1094 469.7656,813.7969 471.5,813.7969 C472.0781,813.7969 472.6875,813.9531 473.1563,814.2031 C473.6406,814.4844 473.8125,814.7031 473.9063,815.1094 C473.9688,815.5156 474,815.6406 474.1406,815.7656 C474.2813,815.9063 474.5156,816.0156 474.7344,816.0156 C475,816.0156 475.2656,815.875 475.4375,815.6563 C475.5469,815.5 475.5781,815.3125 475.5781,814.8906 L475.5781,813.4688 C475.5781,813.0313 475.5625,812.9063 475.4688,812.75 C475.3125,812.4844 475.0313,812.3438 474.7344,812.3438 C474.4375,812.3438 474.2344,812.4375 474.0156,812.75 L473.8438,812.6719 Z " fill="#000000"/><text fill="#000000" font-family="sans-serif" font-size="14" lengthAdjust="spacing" textLength="79" x="489.5" y="821.8467">Contractor</text><line style="stroke:#181818;stroke-width:0.5;" x1="439.5" x2="588.5" y1="833" y2="833"/><ellipse cx="449.5" cy="846.6484" fill="none" rx="3" ry="3" style="stroke:#038048;stroke-width:1.0;"/><text fill="#000000" font-family="sans-serif" font-size="14" lengthAdjust="spacing" textLength="125" x="458.5" y="849.9951">organisation: Any</text><ellipse cx="449.5" cy="862.9453" fill="none" rx="3" ry="3" style="stroke:#038048;stroke-width:1.0;"/><text fill="#000000" font-family="sans-serif" font-size="14" lengthAdjust="spacing" textLength="83" x="458.5" y="866.292">until: string</text><line style="stroke:#181818;stroke-width:0.5;" x1="439.5" x2="588.5" y1="873.5938" y2="873.5938"/></g><!--class IntendedAudience--><g id="elem_IntendedAudience"><rect codeLine="98" fill="#F1F1F1" height="96.8906" id="IntendedAudience" rx="2.5" ry="2.5" style="stroke:#181818;stroke-width:0.5;" width="232" x="625" y="793"/><ellipse cx="671.25" cy="809" fill="#ADD1B2" rx="11" ry="11" style="stroke:#181818;stroke-width:1.0;"/><path d="M673.5938,804.6719 C672.6563,804.2344 672.0625,804.0938 671.1875,804.0938 C668.5625,804.0938 666.5625,806.1719 666.5625,808.8906 L666.5625,810.0156 C666.5625,812.5938 668.6719,814.4844 671.5625,814.4844 C672.7813,814.4844 673.9375,814.1875 674.6875,813.6406 C675.2656,813.2344 675.5938,812.7813 675.5938,812.3906 C675.5938,811.9375 675.2031,811.5469 674.7344,811.5469 C674.5156,811.5469 674.3125,811.625 674.125,811.8125 C673.6719,812.2969 673.6719,812.2969 673.4844,812.3906 C673.0625,812.6563 672.375,812.7813 671.6094,812.7813 C669.5625,812.7813 668.2656,811.6875 668.2656,809.9844 L668.2656,808.8906 C668.2656,807.1094 669.5156,805.7969 671.25,805.7969 C671.8281,805.7969 672.4375,805.9531 672.9063,806.2031 C673.3906,806.4844 673.5625,806.7031 673.6563,807.1094 C673.7188,807.5156 673.75,807.6406 673.8906,807.7656 C674.0313,807.9063 674.2656,808.0156 674.4844,808.0156 C674.75,808.0156 675.0156,807.875 675.1875,807.6563 C675.2969,807.5 675.3281,807.3125 675.3281,806.8906 L675.3281,805.4688 C675.3281,805.0313 675.3125,804.9063 675.2188,804.75 C675.0625,804.4844 674.7813,804.3438 674.4844,804.3438 C674.1875,804.3438 673.9844,804.4375 673.7656,804.75 L673.5938,804.6719 Z " fill="#000000"/><text fill="#000000" font-family="sans-serif" font-size="14" lengthAdjust="spacing" textLength="131" x="691.75" y="813.8467">IntendedAudience</text><line style="stroke:#181818;stroke-width:0.5;" x1="626" x2="856" y1="825" y2="825"/><ellipse cx="636" cy="838.6484" fill="none" rx="3" ry="3" style="stroke:#038048;stroke-width:1.0;"/><text fill="#000000" font-family="sans-serif" font-size="14" lengthAdjust="spacing" textLength="112" x="645" y="841.9951">countries: array</text><ellipse cx="636" cy="854.9453" fill="none" rx="3" ry="3" style="stroke:#038048;stroke-width:1.0;"/><text fill="#000000" font-family="sans-serif" font-size="14" lengthAdjust="spacing" textLength="206" x="645" y="858.292">unsupportedCountries: array</text><ellipse cx="636" cy="871.2422" fill="none" rx="3" ry="3" style="stroke:#038048;stroke-width:1.0;"/><text fill="#000000" font-family="sans-serif" font-size="14" lengthAdjust="spacing" textLength="88" x="645" y="874.5889">scope: array</text><line style="stroke:#181818;stroke-width:0.5;" x1="626" x2="856" y1="881.8906" y2="881.8906"/></g><!--class Component--><g id="elem_Component"><rect codeLine="103" fill="#F1F1F1" height="455.4219" id="Component" rx="2.5" ry="2.5" style="stroke:#181818;stroke-width:0.5;" width="220" x="892" y="614"/><ellipse cx="954.75" cy="630" fill="#ADD1B2" rx="11" ry="11" style="stroke:#181818;stroke-width:1.0;"/><path d="M957.0938,625.6719 C956.1563,625.2344 955.5625,625.0938 954.6875,625.0938 C952.0625,625.0938 950.0625,627.1719 950.0625,629.8906 L950.0625,631.0156 C950.0625,633.5938 952.1719,635.4844 955.0625,635.4844 C956.2813,635.4844 957.4375,635.1875 958.1875,634.6406 C958.7656,634.2344 959.0938,633.7813 959.0938,633.3906 C959.0938,632.9375 958.7031,632.5469 958.2344,632.5469 C958.0156,632.5469 957.8125,632.625 957.625,632.8125 C957.1719,633.2969 957.1719,633.2969 956.9844,633.3906 C956.5625,633.6563 955.875,633.7813 955.1094,633.7813 C953.0625,633.7813 951.7656,632.6875 951.7656,630.9844 L951.7656,629.8906 C951.7656,628.1094 953.0156,626.7969 954.75,626.7969 C955.3281,626.7969 955.9375,626.9531 956.4063,627.2031 C956.8906,627.4844 957.0625,627.7031 957.1563,628.1094 C957.2188,628.5156 957.25,628.6406 957.3906,628.7656 C957.5313,628.9063 957.7656,629.0156 957.9844,629.0156 C958.25,629.0156 958.5156,628.875 958.6875,628.6563 C958.7969,628.5 958.8281,628.3125 958.8281,627.8906 L958.8281,626.4688 C958.8281,626.0313 958.8125,625.9063 958.7188,625.75 C958.5625,625.4844 958.2813,625.3438 957.9844,625.3438 C957.6875,625.3438 957.4844,625.4375 957.2656,625.75 L957.0938,625.6719 Z " fill="#000000"/><text fill="#000000" font-family="sans-serif" font-size="14" lengthAdjust="spacing" textLength="86" x="975.25" y="634.8467">Component</text><line style="stroke:#181818;stroke-width:0.5;" x1="893" x2="1111" y1="646" y2="646"/><ellipse cx="903" cy="659.6484" fill="none" rx="3" ry="3" style="stroke:#038048;stroke-width:1.0;"/><text fill="#000000" font-family="sans-serif" font-size="14" lengthAdjust="spacing" textLength="145" x="912" y="662.9951">applicationId: string</text><ellipse cx="903" cy="675.9453" fill="none" rx="3" ry="3" style="stroke:#038048;stroke-width:1.0;"/><text fill="#000000" font-family="sans-serif" font-size="14" lengthAdjust="spacing" textLength="91" x="912" y="679.292">name: string</text><ellipse cx="903" cy="692.2422" fill="none" rx="3" ry="3" style="stroke:#038048;stroke-width:1.0;"/><text fill="#000000" font-family="sans-serif" font-size="14" lengthAdjust="spacing" textLength="154" x="912" y="695.5889">applicationSuite: Any</text><ellipse cx="903" cy="708.5391" fill="none" rx="3" ry="3" style="stroke:#038048;stroke-width:1.0;"/><text fill="#000000" font-family="sans-serif" font-size="14" lengthAdjust="spacing" textLength="54" x="912" y="711.8857">url: Any</text><ellipse cx="903" cy="724.8359" fill="none" rx="3" ry="3" style="stroke:#038048;stroke-width:1.0;"/><text fill="#000000" font-family="sans-serif" font-size="14" lengthAdjust="spacing" textLength="130" x="912" y="728.1826">landingURL: string</text><ellipse cx="903" cy="741.1328" fill="none" rx="3" ry="3" style="stroke:#038048;stroke-width:1.0;"/><text fill="#000000" font-family="sans-serif" font-size="14" lengthAdjust="spacing" textLength="125" x="912" y="744.4795">isBasedOn: string</text><ellipse cx="903" cy="757.4297" fill="none" rx="3" ry="3" style="stroke:#038048;stroke-width:1.0;"/><text fill="#000000" font-family="sans-serif" font-size="14" lengthAdjust="spacing" textLength="168" x="912" y="760.7764">softwareVersion: string</text><ellipse cx="903" cy="773.7266" fill="none" rx="3" ry="3" style="stroke:#038048;stroke-width:1.0;"/><text fill="#000000" font-family="sans-serif" font-size="14" lengthAdjust="spacing" textLength="138" x="912" y="777.0732">releaseDate: string</text><ellipse cx="903" cy="790.0234" fill="none" rx="3" ry="3" style="stroke:#038048;stroke-width:1.0;"/><text fill="#000000" font-family="sans-serif" font-size="14" lengthAdjust="spacing" textLength="82" x="912" y="793.3701">logo: string</text><ellipse cx="903" cy="806.3203" fill="none" rx="3" ry="3" style="stroke:#038048;stroke-width:1.0;"/><text fill="#000000" font-family="sans-serif" font-size="14" lengthAdjust="spacing" textLength="116" x="912" y="809.667">platforms: array</text><ellipse cx="903" cy="822.6172" fill="none" rx="3" ry="3" style="stroke:#038048;stroke-width:1.0;"/><text fill="#000000" font-family="sans-serif" font-size="14" lengthAdjust="spacing" textLength="121" x="912" y="825.9639">categories: array</text><ellipse cx="903" cy="838.9141" fill="none" rx="3" ry="3" style="stroke:#038048;stroke-width:1.0;"/><text fill="#000000" font-family="sans-serif" font-size="14" lengthAdjust="spacing" textLength="96" x="912" y="842.2607">usedBy: array</text><ellipse cx="903" cy="855.2109" fill="none" rx="3" ry="3" style="stroke:#038048;stroke-width:1.0;"/><text fill="#000000" font-family="sans-serif" font-size="14" lengthAdjust="spacing" textLength="115" x="912" y="858.5576">roadmap: string</text><ellipse cx="903" cy="871.5078" fill="none" rx="3" ry="3" style="stroke:#038048;stroke-width:1.0;"/><text fill="#000000" font-family="sans-serif" font-size="14" lengthAdjust="spacing" textLength="194" x="912" y="874.8545">developmentStatus: string</text><ellipse cx="903" cy="887.8047" fill="none" rx="3" ry="3" style="stroke:#038048;stroke-width:1.0;"/><text fill="#000000" font-family="sans-serif" font-size="14" lengthAdjust="spacing" textLength="150" x="912" y="891.1514">softwareType: string</text><ellipse cx="903" cy="904.1016" fill="none" rx="3" ry="3" style="stroke:#038048;stroke-width:1.0;"/><text fill="#000000" font-family="sans-serif" font-size="14" lengthAdjust="spacing" textLength="167" x="912" y="907.4482">intendedAudience: Any</text><ellipse cx="903" cy="920.3984" fill="none" rx="3" ry="3" style="stroke:#038048;stroke-width:1.0;"/><text fill="#000000" font-family="sans-serif" font-size="14" lengthAdjust="spacing" textLength="118" x="912" y="923.7451">description: Any</text><ellipse cx="903" cy="936.6953" fill="none" rx="3" ry="3" style="stroke:#038048;stroke-width:1.0;"/><text fill="#000000" font-family="sans-serif" font-size="14" lengthAdjust="spacing" textLength="70" x="912" y="940.042">legal: Any</text><ellipse cx="903" cy="952.9922" fill="none" rx="3" ry="3" style="stroke:#038048;stroke-width:1.0;"/><text fill="#000000" font-family="sans-serif" font-size="14" lengthAdjust="spacing" textLength="130" x="912" y="956.3389">maintenance: Any</text><ellipse cx="903" cy="969.2891" fill="none" rx="3" ry="3" style="stroke:#038048;stroke-width:1.0;"/><text fill="#000000" font-family="sans-serif" font-size="14" lengthAdjust="spacing" textLength="117" x="912" y="972.6357">localisation: Any</text><ellipse cx="903" cy="985.5859" fill="none" rx="3" ry="3" style="stroke:#038048;stroke-width:1.0;"/><text fill="#000000" font-family="sans-serif" font-size="14" lengthAdjust="spacing" textLength="118" x="912" y="988.9326">dependsOn: Any</text><ellipse cx="903" cy="1001.8828" fill="none" rx="3" ry="3" style="stroke:#038048;stroke-width:1.0;"/><text fill="#000000" font-family="sans-serif" font-size="14" lengthAdjust="spacing" textLength="49" x="912" y="1005.2295">nl: Any</text><ellipse cx="903" cy="1018.1797" fill="none" rx="3" ry="3" style="stroke:#038048;stroke-width:1.0;"/><text fill="#000000" font-family="sans-serif" font-size="14" lengthAdjust="spacing" textLength="126" x="912" y="1021.5264">inputTypes: array</text><ellipse cx="903" cy="1034.4766" fill="none" rx="3" ry="3" style="stroke:#038048;stroke-width:1.0;"/><text fill="#000000" font-family="sans-serif" font-size="14" lengthAdjust="spacing" textLength="137" x="912" y="1037.8232">outputTypes: array</text><ellipse cx="903" cy="1050.7734" fill="none" rx="3" ry="3" style="stroke:#038048;stroke-width:1.0;"/><text fill="#000000" font-family="sans-serif" font-size="14" lengthAdjust="spacing" textLength="79" x="912" y="1054.1201">rating: Any</text><line style="stroke:#181818;stroke-width:0.5;" x1="893" x2="1111" y1="1061.4219" y2="1061.4219"/></g><!--class GithubEvent--><g id="elem_GithubEvent"><rect codeLine="130" fill="#F1F1F1" height="64.2969" id="GithubEvent" rx="2.5" ry="2.5" style="stroke:#181818;stroke-width:0.5;" width="124" x="62" y="1251.5"/><ellipse cx="77.45" cy="1267.5" fill="#ADD1B2" rx="11" ry="11" style="stroke:#181818;stroke-width:1.0;"/><path d="M79.7938,1263.1719 C78.8563,1262.7344 78.2625,1262.5938 77.3875,1262.5938 C74.7625,1262.5938 72.7625,1264.6719 72.7625,1267.3906 L72.7625,1268.5156 C72.7625,1271.0938 74.8719,1272.9844 77.7625,1272.9844 C78.9813,1272.9844 80.1375,1272.6875 80.8875,1272.1406 C81.4656,1271.7344 81.7938,1271.2813 81.7938,1270.8906 C81.7938,1270.4375 81.4031,1270.0469 80.9344,1270.0469 C80.7156,1270.0469 80.5125,1270.125 80.325,1270.3125 C79.8719,1270.7969 79.8719,1270.7969 79.6844,1270.8906 C79.2625,1271.1563 78.575,1271.2813 77.8094,1271.2813 C75.7625,1271.2813 74.4656,1270.1875 74.4656,1268.4844 L74.4656,1267.3906 C74.4656,1265.6094 75.7156,1264.2969 77.45,1264.2969 C78.0281,1264.2969 78.6375,1264.4531 79.1063,1264.7031 C79.5906,1264.9844 79.7625,1265.2031 79.8563,1265.6094 C79.9188,1266.0156 79.95,1266.1406 80.0906,1266.2656 C80.2313,1266.4063 80.4656,1266.5156 80.6844,1266.5156 C80.95,1266.5156 81.2156,1266.375 81.3875,1266.1563 C81.4969,1266 81.5281,1265.8125 81.5281,1265.3906 L81.5281,1263.9688 C81.5281,1263.5313 81.5125,1263.4063 81.4188,1263.25 C81.2625,1262.9844 80.9813,1262.8438 80.6844,1262.8438 C80.3875,1262.8438 80.1844,1262.9375 79.9656,1263.25 L79.7938,1263.1719 Z " fill="#000000"/><text fill="#000000" font-family="sans-serif" font-size="14" lengthAdjust="spacing" textLength="91" x="91.55" y="1272.3467">GithubEvent</text><line style="stroke:#181818;stroke-width:0.5;" x1="63" x2="185" y1="1283.5" y2="1283.5"/><ellipse cx="73" cy="1297.1484" fill="none" rx="3" ry="3" style="stroke:#038048;stroke-width:1.0;"/><text fill="#000000" font-family="sans-serif" font-size="14" lengthAdjust="spacing" textLength="98" x="82" y="1300.4951">source: string</text><line style="stroke:#181818;stroke-width:0.5;" x1="63" x2="185" y1="1307.7969" y2="1307.7969"/></g><!--class Gemma--><g id="elem_Gemma"><rect codeLine="133" fill="#F1F1F1" height="129.4844" id="Gemma" rx="2.5" ry="2.5" style="stroke:#181818;stroke-width:0.5;" width="249" x="221.5" y="1219"/><ellipse cx="313.75" cy="1235" fill="#ADD1B2" rx="11" ry="11" style="stroke:#181818;stroke-width:1.0;"/><path d="M316.0938,1230.6719 C315.1563,1230.2344 314.5625,1230.0938 313.6875,1230.0938 C311.0625,1230.0938 309.0625,1232.1719 309.0625,1234.8906 L309.0625,1236.0156 C309.0625,1238.5938 311.1719,1240.4844 314.0625,1240.4844 C315.2813,1240.4844 316.4375,1240.1875 317.1875,1239.6406 C317.7656,1239.2344 318.0938,1238.7813 318.0938,1238.3906 C318.0938,1237.9375 317.7031,1237.5469 317.2344,1237.5469 C317.0156,1237.5469 316.8125,1237.625 316.625,1237.8125 C316.1719,1238.2969 316.1719,1238.2969 315.9844,1238.3906 C315.5625,1238.6563 314.875,1238.7813 314.1094,1238.7813 C312.0625,1238.7813 310.7656,1237.6875 310.7656,1235.9844 L310.7656,1234.8906 C310.7656,1233.1094 312.0156,1231.7969 313.75,1231.7969 C314.3281,1231.7969 314.9375,1231.9531 315.4063,1232.2031 C315.8906,1232.4844 316.0625,1232.7031 316.1563,1233.1094 C316.2188,1233.5156 316.25,1233.6406 316.3906,1233.7656 C316.5313,1233.9063 316.7656,1234.0156 316.9844,1234.0156 C317.25,1234.0156 317.5156,1233.875 317.6875,1233.6563 C317.7969,1233.5 317.8281,1233.3125 317.8281,1232.8906 L317.8281,1231.4688 C317.8281,1231.0313 317.8125,1230.9063 317.7188,1230.75 C317.5625,1230.4844 317.2813,1230.3438 316.9844,1230.3438 C316.6875,1230.3438 316.4844,1230.4375 316.2656,1230.75 L316.0938,1230.6719 Z " fill="#000000"/><text fill="#000000" font-family="sans-serif" font-size="14" lengthAdjust="spacing" textLength="56" x="334.25" y="1239.8467">Gemma</text><line style="stroke:#181818;stroke-width:0.5;" x1="222.5" x2="469.5" y1="1251" y2="1251"/><ellipse cx="232.5" cy="1264.6484" fill="none" rx="3" ry="3" style="stroke:#038048;stroke-width:1.0;"/><text fill="#000000" font-family="sans-serif" font-size="14" lengthAdjust="spacing" textLength="158" x="241.5" y="1267.9951">bedrijfsfuncties: array</text><ellipse cx="232.5" cy="1280.9453" fill="none" rx="3" ry="3" style="stroke:#038048;stroke-width:1.0;"/><text fill="#000000" font-family="sans-serif" font-size="14" lengthAdjust="spacing" textLength="158" x="241.5" y="1284.292">bedrijfsservices: array</text><ellipse cx="232.5" cy="1297.2422" fill="none" rx="3" ry="3" style="stroke:#038048;stroke-width:1.0;"/><text fill="#000000" font-family="sans-serif" font-size="14" lengthAdjust="spacing" textLength="174" x="241.5" y="1300.5889">applicatiefunctie: string</text><ellipse cx="232.5" cy="1313.5391" fill="none" rx="3" ry="3" style="stroke:#038048;stroke-width:1.0;"/><text fill="#000000" font-family="sans-serif" font-size="14" lengthAdjust="spacing" textLength="96" x="241.5" y="1316.8857">model: string</text><ellipse cx="232.5" cy="1329.8359" fill="none" rx="3" ry="3" style="stroke:#038048;stroke-width:1.0;"/><text fill="#000000" font-family="sans-serif" font-size="14" lengthAdjust="spacing" textLength="223" x="241.5" y="1333.1826">referentieComponenten: array</text><line style="stroke:#181818;stroke-width:0.5;" x1="222.5" x2="469.5" y1="1340.4844" y2="1340.4844"/></g><!--class Catalogi--><g id="elem_Catalogi"><rect codeLine="140" fill="#F1F1F1" height="113.1875" id="Catalogi" rx="2.5" ry="2.5" style="stroke:#181818;stroke-width:0.5;" width="151" x="505.5" y="1227"/><ellipse cx="547.5" cy="1243" fill="#ADD1B2" rx="11" ry="11" style="stroke:#181818;stroke-width:1.0;"/><path d="M549.8438,1238.6719 C548.9063,1238.2344 548.3125,1238.0938 547.4375,1238.0938 C544.8125,1238.0938 542.8125,1240.1719 542.8125,1242.8906 L542.8125,1244.0156 C542.8125,1246.5938 544.9219,1248.4844 547.8125,1248.4844 C549.0313,1248.4844 550.1875,1248.1875 550.9375,1247.6406 C551.5156,1247.2344 551.8438,1246.7813 551.8438,1246.3906 C551.8438,1245.9375 551.4531,1245.5469 550.9844,1245.5469 C550.7656,1245.5469 550.5625,1245.625 550.375,1245.8125 C549.9219,1246.2969 549.9219,1246.2969 549.7344,1246.3906 C549.3125,1246.6563 548.625,1246.7813 547.8594,1246.7813 C545.8125,1246.7813 544.5156,1245.6875 544.5156,1243.9844 L544.5156,1242.8906 C544.5156,1241.1094 545.7656,1239.7969 547.5,1239.7969 C548.0781,1239.7969 548.6875,1239.9531 549.1563,1240.2031 C549.6406,1240.4844 549.8125,1240.7031 549.9063,1241.1094 C549.9688,1241.5156 550,1241.6406 550.1406,1241.7656 C550.2813,1241.9063 550.5156,1242.0156 550.7344,1242.0156 C551,1242.0156 551.2656,1241.875 551.4375,1241.6563 C551.5469,1241.5 551.5781,1241.3125 551.5781,1240.8906 L551.5781,1239.4688 C551.5781,1239.0313 551.5625,1238.9063 551.4688,1238.75 C551.3125,1238.4844 551.0313,1238.3438 550.7344,1238.3438 C550.4375,1238.3438 550.2344,1238.4375 550.0156,1238.75 L549.8438,1238.6719 Z " fill="#000000"/><text fill="#000000" font-family="sans-serif" font-size="14" lengthAdjust="spacing" textLength="59" x="567.5" y="1247.8467">Catalogi</text><line style="stroke:#181818;stroke-width:0.5;" x1="506.5" x2="655.5" y1="1259" y2="1259"/><ellipse cx="516.5" cy="1272.6484" fill="none" rx="3" ry="3" style="stroke:#038048;stroke-width:1.0;"/><text fill="#000000" font-family="sans-serif" font-size="14" lengthAdjust="spacing" textLength="83" x="525.5" y="1275.9951">source: Any</text><ellipse cx="516.5" cy="1288.9453" fill="none" rx="3" ry="3" style="stroke:#038048;stroke-width:1.0;"/><text fill="#000000" font-family="sans-serif" font-size="14" lengthAdjust="spacing" textLength="125" x="525.5" y="1292.292">organisation: Any</text><ellipse cx="516.5" cy="1305.2422" fill="none" rx="3" ry="3" style="stroke:#038048;stroke-width:1.0;"/><text fill="#000000" font-family="sans-serif" font-size="14" lengthAdjust="spacing" textLength="77" x="525.5" y="1308.5889">rsin: string</text><ellipse cx="516.5" cy="1321.5391" fill="none" rx="3" ry="3" style="stroke:#038048;stroke-width:1.0;"/><text fill="#000000" font-family="sans-serif" font-size="14" lengthAdjust="spacing" textLength="74" x="525.5" y="1324.8857">pki: string</text><line style="stroke:#181818;stroke-width:0.5;" x1="506.5" x2="655.5" y1="1332.1875" y2="1332.1875"/></g><!--class Dependency--><g id="elem_Dependency"><rect codeLine="146" fill="#F1F1F1" height="96.8906" id="Dependency" rx="2.5" ry="2.5" style="stroke:#181818;stroke-width:0.5;" width="129" x="691.5" y="1235"/><ellipse cx="709.2" cy="1251" fill="#ADD1B2" rx="11" ry="11" style="stroke:#181818;stroke-width:1.0;"/><path d="M711.5438,1246.6719 C710.6063,1246.2344 710.0125,1246.0938 709.1375,1246.0938 C706.5125,1246.0938 704.5125,1248.1719 704.5125,1250.8906 L704.5125,1252.0156 C704.5125,1254.5938 706.6219,1256.4844 709.5125,1256.4844 C710.7313,1256.4844 711.8875,1256.1875 712.6375,1255.6406 C713.2156,1255.2344 713.5438,1254.7813 713.5438,1254.3906 C713.5438,1253.9375 713.1531,1253.5469 712.6844,1253.5469 C712.4656,1253.5469 712.2625,1253.625 712.075,1253.8125 C711.6219,1254.2969 711.6219,1254.2969 711.4344,1254.3906 C711.0125,1254.6563 710.325,1254.7813 709.5594,1254.7813 C707.5125,1254.7813 706.2156,1253.6875 706.2156,1251.9844 L706.2156,1250.8906 C706.2156,1249.1094 707.4656,1247.7969 709.2,1247.7969 C709.7781,1247.7969 710.3875,1247.9531 710.8563,1248.2031 C711.3406,1248.4844 711.5125,1248.7031 711.6063,1249.1094 C711.6688,1249.5156 711.7,1249.6406 711.8406,1249.7656 C711.9813,1249.9063 712.2156,1250.0156 712.4344,1250.0156 C712.7,1250.0156 712.9656,1249.875 713.1375,1249.6563 C713.2469,1249.5 713.2781,1249.3125 713.2781,1248.8906 L713.2781,1247.4688 C713.2781,1247.0313 713.2625,1246.9063 713.1688,1246.75 C713.0125,1246.4844 712.7313,1246.3438 712.4344,1246.3438 C712.1375,1246.3438 711.9344,1246.4375 711.7156,1246.75 L711.5438,1246.6719 Z " fill="#000000"/><text fill="#000000" font-family="sans-serif" font-size="14" lengthAdjust="spacing" textLength="91" x="723.8" y="1255.8467">Dependency</text><line style="stroke:#181818;stroke-width:0.5;" x1="692.5" x2="819.5" y1="1267" y2="1267"/><ellipse cx="702.5" cy="1280.6484" fill="none" rx="3" ry="3" style="stroke:#038048;stroke-width:1.0;"/><text fill="#000000" font-family="sans-serif" font-size="14" lengthAdjust="spacing" textLength="64" x="711.5" y="1283.9951">id: string</text><ellipse cx="702.5" cy="1296.9453" fill="none" rx="3" ry="3" style="stroke:#038048;stroke-width:1.0;"/><text fill="#000000" font-family="sans-serif" font-size="14" lengthAdjust="spacing" textLength="91" x="711.5" y="1300.292">name: string</text><ellipse cx="702.5" cy="1313.2422" fill="none" rx="3" ry="3" style="stroke:#038048;stroke-width:1.0;"/><text fill="#000000" font-family="sans-serif" font-size="14" lengthAdjust="spacing" textLength="103" x="711.5" y="1316.5889">version: string</text><line style="stroke:#181818;stroke-width:0.5;" x1="692.5" x2="819.5" y1="1323.8906" y2="1323.8906"/></g><!--class Repository--><g id="elem_Repository"><rect codeLine="151" fill="#F1F1F1" height="308.75" id="Repository" rx="2.5" ry="2.5" style="stroke:#181818;stroke-width:0.5;" width="292" x="856" y="1129"/><ellipse cx="958.25" cy="1145" fill="#ADD1B2" rx="11" ry="11" style="stroke:#181818;stroke-width:1.0;"/><path d="M960.5938,1140.6719 C959.6563,1140.2344 959.0625,1140.0938 958.1875,1140.0938 C955.5625,1140.0938 953.5625,1142.1719 953.5625,1144.8906 L953.5625,1146.0156 C953.5625,1148.5938 955.6719,1150.4844 958.5625,1150.4844 C959.7813,1150.4844 960.9375,1150.1875 961.6875,1149.6406 C962.2656,1149.2344 962.5938,1148.7813 962.5938,1148.3906 C962.5938,1147.9375 962.2031,1147.5469 961.7344,1147.5469 C961.5156,1147.5469 961.3125,1147.625 961.125,1147.8125 C960.6719,1148.2969 960.6719,1148.2969 960.4844,1148.3906 C960.0625,1148.6563 959.375,1148.7813 958.6094,1148.7813 C956.5625,1148.7813 955.2656,1147.6875 955.2656,1145.9844 L955.2656,1144.8906 C955.2656,1143.1094 956.5156,1141.7969 958.25,1141.7969 C958.8281,1141.7969 959.4375,1141.9531 959.9063,1142.2031 C960.3906,1142.4844 960.5625,1142.7031 960.6563,1143.1094 C960.7188,1143.5156 960.75,1143.6406 960.8906,1143.7656 C961.0313,1143.9063 961.2656,1144.0156 961.4844,1144.0156 C961.75,1144.0156 962.0156,1143.875 962.1875,1143.6563 C962.2969,1143.5 962.3281,1143.3125 962.3281,1142.8906 L962.3281,1141.4688 C962.3281,1141.0313 962.3125,1140.9063 962.2188,1140.75 C962.0625,1140.4844 961.7813,1140.3438 961.4844,1140.3438 C961.1875,1140.3438 960.9844,1140.4375 960.7656,1140.75 L960.5938,1140.6719 Z " fill="#000000"/><text fill="#000000" font-family="sans-serif" font-size="14" lengthAdjust="spacing" textLength="79" x="978.75" y="1149.8467">Repository</text><line style="stroke:#181818;stroke-width:0.5;" x1="857" x2="1147" y1="1161" y2="1161"/><ellipse cx="867" cy="1174.6484" fill="none" rx="3" ry="3" style="stroke:#038048;stroke-width:1.0;"/><text fill="#000000" font-family="sans-serif" font-size="14" lengthAdjust="spacing" textLength="125" x="876" y="1177.9951">organisation: Any</text><ellipse cx="867" cy="1190.9453" fill="none" rx="3" ry="3" style="stroke:#038048;stroke-width:1.0;"/><text fill="#000000" font-family="sans-serif" font-size="14" lengthAdjust="spacing" textLength="120" x="876" y="1194.292">component: Any</text><ellipse cx="867" cy="1207.2422" fill="none" rx="3" ry="3" style="stroke:#038048;stroke-width:1.0;"/><text fill="#000000" font-family="sans-serif" font-size="14" lengthAdjust="spacing" textLength="98" x="876" y="1210.5889">source: string</text><ellipse cx="867" cy="1223.5391" fill="none" rx="3" ry="3" style="stroke:#038048;stroke-width:1.0;"/><text fill="#000000" font-family="sans-serif" font-size="14" lengthAdjust="spacing" textLength="91" x="876" y="1226.8857">name: string</text><ellipse cx="867" cy="1239.8359" fill="none" rx="3" ry="3" style="stroke:#038048;stroke-width:1.0;"/><text fill="#000000" font-family="sans-serif" font-size="14" lengthAdjust="spacing" textLength="69" x="876" y="1243.1826">url: string</text><ellipse cx="867" cy="1256.1328" fill="none" rx="3" ry="3" style="stroke:#038048;stroke-width:1.0;"/><text fill="#000000" font-family="sans-serif" font-size="14" lengthAdjust="spacing" textLength="121" x="876" y="1259.4795">avatar_url: string</text><ellipse cx="867" cy="1272.4297" fill="none" rx="3" ry="3" style="stroke:#038048;stroke-width:1.0;"/><text fill="#000000" font-family="sans-serif" font-size="14" lengthAdjust="spacing" textLength="136" x="876" y="1275.7764">last_change: string</text><ellipse cx="867" cy="1288.7266" fill="none" rx="3" ry="3" style="stroke:#038048;stroke-width:1.0;"/><text fill="#000000" font-family="sans-serif" font-size="14" lengthAdjust="spacing" textLength="100" x="876" y="1292.0732">stars: number</text><ellipse cx="867" cy="1305.0234" fill="none" rx="3" ry="3" style="stroke:#038048;stroke-width:1.0;"/><text fill="#000000" font-family="sans-serif" font-size="14" lengthAdjust="spacing" textLength="143" x="876" y="1308.3701">fork_count: number</text><ellipse cx="867" cy="1321.3203" fill="none" rx="3" ry="3" style="stroke:#038048;stroke-width:1.0;"/><text fill="#000000" font-family="sans-serif" font-size="14" lengthAdjust="spacing" textLength="192" x="876" y="1324.667">issue_open_count: number</text><ellipse cx="867" cy="1337.6172" fill="none" rx="3" ry="3" style="stroke:#038048;stroke-width:1.0;"/><text fill="#000000" font-family="sans-serif" font-size="14" lengthAdjust="spacing" textLength="266" x="876" y="1340.9639">merge_request_open_count: number</text><ellipse cx="867" cy="1353.9141" fill="none" rx="3" ry="3" style="stroke:#038048;stroke-width:1.0;"/><text fill="#000000" font-family="sans-serif" font-size="14" lengthAdjust="spacing" textLength="221" x="876" y="1357.2607">programming_languages: array</text><ellipse cx="867" cy="1370.2109" fill="none" rx="3" ry="3" style="stroke:#038048;stroke-width:1.0;"/><text fill="#000000" font-family="sans-serif" font-size="14" lengthAdjust="spacing" textLength="90" x="876" y="1373.5576">topics: array</text><ellipse cx="867" cy="1386.5078" fill="none" rx="3" ry="3" style="stroke:#038048;stroke-width:1.0;"/><text fill="#000000" font-family="sans-serif" font-size="14" lengthAdjust="spacing" textLength="109" x="876" y="1389.8545">content: string</text><ellipse cx="867" cy="1402.8047" fill="none" rx="3" ry="3" style="stroke:#038048;stroke-width:1.0;"/><text fill="#000000" font-family="sans-serif" font-size="14" lengthAdjust="spacing" textLength="155" x="876" y="1406.1514">publiccode_url: string</text><ellipse cx="867" cy="1419.1016" fill="none" rx="3" ry="3" style="stroke:#038048;stroke-width:1.0;"/><text fill="#000000" font-family="sans-serif" font-size="14" lengthAdjust="spacing" textLength="153" x="876" y="1422.4482">default_owner: string</text><line style="stroke:#181818;stroke-width:0.5;" x1="857" x2="1147" y1="1429.75" y2="1429.75"/></g><!--class Legal--><g id="elem_Legal"><rect codeLine="169" fill="#F1F1F1" height="113.1875" id="Legal" rx="2.5" ry="2.5" style="stroke:#181818;stroke-width:0.5;" width="215" x="16.5" y="1498"/><ellipse cx="100.75" cy="1514" fill="#ADD1B2" rx="11" ry="11" style="stroke:#181818;stroke-width:1.0;"/><path d="M103.0938,1509.6719 C102.1563,1509.2344 101.5625,1509.0938 100.6875,1509.0938 C98.0625,1509.0938 96.0625,1511.1719 96.0625,1513.8906 L96.0625,1515.0156 C96.0625,1517.5938 98.1719,1519.4844 101.0625,1519.4844 C102.2813,1519.4844 103.4375,1519.1875 104.1875,1518.6406 C104.7656,1518.2344 105.0938,1517.7813 105.0938,1517.3906 C105.0938,1516.9375 104.7031,1516.5469 104.2344,1516.5469 C104.0156,1516.5469 103.8125,1516.625 103.625,1516.8125 C103.1719,1517.2969 103.1719,1517.2969 102.9844,1517.3906 C102.5625,1517.6563 101.875,1517.7813 101.1094,1517.7813 C99.0625,1517.7813 97.7656,1516.6875 97.7656,1514.9844 L97.7656,1513.8906 C97.7656,1512.1094 99.0156,1510.7969 100.75,1510.7969 C101.3281,1510.7969 101.9375,1510.9531 102.4063,1511.2031 C102.8906,1511.4844 103.0625,1511.7031 103.1563,1512.1094 C103.2188,1512.5156 103.25,1512.6406 103.3906,1512.7656 C103.5313,1512.9063 103.7656,1513.0156 103.9844,1513.0156 C104.25,1513.0156 104.5156,1512.875 104.6875,1512.6563 C104.7969,1512.5 104.8281,1512.3125 104.8281,1511.8906 L104.8281,1510.4688 C104.8281,1510.0313 104.8125,1509.9063 104.7188,1509.75 C104.5625,1509.4844 104.2813,1509.3438 103.9844,1509.3438 C103.6875,1509.3438 103.4844,1509.4375 103.2656,1509.75 L103.0938,1509.6719 Z " fill="#000000"/><text fill="#000000" font-family="sans-serif" font-size="14" lengthAdjust="spacing" textLength="38" x="121.25" y="1518.8467">Legal</text><line style="stroke:#181818;stroke-width:0.5;" x1="17.5" x2="230.5" y1="1530" y2="1530"/><ellipse cx="27.5" cy="1543.6484" fill="none" rx="3" ry="3" style="stroke:#038048;stroke-width:1.0;"/><text fill="#000000" font-family="sans-serif" font-size="14" lengthAdjust="spacing" textLength="101" x="36.5" y="1546.9951">license: string</text><ellipse cx="27.5" cy="1559.9453" fill="none" rx="3" ry="3" style="stroke:#038048;stroke-width:1.0;"/><text fill="#000000" font-family="sans-serif" font-size="14" lengthAdjust="spacing" textLength="189" x="36.5" y="1563.292">mainCopyrightOwner: Any</text><ellipse cx="27.5" cy="1576.2422" fill="none" rx="3" ry="3" style="stroke:#038048;stroke-width:1.0;"/><text fill="#000000" font-family="sans-serif" font-size="14" lengthAdjust="spacing" textLength="116" x="36.5" y="1579.5889">repoOwner: Any</text><ellipse cx="27.5" cy="1592.5391" fill="none" rx="3" ry="3" style="stroke:#038048;stroke-width:1.0;"/><text fill="#000000" font-family="sans-serif" font-size="14" lengthAdjust="spacing" textLength="130" x="36.5" y="1595.8857">authorsFile: string</text><line style="stroke:#181818;stroke-width:0.5;" x1="17.5" x2="230.5" y1="1603.1875" y2="1603.1875"/></g><!--class Contact--><g id="elem_Contact"><rect codeLine="175" fill="#F1F1F1" height="113.1875" id="Contact" rx="2.5" ry="2.5" style="stroke:#181818;stroke-width:0.5;" width="146" x="267" y="1498"/><ellipse cx="307.2" cy="1514" fill="#ADD1B2" rx="11" ry="11" style="stroke:#181818;stroke-width:1.0;"/><path d="M309.5438,1509.6719 C308.6063,1509.2344 308.0125,1509.0938 307.1375,1509.0938 C304.5125,1509.0938 302.5125,1511.1719 302.5125,1513.8906 L302.5125,1515.0156 C302.5125,1517.5938 304.6219,1519.4844 307.5125,1519.4844 C308.7313,1519.4844 309.8875,1519.1875 310.6375,1518.6406 C311.2156,1518.2344 311.5438,1517.7813 311.5438,1517.3906 C311.5438,1516.9375 311.1531,1516.5469 310.6844,1516.5469 C310.4656,1516.5469 310.2625,1516.625 310.075,1516.8125 C309.6219,1517.2969 309.6219,1517.2969 309.4344,1517.3906 C309.0125,1517.6563 308.325,1517.7813 307.5594,1517.7813 C305.5125,1517.7813 304.2156,1516.6875 304.2156,1514.9844 L304.2156,1513.8906 C304.2156,1512.1094 305.4656,1510.7969 307.2,1510.7969 C307.7781,1510.7969 308.3875,1510.9531 308.8563,1511.2031 C309.3406,1511.4844 309.5125,1511.7031 309.6063,1512.1094 C309.6688,1512.5156 309.7,1512.6406 309.8406,1512.7656 C309.9813,1512.9063 310.2156,1513.0156 310.4344,1513.0156 C310.7,1513.0156 310.9656,1512.875 311.1375,1512.6563 C311.2469,1512.5 311.2781,1512.3125 311.2781,1511.8906 L311.2781,1510.4688 C311.2781,1510.0313 311.2625,1509.9063 311.1688,1509.75 C311.0125,1509.4844 310.7313,1509.3438 310.4344,1509.3438 C310.1375,1509.3438 309.9344,1509.4375 309.7156,1509.75 L309.5438,1509.6719 Z " fill="#000000"/><text fill="#000000" font-family="sans-serif" font-size="14" lengthAdjust="spacing" textLength="58" x="326.8" y="1518.8467">Contact</text><line style="stroke:#181818;stroke-width:0.5;" x1="268" x2="412" y1="1530" y2="1530"/><ellipse cx="278" cy="1543.6484" fill="none" rx="3" ry="3" style="stroke:#038048;stroke-width:1.0;"/><text fill="#000000" font-family="sans-serif" font-size="14" lengthAdjust="spacing" textLength="91" x="287" y="1546.9951">name: string</text><ellipse cx="278" cy="1559.9453" fill="none" rx="3" ry="3" style="stroke:#038048;stroke-width:1.0;"/><text fill="#000000" font-family="sans-serif" font-size="14" lengthAdjust="spacing" textLength="90" x="287" y="1563.292">email: string</text><ellipse cx="278" cy="1576.2422" fill="none" rx="3" ry="3" style="stroke:#038048;stroke-width:1.0;"/><text fill="#000000" font-family="sans-serif" font-size="14" lengthAdjust="spacing" textLength="97" x="287" y="1579.5889">phone: string</text><ellipse cx="278" cy="1592.5391" fill="none" rx="3" ry="3" style="stroke:#038048;stroke-width:1.0;"/><text fill="#000000" font-family="sans-serif" font-size="14" lengthAdjust="spacing" textLength="120" x="287" y="1595.8857">affiliation: string</text><line style="stroke:#181818;stroke-width:0.5;" x1="268" x2="412" y1="1603.1875" y2="1603.1875"/></g><!--class Rating--><g id="elem_Rating"><rect codeLine="181" fill="#F1F1F1" height="96.8906" id="Rating" rx="2.5" ry="2.5" style="stroke:#181818;stroke-width:0.5;" width="165" x="448.5" y="1506"/><ellipse cx="503.25" cy="1522" fill="#ADD1B2" rx="11" ry="11" style="stroke:#181818;stroke-width:1.0;"/><path d="M505.5938,1517.6719 C504.6563,1517.2344 504.0625,1517.0938 503.1875,1517.0938 C500.5625,1517.0938 498.5625,1519.1719 498.5625,1521.8906 L498.5625,1523.0156 C498.5625,1525.5938 500.6719,1527.4844 503.5625,1527.4844 C504.7813,1527.4844 505.9375,1527.1875 506.6875,1526.6406 C507.2656,1526.2344 507.5938,1525.7813 507.5938,1525.3906 C507.5938,1524.9375 507.2031,1524.5469 506.7344,1524.5469 C506.5156,1524.5469 506.3125,1524.625 506.125,1524.8125 C505.6719,1525.2969 505.6719,1525.2969 505.4844,1525.3906 C505.0625,1525.6563 504.375,1525.7813 503.6094,1525.7813 C501.5625,1525.7813 500.2656,1524.6875 500.2656,1522.9844 L500.2656,1521.8906 C500.2656,1520.1094 501.5156,1518.7969 503.25,1518.7969 C503.8281,1518.7969 504.4375,1518.9531 504.9063,1519.2031 C505.3906,1519.4844 505.5625,1519.7031 505.6563,1520.1094 C505.7188,1520.5156 505.75,1520.6406 505.8906,1520.7656 C506.0313,1520.9063 506.2656,1521.0156 506.4844,1521.0156 C506.75,1521.0156 507.0156,1520.875 507.1875,1520.6563 C507.2969,1520.5 507.3281,1520.3125 507.3281,1519.8906 L507.3281,1518.4688 C507.3281,1518.0313 507.3125,1517.9063 507.2188,1517.75 C507.0625,1517.4844 506.7813,1517.3438 506.4844,1517.3438 C506.1875,1517.3438 505.9844,1517.4375 505.7656,1517.75 L505.5938,1517.6719 Z " fill="#000000"/><text fill="#000000" font-family="sans-serif" font-size="14" lengthAdjust="spacing" textLength="47" x="523.75" y="1526.8467">Rating</text><line style="stroke:#181818;stroke-width:0.5;" x1="449.5" x2="612.5" y1="1538" y2="1538"/><ellipse cx="459.5" cy="1551.6484" fill="none" rx="3" ry="3" style="stroke:#038048;stroke-width:1.0;"/><text fill="#000000" font-family="sans-serif" font-size="14" lengthAdjust="spacing" textLength="105" x="468.5" y="1554.9951">rating: integer</text><ellipse cx="459.5" cy="1567.9453" fill="none" rx="3" ry="3" style="stroke:#038048;stroke-width:1.0;"/><text fill="#000000" font-family="sans-serif" font-size="14" lengthAdjust="spacing" textLength="139" x="468.5" y="1571.292">maxRating: integer</text><ellipse cx="459.5" cy="1584.2422" fill="none" rx="3" ry="3" style="stroke:#038048;stroke-width:1.0;"/><text fill="#000000" font-family="sans-serif" font-size="14" lengthAdjust="spacing" textLength="93" x="468.5" y="1587.5889">results: array</text><line style="stroke:#181818;stroke-width:0.5;" x1="449.5" x2="612.5" y1="1594.8906" y2="1594.8906"/></g><!--class ComponentUrl--><g id="elem_ComponentUrl"><rect codeLine="186" fill="#F1F1F1" height="64.2969" id="ComponentUrl" rx="2.5" ry="2.5" style="stroke:#181818;stroke-width:0.5;" width="171" x="648.5" y="1522.5"/><ellipse cx="678.8" cy="1538.5" fill="#ADD1B2" rx="11" ry="11" style="stroke:#181818;stroke-width:1.0;"/><path d="M681.1438,1534.1719 C680.2063,1533.7344 679.6125,1533.5938 678.7375,1533.5938 C676.1125,1533.5938 674.1125,1535.6719 674.1125,1538.3906 L674.1125,1539.5156 C674.1125,1542.0938 676.2219,1543.9844 679.1125,1543.9844 C680.3313,1543.9844 681.4875,1543.6875 682.2375,1543.1406 C682.8156,1542.7344 683.1438,1542.2813 683.1438,1541.8906 C683.1438,1541.4375 682.7531,1541.0469 682.2844,1541.0469 C682.0656,1541.0469 681.8625,1541.125 681.675,1541.3125 C681.2219,1541.7969 681.2219,1541.7969 681.0344,1541.8906 C680.6125,1542.1563 679.925,1542.2813 679.1594,1542.2813 C677.1125,1542.2813 675.8156,1541.1875 675.8156,1539.4844 L675.8156,1538.3906 C675.8156,1536.6094 677.0656,1535.2969 678.8,1535.2969 C679.3781,1535.2969 679.9875,1535.4531 680.4563,1535.7031 C680.9406,1535.9844 681.1125,1536.2031 681.2063,1536.6094 C681.2688,1537.0156 681.3,1537.1406 681.4406,1537.2656 C681.5813,1537.4063 681.8156,1537.5156 682.0344,1537.5156 C682.3,1537.5156 682.5656,1537.375 682.7375,1537.1563 C682.8469,1537 682.8781,1536.8125 682.8781,1536.3906 L682.8781,1534.9688 C682.8781,1534.5313 682.8625,1534.4063 682.7688,1534.25 C682.6125,1533.9844 682.3313,1533.8438 682.0344,1533.8438 C681.7375,1533.8438 681.5344,1533.9375 681.3156,1534.25 L681.1438,1534.1719 Z " fill="#000000"/><text fill="#000000" font-family="sans-serif" font-size="14" lengthAdjust="spacing" textLength="105" x="696.2" y="1543.3467">ComponentUrl</text><line style="stroke:#181818;stroke-width:0.5;" x1="649.5" x2="818.5" y1="1554.5" y2="1554.5"/><ellipse cx="659.5" cy="1568.1484" fill="none" rx="3" ry="3" style="stroke:#038048;stroke-width:1.0;"/><text fill="#000000" font-family="sans-serif" font-size="14" lengthAdjust="spacing" textLength="145" x="668.5" y="1571.4951">repositoryUrl: string</text><line style="stroke:#181818;stroke-width:0.5;" x1="649.5" x2="818.5" y1="1578.7969" y2="1578.7969"/></g><!--SRC=[tLTDZziu3BttL_ZUVv3RDDCM0qmxWqoxru2MQ4STVLKVcSqkzhylxLYE9Ta5UkqbW2c9bCZ7znWcmVjcRvGokdScQjxy-wvftZT21zGS-PFhGGiFGHZjTmqu1vTfWmyWvRZmxM9nr_ZWXEx7HGaNT9drltTi37MFdZbXXrCf4i-F6WPIUEHVGULE_Scui3XV7DFzrXetB2hK0QeLiE9-Sx532D5XzceAWAZf9Y4pdmL7ardW3HoVBUdrZzV7mUBvSc4w8F3BhccDaGZwwkSCGa8hyH5q7w77okUTjLAmyVpBHRF9hVwjxF5DUw3mpnJsGT7FToUt4rijeZAbhRLAFpl3qFjoIVZds58YJiZp39WtZMwPMcQKDPh2LgcuHqkWzKyfjuO-boUjCzO9UfExBCqdAXML2qjtN-NaXotwOzVSwUkn7fM2soTOjMjC-mDP6B-ZbQN3PJDjrObl0hmtUK6ZjLJI37MKg-mx-Xo-mRnYxhONuHJRqaI8oqnls7eHyelQ4nKXiw0Yi6IMK183uHJe9T7VFJzKtF05HjO1pN3AJdtUwE201UDy3Wa28Gk_weq_jIyI_BQxuiL4DsVqD_36SagSGJp4dRnrKSgAfsiOMC469bq-BNbxMCX8wjgnI_wf2Nb-OcOze_FbJjHduOnMoxqfudw6K1RFJ_5IFgCEOkswLrcyYrpW3QUCc84sviqMzTIYoFThwvuPMt7EFhrnyWmt13_aGbbLSh7r9OxTEhzbI7pwaA0v7Vb-U2nmzW58TP_oH7hJXO4Q_rf9iaF2eiTxA8YXOYfBvUsCKtdBqh7UL3cZAtp8oDaPu0fiWTapIcE7yhvGaqM_UkTgAX55yMuvoPfWJXJsiCYRkh7JOiz2lPVk9XswcVJ2az0sXk5sENV7i6Psv5ltryC999z7qlvuli74ZprUmVNp857JbXQv4pywtqNDGf7sjERHdGNBrsPOuNGoowao76K1YmuTtKpWZEMR2iyml-g0AAwVChJUaWJ1787sLQmCc4FkgRoNzVcoQfkIFvAZ0rf3ecVSvPSyiI2bP2gAiHer5ZHFSnwD9SVIJ3S9HtQYsQzGBTfCLT9HjUYkL6pSwt7aeSmil8zu70QXbKM5hiUZmvyHASp69XgQUWTAKUYZB8VGwr11_5x9SKdJTb0nnWWkrICvTX0bNU2gQ4KT7eSsJCCoWLFx0e7KbtjZBqxqf_2KYwAZ6XOcY84KttyI4bUbWPHXIofNXAsQWQ3hX1JhodaOMtdodlfw89K-rGF-FgoOwJy8fSTlIWNfQd8wOpRJsly1]--></g></svg>