<?xml version="1.0" encoding="UTF-8" standalone="no"?><svg xmlns="http://www.w3.org/2000/svg" xmlns:xlink="http://www.w3.org/1999/xlink" contentScriptType="application/ecmascript" contentStyleType="text/css" height="194px" preserveAspectRatio="none" style="width:195px;height:194px;" version="1.1" viewBox="0 0 195 194" width="195px" zoomAndPan="magnify"><defs><filter height="300%" id="f1rc1mhjw0m20s" width="300%" x="-1" y="-1"><feGaussianBlur result="blurOut" stdDeviation="2.0"/><feColorMatrix in="blurOut" result="blurOut2" type="matrix" values="0 0 0 0 0 0 0 0 0 0 0 0 0 0 0 0 0 0 .4 0"/><feOffset dx="4.0" dy="4.0" in="blurOut2" result="blurOut3"/><feBlend in="SourceGraphic" in2="blurOut3" mode="normal"/></filter></defs><g><!--MD5=[1cef38a4eb04ce918ff5844dac76bc72]
class ApplicationSync--><rect fill="#FEFECE" filter="url(#f1rc1mhjw0m20s)" height="176.0469" id="ApplicationSync" style="stroke: #A80036; stroke-width: 1.5;" width="177" x="7" y="7"/><ellipse cx="43.15" cy="23" fill="#ADD1B2" rx="11" ry="11" style="stroke: #A80036; stroke-width: 1.0;"/><path d="M46.1188,28.6406 Q45.5406,28.9375 44.9,29.0781 Q44.2594,29.2344 43.5563,29.2344 Q41.0563,29.2344 39.7281,27.5938 Q38.4156,25.9375 38.4156,22.8125 Q38.4156,19.6875 39.7281,18.0313 Q41.0563,16.375 43.5563,16.375 Q44.2594,16.375 44.9,16.5313 Q45.5563,16.6875 46.1188,16.9844 L46.1188,19.7031 Q45.4938,19.125 44.9,18.8594 Q44.3063,18.5781 43.6813,18.5781 Q42.3375,18.5781 41.65,19.6563 Q40.9625,20.7188 40.9625,22.8125 Q40.9625,24.9063 41.65,25.9844 Q42.3375,27.0469 43.6813,27.0469 Q44.3063,27.0469 44.9,26.7813 Q45.4938,26.5 46.1188,25.9219 L46.1188,28.6406 Z "/><text fill="#000000" font-family="sans-serif" font-size="12" lengthAdjust="spacingAndGlyphs" textLength="98" x="61.85" y="27.1543">ApplicationSync</text><line style="stroke: #A80036; stroke-width: 1.5;" x1="8" x2="183" y1="39" y2="39"/><ellipse cx="18" cy="50" fill="none" rx="3" ry="3" style="stroke: #038048; stroke-width: 1.0;"/><text fill="#000000" font-family="sans-serif" font-size="11" lengthAdjust="spacingAndGlyphs" textLength="73" x="27" y="53.2104">name: string</text><ellipse cx="18" cy="62.8047" fill="none" rx="3" ry="3" style="stroke: #038048; stroke-width: 1.0;"/><text fill="#000000" font-family="sans-serif" font-size="11" lengthAdjust="spacingAndGlyphs" textLength="135" x="27" y="66.0151">shortDescription: string</text><ellipse cx="18" cy="75.6094" fill="none" rx="3" ry="3" style="stroke: #038048; stroke-width: 1.0;"/><text fill="#000000" font-family="sans-serif" font-size="11" lengthAdjust="spacingAndGlyphs" textLength="104" x="27" y="78.8198">description: string</text><ellipse cx="18" cy="88.4141" fill="none" rx="3" ry="3" style="stroke: #038048; stroke-width: 1.0;"/><text fill="#000000" font-family="sans-serif" font-size="11" lengthAdjust="spacingAndGlyphs" textLength="151" x="27" y="91.6245">detailPageImageUrl: string</text><ellipse cx="18" cy="101.2188" fill="none" rx="3" ry="3" style="stroke: #038048; stroke-width: 1.0;"/><text fill="#000000" font-family="sans-serif" font-size="11" lengthAdjust="spacingAndGlyphs" textLength="141" x="27" y="104.4292">documentationUrl: string</text><ellipse cx="18" cy="114.0234" fill="none" rx="3" ry="3" style="stroke: #038048; stroke-width: 1.0;"/><text fill="#000000" font-family="sans-serif" font-size="11" lengthAdjust="spacingAndGlyphs" textLength="89" x="27" y="117.2339">demoUrl: string</text><ellipse cx="18" cy="126.8281" fill="none" rx="3" ry="3" style="stroke: #038048; stroke-width: 1.0;"/><text fill="#000000" font-family="sans-serif" font-size="11" lengthAdjust="spacingAndGlyphs" textLength="135" x="27" y="130.0386">bpmnProcessUrl: string</text><ellipse cx="18" cy="139.6328" fill="none" rx="3" ry="3" style="stroke: #038048; stroke-width: 1.0;"/><text fill="#000000" font-family="sans-serif" font-size="11" lengthAdjust="spacingAndGlyphs" textLength="118" x="27" y="142.8433">isPublished: boolean</text><ellipse cx="18" cy="152.4375" fill="none" rx="3" ry="3" style="stroke: #038048; stroke-width: 1.0;"/><text fill="#000000" font-family="sans-serif" font-size="11" lengthAdjust="spacingAndGlyphs" textLength="73" x="27" y="155.6479">owner: array</text><ellipse cx="18" cy="165.2422" fill="none" rx="3" ry="3" style="stroke: #038048; stroke-width: 1.0;"/><text fill="#000000" font-family="sans-serif" font-size="11" lengthAdjust="spacingAndGlyphs" textLength="108" x="27" y="168.4526">components: array</text><line style="stroke: #A80036; stroke-width: 1.5;" x1="8" x2="183" y1="175.0469" y2="175.0469"/><!--MD5=[bf4904d35cd880cf5b200b7e69f89cc2]
@startuml
class ApplicationSync {
  + name: string
  + shortDescription: string
  + description: string
  + detailPageImageUrl: string
  + documentationUrl: string
  + demoUrl: string
  + bpmnProcessUrl: string
  + isPublished: boolean
  + owner: array
  + components: array
}
@enduml

PlantUML version 1.2020.02(Sun Mar 01 10:22:07 UTC 2020)
(GPL source distribution)
Java Runtime: OpenJDK Runtime Environment
JVM: OpenJDK 64-Bit Server VM
Java Version: 11.0.20.1+1
Operating System: Linux
Default Encoding: UTF-8
Language: en
Country: null
--></g></svg>