<?xml version="1.0" encoding="UTF-8" standalone="no"?><svg xmlns="http://www.w3.org/2000/svg" xmlns:xlink="http://www.w3.org/1999/xlink" contentScriptType="application/ecmascript" contentStyleType="text/css" height="245px" preserveAspectRatio="none" style="width:313px;height:245px;" version="1.1" viewBox="0 0 313 245" width="313px" zoomAndPan="magnify"><defs><filter height="300%" id="f1bdhpdqss0qyp" width="300%" x="-1" y="-1"><feGaussianBlur result="blurOut" stdDeviation="2.0"/><feColorMatrix in="blurOut" result="blurOut2" type="matrix" values="0 0 0 0 0 0 0 0 0 0 0 0 0 0 0 0 0 0 .4 0"/><feOffset dx="4.0" dy="4.0" in="blurOut2" result="blurOut3"/><feBlend in="SourceGraphic" in2="blurOut3" mode="normal"/></filter></defs><g><text fill="#888888" font-family="sans-serif" font-size="10" lengthAdjust="spacingAndGlyphs" textLength="40" x="261" y="9.2822">Schema</text><text fill="#000000" font-family="sans-serif" font-size="18" lengthAdjust="spacingAndGlyphs" textLength="97" x="102" y="28.3486">Application</text><!--MD5=[0b4e4b4980470ea387cc45de9bd14b5b]
class Application--><rect fill="#FEFECE" filter="url(#f1bdhpdqss0qyp)" height="176.0469" id="Application" style="stroke: #A80036; stroke-width: 1.5;" width="177" x="62" y="39.5938"/><ellipse cx="111.75" cy="55.5938" fill="#ADD1B2" rx="11" ry="11" style="stroke: #A80036; stroke-width: 1.0;"/><path d="M114.7188,61.2344 Q114.1406,61.5313 113.5,61.6719 Q112.8594,61.8281 112.1563,61.8281 Q109.6563,61.8281 108.3281,60.1875 Q107.0156,58.5313 107.0156,55.4063 Q107.0156,52.2813 108.3281,50.625 Q109.6563,48.9688 112.1563,48.9688 Q112.8594,48.9688 113.5,49.125 Q114.1563,49.2813 114.7188,49.5781 L114.7188,52.2969 Q114.0938,51.7188 113.5,51.4531 Q112.9063,51.1719 112.2813,51.1719 Q110.9375,51.1719 110.25,52.25 Q109.5625,53.3125 109.5625,55.4063 Q109.5625,57.5 110.25,58.5781 Q110.9375,59.6406 112.2813,59.6406 Q112.9063,59.6406 113.5,59.375 Q114.0938,59.0938 114.7188,58.5156 L114.7188,61.2344 Z "/><text fill="#000000" font-family="sans-serif" font-size="12" lengthAdjust="spacingAndGlyphs" textLength="69" x="132.25" y="59.748">Application</text><line style="stroke: #A80036; stroke-width: 1.5;" x1="63" x2="238" y1="71.5938" y2="71.5938"/><ellipse cx="73" cy="82.5938" fill="none" rx="3" ry="3" style="stroke: #038048; stroke-width: 1.0;"/><text fill="#000000" font-family="sans-serif" font-size="11" lengthAdjust="spacingAndGlyphs" textLength="73" x="82" y="85.8042">name: string</text><ellipse cx="73" cy="95.3984" fill="none" rx="3" ry="3" style="stroke: #038048; stroke-width: 1.0;"/><text fill="#000000" font-family="sans-serif" font-size="11" lengthAdjust="spacingAndGlyphs" textLength="135" x="82" y="98.6089">shortDescription: string</text><ellipse cx="73" cy="108.2031" fill="none" rx="3" ry="3" style="stroke: #038048; stroke-width: 1.0;"/><text fill="#000000" font-family="sans-serif" font-size="11" lengthAdjust="spacingAndGlyphs" textLength="104" x="82" y="111.4136">description: string</text><ellipse cx="73" cy="121.0078" fill="none" rx="3" ry="3" style="stroke: #038048; stroke-width: 1.0;"/><text fill="#000000" font-family="sans-serif" font-size="11" lengthAdjust="spacingAndGlyphs" textLength="151" x="82" y="124.2183">detailPageImageUrl: string</text><ellipse cx="73" cy="133.8125" fill="none" rx="3" ry="3" style="stroke: #038048; stroke-width: 1.0;"/><text fill="#000000" font-family="sans-serif" font-size="11" lengthAdjust="spacingAndGlyphs" textLength="141" x="82" y="137.0229">documentationUrl: string</text><ellipse cx="73" cy="146.6172" fill="none" rx="3" ry="3" style="stroke: #038048; stroke-width: 1.0;"/><text fill="#000000" font-family="sans-serif" font-size="11" lengthAdjust="spacingAndGlyphs" textLength="89" x="82" y="149.8276">demoUrl: string</text><ellipse cx="73" cy="159.4219" fill="none" rx="3" ry="3" style="stroke: #038048; stroke-width: 1.0;"/><text fill="#000000" font-family="sans-serif" font-size="11" lengthAdjust="spacingAndGlyphs" textLength="135" x="82" y="162.6323">bpmnProcessUrl: string</text><ellipse cx="73" cy="172.2266" fill="none" rx="3" ry="3" style="stroke: #038048; stroke-width: 1.0;"/><text fill="#000000" font-family="sans-serif" font-size="11" lengthAdjust="spacingAndGlyphs" textLength="118" x="82" y="175.437">isPublished: boolean</text><ellipse cx="73" cy="185.0313" fill="none" rx="3" ry="3" style="stroke: #038048; stroke-width: 1.0;"/><text fill="#000000" font-family="sans-serif" font-size="11" lengthAdjust="spacingAndGlyphs" textLength="63" x="82" y="188.2417">owner: Any</text><ellipse cx="73" cy="197.8359" fill="none" rx="3" ry="3" style="stroke: #038048; stroke-width: 1.0;"/><text fill="#000000" font-family="sans-serif" font-size="11" lengthAdjust="spacingAndGlyphs" textLength="108" x="82" y="201.0464">components: array</text><line style="stroke: #A80036; stroke-width: 1.5;" x1="63" x2="238" y1="207.6406" y2="207.6406"/><text fill="#888888" font-family="sans-serif" font-size="10" lengthAdjust="spacingAndGlyphs" textLength="301" x="0" y="231.9229">Common Gateway Plugin | Opencatalogi | Opencatalogibundle</text><!--MD5=[2fc32270187a4df3c933b7cc3236bfae]
@startuml
title: Application
footer: Common Gateway Plugin | Opencatalogi | Opencatalogibundle 
header: Schema

class Application {
  + name: string
  + shortDescription: string
  + description: string
  + detailPageImageUrl: string
  + documentationUrl: string
  + demoUrl: string
  + bpmnProcessUrl: string
  + isPublished: boolean
  + owner: Any
  + components: array
}
@enduml

PlantUML version 1.2020.02(Sun Mar 01 10:22:07 UTC 2020)
(GPL source distribution)
Java Runtime: OpenJDK Runtime Environment
JVM: OpenJDK 64-Bit Server VM
Java Version: 11.0.20.1+1
Operating System: Linux
Default Encoding: UTF-8
Language: en
Country: null
--></g></svg>