<?xml version="1.0" encoding="UTF-8" standalone="no"?><svg xmlns="http://www.w3.org/2000/svg" xmlns:xlink="http://www.w3.org/1999/xlink" contentScriptType="application/ecmascript" contentStyleType="text/css" height="168px" preserveAspectRatio="none" style="width:313px;height:168px;" version="1.1" viewBox="0 0 313 168" width="313px" zoomAndPan="magnify"><defs><filter height="300%" id="f1riaukk3dpqn6" width="300%" x="-1" y="-1"><feGaussianBlur result="blurOut" stdDeviation="2.0"/><feColorMatrix in="blurOut" result="blurOut2" type="matrix" values="0 0 0 0 0 0 0 0 0 0 0 0 0 0 0 0 0 0 .4 0"/><feOffset dx="4.0" dy="4.0" in="blurOut2" result="blurOut3"/><feBlend in="SourceGraphic" in2="blurOut3" mode="normal"/></filter></defs><g><text fill="#888888" font-family="sans-serif" font-size="10" lengthAdjust="spacingAndGlyphs" textLength="40" x="261" y="9.2822">Schema</text><text fill="#000000" font-family="sans-serif" font-size="18" lengthAdjust="spacingAndGlyphs" textLength="72" x="114.5" y="28.3486">Catalogi</text><!--MD5=[9f887a7360764945d20a99556de22c6b]
class Catalogi--><rect fill="#FEFECE" filter="url(#f1riaukk3dpqn6)" height="99.2188" id="Catalogi" style="stroke: #A80036; stroke-width: 1.5;" width="125" x="88" y="39.5938"/><ellipse cx="121.9" cy="55.5938" fill="#ADD1B2" rx="11" ry="11" style="stroke: #A80036; stroke-width: 1.0;"/><path d="M124.8688,61.2344 Q124.2906,61.5313 123.65,61.6719 Q123.0094,61.8281 122.3063,61.8281 Q119.8063,61.8281 118.4781,60.1875 Q117.1656,58.5313 117.1656,55.4063 Q117.1656,52.2813 118.4781,50.625 Q119.8063,48.9688 122.3063,48.9688 Q123.0094,48.9688 123.65,49.125 Q124.3063,49.2813 124.8688,49.5781 L124.8688,52.2969 Q124.2438,51.7188 123.65,51.4531 Q123.0563,51.1719 122.4313,51.1719 Q121.0875,51.1719 120.4,52.25 Q119.7125,53.3125 119.7125,55.4063 Q119.7125,57.5 120.4,58.5781 Q121.0875,59.6406 122.4313,59.6406 Q123.0563,59.6406 123.65,59.375 Q124.2438,59.0938 124.8688,58.5156 L124.8688,61.2344 Z "/><text fill="#000000" font-family="sans-serif" font-size="12" lengthAdjust="spacingAndGlyphs" textLength="51" x="140.1" y="59.748">Catalogi</text><line style="stroke: #A80036; stroke-width: 1.5;" x1="89" x2="212" y1="71.5938" y2="71.5938"/><ellipse cx="99" cy="82.5938" fill="none" rx="3" ry="3" style="stroke: #038048; stroke-width: 1.0;"/><text fill="#000000" font-family="sans-serif" font-size="11" lengthAdjust="spacingAndGlyphs" textLength="67" x="108" y="85.8042">source: Any</text><ellipse cx="99" cy="95.3984" fill="none" rx="3" ry="3" style="stroke: #038048; stroke-width: 1.0;"/><text fill="#000000" font-family="sans-serif" font-size="11" lengthAdjust="spacingAndGlyphs" textLength="99" x="108" y="98.6089">organisation: Any</text><ellipse cx="99" cy="108.2031" fill="none" rx="3" ry="3" style="stroke: #038048; stroke-width: 1.0;"/><text fill="#000000" font-family="sans-serif" font-size="11" lengthAdjust="spacingAndGlyphs" textLength="63" x="108" y="111.4136">rsin: string</text><ellipse cx="99" cy="121.0078" fill="none" rx="3" ry="3" style="stroke: #038048; stroke-width: 1.0;"/><text fill="#000000" font-family="sans-serif" font-size="11" lengthAdjust="spacingAndGlyphs" textLength="57" x="108" y="124.2183">pki: string</text><line style="stroke: #A80036; stroke-width: 1.5;" x1="89" x2="212" y1="130.8125" y2="130.8125"/><text fill="#888888" font-family="sans-serif" font-size="10" lengthAdjust="spacingAndGlyphs" textLength="301" x="0" y="155.0947">Common Gateway Plugin | Opencatalogi | Opencatalogibundle</text><!--MD5=[d9ca084f2c065b72e7ddcf0c903557ca]
@startuml
title: Catalogi
footer: Common Gateway Plugin | Opencatalogi | Opencatalogibundle 
header: Schema

class Catalogi {
  + source: Any
  + organisation: Any
  + rsin: string
  + pki: string
}
@enduml

PlantUML version 1.2020.02(Sun Mar 01 10:22:07 UTC 2020)
(GPL source distribution)
Java Runtime: OpenJDK Runtime Environment
JVM: OpenJDK 64-Bit Server VM
Java Version: 11.0.20.1+1
Operating System: Linux
Default Encoding: UTF-8
Language: en
Country: null
--></g></svg>