<?xml version="1.0" encoding="us-ascii" standalone="no"?><svg xmlns="http://www.w3.org/2000/svg" xmlns:xlink="http://www.w3.org/1999/xlink" contentStyleType="text/css" height="196px" preserveAspectRatio="none" style="width:349px;height:196px;background:#FFFFFF;" version="1.1" viewBox="0 0 349 196" width="349px" zoomAndPan="magnify"><defs/><g><text fill="#888888" font-family="sans-serif" font-size="10" lengthAdjust="spacing" textLength="45" x="296" y="9.2822">Schema</text><text fill="#000000" font-family="sans-serif" font-size="14" font-weight="bold" lengthAdjust="spacing" textLength="68" x="136.5" y="35.6357">Catalogi</text><!--class Catalogi--><g id="elem_Catalogi"><rect codeLine="5" fill="#F1F1F1" height="113.1875" id="Catalogi" rx="2.5" ry="2.5" style="stroke:#181818;stroke-width:0.5;" width="151" x="95.5" y="56.9375"/><ellipse cx="137.5" cy="72.9375" fill="#ADD1B2" rx="11" ry="11" style="stroke:#181818;stroke-width:1.0;"/><path d="M139.8438,68.6094 C138.9063,68.1719 138.3125,68.0313 137.4375,68.0313 C134.8125,68.0313 132.8125,70.1094 132.8125,72.8281 L132.8125,73.9531 C132.8125,76.5313 134.9219,78.4219 137.8125,78.4219 C139.0313,78.4219 140.1875,78.125 140.9375,77.5781 C141.5156,77.1719 141.8438,76.7188 141.8438,76.3281 C141.8438,75.875 141.4531,75.4844 140.9844,75.4844 C140.7656,75.4844 140.5625,75.5625 140.375,75.75 C139.9219,76.2344 139.9219,76.2344 139.7344,76.3281 C139.3125,76.5938 138.625,76.7188 137.8594,76.7188 C135.8125,76.7188 134.5156,75.625 134.5156,73.9219 L134.5156,72.8281 C134.5156,71.0469 135.7656,69.7344 137.5,69.7344 C138.0781,69.7344 138.6875,69.8906 139.1563,70.1406 C139.6406,70.4219 139.8125,70.6406 139.9063,71.0469 C139.9688,71.4531 140,71.5781 140.1406,71.7031 C140.2813,71.8438 140.5156,71.9531 140.7344,71.9531 C141,71.9531 141.2656,71.8125 141.4375,71.5938 C141.5469,71.4375 141.5781,71.25 141.5781,70.8281 L141.5781,69.4063 C141.5781,68.9688 141.5625,68.8438 141.4688,68.6875 C141.3125,68.4219 141.0313,68.2813 140.7344,68.2813 C140.4375,68.2813 140.2344,68.375 140.0156,68.6875 L139.8438,68.6094 Z " fill="#000000"/><text fill="#000000" font-family="sans-serif" font-size="14" lengthAdjust="spacing" textLength="59" x="157.5" y="77.7842">Catalogi</text><line style="stroke:#181818;stroke-width:0.5;" x1="96.5" x2="245.5" y1="88.9375" y2="88.9375"/><ellipse cx="106.5" cy="102.5859" fill="none" rx="3" ry="3" style="stroke:#038048;stroke-width:1.0;"/><text fill="#000000" font-family="sans-serif" font-size="14" lengthAdjust="spacing" textLength="83" x="115.5" y="105.9326">source: Any</text><ellipse cx="106.5" cy="118.8828" fill="none" rx="3" ry="3" style="stroke:#038048;stroke-width:1.0;"/><text fill="#000000" font-family="sans-serif" font-size="14" lengthAdjust="spacing" textLength="125" x="115.5" y="122.2295">organisation: Any</text><ellipse cx="106.5" cy="135.1797" fill="none" rx="3" ry="3" style="stroke:#038048;stroke-width:1.0;"/><text fill="#000000" font-family="sans-serif" font-size="14" lengthAdjust="spacing" textLength="77" x="115.5" y="138.5264">rsin: string</text><ellipse cx="106.5" cy="151.4766" fill="none" rx="3" ry="3" style="stroke:#038048;stroke-width:1.0;"/><text fill="#000000" font-family="sans-serif" font-size="14" lengthAdjust="spacing" textLength="74" x="115.5" y="154.8232">pki: string</text><line style="stroke:#181818;stroke-width:0.5;" x1="96.5" x2="245.5" y1="162.125" y2="162.125"/></g><text fill="#888888" font-family="sans-serif" font-size="10" lengthAdjust="spacing" textLength="341" x="0" y="186.4072">Common Gateway Plugin | Opencatalogi | Opencatalogibundle</text><!--SRC=[NOr12W8n34NtFKNsti2Tk72fu0bY9tQ2RJ8qAJAeTxSECeBBz_Zyv-oPjh17nwo9mrNLgNQXfQZ00PtkECCfjyG2JpXE9F4x_iDBao4JX95m-5oSuqW5GuWPpTO2F0B01anRZJsyatbXhGc53PrLVhOQTpAlB6aHqurNVhq1]--></g></svg>