<?xml version="1.0" encoding="UTF-8" standalone="no"?><svg xmlns="http://www.w3.org/2000/svg" xmlns:xlink="http://www.w3.org/1999/xlink" contentScriptType="application/ecmascript" contentStyleType="text/css" height="117px" preserveAspectRatio="none" style="width:143px;height:117px;" version="1.1" viewBox="0 0 143 117" width="143px" zoomAndPan="magnify"><defs><filter height="300%" id="feowskhohkds1" width="300%" x="-1" y="-1"><feGaussianBlur result="blurOut" stdDeviation="2.0"/><feColorMatrix in="blurOut" result="blurOut2" type="matrix" values="0 0 0 0 0 0 0 0 0 0 0 0 0 0 0 0 0 0 .4 0"/><feOffset dx="4.0" dy="4.0" in="blurOut2" result="blurOut3"/><feBlend in="SourceGraphic" in2="blurOut3" mode="normal"/></filter></defs><g><!--MD5=[9f887a7360764945d20a99556de22c6b]
class Catalogi--><rect fill="#FEFECE" filter="url(#feowskhohkds1)" height="99.2188" id="Catalogi" style="stroke: #A80036; stroke-width: 1.5;" width="125" x="7" y="7"/><ellipse cx="40.9" cy="23" fill="#ADD1B2" rx="11" ry="11" style="stroke: #A80036; stroke-width: 1.0;"/><path d="M43.8688,28.6406 Q43.2906,28.9375 42.65,29.0781 Q42.0094,29.2344 41.3063,29.2344 Q38.8063,29.2344 37.4781,27.5938 Q36.1656,25.9375 36.1656,22.8125 Q36.1656,19.6875 37.4781,18.0313 Q38.8063,16.375 41.3063,16.375 Q42.0094,16.375 42.65,16.5313 Q43.3063,16.6875 43.8688,16.9844 L43.8688,19.7031 Q43.2438,19.125 42.65,18.8594 Q42.0563,18.5781 41.4313,18.5781 Q40.0875,18.5781 39.4,19.6563 Q38.7125,20.7188 38.7125,22.8125 Q38.7125,24.9063 39.4,25.9844 Q40.0875,27.0469 41.4313,27.0469 Q42.0563,27.0469 42.65,26.7813 Q43.2438,26.5 43.8688,25.9219 L43.8688,28.6406 Z "/><text fill="#000000" font-family="sans-serif" font-size="12" lengthAdjust="spacingAndGlyphs" textLength="51" x="59.1" y="27.1543">Catalogi</text><line style="stroke: #A80036; stroke-width: 1.5;" x1="8" x2="131" y1="39" y2="39"/><ellipse cx="18" cy="50" fill="none" rx="3" ry="3" style="stroke: #038048; stroke-width: 1.0;"/><text fill="#000000" font-family="sans-serif" font-size="11" lengthAdjust="spacingAndGlyphs" textLength="67" x="27" y="53.2104">source: Any</text><ellipse cx="18" cy="62.8047" fill="none" rx="3" ry="3" style="stroke: #038048; stroke-width: 1.0;"/><text fill="#000000" font-family="sans-serif" font-size="11" lengthAdjust="spacingAndGlyphs" textLength="99" x="27" y="66.0151">organisation: Any</text><ellipse cx="18" cy="75.6094" fill="none" rx="3" ry="3" style="stroke: #038048; stroke-width: 1.0;"/><text fill="#000000" font-family="sans-serif" font-size="11" lengthAdjust="spacingAndGlyphs" textLength="63" x="27" y="78.8198">rsin: string</text><ellipse cx="18" cy="88.4141" fill="none" rx="3" ry="3" style="stroke: #038048; stroke-width: 1.0;"/><text fill="#000000" font-family="sans-serif" font-size="11" lengthAdjust="spacingAndGlyphs" textLength="57" x="27" y="91.6245">pki: string</text><line style="stroke: #A80036; stroke-width: 1.5;" x1="8" x2="131" y1="98.2188" y2="98.2188"/><!--MD5=[7e3290344bc96225d052229873cea005]
@startuml
class Catalogi {
  + source: Any
  + organisation: Any
  + rsin: string
  + pki: string
}
@enduml

PlantUML version 1.2020.02(Sun Mar 01 10:22:07 UTC 2020)
(GPL source distribution)
Java Runtime: OpenJDK Runtime Environment
JVM: OpenJDK 64-Bit Server VM
Java Version: 11.0.20.1+1
Operating System: Linux
Default Encoding: UTF-8
Language: en
Country: null
--></g></svg>