<?xml version="1.0" encoding="us-ascii" standalone="no"?><svg xmlns="http://www.w3.org/2000/svg" xmlns:xlink="http://www.w3.org/1999/xlink" contentStyleType="text/css" height="196px" preserveAspectRatio="none" style="width:172px;height:196px;background:#FFFFFF;" version="1.1" viewBox="0 0 172 196" width="172px" zoomAndPan="magnify"><defs/><g><text fill="#888888" font-family="sans-serif" font-size="10" lengthAdjust="spacing" textLength="45" x="119" y="9.2822">Schema</text><text fill="#000000" font-family="sans-serif" font-size="14" font-weight="bold" lengthAdjust="spacing" textLength="68" x="48" y="35.6357">Catalogi</text><!--class Catalogi--><g id="elem_Catalogi"><rect codeLine="5" fill="#F1F1F1" height="113.1875" id="Catalogi" rx="2.5" ry="2.5" style="stroke:#181818;stroke-width:0.5;" width="151" x="7" y="56.9375"/><ellipse cx="49" cy="72.9375" fill="#ADD1B2" rx="11" ry="11" style="stroke:#181818;stroke-width:1.0;"/><path d="M51.3438,68.6094 C50.4063,68.1719 49.8125,68.0313 48.9375,68.0313 C46.3125,68.0313 44.3125,70.1094 44.3125,72.8281 L44.3125,73.9531 C44.3125,76.5313 46.4219,78.4219 49.3125,78.4219 C50.5313,78.4219 51.6875,78.125 52.4375,77.5781 C53.0156,77.1719 53.3438,76.7188 53.3438,76.3281 C53.3438,75.875 52.9531,75.4844 52.4844,75.4844 C52.2656,75.4844 52.0625,75.5625 51.875,75.75 C51.4219,76.2344 51.4219,76.2344 51.2344,76.3281 C50.8125,76.5938 50.125,76.7188 49.3594,76.7188 C47.3125,76.7188 46.0156,75.625 46.0156,73.9219 L46.0156,72.8281 C46.0156,71.0469 47.2656,69.7344 49,69.7344 C49.5781,69.7344 50.1875,69.8906 50.6563,70.1406 C51.1406,70.4219 51.3125,70.6406 51.4063,71.0469 C51.4688,71.4531 51.5,71.5781 51.6406,71.7031 C51.7813,71.8438 52.0156,71.9531 52.2344,71.9531 C52.5,71.9531 52.7656,71.8125 52.9375,71.5938 C53.0469,71.4375 53.0781,71.25 53.0781,70.8281 L53.0781,69.4063 C53.0781,68.9688 53.0625,68.8438 52.9688,68.6875 C52.8125,68.4219 52.5313,68.2813 52.2344,68.2813 C51.9375,68.2813 51.7344,68.375 51.5156,68.6875 L51.3438,68.6094 Z " fill="#000000"/><text fill="#000000" font-family="sans-serif" font-size="14" lengthAdjust="spacing" textLength="59" x="69" y="77.7842">Catalogi</text><line style="stroke:#181818;stroke-width:0.5;" x1="8" x2="157" y1="88.9375" y2="88.9375"/><ellipse cx="18" cy="102.5859" fill="none" rx="3" ry="3" style="stroke:#038048;stroke-width:1.0;"/><text fill="#000000" font-family="sans-serif" font-size="14" lengthAdjust="spacing" textLength="83" x="27" y="105.9326">source: Any</text><ellipse cx="18" cy="118.8828" fill="none" rx="3" ry="3" style="stroke:#038048;stroke-width:1.0;"/><text fill="#000000" font-family="sans-serif" font-size="14" lengthAdjust="spacing" textLength="125" x="27" y="122.2295">organisation: Any</text><ellipse cx="18" cy="135.1797" fill="none" rx="3" ry="3" style="stroke:#038048;stroke-width:1.0;"/><text fill="#000000" font-family="sans-serif" font-size="14" lengthAdjust="spacing" textLength="77" x="27" y="138.5264">rsin: string</text><ellipse cx="18" cy="151.4766" fill="none" rx="3" ry="3" style="stroke:#038048;stroke-width:1.0;"/><text fill="#000000" font-family="sans-serif" font-size="14" lengthAdjust="spacing" textLength="74" x="27" y="154.8232">pki: string</text><line style="stroke:#181818;stroke-width:0.5;" x1="8" x2="157" y1="162.125" y2="162.125"/></g><text fill="#888888" font-family="sans-serif" font-size="10" lengthAdjust="spacing" textLength="137" x="13.5" y="186.4072">Common Gateway Plugin</text><!--SRC=[HOmn3i9030Hxly8zFw135BH8lC0wpCNYpaQs8nGX_fuZHIXdLhCfsVY8PqfgLWKUPia-XFLkYXTAVjE2rpPNKPYOxh_rLYRk150QHUmnVW3nW66pb_5vqcLZyqegGIccV-iXWo9Tj6xYzPITloi0]--></g></svg>