<?xml version="1.0" encoding="us-ascii" standalone="no"?><svg xmlns="http://www.w3.org/2000/svg" xmlns:xlink="http://www.w3.org/1999/xlink" contentStyleType="text/css" height="180px" preserveAspectRatio="none" style="width:255px;height:180px;background:#FFFFFF;" version="1.1" viewBox="0 0 255 180" width="255px" zoomAndPan="magnify"><defs/><g><text fill="#888888" font-family="sans-serif" font-size="10" lengthAdjust="spacing" textLength="45" x="202" y="9.2822">Schema</text><text fill="#000000" font-family="sans-serif" font-size="14" font-weight="bold" lengthAdjust="spacing" textLength="127" x="60" y="35.6357">Commonground</text><!--class Commonground--><g id="elem_Commonground"><rect codeLine="5" fill="#F1F1F1" height="96.8906" id="Commonground" rx="2.5" ry="2.5" style="stroke:#181818;stroke-width:0.5;" width="234" x="7" y="56.9375"/><ellipse cx="62.25" cy="72.9375" fill="#ADD1B2" rx="11" ry="11" style="stroke:#181818;stroke-width:1.0;"/><path d="M64.5938,68.6094 C63.6563,68.1719 63.0625,68.0313 62.1875,68.0313 C59.5625,68.0313 57.5625,70.1094 57.5625,72.8281 L57.5625,73.9531 C57.5625,76.5313 59.6719,78.4219 62.5625,78.4219 C63.7813,78.4219 64.9375,78.125 65.6875,77.5781 C66.2656,77.1719 66.5938,76.7188 66.5938,76.3281 C66.5938,75.875 66.2031,75.4844 65.7344,75.4844 C65.5156,75.4844 65.3125,75.5625 65.125,75.75 C64.6719,76.2344 64.6719,76.2344 64.4844,76.3281 C64.0625,76.5938 63.375,76.7188 62.6094,76.7188 C60.5625,76.7188 59.2656,75.625 59.2656,73.9219 L59.2656,72.8281 C59.2656,71.0469 60.5156,69.7344 62.25,69.7344 C62.8281,69.7344 63.4375,69.8906 63.9063,70.1406 C64.3906,70.4219 64.5625,70.6406 64.6563,71.0469 C64.7188,71.4531 64.75,71.5781 64.8906,71.7031 C65.0313,71.8438 65.2656,71.9531 65.4844,71.9531 C65.75,71.9531 66.0156,71.8125 66.1875,71.5938 C66.2969,71.4375 66.3281,71.25 66.3281,70.8281 L66.3281,69.4063 C66.3281,68.9688 66.3125,68.8438 66.2188,68.6875 C66.0625,68.4219 65.7813,68.2813 65.4844,68.2813 C65.1875,68.2813 64.9844,68.375 64.7656,68.6875 L64.5938,68.6094 Z " fill="#000000"/><text fill="#000000" font-family="sans-serif" font-size="14" lengthAdjust="spacing" textLength="115" x="82.75" y="77.7842">Commonground</text><line style="stroke:#181818;stroke-width:0.5;" x1="8" x2="240" y1="88.9375" y2="88.9375"/><ellipse cx="18" cy="102.5859" fill="none" rx="3" ry="3" style="stroke:#038048;stroke-width:1.0;"/><text fill="#000000" font-family="sans-serif" font-size="14" lengthAdjust="spacing" textLength="208" x="27" y="105.9326">intendedOrganisations: array</text><ellipse cx="18" cy="118.8828" fill="none" rx="3" ry="3" style="stroke:#038048;stroke-width:1.0;"/><text fill="#000000" font-family="sans-serif" font-size="14" lengthAdjust="spacing" textLength="167" x="27" y="122.2295">installationType: string</text><ellipse cx="18" cy="135.1797" fill="none" rx="3" ry="3" style="stroke:#038048;stroke-width:1.0;"/><text fill="#000000" font-family="sans-serif" font-size="14" lengthAdjust="spacing" textLength="122" x="27" y="138.5264">layerType: string</text><line style="stroke:#181818;stroke-width:0.5;" x1="8" x2="240" y1="145.8281" y2="145.8281"/></g><text fill="#888888" font-family="sans-serif" font-size="10" lengthAdjust="spacing" textLength="137" x="55" y="170.1104">Common Gateway Plugin</text><!--SRC=[LOv12i9034NtSuhilK6tBbmgw0L29qu3QI99YWpYtQj55zs-ztdyv1GQu6ZpRDhS5gtbRfRaVmWdJ7fYXuiiZRLCXFLhh-D4CvOo2aRi0l0g00TWJT9AzUmDbGEJJMC0TCV-6qIYo2Pk_V6v4UciRPE2dNn7toi0]--></g></svg>