<?xml version="1.0" encoding="UTF-8" standalone="no"?><svg xmlns="http://www.w3.org/2000/svg" xmlns:xlink="http://www.w3.org/1999/xlink" contentScriptType="application/ecmascript" contentStyleType="text/css" height="104px" preserveAspectRatio="none" style="width:211px;height:104px;" version="1.1" viewBox="0 0 211 104" width="211px" zoomAndPan="magnify"><defs><filter height="300%" id="f1eo52gecvf1km" width="300%" x="-1" y="-1"><feGaussianBlur result="blurOut" stdDeviation="2.0"/><feColorMatrix in="blurOut" result="blurOut2" type="matrix" values="0 0 0 0 0 0 0 0 0 0 0 0 0 0 0 0 0 0 .4 0"/><feOffset dx="4.0" dy="4.0" in="blurOut2" result="blurOut3"/><feBlend in="SourceGraphic" in2="blurOut3" mode="normal"/></filter></defs><g><!--MD5=[33eb1fbb1940f0c0ebf8c8ed82e0d777]
class Commonground--><rect fill="#FEFECE" filter="url(#f1eo52gecvf1km)" height="86.4141" id="Commonground" style="stroke: #A80036; stroke-width: 1.5;" width="193" x="7" y="7"/><ellipse cx="49.9" cy="23" fill="#ADD1B2" rx="11" ry="11" style="stroke: #A80036; stroke-width: 1.0;"/><path d="M52.8688,28.6406 Q52.2906,28.9375 51.65,29.0781 Q51.0094,29.2344 50.3063,29.2344 Q47.8063,29.2344 46.4781,27.5938 Q45.1656,25.9375 45.1656,22.8125 Q45.1656,19.6875 46.4781,18.0313 Q47.8063,16.375 50.3063,16.375 Q51.0094,16.375 51.65,16.5313 Q52.3063,16.6875 52.8688,16.9844 L52.8688,19.7031 Q52.2438,19.125 51.65,18.8594 Q51.0563,18.5781 50.4313,18.5781 Q49.0875,18.5781 48.4,19.6563 Q47.7125,20.7188 47.7125,22.8125 Q47.7125,24.9063 48.4,25.9844 Q49.0875,27.0469 50.4313,27.0469 Q51.0563,27.0469 51.65,26.7813 Q52.2438,26.5 52.8688,25.9219 L52.8688,28.6406 Z "/><text fill="#000000" font-family="sans-serif" font-size="12" lengthAdjust="spacingAndGlyphs" textLength="99" x="70.1" y="27.1543">Commonground</text><line style="stroke: #A80036; stroke-width: 1.5;" x1="8" x2="199" y1="39" y2="39"/><ellipse cx="18" cy="50" fill="none" rx="3" ry="3" style="stroke: #038048; stroke-width: 1.0;"/><text fill="#000000" font-family="sans-serif" font-size="11" lengthAdjust="spacingAndGlyphs" textLength="167" x="27" y="53.2104">intendedOrganisations: array</text><ellipse cx="18" cy="62.8047" fill="none" rx="3" ry="3" style="stroke: #038048; stroke-width: 1.0;"/><text fill="#000000" font-family="sans-serif" font-size="11" lengthAdjust="spacingAndGlyphs" textLength="130" x="27" y="66.0151">installationType: string</text><ellipse cx="18" cy="75.6094" fill="none" rx="3" ry="3" style="stroke: #038048; stroke-width: 1.0;"/><text fill="#000000" font-family="sans-serif" font-size="11" lengthAdjust="spacingAndGlyphs" textLength="96" x="27" y="78.8198">layerType: string</text><line style="stroke: #A80036; stroke-width: 1.5;" x1="8" x2="199" y1="85.4141" y2="85.4141"/><!--MD5=[db274ac31969dd1b8aefff136aed1bc9]
@startuml
class Commonground {
  + intendedOrganisations: array
  + installationType: string
  + layerType: string
}
@enduml

PlantUML version 1.2020.02(Sun Mar 01 10:22:07 UTC 2020)
(GPL source distribution)
Java Runtime: OpenJDK Runtime Environment
JVM: OpenJDK 64-Bit Server VM
Java Version: 11.0.20.1+1
Operating System: Linux
Default Encoding: UTF-8
Language: en
Country: null
--></g></svg>