<?xml version="1.0" encoding="UTF-8" standalone="no"?><svg xmlns="http://www.w3.org/2000/svg" xmlns:xlink="http://www.w3.org/1999/xlink" contentScriptType="application/ecmascript" contentStyleType="text/css" height="155px" preserveAspectRatio="none" style="width:313px;height:155px;" version="1.1" viewBox="0 0 313 155" width="313px" zoomAndPan="magnify"><defs><filter height="300%" id="f1gnjioik7gk5z" width="300%" x="-1" y="-1"><feGaussianBlur result="blurOut" stdDeviation="2.0"/><feColorMatrix in="blurOut" result="blurOut2" type="matrix" values="0 0 0 0 0 0 0 0 0 0 0 0 0 0 0 0 0 0 .4 0"/><feOffset dx="4.0" dy="4.0" in="blurOut2" result="blurOut3"/><feBlend in="SourceGraphic" in2="blurOut3" mode="normal"/></filter></defs><g><text fill="#888888" font-family="sans-serif" font-size="10" lengthAdjust="spacingAndGlyphs" textLength="40" x="261" y="9.2822">Schema</text><text fill="#000000" font-family="sans-serif" font-size="18" lengthAdjust="spacingAndGlyphs" textLength="143" x="79" y="28.3486">Commonground</text><!--MD5=[33eb1fbb1940f0c0ebf8c8ed82e0d777]
class Commonground--><rect fill="#FEFECE" filter="url(#f1gnjioik7gk5z)" height="86.4141" id="Commonground" style="stroke: #A80036; stroke-width: 1.5;" width="193" x="54" y="39.5938"/><ellipse cx="96.9" cy="55.5938" fill="#ADD1B2" rx="11" ry="11" style="stroke: #A80036; stroke-width: 1.0;"/><path d="M99.8688,61.2344 Q99.2906,61.5313 98.65,61.6719 Q98.0094,61.8281 97.3063,61.8281 Q94.8063,61.8281 93.4781,60.1875 Q92.1656,58.5313 92.1656,55.4063 Q92.1656,52.2813 93.4781,50.625 Q94.8063,48.9688 97.3063,48.9688 Q98.0094,48.9688 98.65,49.125 Q99.3063,49.2813 99.8688,49.5781 L99.8688,52.2969 Q99.2438,51.7188 98.65,51.4531 Q98.0563,51.1719 97.4313,51.1719 Q96.0875,51.1719 95.4,52.25 Q94.7125,53.3125 94.7125,55.4063 Q94.7125,57.5 95.4,58.5781 Q96.0875,59.6406 97.4313,59.6406 Q98.0563,59.6406 98.65,59.375 Q99.2438,59.0938 99.8688,58.5156 L99.8688,61.2344 Z "/><text fill="#000000" font-family="sans-serif" font-size="12" lengthAdjust="spacingAndGlyphs" textLength="99" x="117.1" y="59.748">Commonground</text><line style="stroke: #A80036; stroke-width: 1.5;" x1="55" x2="246" y1="71.5938" y2="71.5938"/><ellipse cx="65" cy="82.5938" fill="none" rx="3" ry="3" style="stroke: #038048; stroke-width: 1.0;"/><text fill="#000000" font-family="sans-serif" font-size="11" lengthAdjust="spacingAndGlyphs" textLength="167" x="74" y="85.8042">intendedOrganisations: array</text><ellipse cx="65" cy="95.3984" fill="none" rx="3" ry="3" style="stroke: #038048; stroke-width: 1.0;"/><text fill="#000000" font-family="sans-serif" font-size="11" lengthAdjust="spacingAndGlyphs" textLength="130" x="74" y="98.6089">installationType: string</text><ellipse cx="65" cy="108.2031" fill="none" rx="3" ry="3" style="stroke: #038048; stroke-width: 1.0;"/><text fill="#000000" font-family="sans-serif" font-size="11" lengthAdjust="spacingAndGlyphs" textLength="96" x="74" y="111.4136">layerType: string</text><line style="stroke: #A80036; stroke-width: 1.5;" x1="55" x2="246" y1="118.0078" y2="118.0078"/><text fill="#888888" font-family="sans-serif" font-size="10" lengthAdjust="spacingAndGlyphs" textLength="301" x="0" y="142.29">Common Gateway Plugin | Opencatalogi | Opencatalogibundle</text><!--MD5=[995e0ea4e36beaebaf5b8702be9ddb2d]
@startuml
title: Commonground
footer: Common Gateway Plugin | Opencatalogi | Opencatalogibundle 
header: Schema

class Commonground {
  + intendedOrganisations: array
  + installationType: string
  + layerType: string
}
@enduml

PlantUML version 1.2020.02(Sun Mar 01 10:22:07 UTC 2020)
(GPL source distribution)
Java Runtime: OpenJDK Runtime Environment
JVM: OpenJDK 64-Bit Server VM
Java Version: 11.0.20.1+1
Operating System: Linux
Default Encoding: UTF-8
Language: en
Country: null
--></g></svg>