<?xml version="1.0" encoding="us-ascii" standalone="no"?><svg xmlns="http://www.w3.org/2000/svg" xmlns:xlink="http://www.w3.org/1999/xlink" contentStyleType="text/css" height="180px" preserveAspectRatio="none" style="width:349px;height:180px;background:#FFFFFF;" version="1.1" viewBox="0 0 349 180" width="349px" zoomAndPan="magnify"><defs/><g><text fill="#888888" font-family="sans-serif" font-size="10" lengthAdjust="spacing" textLength="45" x="296" y="9.2822">Schema</text><text fill="#000000" font-family="sans-serif" font-size="14" font-weight="bold" lengthAdjust="spacing" textLength="127" x="107" y="35.6357">Commonground</text><!--class Commonground--><g id="elem_Commonground"><rect codeLine="5" fill="#F1F1F1" height="96.8906" id="Commonground" rx="2.5" ry="2.5" style="stroke:#181818;stroke-width:0.5;" width="234" x="54" y="56.9375"/><ellipse cx="109.25" cy="72.9375" fill="#ADD1B2" rx="11" ry="11" style="stroke:#181818;stroke-width:1.0;"/><path d="M111.5938,68.6094 C110.6563,68.1719 110.0625,68.0313 109.1875,68.0313 C106.5625,68.0313 104.5625,70.1094 104.5625,72.8281 L104.5625,73.9531 C104.5625,76.5313 106.6719,78.4219 109.5625,78.4219 C110.7813,78.4219 111.9375,78.125 112.6875,77.5781 C113.2656,77.1719 113.5938,76.7188 113.5938,76.3281 C113.5938,75.875 113.2031,75.4844 112.7344,75.4844 C112.5156,75.4844 112.3125,75.5625 112.125,75.75 C111.6719,76.2344 111.6719,76.2344 111.4844,76.3281 C111.0625,76.5938 110.375,76.7188 109.6094,76.7188 C107.5625,76.7188 106.2656,75.625 106.2656,73.9219 L106.2656,72.8281 C106.2656,71.0469 107.5156,69.7344 109.25,69.7344 C109.8281,69.7344 110.4375,69.8906 110.9063,70.1406 C111.3906,70.4219 111.5625,70.6406 111.6563,71.0469 C111.7188,71.4531 111.75,71.5781 111.8906,71.7031 C112.0313,71.8438 112.2656,71.9531 112.4844,71.9531 C112.75,71.9531 113.0156,71.8125 113.1875,71.5938 C113.2969,71.4375 113.3281,71.25 113.3281,70.8281 L113.3281,69.4063 C113.3281,68.9688 113.3125,68.8438 113.2188,68.6875 C113.0625,68.4219 112.7813,68.2813 112.4844,68.2813 C112.1875,68.2813 111.9844,68.375 111.7656,68.6875 L111.5938,68.6094 Z " fill="#000000"/><text fill="#000000" font-family="sans-serif" font-size="14" lengthAdjust="spacing" textLength="115" x="129.75" y="77.7842">Commonground</text><line style="stroke:#181818;stroke-width:0.5;" x1="55" x2="287" y1="88.9375" y2="88.9375"/><ellipse cx="65" cy="102.5859" fill="none" rx="3" ry="3" style="stroke:#038048;stroke-width:1.0;"/><text fill="#000000" font-family="sans-serif" font-size="14" lengthAdjust="spacing" textLength="208" x="74" y="105.9326">intendedOrganisations: array</text><ellipse cx="65" cy="118.8828" fill="none" rx="3" ry="3" style="stroke:#038048;stroke-width:1.0;"/><text fill="#000000" font-family="sans-serif" font-size="14" lengthAdjust="spacing" textLength="167" x="74" y="122.2295">installationType: string</text><ellipse cx="65" cy="135.1797" fill="none" rx="3" ry="3" style="stroke:#038048;stroke-width:1.0;"/><text fill="#000000" font-family="sans-serif" font-size="14" lengthAdjust="spacing" textLength="122" x="74" y="138.5264">layerType: string</text><line style="stroke:#181818;stroke-width:0.5;" x1="55" x2="287" y1="145.8281" y2="145.8281"/></g><text fill="#888888" font-family="sans-serif" font-size="10" lengthAdjust="spacing" textLength="341" x="0" y="170.1104">Common Gateway Plugin | Opencatalogi | Opencatalogibundle</text><!--SRC=[NKux3i8m3Drp2k_Se2i38qXm0TEOr99hLuuh505tfrGmbF7zNt08TR2tSJGjRhFcT3CByXy91mowOuEJp8KLdd2SI7iC52ly1wzBNWZIG9W_5UT-e15JwWLhtQp08m7iW3L8C-MZ5rIk66nQEq1tR5z3NQfb5IvjMhxMSDQoYeADVCE-tW00]--></g></svg>