<?xml version="1.0" encoding="UTF-8" standalone="no"?><svg xmlns="http://www.w3.org/2000/svg" xmlns:xlink="http://www.w3.org/1999/xlink" contentScriptType="application/ecmascript" contentStyleType="text/css" height="78px" preserveAspectRatio="none" style="width:159px;height:78px;" version="1.1" viewBox="0 0 159 78" width="159px" zoomAndPan="magnify"><defs><filter height="300%" id="fpxbvtetlhric" width="300%" x="-1" y="-1"><feGaussianBlur result="blurOut" stdDeviation="2.0"/><feColorMatrix in="blurOut" result="blurOut2" type="matrix" values="0 0 0 0 0 0 0 0 0 0 0 0 0 0 0 0 0 0 .4 0"/><feOffset dx="4.0" dy="4.0" in="blurOut2" result="blurOut3"/><feBlend in="SourceGraphic" in2="blurOut3" mode="normal"/></filter></defs><g><!--MD5=[63036d1a4afacb6ac9450f6690235698]
class ComponentUrl--><rect fill="#FEFECE" filter="url(#fpxbvtetlhric)" height="60.8047" id="ComponentUrl" style="stroke: #A80036; stroke-width: 1.5;" width="141" x="7" y="7"/><ellipse cx="31" cy="23" fill="#ADD1B2" rx="11" ry="11" style="stroke: #A80036; stroke-width: 1.0;"/><path d="M33.9688,28.6406 Q33.3906,28.9375 32.75,29.0781 Q32.1094,29.2344 31.4063,29.2344 Q28.9063,29.2344 27.5781,27.5938 Q26.2656,25.9375 26.2656,22.8125 Q26.2656,19.6875 27.5781,18.0313 Q28.9063,16.375 31.4063,16.375 Q32.1094,16.375 32.75,16.5313 Q33.4063,16.6875 33.9688,16.9844 L33.9688,19.7031 Q33.3438,19.125 32.75,18.8594 Q32.1563,18.5781 31.5313,18.5781 Q30.1875,18.5781 29.5,19.6563 Q28.8125,20.7188 28.8125,22.8125 Q28.8125,24.9063 29.5,25.9844 Q30.1875,27.0469 31.5313,27.0469 Q32.1563,27.0469 32.75,26.7813 Q33.3438,26.5 33.9688,25.9219 L33.9688,28.6406 Z "/><text fill="#000000" font-family="sans-serif" font-size="12" lengthAdjust="spacingAndGlyphs" textLength="89" x="47" y="27.1543">ComponentUrl</text><line style="stroke: #A80036; stroke-width: 1.5;" x1="8" x2="147" y1="39" y2="39"/><ellipse cx="18" cy="50" fill="none" rx="3" ry="3" style="stroke: #038048; stroke-width: 1.0;"/><text fill="#000000" font-family="sans-serif" font-size="11" lengthAdjust="spacingAndGlyphs" textLength="115" x="27" y="53.2104">repositoryUrl: string</text><line style="stroke: #A80036; stroke-width: 1.5;" x1="8" x2="147" y1="59.8047" y2="59.8047"/><!--MD5=[607cef509b82be2749b41ae9d2ee55f6]
@startuml
class ComponentUrl {
  + repositoryUrl: string
}
@enduml

PlantUML version 1.2020.02(Sun Mar 01 10:22:07 UTC 2020)
(GPL source distribution)
Java Runtime: OpenJDK Runtime Environment
JVM: OpenJDK 64-Bit Server VM
Java Version: 11.0.20.1+1
Operating System: Linux
Default Encoding: UTF-8
Language: en
Country: null
--></g></svg>