<?xml version="1.0" encoding="us-ascii" standalone="no"?><svg xmlns="http://www.w3.org/2000/svg" xmlns:xlink="http://www.w3.org/1999/xlink" contentStyleType="text/css" height="539px" preserveAspectRatio="none" style="width:241px;height:539px;background:#FFFFFF;" version="1.1" viewBox="0 0 241 539" width="241px" zoomAndPan="magnify"><defs/><g><text fill="#888888" font-family="sans-serif" font-size="10" lengthAdjust="spacing" textLength="45" x="188" y="9.2822">Schema</text><text fill="#000000" font-family="sans-serif" font-size="14" font-weight="bold" lengthAdjust="spacing" textLength="92" x="70.5" y="35.6357">Component</text><!--class Component--><g id="elem_Component"><rect codeLine="5" fill="#F1F1F1" height="455.4219" id="Component" rx="2.5" ry="2.5" style="stroke:#181818;stroke-width:0.5;" width="220" x="7" y="56.9375"/><ellipse cx="69.75" cy="72.9375" fill="#ADD1B2" rx="11" ry="11" style="stroke:#181818;stroke-width:1.0;"/><path d="M72.0938,68.6094 C71.1563,68.1719 70.5625,68.0313 69.6875,68.0313 C67.0625,68.0313 65.0625,70.1094 65.0625,72.8281 L65.0625,73.9531 C65.0625,76.5313 67.1719,78.4219 70.0625,78.4219 C71.2813,78.4219 72.4375,78.125 73.1875,77.5781 C73.7656,77.1719 74.0938,76.7188 74.0938,76.3281 C74.0938,75.875 73.7031,75.4844 73.2344,75.4844 C73.0156,75.4844 72.8125,75.5625 72.625,75.75 C72.1719,76.2344 72.1719,76.2344 71.9844,76.3281 C71.5625,76.5938 70.875,76.7188 70.1094,76.7188 C68.0625,76.7188 66.7656,75.625 66.7656,73.9219 L66.7656,72.8281 C66.7656,71.0469 68.0156,69.7344 69.75,69.7344 C70.3281,69.7344 70.9375,69.8906 71.4063,70.1406 C71.8906,70.4219 72.0625,70.6406 72.1563,71.0469 C72.2188,71.4531 72.25,71.5781 72.3906,71.7031 C72.5313,71.8438 72.7656,71.9531 72.9844,71.9531 C73.25,71.9531 73.5156,71.8125 73.6875,71.5938 C73.7969,71.4375 73.8281,71.25 73.8281,70.8281 L73.8281,69.4063 C73.8281,68.9688 73.8125,68.8438 73.7188,68.6875 C73.5625,68.4219 73.2813,68.2813 72.9844,68.2813 C72.6875,68.2813 72.4844,68.375 72.2656,68.6875 L72.0938,68.6094 Z " fill="#000000"/><text fill="#000000" font-family="sans-serif" font-size="14" lengthAdjust="spacing" textLength="86" x="90.25" y="77.7842">Component</text><line style="stroke:#181818;stroke-width:0.5;" x1="8" x2="226" y1="88.9375" y2="88.9375"/><ellipse cx="18" cy="102.5859" fill="none" rx="3" ry="3" style="stroke:#038048;stroke-width:1.0;"/><text fill="#000000" font-family="sans-serif" font-size="14" lengthAdjust="spacing" textLength="145" x="27" y="105.9326">applicationId: string</text><ellipse cx="18" cy="118.8828" fill="none" rx="3" ry="3" style="stroke:#038048;stroke-width:1.0;"/><text fill="#000000" font-family="sans-serif" font-size="14" lengthAdjust="spacing" textLength="91" x="27" y="122.2295">name: string</text><ellipse cx="18" cy="135.1797" fill="none" rx="3" ry="3" style="stroke:#038048;stroke-width:1.0;"/><text fill="#000000" font-family="sans-serif" font-size="14" lengthAdjust="spacing" textLength="154" x="27" y="138.5264">applicationSuite: Any</text><ellipse cx="18" cy="151.4766" fill="none" rx="3" ry="3" style="stroke:#038048;stroke-width:1.0;"/><text fill="#000000" font-family="sans-serif" font-size="14" lengthAdjust="spacing" textLength="54" x="27" y="154.8232">url: Any</text><ellipse cx="18" cy="167.7734" fill="none" rx="3" ry="3" style="stroke:#038048;stroke-width:1.0;"/><text fill="#000000" font-family="sans-serif" font-size="14" lengthAdjust="spacing" textLength="130" x="27" y="171.1201">landingURL: string</text><ellipse cx="18" cy="184.0703" fill="none" rx="3" ry="3" style="stroke:#038048;stroke-width:1.0;"/><text fill="#000000" font-family="sans-serif" font-size="14" lengthAdjust="spacing" textLength="125" x="27" y="187.417">isBasedOn: string</text><ellipse cx="18" cy="200.3672" fill="none" rx="3" ry="3" style="stroke:#038048;stroke-width:1.0;"/><text fill="#000000" font-family="sans-serif" font-size="14" lengthAdjust="spacing" textLength="168" x="27" y="203.7139">softwareVersion: string</text><ellipse cx="18" cy="216.6641" fill="none" rx="3" ry="3" style="stroke:#038048;stroke-width:1.0;"/><text fill="#000000" font-family="sans-serif" font-size="14" lengthAdjust="spacing" textLength="138" x="27" y="220.0107">releaseDate: string</text><ellipse cx="18" cy="232.9609" fill="none" rx="3" ry="3" style="stroke:#038048;stroke-width:1.0;"/><text fill="#000000" font-family="sans-serif" font-size="14" lengthAdjust="spacing" textLength="82" x="27" y="236.3076">logo: string</text><ellipse cx="18" cy="249.2578" fill="none" rx="3" ry="3" style="stroke:#038048;stroke-width:1.0;"/><text fill="#000000" font-family="sans-serif" font-size="14" lengthAdjust="spacing" textLength="116" x="27" y="252.6045">platforms: array</text><ellipse cx="18" cy="265.5547" fill="none" rx="3" ry="3" style="stroke:#038048;stroke-width:1.0;"/><text fill="#000000" font-family="sans-serif" font-size="14" lengthAdjust="spacing" textLength="121" x="27" y="268.9014">categories: array</text><ellipse cx="18" cy="281.8516" fill="none" rx="3" ry="3" style="stroke:#038048;stroke-width:1.0;"/><text fill="#000000" font-family="sans-serif" font-size="14" lengthAdjust="spacing" textLength="96" x="27" y="285.1982">usedBy: array</text><ellipse cx="18" cy="298.1484" fill="none" rx="3" ry="3" style="stroke:#038048;stroke-width:1.0;"/><text fill="#000000" font-family="sans-serif" font-size="14" lengthAdjust="spacing" textLength="115" x="27" y="301.4951">roadmap: string</text><ellipse cx="18" cy="314.4453" fill="none" rx="3" ry="3" style="stroke:#038048;stroke-width:1.0;"/><text fill="#000000" font-family="sans-serif" font-size="14" lengthAdjust="spacing" textLength="194" x="27" y="317.792">developmentStatus: string</text><ellipse cx="18" cy="330.7422" fill="none" rx="3" ry="3" style="stroke:#038048;stroke-width:1.0;"/><text fill="#000000" font-family="sans-serif" font-size="14" lengthAdjust="spacing" textLength="150" x="27" y="334.0889">softwareType: string</text><ellipse cx="18" cy="347.0391" fill="none" rx="3" ry="3" style="stroke:#038048;stroke-width:1.0;"/><text fill="#000000" font-family="sans-serif" font-size="14" lengthAdjust="spacing" textLength="167" x="27" y="350.3857">intendedAudience: Any</text><ellipse cx="18" cy="363.3359" fill="none" rx="3" ry="3" style="stroke:#038048;stroke-width:1.0;"/><text fill="#000000" font-family="sans-serif" font-size="14" lengthAdjust="spacing" textLength="118" x="27" y="366.6826">description: Any</text><ellipse cx="18" cy="379.6328" fill="none" rx="3" ry="3" style="stroke:#038048;stroke-width:1.0;"/><text fill="#000000" font-family="sans-serif" font-size="14" lengthAdjust="spacing" textLength="70" x="27" y="382.9795">legal: Any</text><ellipse cx="18" cy="395.9297" fill="none" rx="3" ry="3" style="stroke:#038048;stroke-width:1.0;"/><text fill="#000000" font-family="sans-serif" font-size="14" lengthAdjust="spacing" textLength="130" x="27" y="399.2764">maintenance: Any</text><ellipse cx="18" cy="412.2266" fill="none" rx="3" ry="3" style="stroke:#038048;stroke-width:1.0;"/><text fill="#000000" font-family="sans-serif" font-size="14" lengthAdjust="spacing" textLength="117" x="27" y="415.5732">localisation: Any</text><ellipse cx="18" cy="428.5234" fill="none" rx="3" ry="3" style="stroke:#038048;stroke-width:1.0;"/><text fill="#000000" font-family="sans-serif" font-size="14" lengthAdjust="spacing" textLength="118" x="27" y="431.8701">dependsOn: Any</text><ellipse cx="18" cy="444.8203" fill="none" rx="3" ry="3" style="stroke:#038048;stroke-width:1.0;"/><text fill="#000000" font-family="sans-serif" font-size="14" lengthAdjust="spacing" textLength="49" x="27" y="448.167">nl: Any</text><ellipse cx="18" cy="461.1172" fill="none" rx="3" ry="3" style="stroke:#038048;stroke-width:1.0;"/><text fill="#000000" font-family="sans-serif" font-size="14" lengthAdjust="spacing" textLength="126" x="27" y="464.4639">inputTypes: array</text><ellipse cx="18" cy="477.4141" fill="none" rx="3" ry="3" style="stroke:#038048;stroke-width:1.0;"/><text fill="#000000" font-family="sans-serif" font-size="14" lengthAdjust="spacing" textLength="137" x="27" y="480.7607">outputTypes: array</text><ellipse cx="18" cy="493.7109" fill="none" rx="3" ry="3" style="stroke:#038048;stroke-width:1.0;"/><text fill="#000000" font-family="sans-serif" font-size="14" lengthAdjust="spacing" textLength="79" x="27" y="497.0576">rating: Any</text><line style="stroke:#181818;stroke-width:0.5;" x1="8" x2="226" y1="504.3594" y2="504.3594"/></g><text fill="#888888" font-family="sans-serif" font-size="10" lengthAdjust="spacing" textLength="137" x="48" y="528.6416">Common Gateway Plugin</text><!--SRC=[RP31QWCn34Jl-nM-zm_sbhHG2eMKfkrThBKRWIqPMMvOIl-zpWOQ6tBq6yzuF4OMS7IF4fCmiWspYA5k90gxPp0ym-hUGbc8XnE2lwZ7wOGHXc4AaFFDxNu6vnuSf1He0YFX5p-wR4gyR0f3n0uqLu-5h8exNZUbQBWT0h2lbi_tryvDUGyP_O4xccMsCoX-eUQQsscA0Qlb2Qpl4MIH3gG0Del6F3fGXMkDMXGNKSAEbbfXlxP41No4r0Lw_COWATQPZWPMyjtE7slgYn4RiaU_AvwGfsOWZtbIIhPzyNyeNA3PBSBcXyuOP8906NgdnrGVoeS6SPD4d8fTsdLVbsBtiDPiNgxctpy0]--></g></svg>