<?xml version="1.0" encoding="UTF-8" standalone="no"?><svg xmlns="http://www.w3.org/2000/svg" xmlns:xlink="http://www.w3.org/1999/xlink" contentScriptType="application/ecmascript" contentStyleType="text/css" height="437px" preserveAspectRatio="none" style="width:313px;height:437px;" version="1.1" viewBox="0 0 313 437" width="313px" zoomAndPan="magnify"><defs><filter height="300%" id="fzzdni3094eb3" width="300%" x="-1" y="-1"><feGaussianBlur result="blurOut" stdDeviation="2.0"/><feColorMatrix in="blurOut" result="blurOut2" type="matrix" values="0 0 0 0 0 0 0 0 0 0 0 0 0 0 0 0 0 0 .4 0"/><feOffset dx="4.0" dy="4.0" in="blurOut2" result="blurOut3"/><feBlend in="SourceGraphic" in2="blurOut3" mode="normal"/></filter></defs><g><text fill="#888888" font-family="sans-serif" font-size="10" lengthAdjust="spacingAndGlyphs" textLength="40" x="261" y="9.2822">Schema</text><text fill="#000000" font-family="sans-serif" font-size="18" lengthAdjust="spacingAndGlyphs" textLength="103" x="99" y="28.3486">Component</text><!--MD5=[4e13963c9dc916a21a8436ef39422b32]
class Component--><rect fill="#FEFECE" filter="url(#fzzdni3094eb3)" height="368.1172" id="Component" style="stroke: #A80036; stroke-width: 1.5;" width="177" x="62" y="39.5938"/><ellipse cx="110.25" cy="55.5938" fill="#ADD1B2" rx="11" ry="11" style="stroke: #A80036; stroke-width: 1.0;"/><path d="M113.2188,61.2344 Q112.6406,61.5313 112,61.6719 Q111.3594,61.8281 110.6563,61.8281 Q108.1563,61.8281 106.8281,60.1875 Q105.5156,58.5313 105.5156,55.4063 Q105.5156,52.2813 106.8281,50.625 Q108.1563,48.9688 110.6563,48.9688 Q111.3594,48.9688 112,49.125 Q112.6563,49.2813 113.2188,49.5781 L113.2188,52.2969 Q112.5938,51.7188 112,51.4531 Q111.4063,51.1719 110.7813,51.1719 Q109.4375,51.1719 108.75,52.25 Q108.0625,53.3125 108.0625,55.4063 Q108.0625,57.5 108.75,58.5781 Q109.4375,59.6406 110.7813,59.6406 Q111.4063,59.6406 112,59.375 Q112.5938,59.0938 113.2188,58.5156 L113.2188,61.2344 Z "/><text fill="#000000" font-family="sans-serif" font-size="12" lengthAdjust="spacingAndGlyphs" textLength="72" x="130.75" y="59.748">Component</text><line style="stroke: #A80036; stroke-width: 1.5;" x1="63" x2="238" y1="71.5938" y2="71.5938"/><ellipse cx="73" cy="82.5938" fill="none" rx="3" ry="3" style="stroke: #038048; stroke-width: 1.0;"/><text fill="#000000" font-family="sans-serif" font-size="11" lengthAdjust="spacingAndGlyphs" textLength="112" x="82" y="85.8042">applicationId: string</text><ellipse cx="73" cy="95.3984" fill="none" rx="3" ry="3" style="stroke: #038048; stroke-width: 1.0;"/><text fill="#000000" font-family="sans-serif" font-size="11" lengthAdjust="spacingAndGlyphs" textLength="73" x="82" y="98.6089">name: string</text><ellipse cx="73" cy="108.2031" fill="none" rx="3" ry="3" style="stroke: #038048; stroke-width: 1.0;"/><text fill="#000000" font-family="sans-serif" font-size="11" lengthAdjust="spacingAndGlyphs" textLength="118" x="82" y="111.4136">applicationSuite: Any</text><ellipse cx="73" cy="121.0078" fill="none" rx="3" ry="3" style="stroke: #038048; stroke-width: 1.0;"/><text fill="#000000" font-family="sans-serif" font-size="11" lengthAdjust="spacingAndGlyphs" textLength="43" x="82" y="124.2183">url: Any</text><ellipse cx="73" cy="133.8125" fill="none" rx="3" ry="3" style="stroke: #038048; stroke-width: 1.0;"/><text fill="#000000" font-family="sans-serif" font-size="11" lengthAdjust="spacingAndGlyphs" textLength="103" x="82" y="137.0229">landingURL: string</text><ellipse cx="73" cy="146.6172" fill="none" rx="3" ry="3" style="stroke: #038048; stroke-width: 1.0;"/><text fill="#000000" font-family="sans-serif" font-size="11" lengthAdjust="spacingAndGlyphs" textLength="103" x="82" y="149.8276">isBasedOn: string</text><ellipse cx="73" cy="159.4219" fill="none" rx="3" ry="3" style="stroke: #038048; stroke-width: 1.0;"/><text fill="#000000" font-family="sans-serif" font-size="11" lengthAdjust="spacingAndGlyphs" textLength="134" x="82" y="162.6323">softwareVersion: string</text><ellipse cx="73" cy="172.2266" fill="none" rx="3" ry="3" style="stroke: #038048; stroke-width: 1.0;"/><text fill="#000000" font-family="sans-serif" font-size="11" lengthAdjust="spacingAndGlyphs" textLength="110" x="82" y="175.437">releaseDate: string</text><ellipse cx="73" cy="185.0313" fill="none" rx="3" ry="3" style="stroke: #038048; stroke-width: 1.0;"/><text fill="#000000" font-family="sans-serif" font-size="11" lengthAdjust="spacingAndGlyphs" textLength="65" x="82" y="188.2417">logo: string</text><ellipse cx="73" cy="197.8359" fill="none" rx="3" ry="3" style="stroke: #038048; stroke-width: 1.0;"/><text fill="#000000" font-family="sans-serif" font-size="11" lengthAdjust="spacingAndGlyphs" textLength="93" x="82" y="201.0464">platforms: array</text><ellipse cx="73" cy="210.6406" fill="none" rx="3" ry="3" style="stroke: #038048; stroke-width: 1.0;"/><text fill="#000000" font-family="sans-serif" font-size="11" lengthAdjust="spacingAndGlyphs" textLength="98" x="82" y="213.8511">categories: array</text><ellipse cx="73" cy="223.4453" fill="none" rx="3" ry="3" style="stroke: #038048; stroke-width: 1.0;"/><text fill="#000000" font-family="sans-serif" font-size="11" lengthAdjust="spacingAndGlyphs" textLength="80" x="82" y="226.6558">usedBy: array</text><ellipse cx="73" cy="236.25" fill="none" rx="3" ry="3" style="stroke: #038048; stroke-width: 1.0;"/><text fill="#000000" font-family="sans-serif" font-size="11" lengthAdjust="spacingAndGlyphs" textLength="92" x="82" y="239.4604">roadmap: string</text><ellipse cx="73" cy="249.0547" fill="none" rx="3" ry="3" style="stroke: #038048; stroke-width: 1.0;"/><text fill="#000000" font-family="sans-serif" font-size="11" lengthAdjust="spacingAndGlyphs" textLength="151" x="82" y="252.2651">developmentStatus: string</text><ellipse cx="73" cy="261.8594" fill="none" rx="3" ry="3" style="stroke: #038048; stroke-width: 1.0;"/><text fill="#000000" font-family="sans-serif" font-size="11" lengthAdjust="spacingAndGlyphs" textLength="118" x="82" y="265.0698">softwareType: string</text><ellipse cx="73" cy="274.6641" fill="none" rx="3" ry="3" style="stroke: #038048; stroke-width: 1.0;"/><text fill="#000000" font-family="sans-serif" font-size="11" lengthAdjust="spacingAndGlyphs" textLength="128" x="82" y="277.8745">intendedAudience: Any</text><ellipse cx="73" cy="287.4688" fill="none" rx="3" ry="3" style="stroke: #038048; stroke-width: 1.0;"/><text fill="#000000" font-family="sans-serif" font-size="11" lengthAdjust="spacingAndGlyphs" textLength="91" x="82" y="290.6792">description: Any</text><ellipse cx="73" cy="300.2734" fill="none" rx="3" ry="3" style="stroke: #038048; stroke-width: 1.0;"/><text fill="#000000" font-family="sans-serif" font-size="11" lengthAdjust="spacingAndGlyphs" textLength="55" x="82" y="303.4839">legal: Any</text><ellipse cx="73" cy="313.0781" fill="none" rx="3" ry="3" style="stroke: #038048; stroke-width: 1.0;"/><text fill="#000000" font-family="sans-serif" font-size="11" lengthAdjust="spacingAndGlyphs" textLength="101" x="82" y="316.2886">maintenance: Any</text><ellipse cx="73" cy="325.8828" fill="none" rx="3" ry="3" style="stroke: #038048; stroke-width: 1.0;"/><text fill="#000000" font-family="sans-serif" font-size="11" lengthAdjust="spacingAndGlyphs" textLength="92" x="82" y="329.0933">localisation: Any</text><ellipse cx="73" cy="338.6875" fill="none" rx="3" ry="3" style="stroke: #038048; stroke-width: 1.0;"/><text fill="#000000" font-family="sans-serif" font-size="11" lengthAdjust="spacingAndGlyphs" textLength="93" x="82" y="341.8979">dependsOn: Any</text><ellipse cx="73" cy="351.4922" fill="none" rx="3" ry="3" style="stroke: #038048; stroke-width: 1.0;"/><text fill="#000000" font-family="sans-serif" font-size="11" lengthAdjust="spacingAndGlyphs" textLength="38" x="82" y="354.7026">nl: Any</text><ellipse cx="73" cy="364.2969" fill="none" rx="3" ry="3" style="stroke: #038048; stroke-width: 1.0;"/><text fill="#000000" font-family="sans-serif" font-size="11" lengthAdjust="spacingAndGlyphs" textLength="100" x="82" y="367.5073">inputTypes: array</text><ellipse cx="73" cy="377.1016" fill="none" rx="3" ry="3" style="stroke: #038048; stroke-width: 1.0;"/><text fill="#000000" font-family="sans-serif" font-size="11" lengthAdjust="spacingAndGlyphs" textLength="108" x="82" y="380.312">outputTypes: array</text><ellipse cx="73" cy="389.9063" fill="none" rx="3" ry="3" style="stroke: #038048; stroke-width: 1.0;"/><text fill="#000000" font-family="sans-serif" font-size="11" lengthAdjust="spacingAndGlyphs" textLength="61" x="82" y="393.1167">rating: Any</text><line style="stroke: #A80036; stroke-width: 1.5;" x1="63" x2="238" y1="399.7109" y2="399.7109"/><text fill="#888888" font-family="sans-serif" font-size="10" lengthAdjust="spacingAndGlyphs" textLength="301" x="0" y="423.9932">Common Gateway Plugin | Opencatalogi | Opencatalogibundle</text><!--MD5=[aab9611451f6e68c0829760526613846]
@startuml
title: Component
footer: Common Gateway Plugin | Opencatalogi | Opencatalogibundle 
header: Schema

class Component {
  + applicationId: string
  + name: string
  + applicationSuite: Any
  + url: Any
  + landingURL: string
  + isBasedOn: string
  + softwareVersion: string
  + releaseDate: string
  + logo: string
  + platforms: array
  + categories: array
  + usedBy: array
  + roadmap: string
  + developmentStatus: string
  + softwareType: string
  + intendedAudience: Any
  + description: Any
  + legal: Any
  + maintenance: Any
  + localisation: Any
  + dependsOn: Any
  + nl: Any
  + inputTypes: array
  + outputTypes: array
  + rating: Any
}
@enduml

PlantUML version 1.2020.02(Sun Mar 01 10:22:07 UTC 2020)
(GPL source distribution)
Java Runtime: OpenJDK Runtime Environment
JVM: OpenJDK 64-Bit Server VM
Java Version: 11.0.20.1+1
Operating System: Linux
Default Encoding: UTF-8
Language: en
Country: null
--></g></svg>