<?xml version="1.0" encoding="UTF-8" standalone="no"?><svg xmlns="http://www.w3.org/2000/svg" xmlns:xlink="http://www.w3.org/1999/xlink" contentScriptType="application/ecmascript" contentStyleType="text/css" height="130px" preserveAspectRatio="none" style="width:313px;height:130px;" version="1.1" viewBox="0 0 313 130" width="313px" zoomAndPan="magnify"><defs><filter height="300%" id="fq1as8ekwwucb" width="300%" x="-1" y="-1"><feGaussianBlur result="blurOut" stdDeviation="2.0"/><feColorMatrix in="blurOut" result="blurOut2" type="matrix" values="0 0 0 0 0 0 0 0 0 0 0 0 0 0 0 0 0 0 .4 0"/><feOffset dx="4.0" dy="4.0" in="blurOut2" result="blurOut3"/><feBlend in="SourceGraphic" in2="blurOut3" mode="normal"/></filter></defs><g><text fill="#888888" font-family="sans-serif" font-size="10" lengthAdjust="spacingAndGlyphs" textLength="40" x="261" y="9.2822">Schema</text><text fill="#000000" font-family="sans-serif" font-size="18" lengthAdjust="spacingAndGlyphs" textLength="130" x="85.5" y="28.3486">ComponentUrl</text><!--MD5=[63036d1a4afacb6ac9450f6690235698]
class ComponentUrl--><rect fill="#FEFECE" filter="url(#fq1as8ekwwucb)" height="60.8047" id="ComponentUrl" style="stroke: #A80036; stroke-width: 1.5;" width="141" x="80" y="39.5938"/><ellipse cx="104" cy="55.5938" fill="#ADD1B2" rx="11" ry="11" style="stroke: #A80036; stroke-width: 1.0;"/><path d="M106.9688,61.2344 Q106.3906,61.5313 105.75,61.6719 Q105.1094,61.8281 104.4063,61.8281 Q101.9063,61.8281 100.5781,60.1875 Q99.2656,58.5313 99.2656,55.4063 Q99.2656,52.2813 100.5781,50.625 Q101.9063,48.9688 104.4063,48.9688 Q105.1094,48.9688 105.75,49.125 Q106.4063,49.2813 106.9688,49.5781 L106.9688,52.2969 Q106.3438,51.7188 105.75,51.4531 Q105.1563,51.1719 104.5313,51.1719 Q103.1875,51.1719 102.5,52.25 Q101.8125,53.3125 101.8125,55.4063 Q101.8125,57.5 102.5,58.5781 Q103.1875,59.6406 104.5313,59.6406 Q105.1563,59.6406 105.75,59.375 Q106.3438,59.0938 106.9688,58.5156 L106.9688,61.2344 Z "/><text fill="#000000" font-family="sans-serif" font-size="12" lengthAdjust="spacingAndGlyphs" textLength="89" x="120" y="59.748">ComponentUrl</text><line style="stroke: #A80036; stroke-width: 1.5;" x1="81" x2="220" y1="71.5938" y2="71.5938"/><ellipse cx="91" cy="82.5938" fill="none" rx="3" ry="3" style="stroke: #038048; stroke-width: 1.0;"/><text fill="#000000" font-family="sans-serif" font-size="11" lengthAdjust="spacingAndGlyphs" textLength="115" x="100" y="85.8042">repositoryUrl: string</text><line style="stroke: #A80036; stroke-width: 1.5;" x1="81" x2="220" y1="92.3984" y2="92.3984"/><text fill="#888888" font-family="sans-serif" font-size="10" lengthAdjust="spacingAndGlyphs" textLength="301" x="0" y="116.6807">Common Gateway Plugin | Opencatalogi | Opencatalogibundle</text><!--MD5=[d6d69737d9d29ca4dad4c338cffa952b]
@startuml
title: ComponentUrl
footer: Common Gateway Plugin | Opencatalogi | Opencatalogibundle 
header: Schema

class ComponentUrl {
  + repositoryUrl: string
}
@enduml

PlantUML version 1.2020.02(Sun Mar 01 10:22:07 UTC 2020)
(GPL source distribution)
Java Runtime: OpenJDK Runtime Environment
JVM: OpenJDK 64-Bit Server VM
Java Version: 11.0.20.1+1
Operating System: Linux
Default Encoding: UTF-8
Language: en
Country: null
--></g></svg>