<?xml version="1.0" encoding="us-ascii" standalone="no"?><svg xmlns="http://www.w3.org/2000/svg" xmlns:xlink="http://www.w3.org/1999/xlink" contentStyleType="text/css" height="147px" preserveAspectRatio="none" style="width:192px;height:147px;background:#FFFFFF;" version="1.1" viewBox="0 0 192 147" width="192px" zoomAndPan="magnify"><defs/><g><text fill="#888888" font-family="sans-serif" font-size="10" lengthAdjust="spacing" textLength="45" x="139" y="9.2822">Schema</text><text fill="#000000" font-family="sans-serif" font-size="14" font-weight="bold" lengthAdjust="spacing" textLength="115" x="34.5" y="35.6357">ComponentUrl</text><!--class ComponentUrl--><g id="elem_ComponentUrl"><rect codeLine="5" fill="#F1F1F1" height="64.2969" id="ComponentUrl" rx="2.5" ry="2.5" style="stroke:#181818;stroke-width:0.5;" width="171" x="7" y="56.9375"/><ellipse cx="37.3" cy="72.9375" fill="#ADD1B2" rx="11" ry="11" style="stroke:#181818;stroke-width:1.0;"/><path d="M39.6438,68.6094 C38.7063,68.1719 38.1125,68.0313 37.2375,68.0313 C34.6125,68.0313 32.6125,70.1094 32.6125,72.8281 L32.6125,73.9531 C32.6125,76.5313 34.7219,78.4219 37.6125,78.4219 C38.8313,78.4219 39.9875,78.125 40.7375,77.5781 C41.3156,77.1719 41.6438,76.7188 41.6438,76.3281 C41.6438,75.875 41.2531,75.4844 40.7844,75.4844 C40.5656,75.4844 40.3625,75.5625 40.175,75.75 C39.7219,76.2344 39.7219,76.2344 39.5344,76.3281 C39.1125,76.5938 38.425,76.7188 37.6594,76.7188 C35.6125,76.7188 34.3156,75.625 34.3156,73.9219 L34.3156,72.8281 C34.3156,71.0469 35.5656,69.7344 37.3,69.7344 C37.8781,69.7344 38.4875,69.8906 38.9563,70.1406 C39.4406,70.4219 39.6125,70.6406 39.7063,71.0469 C39.7688,71.4531 39.8,71.5781 39.9406,71.7031 C40.0813,71.8438 40.3156,71.9531 40.5344,71.9531 C40.8,71.9531 41.0656,71.8125 41.2375,71.5938 C41.3469,71.4375 41.3781,71.25 41.3781,70.8281 L41.3781,69.4063 C41.3781,68.9688 41.3625,68.8438 41.2688,68.6875 C41.1125,68.4219 40.8313,68.2813 40.5344,68.2813 C40.2375,68.2813 40.0344,68.375 39.8156,68.6875 L39.6438,68.6094 Z " fill="#000000"/><text fill="#000000" font-family="sans-serif" font-size="14" lengthAdjust="spacing" textLength="105" x="54.7" y="77.7842">ComponentUrl</text><line style="stroke:#181818;stroke-width:0.5;" x1="8" x2="177" y1="88.9375" y2="88.9375"/><ellipse cx="18" cy="102.5859" fill="none" rx="3" ry="3" style="stroke:#038048;stroke-width:1.0;"/><text fill="#000000" font-family="sans-serif" font-size="14" lengthAdjust="spacing" textLength="145" x="27" y="105.9326">repositoryUrl: string</text><line style="stroke:#181818;stroke-width:0.5;" x1="8" x2="177" y1="113.2344" y2="113.2344"/></g><text fill="#888888" font-family="sans-serif" font-size="10" lengthAdjust="spacing" textLength="137" x="23.5" y="137.5166">Common Gateway Plugin</text><!--SRC=[LSmz2e0m343XFQV8xWswEhWAuW62HYsqYQGH4V7k_coktuFdqHC7h3MlAYpUMu99rTa-p2hOaFDE1xPfcwF0mZI-jHiMpWGm92hbDy0J42iqNhL4LpiU2rZSeinmtG00]--></g></svg>