<?xml version="1.0" encoding="us-ascii" standalone="no"?><svg xmlns="http://www.w3.org/2000/svg" xmlns:xlink="http://www.w3.org/1999/xlink" contentStyleType="text/css" height="539px" preserveAspectRatio="none" style="width:349px;height:539px;background:#FFFFFF;" version="1.1" viewBox="0 0 349 539" width="349px" zoomAndPan="magnify"><defs/><g><text fill="#888888" font-family="sans-serif" font-size="10" lengthAdjust="spacing" textLength="45" x="296" y="9.2822">Schema</text><text fill="#000000" font-family="sans-serif" font-size="14" font-weight="bold" lengthAdjust="spacing" textLength="92" x="124.5" y="35.6357">Component</text><!--class Component--><g id="elem_Component"><rect codeLine="5" fill="#F1F1F1" height="455.4219" id="Component" rx="2.5" ry="2.5" style="stroke:#181818;stroke-width:0.5;" width="220" x="61" y="56.9375"/><ellipse cx="123.75" cy="72.9375" fill="#ADD1B2" rx="11" ry="11" style="stroke:#181818;stroke-width:1.0;"/><path d="M126.0938,68.6094 C125.1563,68.1719 124.5625,68.0313 123.6875,68.0313 C121.0625,68.0313 119.0625,70.1094 119.0625,72.8281 L119.0625,73.9531 C119.0625,76.5313 121.1719,78.4219 124.0625,78.4219 C125.2813,78.4219 126.4375,78.125 127.1875,77.5781 C127.7656,77.1719 128.0938,76.7188 128.0938,76.3281 C128.0938,75.875 127.7031,75.4844 127.2344,75.4844 C127.0156,75.4844 126.8125,75.5625 126.625,75.75 C126.1719,76.2344 126.1719,76.2344 125.9844,76.3281 C125.5625,76.5938 124.875,76.7188 124.1094,76.7188 C122.0625,76.7188 120.7656,75.625 120.7656,73.9219 L120.7656,72.8281 C120.7656,71.0469 122.0156,69.7344 123.75,69.7344 C124.3281,69.7344 124.9375,69.8906 125.4063,70.1406 C125.8906,70.4219 126.0625,70.6406 126.1563,71.0469 C126.2188,71.4531 126.25,71.5781 126.3906,71.7031 C126.5313,71.8438 126.7656,71.9531 126.9844,71.9531 C127.25,71.9531 127.5156,71.8125 127.6875,71.5938 C127.7969,71.4375 127.8281,71.25 127.8281,70.8281 L127.8281,69.4063 C127.8281,68.9688 127.8125,68.8438 127.7188,68.6875 C127.5625,68.4219 127.2813,68.2813 126.9844,68.2813 C126.6875,68.2813 126.4844,68.375 126.2656,68.6875 L126.0938,68.6094 Z " fill="#000000"/><text fill="#000000" font-family="sans-serif" font-size="14" lengthAdjust="spacing" textLength="86" x="144.25" y="77.7842">Component</text><line style="stroke:#181818;stroke-width:0.5;" x1="62" x2="280" y1="88.9375" y2="88.9375"/><ellipse cx="72" cy="102.5859" fill="none" rx="3" ry="3" style="stroke:#038048;stroke-width:1.0;"/><text fill="#000000" font-family="sans-serif" font-size="14" lengthAdjust="spacing" textLength="145" x="81" y="105.9326">applicationId: string</text><ellipse cx="72" cy="118.8828" fill="none" rx="3" ry="3" style="stroke:#038048;stroke-width:1.0;"/><text fill="#000000" font-family="sans-serif" font-size="14" lengthAdjust="spacing" textLength="91" x="81" y="122.2295">name: string</text><ellipse cx="72" cy="135.1797" fill="none" rx="3" ry="3" style="stroke:#038048;stroke-width:1.0;"/><text fill="#000000" font-family="sans-serif" font-size="14" lengthAdjust="spacing" textLength="154" x="81" y="138.5264">applicationSuite: Any</text><ellipse cx="72" cy="151.4766" fill="none" rx="3" ry="3" style="stroke:#038048;stroke-width:1.0;"/><text fill="#000000" font-family="sans-serif" font-size="14" lengthAdjust="spacing" textLength="54" x="81" y="154.8232">url: Any</text><ellipse cx="72" cy="167.7734" fill="none" rx="3" ry="3" style="stroke:#038048;stroke-width:1.0;"/><text fill="#000000" font-family="sans-serif" font-size="14" lengthAdjust="spacing" textLength="130" x="81" y="171.1201">landingURL: string</text><ellipse cx="72" cy="184.0703" fill="none" rx="3" ry="3" style="stroke:#038048;stroke-width:1.0;"/><text fill="#000000" font-family="sans-serif" font-size="14" lengthAdjust="spacing" textLength="125" x="81" y="187.417">isBasedOn: string</text><ellipse cx="72" cy="200.3672" fill="none" rx="3" ry="3" style="stroke:#038048;stroke-width:1.0;"/><text fill="#000000" font-family="sans-serif" font-size="14" lengthAdjust="spacing" textLength="168" x="81" y="203.7139">softwareVersion: string</text><ellipse cx="72" cy="216.6641" fill="none" rx="3" ry="3" style="stroke:#038048;stroke-width:1.0;"/><text fill="#000000" font-family="sans-serif" font-size="14" lengthAdjust="spacing" textLength="138" x="81" y="220.0107">releaseDate: string</text><ellipse cx="72" cy="232.9609" fill="none" rx="3" ry="3" style="stroke:#038048;stroke-width:1.0;"/><text fill="#000000" font-family="sans-serif" font-size="14" lengthAdjust="spacing" textLength="82" x="81" y="236.3076">logo: string</text><ellipse cx="72" cy="249.2578" fill="none" rx="3" ry="3" style="stroke:#038048;stroke-width:1.0;"/><text fill="#000000" font-family="sans-serif" font-size="14" lengthAdjust="spacing" textLength="116" x="81" y="252.6045">platforms: array</text><ellipse cx="72" cy="265.5547" fill="none" rx="3" ry="3" style="stroke:#038048;stroke-width:1.0;"/><text fill="#000000" font-family="sans-serif" font-size="14" lengthAdjust="spacing" textLength="121" x="81" y="268.9014">categories: array</text><ellipse cx="72" cy="281.8516" fill="none" rx="3" ry="3" style="stroke:#038048;stroke-width:1.0;"/><text fill="#000000" font-family="sans-serif" font-size="14" lengthAdjust="spacing" textLength="96" x="81" y="285.1982">usedBy: array</text><ellipse cx="72" cy="298.1484" fill="none" rx="3" ry="3" style="stroke:#038048;stroke-width:1.0;"/><text fill="#000000" font-family="sans-serif" font-size="14" lengthAdjust="spacing" textLength="115" x="81" y="301.4951">roadmap: string</text><ellipse cx="72" cy="314.4453" fill="none" rx="3" ry="3" style="stroke:#038048;stroke-width:1.0;"/><text fill="#000000" font-family="sans-serif" font-size="14" lengthAdjust="spacing" textLength="194" x="81" y="317.792">developmentStatus: string</text><ellipse cx="72" cy="330.7422" fill="none" rx="3" ry="3" style="stroke:#038048;stroke-width:1.0;"/><text fill="#000000" font-family="sans-serif" font-size="14" lengthAdjust="spacing" textLength="150" x="81" y="334.0889">softwareType: string</text><ellipse cx="72" cy="347.0391" fill="none" rx="3" ry="3" style="stroke:#038048;stroke-width:1.0;"/><text fill="#000000" font-family="sans-serif" font-size="14" lengthAdjust="spacing" textLength="167" x="81" y="350.3857">intendedAudience: Any</text><ellipse cx="72" cy="363.3359" fill="none" rx="3" ry="3" style="stroke:#038048;stroke-width:1.0;"/><text fill="#000000" font-family="sans-serif" font-size="14" lengthAdjust="spacing" textLength="118" x="81" y="366.6826">description: Any</text><ellipse cx="72" cy="379.6328" fill="none" rx="3" ry="3" style="stroke:#038048;stroke-width:1.0;"/><text fill="#000000" font-family="sans-serif" font-size="14" lengthAdjust="spacing" textLength="70" x="81" y="382.9795">legal: Any</text><ellipse cx="72" cy="395.9297" fill="none" rx="3" ry="3" style="stroke:#038048;stroke-width:1.0;"/><text fill="#000000" font-family="sans-serif" font-size="14" lengthAdjust="spacing" textLength="130" x="81" y="399.2764">maintenance: Any</text><ellipse cx="72" cy="412.2266" fill="none" rx="3" ry="3" style="stroke:#038048;stroke-width:1.0;"/><text fill="#000000" font-family="sans-serif" font-size="14" lengthAdjust="spacing" textLength="117" x="81" y="415.5732">localisation: Any</text><ellipse cx="72" cy="428.5234" fill="none" rx="3" ry="3" style="stroke:#038048;stroke-width:1.0;"/><text fill="#000000" font-family="sans-serif" font-size="14" lengthAdjust="spacing" textLength="118" x="81" y="431.8701">dependsOn: Any</text><ellipse cx="72" cy="444.8203" fill="none" rx="3" ry="3" style="stroke:#038048;stroke-width:1.0;"/><text fill="#000000" font-family="sans-serif" font-size="14" lengthAdjust="spacing" textLength="49" x="81" y="448.167">nl: Any</text><ellipse cx="72" cy="461.1172" fill="none" rx="3" ry="3" style="stroke:#038048;stroke-width:1.0;"/><text fill="#000000" font-family="sans-serif" font-size="14" lengthAdjust="spacing" textLength="126" x="81" y="464.4639">inputTypes: array</text><ellipse cx="72" cy="477.4141" fill="none" rx="3" ry="3" style="stroke:#038048;stroke-width:1.0;"/><text fill="#000000" font-family="sans-serif" font-size="14" lengthAdjust="spacing" textLength="137" x="81" y="480.7607">outputTypes: array</text><ellipse cx="72" cy="493.7109" fill="none" rx="3" ry="3" style="stroke:#038048;stroke-width:1.0;"/><text fill="#000000" font-family="sans-serif" font-size="14" lengthAdjust="spacing" textLength="79" x="81" y="497.0576">rating: Any</text><line style="stroke:#181818;stroke-width:0.5;" x1="62" x2="280" y1="504.3594" y2="504.3594"/></g><text fill="#888888" font-family="sans-serif" font-size="10" lengthAdjust="spacing" textLength="341" x="0" y="528.6416">Common Gateway Plugin | Opencatalogi | Opencatalogibundle</text><!--SRC=[RL51JWCn3BplAtBd1xsr824af4LiuMxMxjPIOaU9GxK2_awwbUW6zUYPp6GyDZPF6tUl8QgGM7TGDKeB4bJS8nYTO7OllamixjlraMG40wyJ_ni_Yg0drnq9y6mnZ4SAq7MZXvolNxYlphax1p5whb9MUSADovPOfeKH2DG0gwT3OQlaLkQ5ASbV1m-2LVBs-joeEUyW4_RIe5aFTe94xvHozMsuH9wgv06ipL6Nr0Q87koWAUIDWvJW4gC6fKaJKuEM6c4thv6aW05YOuZqILvZg3KD1bRopSpxERR1M8m42RS5kTvZLH1I7XD7MrRyAuecMFKMOD538_GwWkSChHAftXjplu9avSGIYvtJDQjhiLjmgjuoNSG_lm00]--></g></svg>