<?xml version="1.0" encoding="us-ascii" standalone="no"?><svg xmlns="http://www.w3.org/2000/svg" xmlns:xlink="http://www.w3.org/1999/xlink" contentStyleType="text/css" height="147px" preserveAspectRatio="none" style="width:349px;height:147px;background:#FFFFFF;" version="1.1" viewBox="0 0 349 147" width="349px" zoomAndPan="magnify"><defs/><g><text fill="#888888" font-family="sans-serif" font-size="10" lengthAdjust="spacing" textLength="45" x="296" y="9.2822">Schema</text><text fill="#000000" font-family="sans-serif" font-size="14" font-weight="bold" lengthAdjust="spacing" textLength="115" x="113" y="35.6357">ComponentUrl</text><!--class ComponentUrl--><g id="elem_ComponentUrl"><rect codeLine="5" fill="#F1F1F1" height="64.2969" id="ComponentUrl" rx="2.5" ry="2.5" style="stroke:#181818;stroke-width:0.5;" width="171" x="85.5" y="56.9375"/><ellipse cx="115.8" cy="72.9375" fill="#ADD1B2" rx="11" ry="11" style="stroke:#181818;stroke-width:1.0;"/><path d="M118.1438,68.6094 C117.2063,68.1719 116.6125,68.0313 115.7375,68.0313 C113.1125,68.0313 111.1125,70.1094 111.1125,72.8281 L111.1125,73.9531 C111.1125,76.5313 113.2219,78.4219 116.1125,78.4219 C117.3313,78.4219 118.4875,78.125 119.2375,77.5781 C119.8156,77.1719 120.1438,76.7188 120.1438,76.3281 C120.1438,75.875 119.7531,75.4844 119.2844,75.4844 C119.0656,75.4844 118.8625,75.5625 118.675,75.75 C118.2219,76.2344 118.2219,76.2344 118.0344,76.3281 C117.6125,76.5938 116.925,76.7188 116.1594,76.7188 C114.1125,76.7188 112.8156,75.625 112.8156,73.9219 L112.8156,72.8281 C112.8156,71.0469 114.0656,69.7344 115.8,69.7344 C116.3781,69.7344 116.9875,69.8906 117.4563,70.1406 C117.9406,70.4219 118.1125,70.6406 118.2063,71.0469 C118.2688,71.4531 118.3,71.5781 118.4406,71.7031 C118.5813,71.8438 118.8156,71.9531 119.0344,71.9531 C119.3,71.9531 119.5656,71.8125 119.7375,71.5938 C119.8469,71.4375 119.8781,71.25 119.8781,70.8281 L119.8781,69.4063 C119.8781,68.9688 119.8625,68.8438 119.7688,68.6875 C119.6125,68.4219 119.3313,68.2813 119.0344,68.2813 C118.7375,68.2813 118.5344,68.375 118.3156,68.6875 L118.1438,68.6094 Z " fill="#000000"/><text fill="#000000" font-family="sans-serif" font-size="14" lengthAdjust="spacing" textLength="105" x="133.2" y="77.7842">ComponentUrl</text><line style="stroke:#181818;stroke-width:0.5;" x1="86.5" x2="255.5" y1="88.9375" y2="88.9375"/><ellipse cx="96.5" cy="102.5859" fill="none" rx="3" ry="3" style="stroke:#038048;stroke-width:1.0;"/><text fill="#000000" font-family="sans-serif" font-size="14" lengthAdjust="spacing" textLength="145" x="105.5" y="105.9326">repositoryUrl: string</text><line style="stroke:#181818;stroke-width:0.5;" x1="86.5" x2="255.5" y1="113.2344" y2="113.2344"/></g><text fill="#888888" font-family="sans-serif" font-size="10" lengthAdjust="spacing" textLength="341" x="0" y="137.5166">Common Gateway Plugin | Opencatalogi | Opencatalogibundle</text><!--SRC=[NOqx3i9030Lxd-Brt20j1IL8Y0EOn6nMyjghNKSe8joTJmVbJ34JELG6xBrKDx6uDAMRUqZxokA60uVSUSL9bvGD6uvLREHWzPJ_yBhOf0AQXQTFuZpEKfXeLExzvu870JiqgTvpU5lVRa2FbYtHymK0]--></g></svg>