<?xml version="1.0" encoding="us-ascii" standalone="no"?><svg xmlns="http://www.w3.org/2000/svg" xmlns:xlink="http://www.w3.org/1999/xlink" contentStyleType="text/css" height="164px" preserveAspectRatio="none" style="width:349px;height:164px;background:#FFFFFF;" version="1.1" viewBox="0 0 349 164" width="349px" zoomAndPan="magnify"><defs/><g><text fill="#888888" font-family="sans-serif" font-size="10" lengthAdjust="spacing" textLength="45" x="296" y="9.2822">Schema</text><text fill="#000000" font-family="sans-serif" font-size="14" font-weight="bold" lengthAdjust="spacing" textLength="89" x="126" y="35.6357">Contractor</text><!--class Contractor--><g id="elem_Contractor"><rect codeLine="5" fill="#F1F1F1" height="80.5938" id="Contractor" rx="2.5" ry="2.5" style="stroke:#181818;stroke-width:0.5;" width="151" x="95.5" y="56.9375"/><ellipse cx="128.5" cy="72.9375" fill="#ADD1B2" rx="11" ry="11" style="stroke:#181818;stroke-width:1.0;"/><path d="M130.8438,68.6094 C129.9063,68.1719 129.3125,68.0313 128.4375,68.0313 C125.8125,68.0313 123.8125,70.1094 123.8125,72.8281 L123.8125,73.9531 C123.8125,76.5313 125.9219,78.4219 128.8125,78.4219 C130.0313,78.4219 131.1875,78.125 131.9375,77.5781 C132.5156,77.1719 132.8438,76.7188 132.8438,76.3281 C132.8438,75.875 132.4531,75.4844 131.9844,75.4844 C131.7656,75.4844 131.5625,75.5625 131.375,75.75 C130.9219,76.2344 130.9219,76.2344 130.7344,76.3281 C130.3125,76.5938 129.625,76.7188 128.8594,76.7188 C126.8125,76.7188 125.5156,75.625 125.5156,73.9219 L125.5156,72.8281 C125.5156,71.0469 126.7656,69.7344 128.5,69.7344 C129.0781,69.7344 129.6875,69.8906 130.1563,70.1406 C130.6406,70.4219 130.8125,70.6406 130.9063,71.0469 C130.9688,71.4531 131,71.5781 131.1406,71.7031 C131.2813,71.8438 131.5156,71.9531 131.7344,71.9531 C132,71.9531 132.2656,71.8125 132.4375,71.5938 C132.5469,71.4375 132.5781,71.25 132.5781,70.8281 L132.5781,69.4063 C132.5781,68.9688 132.5625,68.8438 132.4688,68.6875 C132.3125,68.4219 132.0313,68.2813 131.7344,68.2813 C131.4375,68.2813 131.2344,68.375 131.0156,68.6875 L130.8438,68.6094 Z " fill="#000000"/><text fill="#000000" font-family="sans-serif" font-size="14" lengthAdjust="spacing" textLength="79" x="146.5" y="77.7842">Contractor</text><line style="stroke:#181818;stroke-width:0.5;" x1="96.5" x2="245.5" y1="88.9375" y2="88.9375"/><ellipse cx="106.5" cy="102.5859" fill="none" rx="3" ry="3" style="stroke:#038048;stroke-width:1.0;"/><text fill="#000000" font-family="sans-serif" font-size="14" lengthAdjust="spacing" textLength="125" x="115.5" y="105.9326">organisation: Any</text><ellipse cx="106.5" cy="118.8828" fill="none" rx="3" ry="3" style="stroke:#038048;stroke-width:1.0;"/><text fill="#000000" font-family="sans-serif" font-size="14" lengthAdjust="spacing" textLength="83" x="115.5" y="122.2295">until: string</text><line style="stroke:#181818;stroke-width:0.5;" x1="96.5" x2="245.5" y1="129.5313" y2="129.5313"/></g><text fill="#888888" font-family="sans-serif" font-size="10" lengthAdjust="spacing" textLength="341" x="0" y="153.8135">Common Gateway Plugin | Opencatalogi | Opencatalogibundle</text><!--SRC=[NOqn3W8n30Jxl69xVf0EKL22n0jCpkGiEJPAV48duE_eg13bJ34J4ieP1xVeLC9xkha7zqsrveOZ1JzenLcNAeONJdUsGa7gLVxmkjYaZ3GpJLlYKcPkb59H6kFdWMS2Tl1UoMHGY5l6tjQlNIn4CqPqiPhU7m00]--></g></svg>