<?xml version="1.0" encoding="UTF-8" standalone="no"?><svg xmlns="http://www.w3.org/2000/svg" xmlns:xlink="http://www.w3.org/1999/xlink" contentScriptType="application/ecmascript" contentStyleType="text/css" height="142px" preserveAspectRatio="none" style="width:313px;height:142px;" version="1.1" viewBox="0 0 313 142" width="313px" zoomAndPan="magnify"><defs><filter height="300%" id="f1hmegxb6aixly" width="300%" x="-1" y="-1"><feGaussianBlur result="blurOut" stdDeviation="2.0"/><feColorMatrix in="blurOut" result="blurOut2" type="matrix" values="0 0 0 0 0 0 0 0 0 0 0 0 0 0 0 0 0 0 .4 0"/><feOffset dx="4.0" dy="4.0" in="blurOut2" result="blurOut3"/><feBlend in="SourceGraphic" in2="blurOut3" mode="normal"/></filter></defs><g><text fill="#888888" font-family="sans-serif" font-size="10" lengthAdjust="spacingAndGlyphs" textLength="40" x="261" y="9.2822">Schema</text><text fill="#000000" font-family="sans-serif" font-size="18" lengthAdjust="spacingAndGlyphs" textLength="95" x="103" y="28.3486">Contractor</text><!--MD5=[5cebc918a8b8f2d1be5940e92c560bfd]
class Contractor--><rect fill="#FEFECE" filter="url(#f1hmegxb6aixly)" height="73.6094" id="Contractor" style="stroke: #A80036; stroke-width: 1.5;" width="125" x="88" y="39.5938"/><ellipse cx="114.7" cy="55.5938" fill="#ADD1B2" rx="11" ry="11" style="stroke: #A80036; stroke-width: 1.0;"/><path d="M117.6688,61.2344 Q117.0906,61.5313 116.45,61.6719 Q115.8094,61.8281 115.1063,61.8281 Q112.6063,61.8281 111.2781,60.1875 Q109.9656,58.5313 109.9656,55.4063 Q109.9656,52.2813 111.2781,50.625 Q112.6063,48.9688 115.1063,48.9688 Q115.8094,48.9688 116.45,49.125 Q117.1063,49.2813 117.6688,49.5781 L117.6688,52.2969 Q117.0438,51.7188 116.45,51.4531 Q115.8563,51.1719 115.2313,51.1719 Q113.8875,51.1719 113.2,52.25 Q112.5125,53.3125 112.5125,55.4063 Q112.5125,57.5 113.2,58.5781 Q113.8875,59.6406 115.2313,59.6406 Q115.8563,59.6406 116.45,59.375 Q117.0438,59.0938 117.6688,58.5156 L117.6688,61.2344 Z "/><text fill="#000000" font-family="sans-serif" font-size="12" lengthAdjust="spacingAndGlyphs" textLength="67" x="131.3" y="59.748">Contractor</text><line style="stroke: #A80036; stroke-width: 1.5;" x1="89" x2="212" y1="71.5938" y2="71.5938"/><ellipse cx="99" cy="82.5938" fill="none" rx="3" ry="3" style="stroke: #038048; stroke-width: 1.0;"/><text fill="#000000" font-family="sans-serif" font-size="11" lengthAdjust="spacingAndGlyphs" textLength="99" x="108" y="85.8042">organisation: Any</text><ellipse cx="99" cy="95.3984" fill="none" rx="3" ry="3" style="stroke: #038048; stroke-width: 1.0;"/><text fill="#000000" font-family="sans-serif" font-size="11" lengthAdjust="spacingAndGlyphs" textLength="65" x="108" y="98.6089">until: string</text><line style="stroke: #A80036; stroke-width: 1.5;" x1="89" x2="212" y1="105.2031" y2="105.2031"/><text fill="#888888" font-family="sans-serif" font-size="10" lengthAdjust="spacingAndGlyphs" textLength="301" x="0" y="129.4854">Common Gateway Plugin | Opencatalogi | Opencatalogibundle</text><!--MD5=[d09761afd79fa209a4692be993f8f08c]
@startuml
title: Contractor
footer: Common Gateway Plugin | Opencatalogi | Opencatalogibundle 
header: Schema

class Contractor {
  + organisation: Any
  + until: string
}
@enduml

PlantUML version 1.2020.02(Sun Mar 01 10:22:07 UTC 2020)
(GPL source distribution)
Java Runtime: OpenJDK Runtime Environment
JVM: OpenJDK 64-Bit Server VM
Java Version: 11.0.20.1+1
Operating System: Linux
Default Encoding: UTF-8
Language: en
Country: null
--></g></svg>