<?xml version="1.0" encoding="us-ascii" standalone="no"?><svg xmlns="http://www.w3.org/2000/svg" xmlns:xlink="http://www.w3.org/1999/xlink" contentStyleType="text/css" height="196px" preserveAspectRatio="none" style="width:167px;height:196px;background:#FFFFFF;" version="1.1" viewBox="0 0 167 196" width="167px" zoomAndPan="magnify"><defs/><g><text fill="#888888" font-family="sans-serif" font-size="10" lengthAdjust="spacing" textLength="45" x="114" y="9.2822">Schema</text><text fill="#000000" font-family="sans-serif" font-size="14" font-weight="bold" lengthAdjust="spacing" textLength="65" x="47" y="35.6357">Contact</text><!--class Contact--><g id="elem_Contact"><rect codeLine="5" fill="#F1F1F1" height="113.1875" id="Contact" rx="2.5" ry="2.5" style="stroke:#181818;stroke-width:0.5;" width="146" x="7" y="56.9375"/><ellipse cx="47.2" cy="72.9375" fill="#ADD1B2" rx="11" ry="11" style="stroke:#181818;stroke-width:1.0;"/><path d="M49.5438,68.6094 C48.6063,68.1719 48.0125,68.0313 47.1375,68.0313 C44.5125,68.0313 42.5125,70.1094 42.5125,72.8281 L42.5125,73.9531 C42.5125,76.5313 44.6219,78.4219 47.5125,78.4219 C48.7313,78.4219 49.8875,78.125 50.6375,77.5781 C51.2156,77.1719 51.5438,76.7188 51.5438,76.3281 C51.5438,75.875 51.1531,75.4844 50.6844,75.4844 C50.4656,75.4844 50.2625,75.5625 50.075,75.75 C49.6219,76.2344 49.6219,76.2344 49.4344,76.3281 C49.0125,76.5938 48.325,76.7188 47.5594,76.7188 C45.5125,76.7188 44.2156,75.625 44.2156,73.9219 L44.2156,72.8281 C44.2156,71.0469 45.4656,69.7344 47.2,69.7344 C47.7781,69.7344 48.3875,69.8906 48.8563,70.1406 C49.3406,70.4219 49.5125,70.6406 49.6063,71.0469 C49.6688,71.4531 49.7,71.5781 49.8406,71.7031 C49.9813,71.8438 50.2156,71.9531 50.4344,71.9531 C50.7,71.9531 50.9656,71.8125 51.1375,71.5938 C51.2469,71.4375 51.2781,71.25 51.2781,70.8281 L51.2781,69.4063 C51.2781,68.9688 51.2625,68.8438 51.1688,68.6875 C51.0125,68.4219 50.7313,68.2813 50.4344,68.2813 C50.1375,68.2813 49.9344,68.375 49.7156,68.6875 L49.5438,68.6094 Z " fill="#000000"/><text fill="#000000" font-family="sans-serif" font-size="14" lengthAdjust="spacing" textLength="58" x="66.8" y="77.7842">Contact</text><line style="stroke:#181818;stroke-width:0.5;" x1="8" x2="152" y1="88.9375" y2="88.9375"/><ellipse cx="18" cy="102.5859" fill="none" rx="3" ry="3" style="stroke:#038048;stroke-width:1.0;"/><text fill="#000000" font-family="sans-serif" font-size="14" lengthAdjust="spacing" textLength="91" x="27" y="105.9326">name: string</text><ellipse cx="18" cy="118.8828" fill="none" rx="3" ry="3" style="stroke:#038048;stroke-width:1.0;"/><text fill="#000000" font-family="sans-serif" font-size="14" lengthAdjust="spacing" textLength="90" x="27" y="122.2295">email: string</text><ellipse cx="18" cy="135.1797" fill="none" rx="3" ry="3" style="stroke:#038048;stroke-width:1.0;"/><text fill="#000000" font-family="sans-serif" font-size="14" lengthAdjust="spacing" textLength="97" x="27" y="138.5264">phone: string</text><ellipse cx="18" cy="151.4766" fill="none" rx="3" ry="3" style="stroke:#038048;stroke-width:1.0;"/><text fill="#000000" font-family="sans-serif" font-size="14" lengthAdjust="spacing" textLength="120" x="27" y="154.8232">affiliation: string</text><line style="stroke:#181818;stroke-width:0.5;" x1="8" x2="152" y1="162.125" y2="162.125"/></g><text fill="#888888" font-family="sans-serif" font-size="10" lengthAdjust="spacing" textLength="137" x="11" y="186.4072">Common Gateway Plugin</text><!--SRC=[LOn12W9130JlUKNk_i2h1w-2BsZ6p4uWayXEH4JykxiB2dliwkfEJPCZdy8J9Qb6fCnhxZsSpqXvuiKNUqpgr0ItjRsM9Xr4nJ36RyjlOZwmeoz_8sVrQGEBgROZznQ-Tr2hcY8r_Cy_Nm00]--></g></svg>