<?xml version="1.0" encoding="UTF-8" standalone="no"?><svg xmlns="http://www.w3.org/2000/svg" xmlns:xlink="http://www.w3.org/1999/xlink" contentScriptType="application/ecmascript" contentStyleType="text/css" height="117px" preserveAspectRatio="none" style="width:137px;height:117px;" version="1.1" viewBox="0 0 137 117" width="137px" zoomAndPan="magnify"><defs><filter height="300%" id="f1pc0avrabf2o1" width="300%" x="-1" y="-1"><feGaussianBlur result="blurOut" stdDeviation="2.0"/><feColorMatrix in="blurOut" result="blurOut2" type="matrix" values="0 0 0 0 0 0 0 0 0 0 0 0 0 0 0 0 0 0 .4 0"/><feOffset dx="4.0" dy="4.0" in="blurOut2" result="blurOut3"/><feBlend in="SourceGraphic" in2="blurOut3" mode="normal"/></filter></defs><g><!--MD5=[72ce1314beffbcf60a64ee91fbbc10dc]
class Contact--><rect fill="#FEFECE" filter="url(#f1pc0avrabf2o1)" height="99.2188" id="Contact" style="stroke: #A80036; stroke-width: 1.5;" width="119" x="7" y="7"/><ellipse cx="39.1" cy="23" fill="#ADD1B2" rx="11" ry="11" style="stroke: #A80036; stroke-width: 1.0;"/><path d="M42.0688,28.6406 Q41.4906,28.9375 40.85,29.0781 Q40.2094,29.2344 39.5063,29.2344 Q37.0063,29.2344 35.6781,27.5938 Q34.3656,25.9375 34.3656,22.8125 Q34.3656,19.6875 35.6781,18.0313 Q37.0063,16.375 39.5063,16.375 Q40.2094,16.375 40.85,16.5313 Q41.5063,16.6875 42.0688,16.9844 L42.0688,19.7031 Q41.4438,19.125 40.85,18.8594 Q40.2563,18.5781 39.6313,18.5781 Q38.2875,18.5781 37.6,19.6563 Q36.9125,20.7188 36.9125,22.8125 Q36.9125,24.9063 37.6,25.9844 Q38.2875,27.0469 39.6313,27.0469 Q40.2563,27.0469 40.85,26.7813 Q41.4438,26.5 42.0688,25.9219 L42.0688,28.6406 Z "/><text fill="#000000" font-family="sans-serif" font-size="12" lengthAdjust="spacingAndGlyphs" textLength="49" x="56.9" y="27.1543">Contact</text><line style="stroke: #A80036; stroke-width: 1.5;" x1="8" x2="125" y1="39" y2="39"/><ellipse cx="18" cy="50" fill="none" rx="3" ry="3" style="stroke: #038048; stroke-width: 1.0;"/><text fill="#000000" font-family="sans-serif" font-size="11" lengthAdjust="spacingAndGlyphs" textLength="73" x="27" y="53.2104">name: string</text><ellipse cx="18" cy="62.8047" fill="none" rx="3" ry="3" style="stroke: #038048; stroke-width: 1.0;"/><text fill="#000000" font-family="sans-serif" font-size="11" lengthAdjust="spacingAndGlyphs" textLength="72" x="27" y="66.0151">email: string</text><ellipse cx="18" cy="75.6094" fill="none" rx="3" ry="3" style="stroke: #038048; stroke-width: 1.0;"/><text fill="#000000" font-family="sans-serif" font-size="11" lengthAdjust="spacingAndGlyphs" textLength="76" x="27" y="78.8198">phone: string</text><ellipse cx="18" cy="88.4141" fill="none" rx="3" ry="3" style="stroke: #038048; stroke-width: 1.0;"/><text fill="#000000" font-family="sans-serif" font-size="11" lengthAdjust="spacingAndGlyphs" textLength="93" x="27" y="91.6245">affiliation: string</text><line style="stroke: #A80036; stroke-width: 1.5;" x1="8" x2="125" y1="98.2188" y2="98.2188"/><!--MD5=[a78ccae8d187218b0e2682240246c6da]
@startuml
class Contact {
  + name: string
  + email: string
  + phone: string
  + affiliation: string
}
@enduml

PlantUML version 1.2020.02(Sun Mar 01 10:22:07 UTC 2020)
(GPL source distribution)
Java Runtime: OpenJDK Runtime Environment
JVM: OpenJDK 64-Bit Server VM
Java Version: 11.0.20.1+1
Operating System: Linux
Default Encoding: UTF-8
Language: en
Country: null
--></g></svg>