<?xml version="1.0" encoding="UTF-8" standalone="no"?><svg xmlns="http://www.w3.org/2000/svg" xmlns:xlink="http://www.w3.org/1999/xlink" contentScriptType="application/ecmascript" contentStyleType="text/css" height="168px" preserveAspectRatio="none" style="width:313px;height:168px;" version="1.1" viewBox="0 0 313 168" width="313px" zoomAndPan="magnify"><defs><filter height="300%" id="f11o88o11wwdvo" width="300%" x="-1" y="-1"><feGaussianBlur result="blurOut" stdDeviation="2.0"/><feColorMatrix in="blurOut" result="blurOut2" type="matrix" values="0 0 0 0 0 0 0 0 0 0 0 0 0 0 0 0 0 0 .4 0"/><feOffset dx="4.0" dy="4.0" in="blurOut2" result="blurOut3"/><feBlend in="SourceGraphic" in2="blurOut3" mode="normal"/></filter></defs><g><text fill="#888888" font-family="sans-serif" font-size="10" lengthAdjust="spacingAndGlyphs" textLength="40" x="261" y="9.2822">Schema</text><text fill="#000000" font-family="sans-serif" font-size="18" lengthAdjust="spacingAndGlyphs" textLength="68" x="116.5" y="28.3486">Contact</text><!--MD5=[72ce1314beffbcf60a64ee91fbbc10dc]
class Contact--><rect fill="#FEFECE" filter="url(#f11o88o11wwdvo)" height="99.2188" id="Contact" style="stroke: #A80036; stroke-width: 1.5;" width="119" x="91" y="39.5938"/><ellipse cx="123.1" cy="55.5938" fill="#ADD1B2" rx="11" ry="11" style="stroke: #A80036; stroke-width: 1.0;"/><path d="M126.0688,61.2344 Q125.4906,61.5313 124.85,61.6719 Q124.2094,61.8281 123.5063,61.8281 Q121.0063,61.8281 119.6781,60.1875 Q118.3656,58.5313 118.3656,55.4063 Q118.3656,52.2813 119.6781,50.625 Q121.0063,48.9688 123.5063,48.9688 Q124.2094,48.9688 124.85,49.125 Q125.5063,49.2813 126.0688,49.5781 L126.0688,52.2969 Q125.4438,51.7188 124.85,51.4531 Q124.2563,51.1719 123.6313,51.1719 Q122.2875,51.1719 121.6,52.25 Q120.9125,53.3125 120.9125,55.4063 Q120.9125,57.5 121.6,58.5781 Q122.2875,59.6406 123.6313,59.6406 Q124.2563,59.6406 124.85,59.375 Q125.4438,59.0938 126.0688,58.5156 L126.0688,61.2344 Z "/><text fill="#000000" font-family="sans-serif" font-size="12" lengthAdjust="spacingAndGlyphs" textLength="49" x="140.9" y="59.748">Contact</text><line style="stroke: #A80036; stroke-width: 1.5;" x1="92" x2="209" y1="71.5938" y2="71.5938"/><ellipse cx="102" cy="82.5938" fill="none" rx="3" ry="3" style="stroke: #038048; stroke-width: 1.0;"/><text fill="#000000" font-family="sans-serif" font-size="11" lengthAdjust="spacingAndGlyphs" textLength="73" x="111" y="85.8042">name: string</text><ellipse cx="102" cy="95.3984" fill="none" rx="3" ry="3" style="stroke: #038048; stroke-width: 1.0;"/><text fill="#000000" font-family="sans-serif" font-size="11" lengthAdjust="spacingAndGlyphs" textLength="72" x="111" y="98.6089">email: string</text><ellipse cx="102" cy="108.2031" fill="none" rx="3" ry="3" style="stroke: #038048; stroke-width: 1.0;"/><text fill="#000000" font-family="sans-serif" font-size="11" lengthAdjust="spacingAndGlyphs" textLength="76" x="111" y="111.4136">phone: string</text><ellipse cx="102" cy="121.0078" fill="none" rx="3" ry="3" style="stroke: #038048; stroke-width: 1.0;"/><text fill="#000000" font-family="sans-serif" font-size="11" lengthAdjust="spacingAndGlyphs" textLength="93" x="111" y="124.2183">affiliation: string</text><line style="stroke: #A80036; stroke-width: 1.5;" x1="92" x2="209" y1="130.8125" y2="130.8125"/><text fill="#888888" font-family="sans-serif" font-size="10" lengthAdjust="spacingAndGlyphs" textLength="301" x="0" y="155.0947">Common Gateway Plugin | Opencatalogi | Opencatalogibundle</text><!--MD5=[8ee39743735d71937f1a3514caf7a43b]
@startuml
title: Contact
footer: Common Gateway Plugin | Opencatalogi | Opencatalogibundle 
header: Schema

class Contact {
  + name: string
  + email: string
  + phone: string
  + affiliation: string
}
@enduml

PlantUML version 1.2020.02(Sun Mar 01 10:22:07 UTC 2020)
(GPL source distribution)
Java Runtime: OpenJDK Runtime Environment
JVM: OpenJDK 64-Bit Server VM
Java Version: 11.0.20.1+1
Operating System: Linux
Default Encoding: UTF-8
Language: en
Country: null
--></g></svg>