<?xml version="1.0" encoding="us-ascii" standalone="no"?><svg xmlns="http://www.w3.org/2000/svg" xmlns:xlink="http://www.w3.org/1999/xlink" contentStyleType="text/css" height="196px" preserveAspectRatio="none" style="width:349px;height:196px;background:#FFFFFF;" version="1.1" viewBox="0 0 349 196" width="349px" zoomAndPan="magnify"><defs/><g><text fill="#888888" font-family="sans-serif" font-size="10" lengthAdjust="spacing" textLength="45" x="296" y="9.2822">Schema</text><text fill="#000000" font-family="sans-serif" font-size="14" font-weight="bold" lengthAdjust="spacing" textLength="65" x="138" y="35.6357">Contact</text><!--class Contact--><g id="elem_Contact"><rect codeLine="5" fill="#F1F1F1" height="113.1875" id="Contact" rx="2.5" ry="2.5" style="stroke:#181818;stroke-width:0.5;" width="146" x="98" y="56.9375"/><ellipse cx="138.2" cy="72.9375" fill="#ADD1B2" rx="11" ry="11" style="stroke:#181818;stroke-width:1.0;"/><path d="M140.5438,68.6094 C139.6063,68.1719 139.0125,68.0313 138.1375,68.0313 C135.5125,68.0313 133.5125,70.1094 133.5125,72.8281 L133.5125,73.9531 C133.5125,76.5313 135.6219,78.4219 138.5125,78.4219 C139.7313,78.4219 140.8875,78.125 141.6375,77.5781 C142.2156,77.1719 142.5438,76.7188 142.5438,76.3281 C142.5438,75.875 142.1531,75.4844 141.6844,75.4844 C141.4656,75.4844 141.2625,75.5625 141.075,75.75 C140.6219,76.2344 140.6219,76.2344 140.4344,76.3281 C140.0125,76.5938 139.325,76.7188 138.5594,76.7188 C136.5125,76.7188 135.2156,75.625 135.2156,73.9219 L135.2156,72.8281 C135.2156,71.0469 136.4656,69.7344 138.2,69.7344 C138.7781,69.7344 139.3875,69.8906 139.8563,70.1406 C140.3406,70.4219 140.5125,70.6406 140.6063,71.0469 C140.6688,71.4531 140.7,71.5781 140.8406,71.7031 C140.9813,71.8438 141.2156,71.9531 141.4344,71.9531 C141.7,71.9531 141.9656,71.8125 142.1375,71.5938 C142.2469,71.4375 142.2781,71.25 142.2781,70.8281 L142.2781,69.4063 C142.2781,68.9688 142.2625,68.8438 142.1688,68.6875 C142.0125,68.4219 141.7313,68.2813 141.4344,68.2813 C141.1375,68.2813 140.9344,68.375 140.7156,68.6875 L140.5438,68.6094 Z " fill="#000000"/><text fill="#000000" font-family="sans-serif" font-size="14" lengthAdjust="spacing" textLength="58" x="157.8" y="77.7842">Contact</text><line style="stroke:#181818;stroke-width:0.5;" x1="99" x2="243" y1="88.9375" y2="88.9375"/><ellipse cx="109" cy="102.5859" fill="none" rx="3" ry="3" style="stroke:#038048;stroke-width:1.0;"/><text fill="#000000" font-family="sans-serif" font-size="14" lengthAdjust="spacing" textLength="91" x="118" y="105.9326">name: string</text><ellipse cx="109" cy="118.8828" fill="none" rx="3" ry="3" style="stroke:#038048;stroke-width:1.0;"/><text fill="#000000" font-family="sans-serif" font-size="14" lengthAdjust="spacing" textLength="90" x="118" y="122.2295">email: string</text><ellipse cx="109" cy="135.1797" fill="none" rx="3" ry="3" style="stroke:#038048;stroke-width:1.0;"/><text fill="#000000" font-family="sans-serif" font-size="14" lengthAdjust="spacing" textLength="97" x="118" y="138.5264">phone: string</text><ellipse cx="109" cy="151.4766" fill="none" rx="3" ry="3" style="stroke:#038048;stroke-width:1.0;"/><text fill="#000000" font-family="sans-serif" font-size="14" lengthAdjust="spacing" textLength="120" x="118" y="154.8232">affiliation: string</text><line style="stroke:#181818;stroke-width:0.5;" x1="99" x2="243" y1="162.125" y2="162.125"/></g><text fill="#888888" font-family="sans-serif" font-size="10" lengthAdjust="spacing" textLength="341" x="0" y="186.4072">Common Gateway Plugin | Opencatalogi | Opencatalogibundle</text><!--SRC=[NOr12i9034NtEKNsti2j2vSAdY1ECpE1J58wAIBgtMq5XRfyZyV_8Q6ynuDRK0h8xi7JogsvuP62RtJ7iyv539zu6jaI1QaN-SFhR8CoGcKQrebBgjm882dr_Zt01o3kqAWjfpqciV8HIocwCMDrspQKiwXGYDlFlzu0]--></g></svg>