<?xml version="1.0" encoding="us-ascii" standalone="no"?><svg xmlns="http://www.w3.org/2000/svg" xmlns:xlink="http://www.w3.org/1999/xlink" contentStyleType="text/css" height="164px" preserveAspectRatio="none" style="width:172px;height:164px;background:#FFFFFF;" version="1.1" viewBox="0 0 172 164" width="172px" zoomAndPan="magnify"><defs/><g><text fill="#888888" font-family="sans-serif" font-size="10" lengthAdjust="spacing" textLength="45" x="119" y="9.2822">Schema</text><text fill="#000000" font-family="sans-serif" font-size="14" font-weight="bold" lengthAdjust="spacing" textLength="89" x="37.5" y="35.6357">Contractor</text><!--class Contractor--><g id="elem_Contractor"><rect codeLine="5" fill="#F1F1F1" height="80.5938" id="Contractor" rx="2.5" ry="2.5" style="stroke:#181818;stroke-width:0.5;" width="151" x="7" y="56.9375"/><ellipse cx="40" cy="72.9375" fill="#ADD1B2" rx="11" ry="11" style="stroke:#181818;stroke-width:1.0;"/><path d="M42.3438,68.6094 C41.4063,68.1719 40.8125,68.0313 39.9375,68.0313 C37.3125,68.0313 35.3125,70.1094 35.3125,72.8281 L35.3125,73.9531 C35.3125,76.5313 37.4219,78.4219 40.3125,78.4219 C41.5313,78.4219 42.6875,78.125 43.4375,77.5781 C44.0156,77.1719 44.3438,76.7188 44.3438,76.3281 C44.3438,75.875 43.9531,75.4844 43.4844,75.4844 C43.2656,75.4844 43.0625,75.5625 42.875,75.75 C42.4219,76.2344 42.4219,76.2344 42.2344,76.3281 C41.8125,76.5938 41.125,76.7188 40.3594,76.7188 C38.3125,76.7188 37.0156,75.625 37.0156,73.9219 L37.0156,72.8281 C37.0156,71.0469 38.2656,69.7344 40,69.7344 C40.5781,69.7344 41.1875,69.8906 41.6563,70.1406 C42.1406,70.4219 42.3125,70.6406 42.4063,71.0469 C42.4688,71.4531 42.5,71.5781 42.6406,71.7031 C42.7813,71.8438 43.0156,71.9531 43.2344,71.9531 C43.5,71.9531 43.7656,71.8125 43.9375,71.5938 C44.0469,71.4375 44.0781,71.25 44.0781,70.8281 L44.0781,69.4063 C44.0781,68.9688 44.0625,68.8438 43.9688,68.6875 C43.8125,68.4219 43.5313,68.2813 43.2344,68.2813 C42.9375,68.2813 42.7344,68.375 42.5156,68.6875 L42.3438,68.6094 Z " fill="#000000"/><text fill="#000000" font-family="sans-serif" font-size="14" lengthAdjust="spacing" textLength="79" x="58" y="77.7842">Contractor</text><line style="stroke:#181818;stroke-width:0.5;" x1="8" x2="157" y1="88.9375" y2="88.9375"/><ellipse cx="18" cy="102.5859" fill="none" rx="3" ry="3" style="stroke:#038048;stroke-width:1.0;"/><text fill="#000000" font-family="sans-serif" font-size="14" lengthAdjust="spacing" textLength="125" x="27" y="105.9326">organisation: Any</text><ellipse cx="18" cy="118.8828" fill="none" rx="3" ry="3" style="stroke:#038048;stroke-width:1.0;"/><text fill="#000000" font-family="sans-serif" font-size="14" lengthAdjust="spacing" textLength="83" x="27" y="122.2295">until: string</text><line style="stroke:#181818;stroke-width:0.5;" x1="8" x2="157" y1="129.5313" y2="129.5313"/></g><text fill="#888888" font-family="sans-serif" font-size="10" lengthAdjust="spacing" textLength="137" x="13.5" y="153.8135">Common Gateway Plugin</text><!--SRC=[JSin2iCm34RXNQVuzzx0M-dGjT0J24Tr1BO4ia88fNSlwTJrUxpKx59mSylWcXxqSa-9ayPmmvrJTZxmw5jJerLuEUkphZAOg7QUys_7cu0BF1gRJavrAxZQyTFDKdl1p51hzFa2]--></g></svg>