<?xml version="1.0" encoding="UTF-8" standalone="no"?><svg xmlns="http://www.w3.org/2000/svg" xmlns:xlink="http://www.w3.org/1999/xlink" contentScriptType="application/ecmascript" contentStyleType="text/css" height="91px" preserveAspectRatio="none" style="width:143px;height:91px;" version="1.1" viewBox="0 0 143 91" width="143px" zoomAndPan="magnify"><defs><filter height="300%" id="fj5yx0ya7gx0" width="300%" x="-1" y="-1"><feGaussianBlur result="blurOut" stdDeviation="2.0"/><feColorMatrix in="blurOut" result="blurOut2" type="matrix" values="0 0 0 0 0 0 0 0 0 0 0 0 0 0 0 0 0 0 .4 0"/><feOffset dx="4.0" dy="4.0" in="blurOut2" result="blurOut3"/><feBlend in="SourceGraphic" in2="blurOut3" mode="normal"/></filter></defs><g><!--MD5=[5cebc918a8b8f2d1be5940e92c560bfd]
class Contractor--><rect fill="#FEFECE" filter="url(#fj5yx0ya7gx0)" height="73.6094" id="Contractor" style="stroke: #A80036; stroke-width: 1.5;" width="125" x="7" y="7"/><ellipse cx="33.7" cy="23" fill="#ADD1B2" rx="11" ry="11" style="stroke: #A80036; stroke-width: 1.0;"/><path d="M36.6688,28.6406 Q36.0906,28.9375 35.45,29.0781 Q34.8094,29.2344 34.1063,29.2344 Q31.6063,29.2344 30.2781,27.5938 Q28.9656,25.9375 28.9656,22.8125 Q28.9656,19.6875 30.2781,18.0313 Q31.6063,16.375 34.1063,16.375 Q34.8094,16.375 35.45,16.5313 Q36.1063,16.6875 36.6688,16.9844 L36.6688,19.7031 Q36.0438,19.125 35.45,18.8594 Q34.8563,18.5781 34.2313,18.5781 Q32.8875,18.5781 32.2,19.6563 Q31.5125,20.7188 31.5125,22.8125 Q31.5125,24.9063 32.2,25.9844 Q32.8875,27.0469 34.2313,27.0469 Q34.8563,27.0469 35.45,26.7813 Q36.0438,26.5 36.6688,25.9219 L36.6688,28.6406 Z "/><text fill="#000000" font-family="sans-serif" font-size="12" lengthAdjust="spacingAndGlyphs" textLength="67" x="50.3" y="27.1543">Contractor</text><line style="stroke: #A80036; stroke-width: 1.5;" x1="8" x2="131" y1="39" y2="39"/><ellipse cx="18" cy="50" fill="none" rx="3" ry="3" style="stroke: #038048; stroke-width: 1.0;"/><text fill="#000000" font-family="sans-serif" font-size="11" lengthAdjust="spacingAndGlyphs" textLength="99" x="27" y="53.2104">organisation: Any</text><ellipse cx="18" cy="62.8047" fill="none" rx="3" ry="3" style="stroke: #038048; stroke-width: 1.0;"/><text fill="#000000" font-family="sans-serif" font-size="11" lengthAdjust="spacingAndGlyphs" textLength="65" x="27" y="66.0151">until: string</text><line style="stroke: #A80036; stroke-width: 1.5;" x1="8" x2="131" y1="72.6094" y2="72.6094"/><!--MD5=[34f5258bd67610561cde9f6289fcf5cb]
@startuml
class Contractor {
  + organisation: Any
  + until: string
}
@enduml

PlantUML version 1.2020.02(Sun Mar 01 10:22:07 UTC 2020)
(GPL source distribution)
Java Runtime: OpenJDK Runtime Environment
JVM: OpenJDK 64-Bit Server VM
Java Version: 11.0.20.1+1
Operating System: Linux
Default Encoding: UTF-8
Language: en
Country: null
--></g></svg>