<?xml version="1.0" encoding="UTF-8" standalone="no"?><svg xmlns="http://www.w3.org/2000/svg" xmlns:xlink="http://www.w3.org/1999/xlink" contentScriptType="application/ecmascript" contentStyleType="text/css" height="104px" preserveAspectRatio="none" style="width:145px;height:104px;" version="1.1" viewBox="0 0 145 104" width="145px" zoomAndPan="magnify"><defs><filter height="300%" id="fnz0tegw9bl18" width="300%" x="-1" y="-1"><feGaussianBlur result="blurOut" stdDeviation="2.0"/><feColorMatrix in="blurOut" result="blurOut2" type="matrix" values="0 0 0 0 0 0 0 0 0 0 0 0 0 0 0 0 0 0 .4 0"/><feOffset dx="4.0" dy="4.0" in="blurOut2" result="blurOut3"/><feBlend in="SourceGraphic" in2="blurOut3" mode="normal"/></filter></defs><g><!--MD5=[2674435f7bd97c3a132a930ca669358c]
class DependsOn--><rect fill="#FEFECE" filter="url(#fnz0tegw9bl18)" height="86.4141" id="DependsOn" style="stroke: #A80036; stroke-width: 1.5;" width="127" x="7" y="7"/><ellipse cx="31.9" cy="23" fill="#ADD1B2" rx="11" ry="11" style="stroke: #A80036; stroke-width: 1.0;"/><path d="M34.8688,28.6406 Q34.2906,28.9375 33.65,29.0781 Q33.0094,29.2344 32.3063,29.2344 Q29.8063,29.2344 28.4781,27.5938 Q27.1656,25.9375 27.1656,22.8125 Q27.1656,19.6875 28.4781,18.0313 Q29.8063,16.375 32.3063,16.375 Q33.0094,16.375 33.65,16.5313 Q34.3063,16.6875 34.8688,16.9844 L34.8688,19.7031 Q34.2438,19.125 33.65,18.8594 Q33.0563,18.5781 32.4313,18.5781 Q31.0875,18.5781 30.4,19.6563 Q29.7125,20.7188 29.7125,22.8125 Q29.7125,24.9063 30.4,25.9844 Q31.0875,27.0469 32.4313,27.0469 Q33.0563,27.0469 33.65,26.7813 Q34.2438,26.5 34.8688,25.9219 L34.8688,28.6406 Z "/><text fill="#000000" font-family="sans-serif" font-size="12" lengthAdjust="spacingAndGlyphs" textLength="73" x="48.1" y="27.1543">DependsOn</text><line style="stroke: #A80036; stroke-width: 1.5;" x1="8" x2="133" y1="39" y2="39"/><ellipse cx="18" cy="50" fill="none" rx="3" ry="3" style="stroke: #038048; stroke-width: 1.0;"/><text fill="#000000" font-family="sans-serif" font-size="11" lengthAdjust="spacingAndGlyphs" textLength="66" x="27" y="53.2104">open: array</text><ellipse cx="18" cy="62.8047" fill="none" rx="3" ry="3" style="stroke: #038048; stroke-width: 1.0;"/><text fill="#000000" font-family="sans-serif" font-size="11" lengthAdjust="spacingAndGlyphs" textLength="101" x="27" y="66.0151">proprietary: array</text><ellipse cx="18" cy="75.6094" fill="none" rx="3" ry="3" style="stroke: #038048; stroke-width: 1.0;"/><text fill="#000000" font-family="sans-serif" font-size="11" lengthAdjust="spacingAndGlyphs" textLength="92" x="27" y="78.8198">hardware: array</text><line style="stroke: #A80036; stroke-width: 1.5;" x1="8" x2="133" y1="85.4141" y2="85.4141"/><!--MD5=[263e9eed4d88fa4d0e733b3ec96f200b]
@startuml
class DependsOn {
  + open: array
  + proprietary: array
  + hardware: array
}
@enduml

PlantUML version 1.2020.02(Sun Mar 01 10:22:07 UTC 2020)
(GPL source distribution)
Java Runtime: OpenJDK Runtime Environment
JVM: OpenJDK 64-Bit Server VM
Java Version: 11.0.20.1+1
Operating System: Linux
Default Encoding: UTF-8
Language: en
Country: null
--></g></svg>