<?xml version="1.0" encoding="us-ascii" standalone="no"?><svg xmlns="http://www.w3.org/2000/svg" xmlns:xlink="http://www.w3.org/1999/xlink" contentStyleType="text/css" height="180px" preserveAspectRatio="none" style="width:175px;height:180px;background:#FFFFFF;" version="1.1" viewBox="0 0 175 180" width="175px" zoomAndPan="magnify"><defs/><g><text fill="#888888" font-family="sans-serif" font-size="10" lengthAdjust="spacing" textLength="45" x="122" y="9.2822">Schema</text><text fill="#000000" font-family="sans-serif" font-size="14" font-weight="bold" lengthAdjust="spacing" textLength="90" x="38.5" y="35.6357">DependsOn</text><!--class DependsOn--><g id="elem_DependsOn"><rect codeLine="5" fill="#F1F1F1" height="96.8906" id="DependsOn" rx="2.5" ry="2.5" style="stroke:#181818;stroke-width:0.5;" width="154" x="7" y="56.9375"/><ellipse cx="39.1" cy="72.9375" fill="#ADD1B2" rx="11" ry="11" style="stroke:#181818;stroke-width:1.0;"/><path d="M41.4438,68.6094 C40.5063,68.1719 39.9125,68.0313 39.0375,68.0313 C36.4125,68.0313 34.4125,70.1094 34.4125,72.8281 L34.4125,73.9531 C34.4125,76.5313 36.5219,78.4219 39.4125,78.4219 C40.6313,78.4219 41.7875,78.125 42.5375,77.5781 C43.1156,77.1719 43.4438,76.7188 43.4438,76.3281 C43.4438,75.875 43.0531,75.4844 42.5844,75.4844 C42.3656,75.4844 42.1625,75.5625 41.975,75.75 C41.5219,76.2344 41.5219,76.2344 41.3344,76.3281 C40.9125,76.5938 40.225,76.7188 39.4594,76.7188 C37.4125,76.7188 36.1156,75.625 36.1156,73.9219 L36.1156,72.8281 C36.1156,71.0469 37.3656,69.7344 39.1,69.7344 C39.6781,69.7344 40.2875,69.8906 40.7563,70.1406 C41.2406,70.4219 41.4125,70.6406 41.5063,71.0469 C41.5688,71.4531 41.6,71.5781 41.7406,71.7031 C41.8813,71.8438 42.1156,71.9531 42.3344,71.9531 C42.6,71.9531 42.8656,71.8125 43.0375,71.5938 C43.1469,71.4375 43.1781,71.25 43.1781,70.8281 L43.1781,69.4063 C43.1781,68.9688 43.1625,68.8438 43.0688,68.6875 C42.9125,68.4219 42.6313,68.2813 42.3344,68.2813 C42.0375,68.2813 41.8344,68.375 41.6156,68.6875 L41.4438,68.6094 Z " fill="#000000"/><text fill="#000000" font-family="sans-serif" font-size="14" lengthAdjust="spacing" textLength="84" x="56.9" y="77.7842">DependsOn</text><line style="stroke:#181818;stroke-width:0.5;" x1="8" x2="160" y1="88.9375" y2="88.9375"/><ellipse cx="18" cy="102.5859" fill="none" rx="3" ry="3" style="stroke:#038048;stroke-width:1.0;"/><text fill="#000000" font-family="sans-serif" font-size="14" lengthAdjust="spacing" textLength="82" x="27" y="105.9326">open: array</text><ellipse cx="18" cy="118.8828" fill="none" rx="3" ry="3" style="stroke:#038048;stroke-width:1.0;"/><text fill="#000000" font-family="sans-serif" font-size="14" lengthAdjust="spacing" textLength="128" x="27" y="122.2295">proprietary: array</text><ellipse cx="18" cy="135.1797" fill="none" rx="3" ry="3" style="stroke:#038048;stroke-width:1.0;"/><text fill="#000000" font-family="sans-serif" font-size="14" lengthAdjust="spacing" textLength="111" x="27" y="138.5264">hardware: array</text><line style="stroke:#181818;stroke-width:0.5;" x1="8" x2="160" y1="145.8281" y2="145.8281"/></g><text fill="#888888" font-family="sans-serif" font-size="10" lengthAdjust="spacing" textLength="137" x="15" y="170.1104">Common Gateway Plugin</text><!--SRC=[JOjD2a8n30RtEKNstg1R1PSAdk3ZDRuMsgQaaKSHx-uFY2vdXl7iHG8Vf4kBuzJegkfYWVTQgpO-mcN3v7EvhRbH4iHtlIn9AeYMWZ5-Dz-9USVwmi0mm_nmD-sMnM7pNoTOt63oTOyd]--></g></svg>