<?xml version="1.0" encoding="UTF-8" standalone="no"?><svg xmlns="http://www.w3.org/2000/svg" xmlns:xlink="http://www.w3.org/1999/xlink" contentScriptType="application/ecmascript" contentStyleType="text/css" height="155px" preserveAspectRatio="none" style="width:313px;height:155px;" version="1.1" viewBox="0 0 313 155" width="313px" zoomAndPan="magnify"><defs><filter height="300%" id="fkyelrutros5q" width="300%" x="-1" y="-1"><feGaussianBlur result="blurOut" stdDeviation="2.0"/><feColorMatrix in="blurOut" result="blurOut2" type="matrix" values="0 0 0 0 0 0 0 0 0 0 0 0 0 0 0 0 0 0 .4 0"/><feOffset dx="4.0" dy="4.0" in="blurOut2" result="blurOut3"/><feBlend in="SourceGraphic" in2="blurOut3" mode="normal"/></filter></defs><g><text fill="#888888" font-family="sans-serif" font-size="10" lengthAdjust="spacingAndGlyphs" textLength="40" x="261" y="9.2822">Schema</text><text fill="#000000" font-family="sans-serif" font-size="18" lengthAdjust="spacingAndGlyphs" textLength="111" x="95" y="28.3486">Dependency</text><!--MD5=[3c634b536ee83ca98b8e440922e2fe77]
class Dependency--><rect fill="#FEFECE" filter="url(#fkyelrutros5q)" height="86.4141" id="Dependency" style="stroke: #A80036; stroke-width: 1.5;" width="110" x="95.5" y="39.5938"/><ellipse cx="110.5" cy="55.5938" fill="#ADD1B2" rx="11" ry="11" style="stroke: #A80036; stroke-width: 1.0;"/><path d="M113.4688,61.2344 Q112.8906,61.5313 112.25,61.6719 Q111.6094,61.8281 110.9063,61.8281 Q108.4063,61.8281 107.0781,60.1875 Q105.7656,58.5313 105.7656,55.4063 Q105.7656,52.2813 107.0781,50.625 Q108.4063,48.9688 110.9063,48.9688 Q111.6094,48.9688 112.25,49.125 Q112.9063,49.2813 113.4688,49.5781 L113.4688,52.2969 Q112.8438,51.7188 112.25,51.4531 Q111.6563,51.1719 111.0313,51.1719 Q109.6875,51.1719 109,52.25 Q108.3125,53.3125 108.3125,55.4063 Q108.3125,57.5 109,58.5781 Q109.6875,59.6406 111.0313,59.6406 Q111.6563,59.6406 112.25,59.375 Q112.8438,59.0938 113.4688,58.5156 L113.4688,61.2344 Z "/><text fill="#000000" font-family="sans-serif" font-size="12" lengthAdjust="spacingAndGlyphs" textLength="78" x="124.5" y="59.748">Dependency</text><line style="stroke: #A80036; stroke-width: 1.5;" x1="96.5" x2="204.5" y1="71.5938" y2="71.5938"/><ellipse cx="106.5" cy="82.5938" fill="none" rx="3" ry="3" style="stroke: #038048; stroke-width: 1.0;"/><text fill="#000000" font-family="sans-serif" font-size="11" lengthAdjust="spacingAndGlyphs" textLength="51" x="115.5" y="85.8042">id: string</text><ellipse cx="106.5" cy="95.3984" fill="none" rx="3" ry="3" style="stroke: #038048; stroke-width: 1.0;"/><text fill="#000000" font-family="sans-serif" font-size="11" lengthAdjust="spacingAndGlyphs" textLength="73" x="115.5" y="98.6089">name: string</text><ellipse cx="106.5" cy="108.2031" fill="none" rx="3" ry="3" style="stroke: #038048; stroke-width: 1.0;"/><text fill="#000000" font-family="sans-serif" font-size="11" lengthAdjust="spacingAndGlyphs" textLength="83" x="115.5" y="111.4136">version: string</text><line style="stroke: #A80036; stroke-width: 1.5;" x1="96.5" x2="204.5" y1="118.0078" y2="118.0078"/><text fill="#888888" font-family="sans-serif" font-size="10" lengthAdjust="spacingAndGlyphs" textLength="301" x="0" y="142.29">Common Gateway Plugin | Opencatalogi | Opencatalogibundle</text><!--MD5=[f8d0562565b80414bdb89b7bbf660cb5]
@startuml
title: Dependency
footer: Common Gateway Plugin | Opencatalogi | Opencatalogibundle 
header: Schema

class Dependency {
  + id: string
  + name: string
  + version: string
}
@enduml

PlantUML version 1.2020.02(Sun Mar 01 10:22:07 UTC 2020)
(GPL source distribution)
Java Runtime: OpenJDK Runtime Environment
JVM: OpenJDK 64-Bit Server VM
Java Version: 11.0.20.1+1
Operating System: Linux
Default Encoding: UTF-8
Language: en
Country: null
--></g></svg>