<?xml version="1.0" encoding="us-ascii" standalone="no"?><svg xmlns="http://www.w3.org/2000/svg" xmlns:xlink="http://www.w3.org/1999/xlink" contentStyleType="text/css" height="180px" preserveAspectRatio="none" style="width:349px;height:180px;background:#FFFFFF;" version="1.1" viewBox="0 0 349 180" width="349px" zoomAndPan="magnify"><defs/><g><text fill="#888888" font-family="sans-serif" font-size="10" lengthAdjust="spacing" textLength="45" x="296" y="9.2822">Schema</text><text fill="#000000" font-family="sans-serif" font-size="14" font-weight="bold" lengthAdjust="spacing" textLength="90" x="125.5" y="35.6357">DependsOn</text><!--class DependsOn--><g id="elem_DependsOn"><rect codeLine="5" fill="#F1F1F1" height="96.8906" id="DependsOn" rx="2.5" ry="2.5" style="stroke:#181818;stroke-width:0.5;" width="154" x="94" y="56.9375"/><ellipse cx="126.1" cy="72.9375" fill="#ADD1B2" rx="11" ry="11" style="stroke:#181818;stroke-width:1.0;"/><path d="M128.4438,68.6094 C127.5063,68.1719 126.9125,68.0313 126.0375,68.0313 C123.4125,68.0313 121.4125,70.1094 121.4125,72.8281 L121.4125,73.9531 C121.4125,76.5313 123.5219,78.4219 126.4125,78.4219 C127.6313,78.4219 128.7875,78.125 129.5375,77.5781 C130.1156,77.1719 130.4438,76.7188 130.4438,76.3281 C130.4438,75.875 130.0531,75.4844 129.5844,75.4844 C129.3656,75.4844 129.1625,75.5625 128.975,75.75 C128.5219,76.2344 128.5219,76.2344 128.3344,76.3281 C127.9125,76.5938 127.225,76.7188 126.4594,76.7188 C124.4125,76.7188 123.1156,75.625 123.1156,73.9219 L123.1156,72.8281 C123.1156,71.0469 124.3656,69.7344 126.1,69.7344 C126.6781,69.7344 127.2875,69.8906 127.7563,70.1406 C128.2406,70.4219 128.4125,70.6406 128.5063,71.0469 C128.5688,71.4531 128.6,71.5781 128.7406,71.7031 C128.8813,71.8438 129.1156,71.9531 129.3344,71.9531 C129.6,71.9531 129.8656,71.8125 130.0375,71.5938 C130.1469,71.4375 130.1781,71.25 130.1781,70.8281 L130.1781,69.4063 C130.1781,68.9688 130.1625,68.8438 130.0688,68.6875 C129.9125,68.4219 129.6313,68.2813 129.3344,68.2813 C129.0375,68.2813 128.8344,68.375 128.6156,68.6875 L128.4438,68.6094 Z " fill="#000000"/><text fill="#000000" font-family="sans-serif" font-size="14" lengthAdjust="spacing" textLength="84" x="143.9" y="77.7842">DependsOn</text><line style="stroke:#181818;stroke-width:0.5;" x1="95" x2="247" y1="88.9375" y2="88.9375"/><ellipse cx="105" cy="102.5859" fill="none" rx="3" ry="3" style="stroke:#038048;stroke-width:1.0;"/><text fill="#000000" font-family="sans-serif" font-size="14" lengthAdjust="spacing" textLength="82" x="114" y="105.9326">open: array</text><ellipse cx="105" cy="118.8828" fill="none" rx="3" ry="3" style="stroke:#038048;stroke-width:1.0;"/><text fill="#000000" font-family="sans-serif" font-size="14" lengthAdjust="spacing" textLength="128" x="114" y="122.2295">proprietary: array</text><ellipse cx="105" cy="135.1797" fill="none" rx="3" ry="3" style="stroke:#038048;stroke-width:1.0;"/><text fill="#000000" font-family="sans-serif" font-size="14" lengthAdjust="spacing" textLength="111" x="114" y="138.5264">hardware: array</text><line style="stroke:#181818;stroke-width:0.5;" x1="95" x2="247" y1="145.8281" y2="145.8281"/></g><text fill="#888888" font-family="sans-serif" font-size="10" lengthAdjust="spacing" textLength="341" x="0" y="170.1104">Common Gateway Plugin | Opencatalogi | Opencatalogibundle</text><!--SRC=[NOr12W8n40JlUSNS_K6k2XvNy0LjCcu2IIPCiYn1_Rkh88h7Afhg7djYImUkN7oRYhcAT5PBUybP2XtHUSMWKrhcMEXEqpPqw4Wonp-yBCKd9XCO_fKuky0PnhY4rhuNT3D4Ev8DBK4LuyrLfMha3Xs_Ea3z2kMFUpm1]--></g></svg>