<?xml version="1.0" encoding="us-ascii" standalone="no"?><svg xmlns="http://www.w3.org/2000/svg" xmlns:xlink="http://www.w3.org/1999/xlink" contentStyleType="text/css" height="180px" preserveAspectRatio="none" style="width:150px;height:180px;background:#FFFFFF;" version="1.1" viewBox="0 0 150 180" width="150px" zoomAndPan="magnify"><defs/><g><text fill="#888888" font-family="sans-serif" font-size="10" lengthAdjust="spacing" textLength="45" x="97" y="9.2822">Schema</text><text fill="#000000" font-family="sans-serif" font-size="14" font-weight="bold" lengthAdjust="spacing" textLength="96" x="23" y="35.6357">Dependency</text><!--class Dependency--><g id="elem_Dependency"><rect codeLine="5" fill="#F1F1F1" height="96.8906" id="Dependency" rx="2.5" ry="2.5" style="stroke:#181818;stroke-width:0.5;" width="129" x="7" y="56.9375"/><ellipse cx="24.7" cy="72.9375" fill="#ADD1B2" rx="11" ry="11" style="stroke:#181818;stroke-width:1.0;"/><path d="M27.0438,68.6094 C26.1063,68.1719 25.5125,68.0313 24.6375,68.0313 C22.0125,68.0313 20.0125,70.1094 20.0125,72.8281 L20.0125,73.9531 C20.0125,76.5313 22.1219,78.4219 25.0125,78.4219 C26.2313,78.4219 27.3875,78.125 28.1375,77.5781 C28.7156,77.1719 29.0438,76.7188 29.0438,76.3281 C29.0438,75.875 28.6531,75.4844 28.1844,75.4844 C27.9656,75.4844 27.7625,75.5625 27.575,75.75 C27.1219,76.2344 27.1219,76.2344 26.9344,76.3281 C26.5125,76.5938 25.825,76.7188 25.0594,76.7188 C23.0125,76.7188 21.7156,75.625 21.7156,73.9219 L21.7156,72.8281 C21.7156,71.0469 22.9656,69.7344 24.7,69.7344 C25.2781,69.7344 25.8875,69.8906 26.3563,70.1406 C26.8406,70.4219 27.0125,70.6406 27.1063,71.0469 C27.1688,71.4531 27.2,71.5781 27.3406,71.7031 C27.4813,71.8438 27.7156,71.9531 27.9344,71.9531 C28.2,71.9531 28.4656,71.8125 28.6375,71.5938 C28.7469,71.4375 28.7781,71.25 28.7781,70.8281 L28.7781,69.4063 C28.7781,68.9688 28.7625,68.8438 28.6688,68.6875 C28.5125,68.4219 28.2313,68.2813 27.9344,68.2813 C27.6375,68.2813 27.4344,68.375 27.2156,68.6875 L27.0438,68.6094 Z " fill="#000000"/><text fill="#000000" font-family="sans-serif" font-size="14" lengthAdjust="spacing" textLength="91" x="39.3" y="77.7842">Dependency</text><line style="stroke:#181818;stroke-width:0.5;" x1="8" x2="135" y1="88.9375" y2="88.9375"/><ellipse cx="18" cy="102.5859" fill="none" rx="3" ry="3" style="stroke:#038048;stroke-width:1.0;"/><text fill="#000000" font-family="sans-serif" font-size="14" lengthAdjust="spacing" textLength="64" x="27" y="105.9326">id: string</text><ellipse cx="18" cy="118.8828" fill="none" rx="3" ry="3" style="stroke:#038048;stroke-width:1.0;"/><text fill="#000000" font-family="sans-serif" font-size="14" lengthAdjust="spacing" textLength="91" x="27" y="122.2295">name: string</text><ellipse cx="18" cy="135.1797" fill="none" rx="3" ry="3" style="stroke:#038048;stroke-width:1.0;"/><text fill="#000000" font-family="sans-serif" font-size="14" lengthAdjust="spacing" textLength="103" x="27" y="138.5264">version: string</text><line style="stroke:#181818;stroke-width:0.5;" x1="8" x2="135" y1="145.8281" y2="145.8281"/></g><text fill="#888888" font-family="sans-serif" font-size="10" lengthAdjust="spacing" textLength="137" x="2.5" y="170.1104">Common Gateway Plugin</text><!--SRC=[LOj12W8n34NtEKNstg1R1RV2d22qtvb0cmnjL0RnxZ8kH9VlFLveL2G-OOKLMDxewXxeYO_UcXkV9V2GZI_rDglH0YbxdVA29aIvoXW_Ep-9-S1Q4e_eQlC7JHh-n1rzgDlNlTu0]--></g></svg>