<?xml version="1.0" encoding="us-ascii" standalone="no"?><svg xmlns="http://www.w3.org/2000/svg" xmlns:xlink="http://www.w3.org/1999/xlink" contentStyleType="text/css" height="180px" preserveAspectRatio="none" style="width:349px;height:180px;background:#FFFFFF;" version="1.1" viewBox="0 0 349 180" width="349px" zoomAndPan="magnify"><defs/><g><text fill="#888888" font-family="sans-serif" font-size="10" lengthAdjust="spacing" textLength="45" x="296" y="9.2822">Schema</text><text fill="#000000" font-family="sans-serif" font-size="14" font-weight="bold" lengthAdjust="spacing" textLength="96" x="122.5" y="35.6357">Dependency</text><!--class Dependency--><g id="elem_Dependency"><rect codeLine="5" fill="#F1F1F1" height="96.8906" id="Dependency" rx="2.5" ry="2.5" style="stroke:#181818;stroke-width:0.5;" width="129" x="106.5" y="56.9375"/><ellipse cx="124.2" cy="72.9375" fill="#ADD1B2" rx="11" ry="11" style="stroke:#181818;stroke-width:1.0;"/><path d="M126.5438,68.6094 C125.6063,68.1719 125.0125,68.0313 124.1375,68.0313 C121.5125,68.0313 119.5125,70.1094 119.5125,72.8281 L119.5125,73.9531 C119.5125,76.5313 121.6219,78.4219 124.5125,78.4219 C125.7313,78.4219 126.8875,78.125 127.6375,77.5781 C128.2156,77.1719 128.5438,76.7188 128.5438,76.3281 C128.5438,75.875 128.1531,75.4844 127.6844,75.4844 C127.4656,75.4844 127.2625,75.5625 127.075,75.75 C126.6219,76.2344 126.6219,76.2344 126.4344,76.3281 C126.0125,76.5938 125.325,76.7188 124.5594,76.7188 C122.5125,76.7188 121.2156,75.625 121.2156,73.9219 L121.2156,72.8281 C121.2156,71.0469 122.4656,69.7344 124.2,69.7344 C124.7781,69.7344 125.3875,69.8906 125.8563,70.1406 C126.3406,70.4219 126.5125,70.6406 126.6063,71.0469 C126.6688,71.4531 126.7,71.5781 126.8406,71.7031 C126.9813,71.8438 127.2156,71.9531 127.4344,71.9531 C127.7,71.9531 127.9656,71.8125 128.1375,71.5938 C128.2469,71.4375 128.2781,71.25 128.2781,70.8281 L128.2781,69.4063 C128.2781,68.9688 128.2625,68.8438 128.1688,68.6875 C128.0125,68.4219 127.7313,68.2813 127.4344,68.2813 C127.1375,68.2813 126.9344,68.375 126.7156,68.6875 L126.5438,68.6094 Z " fill="#000000"/><text fill="#000000" font-family="sans-serif" font-size="14" lengthAdjust="spacing" textLength="91" x="138.8" y="77.7842">Dependency</text><line style="stroke:#181818;stroke-width:0.5;" x1="107.5" x2="234.5" y1="88.9375" y2="88.9375"/><ellipse cx="117.5" cy="102.5859" fill="none" rx="3" ry="3" style="stroke:#038048;stroke-width:1.0;"/><text fill="#000000" font-family="sans-serif" font-size="14" lengthAdjust="spacing" textLength="64" x="126.5" y="105.9326">id: string</text><ellipse cx="117.5" cy="118.8828" fill="none" rx="3" ry="3" style="stroke:#038048;stroke-width:1.0;"/><text fill="#000000" font-family="sans-serif" font-size="14" lengthAdjust="spacing" textLength="91" x="126.5" y="122.2295">name: string</text><ellipse cx="117.5" cy="135.1797" fill="none" rx="3" ry="3" style="stroke:#038048;stroke-width:1.0;"/><text fill="#000000" font-family="sans-serif" font-size="14" lengthAdjust="spacing" textLength="103" x="126.5" y="138.5264">version: string</text><line style="stroke:#181818;stroke-width:0.5;" x1="107.5" x2="234.5" y1="145.8281" y2="145.8281"/></g><text fill="#888888" font-family="sans-serif" font-size="10" lengthAdjust="spacing" textLength="341" x="0" y="170.1104">Common Gateway Plugin | Opencatalogi | Opencatalogibundle</text><!--SRC=[NOqx3W8n30NxdEBrt20jI9GWSGAJcAobn4ORBsYrS7S-1GBA6JtDS_7A4Hi-isRMD8UJcVCOiRRMJB4bvolDsDUfYEA6tNEPoAbQaJyyJfeh8mnC-PKuf84RXP0gzVxrWIK0AqYEw3wAbZSgDVuH5nwxc7xS_G40]--></g></svg>