<?xml version="1.0" encoding="UTF-8" standalone="no"?><svg xmlns="http://www.w3.org/2000/svg" xmlns:xlink="http://www.w3.org/1999/xlink" contentScriptType="application/ecmascript" contentStyleType="text/css" height="245px" preserveAspectRatio="none" style="width:313px;height:245px;" version="1.1" viewBox="0 0 313 245" width="313px" zoomAndPan="magnify"><defs><filter height="300%" id="fycvxwp9o92dr" width="300%" x="-1" y="-1"><feGaussianBlur result="blurOut" stdDeviation="2.0"/><feColorMatrix in="blurOut" result="blurOut2" type="matrix" values="0 0 0 0 0 0 0 0 0 0 0 0 0 0 0 0 0 0 .4 0"/><feOffset dx="4.0" dy="4.0" in="blurOut2" result="blurOut3"/><feBlend in="SourceGraphic" in2="blurOut3" mode="normal"/></filter></defs><g><text fill="#888888" font-family="sans-serif" font-size="10" lengthAdjust="spacingAndGlyphs" textLength="40" x="261" y="9.2822">Schema</text><text fill="#000000" font-family="sans-serif" font-size="18" lengthAdjust="spacingAndGlyphs" textLength="100" x="100.5" y="28.3486">Description</text><!--MD5=[009695af4e54f3bba8a9c60dca3e1c94]
class Description--><rect fill="#FEFECE" filter="url(#fycvxwp9o92dr)" height="176.0469" id="Description" style="stroke: #A80036; stroke-width: 1.5;" width="169" x="66" y="39.5938"/><ellipse cx="110.75" cy="55.5938" fill="#ADD1B2" rx="11" ry="11" style="stroke: #A80036; stroke-width: 1.0;"/><path d="M113.7188,61.2344 Q113.1406,61.5313 112.5,61.6719 Q111.8594,61.8281 111.1563,61.8281 Q108.6563,61.8281 107.3281,60.1875 Q106.0156,58.5313 106.0156,55.4063 Q106.0156,52.2813 107.3281,50.625 Q108.6563,48.9688 111.1563,48.9688 Q111.8594,48.9688 112.5,49.125 Q113.1563,49.2813 113.7188,49.5781 L113.7188,52.2969 Q113.0938,51.7188 112.5,51.4531 Q111.9063,51.1719 111.2813,51.1719 Q109.9375,51.1719 109.25,52.25 Q108.5625,53.3125 108.5625,55.4063 Q108.5625,57.5 109.25,58.5781 Q109.9375,59.6406 111.2813,59.6406 Q111.9063,59.6406 112.5,59.375 Q113.0938,59.0938 113.7188,58.5156 L113.7188,61.2344 Z "/><text fill="#000000" font-family="sans-serif" font-size="12" lengthAdjust="spacingAndGlyphs" textLength="71" x="131.25" y="59.748">Description</text><line style="stroke: #A80036; stroke-width: 1.5;" x1="67" x2="234" y1="71.5938" y2="71.5938"/><ellipse cx="77" cy="82.5938" fill="none" rx="3" ry="3" style="stroke: #038048; stroke-width: 1.0;"/><text fill="#000000" font-family="sans-serif" font-size="11" lengthAdjust="spacingAndGlyphs" textLength="51" x="86" y="85.8042">id: string</text><ellipse cx="77" cy="95.3984" fill="none" rx="3" ry="3" style="stroke: #038048; stroke-width: 1.0;"/><text fill="#000000" font-family="sans-serif" font-size="11" lengthAdjust="spacingAndGlyphs" textLength="124" x="86" y="98.6089">localisedName: string</text><ellipse cx="77" cy="108.2031" fill="none" rx="3" ry="3" style="stroke: #038048; stroke-width: 1.0;"/><text fill="#000000" font-family="sans-serif" font-size="11" lengthAdjust="spacingAndGlyphs" textLength="135" x="86" y="111.4136">shortDescription: string</text><ellipse cx="77" cy="121.0078" fill="none" rx="3" ry="3" style="stroke: #038048; stroke-width: 1.0;"/><text fill="#000000" font-family="sans-serif" font-size="11" lengthAdjust="spacingAndGlyphs" textLength="129" x="86" y="124.2183">longDescription: string</text><ellipse cx="77" cy="133.8125" fill="none" rx="3" ry="3" style="stroke: #038048; stroke-width: 1.0;"/><text fill="#000000" font-family="sans-serif" font-size="11" lengthAdjust="spacingAndGlyphs" textLength="125" x="86" y="137.0229">documentation: string</text><ellipse cx="77" cy="146.6172" fill="none" rx="3" ry="3" style="stroke: #038048; stroke-width: 1.0;"/><text fill="#000000" font-family="sans-serif" font-size="11" lengthAdjust="spacingAndGlyphs" textLength="143" x="86" y="149.8276">apiDocumentation: string</text><ellipse cx="77" cy="159.4219" fill="none" rx="3" ry="3" style="stroke: #038048; stroke-width: 1.0;"/><text fill="#000000" font-family="sans-serif" font-size="11" lengthAdjust="spacingAndGlyphs" textLength="86" x="86" y="162.6323">features: array</text><ellipse cx="77" cy="172.2266" fill="none" rx="3" ry="3" style="stroke: #038048; stroke-width: 1.0;"/><text fill="#000000" font-family="sans-serif" font-size="11" lengthAdjust="spacingAndGlyphs" textLength="109" x="86" y="175.437">screenshots: array</text><ellipse cx="77" cy="185.0313" fill="none" rx="3" ry="3" style="stroke: #038048; stroke-width: 1.0;"/><text fill="#000000" font-family="sans-serif" font-size="11" lengthAdjust="spacingAndGlyphs" textLength="75" x="86" y="188.2417">videos: array</text><ellipse cx="77" cy="197.8359" fill="none" rx="3" ry="3" style="stroke: #038048; stroke-width: 1.0;"/><text fill="#000000" font-family="sans-serif" font-size="11" lengthAdjust="spacingAndGlyphs" textLength="80" x="86" y="201.0464">awards: array</text><line style="stroke: #A80036; stroke-width: 1.5;" x1="67" x2="234" y1="207.6406" y2="207.6406"/><text fill="#888888" font-family="sans-serif" font-size="10" lengthAdjust="spacingAndGlyphs" textLength="301" x="0" y="231.9229">Common Gateway Plugin | Opencatalogi | Opencatalogibundle</text><!--MD5=[c2639e1f2bbc49b703c47e52424bdd52]
@startuml
title: Description
footer: Common Gateway Plugin | Opencatalogi | Opencatalogibundle 
header: Schema

class Description {
  + id: string
  + localisedName: string
  + shortDescription: string
  + longDescription: string
  + documentation: string
  + apiDocumentation: string
  + features: array
  + screenshots: array
  + videos: array
  + awards: array
}
@enduml

PlantUML version 1.2020.02(Sun Mar 01 10:22:07 UTC 2020)
(GPL source distribution)
Java Runtime: OpenJDK Runtime Environment
JVM: OpenJDK 64-Bit Server VM
Java Version: 11.0.20.1+1
Operating System: Linux
Default Encoding: UTF-8
Language: en
Country: null
--></g></svg>