<?xml version="1.0" encoding="UTF-8" standalone="no"?><svg xmlns="http://www.w3.org/2000/svg" xmlns:xlink="http://www.w3.org/1999/xlink" contentScriptType="application/ecmascript" contentStyleType="text/css" height="194px" preserveAspectRatio="none" style="width:187px;height:194px;" version="1.1" viewBox="0 0 187 194" width="187px" zoomAndPan="magnify"><defs><filter height="300%" id="frqxx2doq3k6o" width="300%" x="-1" y="-1"><feGaussianBlur result="blurOut" stdDeviation="2.0"/><feColorMatrix in="blurOut" result="blurOut2" type="matrix" values="0 0 0 0 0 0 0 0 0 0 0 0 0 0 0 0 0 0 .4 0"/><feOffset dx="4.0" dy="4.0" in="blurOut2" result="blurOut3"/><feBlend in="SourceGraphic" in2="blurOut3" mode="normal"/></filter></defs><g><!--MD5=[009695af4e54f3bba8a9c60dca3e1c94]
class Description--><rect fill="#FEFECE" filter="url(#frqxx2doq3k6o)" height="176.0469" id="Description" style="stroke: #A80036; stroke-width: 1.5;" width="169" x="7" y="7"/><ellipse cx="51.75" cy="23" fill="#ADD1B2" rx="11" ry="11" style="stroke: #A80036; stroke-width: 1.0;"/><path d="M54.7188,28.6406 Q54.1406,28.9375 53.5,29.0781 Q52.8594,29.2344 52.1563,29.2344 Q49.6563,29.2344 48.3281,27.5938 Q47.0156,25.9375 47.0156,22.8125 Q47.0156,19.6875 48.3281,18.0313 Q49.6563,16.375 52.1563,16.375 Q52.8594,16.375 53.5,16.5313 Q54.1563,16.6875 54.7188,16.9844 L54.7188,19.7031 Q54.0938,19.125 53.5,18.8594 Q52.9063,18.5781 52.2813,18.5781 Q50.9375,18.5781 50.25,19.6563 Q49.5625,20.7188 49.5625,22.8125 Q49.5625,24.9063 50.25,25.9844 Q50.9375,27.0469 52.2813,27.0469 Q52.9063,27.0469 53.5,26.7813 Q54.0938,26.5 54.7188,25.9219 L54.7188,28.6406 Z "/><text fill="#000000" font-family="sans-serif" font-size="12" lengthAdjust="spacingAndGlyphs" textLength="71" x="72.25" y="27.1543">Description</text><line style="stroke: #A80036; stroke-width: 1.5;" x1="8" x2="175" y1="39" y2="39"/><ellipse cx="18" cy="50" fill="none" rx="3" ry="3" style="stroke: #038048; stroke-width: 1.0;"/><text fill="#000000" font-family="sans-serif" font-size="11" lengthAdjust="spacingAndGlyphs" textLength="51" x="27" y="53.2104">id: string</text><ellipse cx="18" cy="62.8047" fill="none" rx="3" ry="3" style="stroke: #038048; stroke-width: 1.0;"/><text fill="#000000" font-family="sans-serif" font-size="11" lengthAdjust="spacingAndGlyphs" textLength="124" x="27" y="66.0151">localisedName: string</text><ellipse cx="18" cy="75.6094" fill="none" rx="3" ry="3" style="stroke: #038048; stroke-width: 1.0;"/><text fill="#000000" font-family="sans-serif" font-size="11" lengthAdjust="spacingAndGlyphs" textLength="135" x="27" y="78.8198">shortDescription: string</text><ellipse cx="18" cy="88.4141" fill="none" rx="3" ry="3" style="stroke: #038048; stroke-width: 1.0;"/><text fill="#000000" font-family="sans-serif" font-size="11" lengthAdjust="spacingAndGlyphs" textLength="129" x="27" y="91.6245">longDescription: string</text><ellipse cx="18" cy="101.2188" fill="none" rx="3" ry="3" style="stroke: #038048; stroke-width: 1.0;"/><text fill="#000000" font-family="sans-serif" font-size="11" lengthAdjust="spacingAndGlyphs" textLength="125" x="27" y="104.4292">documentation: string</text><ellipse cx="18" cy="114.0234" fill="none" rx="3" ry="3" style="stroke: #038048; stroke-width: 1.0;"/><text fill="#000000" font-family="sans-serif" font-size="11" lengthAdjust="spacingAndGlyphs" textLength="143" x="27" y="117.2339">apiDocumentation: string</text><ellipse cx="18" cy="126.8281" fill="none" rx="3" ry="3" style="stroke: #038048; stroke-width: 1.0;"/><text fill="#000000" font-family="sans-serif" font-size="11" lengthAdjust="spacingAndGlyphs" textLength="86" x="27" y="130.0386">features: array</text><ellipse cx="18" cy="139.6328" fill="none" rx="3" ry="3" style="stroke: #038048; stroke-width: 1.0;"/><text fill="#000000" font-family="sans-serif" font-size="11" lengthAdjust="spacingAndGlyphs" textLength="109" x="27" y="142.8433">screenshots: array</text><ellipse cx="18" cy="152.4375" fill="none" rx="3" ry="3" style="stroke: #038048; stroke-width: 1.0;"/><text fill="#000000" font-family="sans-serif" font-size="11" lengthAdjust="spacingAndGlyphs" textLength="75" x="27" y="155.6479">videos: array</text><ellipse cx="18" cy="165.2422" fill="none" rx="3" ry="3" style="stroke: #038048; stroke-width: 1.0;"/><text fill="#000000" font-family="sans-serif" font-size="11" lengthAdjust="spacingAndGlyphs" textLength="80" x="27" y="168.4526">awards: array</text><line style="stroke: #A80036; stroke-width: 1.5;" x1="8" x2="175" y1="175.0469" y2="175.0469"/><!--MD5=[b987ed401d7891dbcd69d7b5f2d0dc54]
@startuml
class Description {
  + id: string
  + localisedName: string
  + shortDescription: string
  + longDescription: string
  + documentation: string
  + apiDocumentation: string
  + features: array
  + screenshots: array
  + videos: array
  + awards: array
}
@enduml

PlantUML version 1.2020.02(Sun Mar 01 10:22:07 UTC 2020)
(GPL source distribution)
Java Runtime: OpenJDK Runtime Environment
JVM: OpenJDK 64-Bit Server VM
Java Version: 11.0.20.1+1
Operating System: Linux
Default Encoding: UTF-8
Language: en
Country: null
--></g></svg>