<?xml version="1.0" encoding="UTF-8" standalone="no"?><svg xmlns="http://www.w3.org/2000/svg" xmlns:xlink="http://www.w3.org/1999/xlink" contentScriptType="application/ecmascript" contentStyleType="text/css" height="130px" preserveAspectRatio="none" style="width:217px;height:130px;" version="1.1" viewBox="0 0 217 130" width="217px" zoomAndPan="magnify"><defs><filter height="300%" id="fyasczfa25ezf" width="300%" x="-1" y="-1"><feGaussianBlur result="blurOut" stdDeviation="2.0"/><feColorMatrix in="blurOut" result="blurOut2" type="matrix" values="0 0 0 0 0 0 0 0 0 0 0 0 0 0 0 0 0 0 .4 0"/><feOffset dx="4.0" dy="4.0" in="blurOut2" result="blurOut3"/><feBlend in="SourceGraphic" in2="blurOut3" mode="normal"/></filter></defs><g><!--MD5=[59659c5408b3ac47d3e8e832a7584965]
class Gemma--><rect fill="#FEFECE" filter="url(#fyasczfa25ezf)" height="112.0234" id="Gemma" style="stroke: #A80036; stroke-width: 1.5;" width="199" x="7" y="7"/><ellipse cx="78.75" cy="23" fill="#ADD1B2" rx="11" ry="11" style="stroke: #A80036; stroke-width: 1.0;"/><path d="M81.7188,28.6406 Q81.1406,28.9375 80.5,29.0781 Q79.8594,29.2344 79.1563,29.2344 Q76.6563,29.2344 75.3281,27.5938 Q74.0156,25.9375 74.0156,22.8125 Q74.0156,19.6875 75.3281,18.0313 Q76.6563,16.375 79.1563,16.375 Q79.8594,16.375 80.5,16.5313 Q81.1563,16.6875 81.7188,16.9844 L81.7188,19.7031 Q81.0938,19.125 80.5,18.8594 Q79.9063,18.5781 79.2813,18.5781 Q77.9375,18.5781 77.25,19.6563 Q76.5625,20.7188 76.5625,22.8125 Q76.5625,24.9063 77.25,25.9844 Q77.9375,27.0469 79.2813,27.0469 Q79.9063,27.0469 80.5,26.7813 Q81.0938,26.5 81.7188,25.9219 L81.7188,28.6406 Z "/><text fill="#000000" font-family="sans-serif" font-size="12" lengthAdjust="spacingAndGlyphs" textLength="47" x="99.25" y="27.1543">Gemma</text><line style="stroke: #A80036; stroke-width: 1.5;" x1="8" x2="205" y1="39" y2="39"/><ellipse cx="18" cy="50" fill="none" rx="3" ry="3" style="stroke: #038048; stroke-width: 1.0;"/><text fill="#000000" font-family="sans-serif" font-size="11" lengthAdjust="spacingAndGlyphs" textLength="126" x="27" y="53.2104">bedrijfsfuncties: array</text><ellipse cx="18" cy="62.8047" fill="none" rx="3" ry="3" style="stroke: #038048; stroke-width: 1.0;"/><text fill="#000000" font-family="sans-serif" font-size="11" lengthAdjust="spacingAndGlyphs" textLength="129" x="27" y="66.0151">bedrijfsservices: array</text><ellipse cx="18" cy="75.6094" fill="none" rx="3" ry="3" style="stroke: #038048; stroke-width: 1.0;"/><text fill="#000000" font-family="sans-serif" font-size="11" lengthAdjust="spacingAndGlyphs" textLength="133" x="27" y="78.8198">applicatiefunctie: string</text><ellipse cx="18" cy="88.4141" fill="none" rx="3" ry="3" style="stroke: #038048; stroke-width: 1.0;"/><text fill="#000000" font-family="sans-serif" font-size="11" lengthAdjust="spacingAndGlyphs" textLength="76" x="27" y="91.6245">model: string</text><ellipse cx="18" cy="101.2188" fill="none" rx="3" ry="3" style="stroke: #038048; stroke-width: 1.0;"/><text fill="#000000" font-family="sans-serif" font-size="11" lengthAdjust="spacingAndGlyphs" textLength="173" x="27" y="104.4292">referentieComponenten: array</text><line style="stroke: #A80036; stroke-width: 1.5;" x1="8" x2="205" y1="111.0234" y2="111.0234"/><!--MD5=[3227bf766912d11b29cb2cf94f0215f3]
@startuml
class Gemma {
  + bedrijfsfuncties: array
  + bedrijfsservices: array
  + applicatiefunctie: string
  + model: string
  + referentieComponenten: array
}
@enduml

PlantUML version 1.2020.02(Sun Mar 01 10:22:07 UTC 2020)
(GPL source distribution)
Java Runtime: OpenJDK Runtime Environment
JVM: OpenJDK 64-Bit Server VM
Java Version: 11.0.20.1+1
Operating System: Linux
Default Encoding: UTF-8
Language: en
Country: null
--></g></svg>