<?xml version="1.0" encoding="UTF-8" standalone="no"?><svg xmlns="http://www.w3.org/2000/svg" xmlns:xlink="http://www.w3.org/1999/xlink" contentScriptType="application/ecmascript" contentStyleType="text/css" height="181px" preserveAspectRatio="none" style="width:313px;height:181px;" version="1.1" viewBox="0 0 313 181" width="313px" zoomAndPan="magnify"><defs><filter height="300%" id="f1xe192e2mtqar" width="300%" x="-1" y="-1"><feGaussianBlur result="blurOut" stdDeviation="2.0"/><feColorMatrix in="blurOut" result="blurOut2" type="matrix" values="0 0 0 0 0 0 0 0 0 0 0 0 0 0 0 0 0 0 .4 0"/><feOffset dx="4.0" dy="4.0" in="blurOut2" result="blurOut3"/><feBlend in="SourceGraphic" in2="blurOut3" mode="normal"/></filter></defs><g><text fill="#888888" font-family="sans-serif" font-size="10" lengthAdjust="spacingAndGlyphs" textLength="40" x="261" y="9.2822">Schema</text><text fill="#000000" font-family="sans-serif" font-size="18" lengthAdjust="spacingAndGlyphs" textLength="69" x="116" y="28.3486">Gemma</text><!--MD5=[59659c5408b3ac47d3e8e832a7584965]
class Gemma--><rect fill="#FEFECE" filter="url(#f1xe192e2mtqar)" height="112.0234" id="Gemma" style="stroke: #A80036; stroke-width: 1.5;" width="199" x="51" y="39.5938"/><ellipse cx="122.75" cy="55.5938" fill="#ADD1B2" rx="11" ry="11" style="stroke: #A80036; stroke-width: 1.0;"/><path d="M125.7188,61.2344 Q125.1406,61.5313 124.5,61.6719 Q123.8594,61.8281 123.1563,61.8281 Q120.6563,61.8281 119.3281,60.1875 Q118.0156,58.5313 118.0156,55.4063 Q118.0156,52.2813 119.3281,50.625 Q120.6563,48.9688 123.1563,48.9688 Q123.8594,48.9688 124.5,49.125 Q125.1563,49.2813 125.7188,49.5781 L125.7188,52.2969 Q125.0938,51.7188 124.5,51.4531 Q123.9063,51.1719 123.2813,51.1719 Q121.9375,51.1719 121.25,52.25 Q120.5625,53.3125 120.5625,55.4063 Q120.5625,57.5 121.25,58.5781 Q121.9375,59.6406 123.2813,59.6406 Q123.9063,59.6406 124.5,59.375 Q125.0938,59.0938 125.7188,58.5156 L125.7188,61.2344 Z "/><text fill="#000000" font-family="sans-serif" font-size="12" lengthAdjust="spacingAndGlyphs" textLength="47" x="143.25" y="59.748">Gemma</text><line style="stroke: #A80036; stroke-width: 1.5;" x1="52" x2="249" y1="71.5938" y2="71.5938"/><ellipse cx="62" cy="82.5938" fill="none" rx="3" ry="3" style="stroke: #038048; stroke-width: 1.0;"/><text fill="#000000" font-family="sans-serif" font-size="11" lengthAdjust="spacingAndGlyphs" textLength="126" x="71" y="85.8042">bedrijfsfuncties: array</text><ellipse cx="62" cy="95.3984" fill="none" rx="3" ry="3" style="stroke: #038048; stroke-width: 1.0;"/><text fill="#000000" font-family="sans-serif" font-size="11" lengthAdjust="spacingAndGlyphs" textLength="129" x="71" y="98.6089">bedrijfsservices: array</text><ellipse cx="62" cy="108.2031" fill="none" rx="3" ry="3" style="stroke: #038048; stroke-width: 1.0;"/><text fill="#000000" font-family="sans-serif" font-size="11" lengthAdjust="spacingAndGlyphs" textLength="133" x="71" y="111.4136">applicatiefunctie: string</text><ellipse cx="62" cy="121.0078" fill="none" rx="3" ry="3" style="stroke: #038048; stroke-width: 1.0;"/><text fill="#000000" font-family="sans-serif" font-size="11" lengthAdjust="spacingAndGlyphs" textLength="76" x="71" y="124.2183">model: string</text><ellipse cx="62" cy="133.8125" fill="none" rx="3" ry="3" style="stroke: #038048; stroke-width: 1.0;"/><text fill="#000000" font-family="sans-serif" font-size="11" lengthAdjust="spacingAndGlyphs" textLength="173" x="71" y="137.0229">referentieComponenten: array</text><line style="stroke: #A80036; stroke-width: 1.5;" x1="52" x2="249" y1="143.6172" y2="143.6172"/><text fill="#888888" font-family="sans-serif" font-size="10" lengthAdjust="spacingAndGlyphs" textLength="301" x="0" y="167.8994">Common Gateway Plugin | Opencatalogi | Opencatalogibundle</text><!--MD5=[6a552d3abe99c982a4e1a71dc2c7fd42]
@startuml
title: Gemma
footer: Common Gateway Plugin | Opencatalogi | Opencatalogibundle 
header: Schema

class Gemma {
  + bedrijfsfuncties: array
  + bedrijfsservices: array
  + applicatiefunctie: string
  + model: string
  + referentieComponenten: array
}
@enduml

PlantUML version 1.2020.02(Sun Mar 01 10:22:07 UTC 2020)
(GPL source distribution)
Java Runtime: OpenJDK Runtime Environment
JVM: OpenJDK 64-Bit Server VM
Java Version: 11.0.20.1+1
Operating System: Linux
Default Encoding: UTF-8
Language: en
Country: null
--></g></svg>