<?xml version="1.0" encoding="us-ascii" standalone="no"?><svg xmlns="http://www.w3.org/2000/svg" xmlns:xlink="http://www.w3.org/1999/xlink" contentStyleType="text/css" height="213px" preserveAspectRatio="none" style="width:270px;height:213px;background:#FFFFFF;" version="1.1" viewBox="0 0 270 213" width="270px" zoomAndPan="magnify"><defs/><g><text fill="#888888" font-family="sans-serif" font-size="10" lengthAdjust="spacing" textLength="45" x="217" y="9.2822">Schema</text><text fill="#000000" font-family="sans-serif" font-size="14" font-weight="bold" lengthAdjust="spacing" textLength="61" x="100.5" y="35.6357">Gemma</text><!--class Gemma--><g id="elem_Gemma"><rect codeLine="5" fill="#F1F1F1" height="129.4844" id="Gemma" rx="2.5" ry="2.5" style="stroke:#181818;stroke-width:0.5;" width="249" x="7" y="56.9375"/><ellipse cx="99.25" cy="72.9375" fill="#ADD1B2" rx="11" ry="11" style="stroke:#181818;stroke-width:1.0;"/><path d="M101.5938,68.6094 C100.6563,68.1719 100.0625,68.0313 99.1875,68.0313 C96.5625,68.0313 94.5625,70.1094 94.5625,72.8281 L94.5625,73.9531 C94.5625,76.5313 96.6719,78.4219 99.5625,78.4219 C100.7813,78.4219 101.9375,78.125 102.6875,77.5781 C103.2656,77.1719 103.5938,76.7188 103.5938,76.3281 C103.5938,75.875 103.2031,75.4844 102.7344,75.4844 C102.5156,75.4844 102.3125,75.5625 102.125,75.75 C101.6719,76.2344 101.6719,76.2344 101.4844,76.3281 C101.0625,76.5938 100.375,76.7188 99.6094,76.7188 C97.5625,76.7188 96.2656,75.625 96.2656,73.9219 L96.2656,72.8281 C96.2656,71.0469 97.5156,69.7344 99.25,69.7344 C99.8281,69.7344 100.4375,69.8906 100.9063,70.1406 C101.3906,70.4219 101.5625,70.6406 101.6563,71.0469 C101.7188,71.4531 101.75,71.5781 101.8906,71.7031 C102.0313,71.8438 102.2656,71.9531 102.4844,71.9531 C102.75,71.9531 103.0156,71.8125 103.1875,71.5938 C103.2969,71.4375 103.3281,71.25 103.3281,70.8281 L103.3281,69.4063 C103.3281,68.9688 103.3125,68.8438 103.2188,68.6875 C103.0625,68.4219 102.7813,68.2813 102.4844,68.2813 C102.1875,68.2813 101.9844,68.375 101.7656,68.6875 L101.5938,68.6094 Z " fill="#000000"/><text fill="#000000" font-family="sans-serif" font-size="14" lengthAdjust="spacing" textLength="56" x="119.75" y="77.7842">Gemma</text><line style="stroke:#181818;stroke-width:0.5;" x1="8" x2="255" y1="88.9375" y2="88.9375"/><ellipse cx="18" cy="102.5859" fill="none" rx="3" ry="3" style="stroke:#038048;stroke-width:1.0;"/><text fill="#000000" font-family="sans-serif" font-size="14" lengthAdjust="spacing" textLength="158" x="27" y="105.9326">bedrijfsfuncties: array</text><ellipse cx="18" cy="118.8828" fill="none" rx="3" ry="3" style="stroke:#038048;stroke-width:1.0;"/><text fill="#000000" font-family="sans-serif" font-size="14" lengthAdjust="spacing" textLength="158" x="27" y="122.2295">bedrijfsservices: array</text><ellipse cx="18" cy="135.1797" fill="none" rx="3" ry="3" style="stroke:#038048;stroke-width:1.0;"/><text fill="#000000" font-family="sans-serif" font-size="14" lengthAdjust="spacing" textLength="174" x="27" y="138.5264">applicatiefunctie: string</text><ellipse cx="18" cy="151.4766" fill="none" rx="3" ry="3" style="stroke:#038048;stroke-width:1.0;"/><text fill="#000000" font-family="sans-serif" font-size="14" lengthAdjust="spacing" textLength="96" x="27" y="154.8232">model: string</text><ellipse cx="18" cy="167.7734" fill="none" rx="3" ry="3" style="stroke:#038048;stroke-width:1.0;"/><text fill="#000000" font-family="sans-serif" font-size="14" lengthAdjust="spacing" textLength="223" x="27" y="171.1201">referentieComponenten: array</text><line style="stroke:#181818;stroke-width:0.5;" x1="8" x2="255" y1="178.4219" y2="178.4219"/></g><text fill="#888888" font-family="sans-serif" font-size="10" lengthAdjust="spacing" textLength="137" x="62.5" y="202.7041">Common Gateway Plugin</text><!--SRC=[LOvB3i8m34JtEONtt21R5jqYSGAJJbgZnAcS55GXxaxuBRgpviqRkKbBy3GWPtQnb0RpT2mv5wM16-wyqIcjawYRmUERdiECNdOXSQrVanwEw40NZ2RNMEEgeGcg9pRZRSSgx2PXptXPaWJkoi_qL9k9JX-QouYqImmH1kt5_kbIj9_G_-3p1G00]--></g></svg>