<?xml version="1.0" encoding="us-ascii" standalone="no"?><svg xmlns="http://www.w3.org/2000/svg" xmlns:xlink="http://www.w3.org/1999/xlink" contentStyleType="text/css" height="147px" preserveAspectRatio="none" style="width:145px;height:147px;background:#FFFFFF;" version="1.1" viewBox="0 0 145 147" width="145px" zoomAndPan="magnify"><defs/><g><text fill="#888888" font-family="sans-serif" font-size="10" lengthAdjust="spacing" textLength="45" x="92" y="9.2822">Schema</text><text fill="#000000" font-family="sans-serif" font-size="14" font-weight="bold" lengthAdjust="spacing" textLength="100" x="18.5" y="35.6357">GithubEvent</text><!--class GithubEvent--><g id="elem_GithubEvent"><rect codeLine="5" fill="#F1F1F1" height="64.2969" id="GithubEvent" rx="2.5" ry="2.5" style="stroke:#181818;stroke-width:0.5;" width="124" x="7" y="56.9375"/><ellipse cx="22.45" cy="72.9375" fill="#ADD1B2" rx="11" ry="11" style="stroke:#181818;stroke-width:1.0;"/><path d="M24.7938,68.6094 C23.8563,68.1719 23.2625,68.0313 22.3875,68.0313 C19.7625,68.0313 17.7625,70.1094 17.7625,72.8281 L17.7625,73.9531 C17.7625,76.5313 19.8719,78.4219 22.7625,78.4219 C23.9813,78.4219 25.1375,78.125 25.8875,77.5781 C26.4656,77.1719 26.7938,76.7188 26.7938,76.3281 C26.7938,75.875 26.4031,75.4844 25.9344,75.4844 C25.7156,75.4844 25.5125,75.5625 25.325,75.75 C24.8719,76.2344 24.8719,76.2344 24.6844,76.3281 C24.2625,76.5938 23.575,76.7188 22.8094,76.7188 C20.7625,76.7188 19.4656,75.625 19.4656,73.9219 L19.4656,72.8281 C19.4656,71.0469 20.7156,69.7344 22.45,69.7344 C23.0281,69.7344 23.6375,69.8906 24.1063,70.1406 C24.5906,70.4219 24.7625,70.6406 24.8563,71.0469 C24.9188,71.4531 24.95,71.5781 25.0906,71.7031 C25.2313,71.8438 25.4656,71.9531 25.6844,71.9531 C25.95,71.9531 26.2156,71.8125 26.3875,71.5938 C26.4969,71.4375 26.5281,71.25 26.5281,70.8281 L26.5281,69.4063 C26.5281,68.9688 26.5125,68.8438 26.4188,68.6875 C26.2625,68.4219 25.9813,68.2813 25.6844,68.2813 C25.3875,68.2813 25.1844,68.375 24.9656,68.6875 L24.7938,68.6094 Z " fill="#000000"/><text fill="#000000" font-family="sans-serif" font-size="14" lengthAdjust="spacing" textLength="91" x="36.55" y="77.7842">GithubEvent</text><line style="stroke:#181818;stroke-width:0.5;" x1="8" x2="130" y1="88.9375" y2="88.9375"/><ellipse cx="18" cy="102.5859" fill="none" rx="3" ry="3" style="stroke:#038048;stroke-width:1.0;"/><text fill="#000000" font-family="sans-serif" font-size="14" lengthAdjust="spacing" textLength="98" x="27" y="105.9326">source: string</text><line style="stroke:#181818;stroke-width:0.5;" x1="8" x2="130" y1="113.2344" y2="113.2344"/></g><text fill="#888888" font-family="sans-serif" font-size="10" lengthAdjust="spacing" textLength="137" x="0" y="137.5166">Common Gateway Plugin</text><!--SRC=[JSmn2e0m343HFQV8xWswYdGLF46iqHRQ1jfK4V7kwkRyUL-3HZPeW_es3pjdXLL4kHZi9IN9Q4dve1F7sBQGmJCjNvsSvqG0BbAjVuyN87POfHNtdgkMa3Uu7m00]--></g></svg>