<?xml version="1.0" encoding="UTF-8" standalone="no"?><svg xmlns="http://www.w3.org/2000/svg" xmlns:xlink="http://www.w3.org/1999/xlink" contentScriptType="application/ecmascript" contentStyleType="text/css" height="130px" preserveAspectRatio="none" style="width:313px;height:130px;" version="1.1" viewBox="0 0 313 130" width="313px" zoomAndPan="magnify"><defs><filter height="300%" id="faotu08arx941" width="300%" x="-1" y="-1"><feGaussianBlur result="blurOut" stdDeviation="2.0"/><feColorMatrix in="blurOut" result="blurOut2" type="matrix" values="0 0 0 0 0 0 0 0 0 0 0 0 0 0 0 0 0 0 .4 0"/><feOffset dx="4.0" dy="4.0" in="blurOut2" result="blurOut3"/><feBlend in="SourceGraphic" in2="blurOut3" mode="normal"/></filter></defs><g><text fill="#888888" font-family="sans-serif" font-size="10" lengthAdjust="spacingAndGlyphs" textLength="40" x="261" y="9.2822">Schema</text><text fill="#000000" font-family="sans-serif" font-size="18" lengthAdjust="spacingAndGlyphs" textLength="110" x="95.5" y="28.3486">GithubEvent</text><!--MD5=[d4a0114cfda1fde4d1c8d777e9184f30]
class GithubEvent--><rect fill="#FEFECE" filter="url(#faotu08arx941)" height="60.8047" id="GithubEvent" style="stroke: #A80036; stroke-width: 1.5;" width="108" x="96.5" y="39.5938"/><ellipse cx="111.5" cy="55.5938" fill="#ADD1B2" rx="11" ry="11" style="stroke: #A80036; stroke-width: 1.0;"/><path d="M114.4688,61.2344 Q113.8906,61.5313 113.25,61.6719 Q112.6094,61.8281 111.9063,61.8281 Q109.4063,61.8281 108.0781,60.1875 Q106.7656,58.5313 106.7656,55.4063 Q106.7656,52.2813 108.0781,50.625 Q109.4063,48.9688 111.9063,48.9688 Q112.6094,48.9688 113.25,49.125 Q113.9063,49.2813 114.4688,49.5781 L114.4688,52.2969 Q113.8438,51.7188 113.25,51.4531 Q112.6563,51.1719 112.0313,51.1719 Q110.6875,51.1719 110,52.25 Q109.3125,53.3125 109.3125,55.4063 Q109.3125,57.5 110,58.5781 Q110.6875,59.6406 112.0313,59.6406 Q112.6563,59.6406 113.25,59.375 Q113.8438,59.0938 114.4688,58.5156 L114.4688,61.2344 Z "/><text fill="#000000" font-family="sans-serif" font-size="12" lengthAdjust="spacingAndGlyphs" textLength="76" x="125.5" y="59.748">GithubEvent</text><line style="stroke: #A80036; stroke-width: 1.5;" x1="97.5" x2="203.5" y1="71.5938" y2="71.5938"/><ellipse cx="107.5" cy="82.5938" fill="none" rx="3" ry="3" style="stroke: #038048; stroke-width: 1.0;"/><text fill="#000000" font-family="sans-serif" font-size="11" lengthAdjust="spacingAndGlyphs" textLength="80" x="116.5" y="85.8042">source: string</text><line style="stroke: #A80036; stroke-width: 1.5;" x1="97.5" x2="203.5" y1="92.3984" y2="92.3984"/><text fill="#888888" font-family="sans-serif" font-size="10" lengthAdjust="spacingAndGlyphs" textLength="301" x="0" y="116.6807">Common Gateway Plugin | Opencatalogi | Opencatalogibundle</text><!--MD5=[e8cc0f4482e9bfd5143438c923a20787]
@startuml
title: GithubEvent
footer: Common Gateway Plugin | Opencatalogi | Opencatalogibundle 
header: Schema

class GithubEvent {
  + source: string
}
@enduml

PlantUML version 1.2020.02(Sun Mar 01 10:22:07 UTC 2020)
(GPL source distribution)
Java Runtime: OpenJDK Runtime Environment
JVM: OpenJDK 64-Bit Server VM
Java Version: 11.0.20.1+1
Operating System: Linux
Default Encoding: UTF-8
Language: en
Country: null
--></g></svg>