<?xml version="1.0" encoding="UTF-8" standalone="no"?><svg xmlns="http://www.w3.org/2000/svg" xmlns:xlink="http://www.w3.org/1999/xlink" contentScriptType="application/ecmascript" contentStyleType="text/css" height="117px" preserveAspectRatio="none" style="width:156px;height:117px;" version="1.1" viewBox="0 0 156 117" width="156px" zoomAndPan="magnify"><defs><filter height="300%" id="fegokmlt471ql" width="300%" x="-1" y="-1"><feGaussianBlur result="blurOut" stdDeviation="2.0"/><feColorMatrix in="blurOut" result="blurOut2" type="matrix" values="0 0 0 0 0 0 0 0 0 0 0 0 0 0 0 0 0 0 .4 0"/><feOffset dx="4.0" dy="4.0" in="blurOut2" result="blurOut3"/><feBlend in="SourceGraphic" in2="blurOut3" mode="normal"/></filter></defs><g><!--MD5=[0e52e9688cc90300983c8cb354940feb]
class Installation--><rect fill="#FEFECE" filter="url(#fegokmlt471ql)" height="99.2188" id="Installation" style="stroke: #A80036; stroke-width: 1.5;" width="138" x="7" y="7"/><ellipse cx="38.65" cy="23" fill="#ADD1B2" rx="11" ry="11" style="stroke: #A80036; stroke-width: 1.0;"/><path d="M41.6188,28.6406 Q41.0406,28.9375 40.4,29.0781 Q39.7594,29.2344 39.0563,29.2344 Q36.5563,29.2344 35.2281,27.5938 Q33.9156,25.9375 33.9156,22.8125 Q33.9156,19.6875 35.2281,18.0313 Q36.5563,16.375 39.0563,16.375 Q39.7594,16.375 40.4,16.5313 Q41.0563,16.6875 41.6188,16.9844 L41.6188,19.7031 Q40.9938,19.125 40.4,18.8594 Q39.8063,18.5781 39.1813,18.5781 Q37.8375,18.5781 37.15,19.6563 Q36.4625,20.7188 36.4625,22.8125 Q36.4625,24.9063 37.15,25.9844 Q37.8375,27.0469 39.1813,27.0469 Q39.8063,27.0469 40.4,26.7813 Q40.9938,26.5 41.6188,25.9219 L41.6188,28.6406 Z "/><text fill="#000000" font-family="sans-serif" font-size="12" lengthAdjust="spacingAndGlyphs" textLength="69" x="56.35" y="27.1543">Installation</text><line style="stroke: #A80036; stroke-width: 1.5;" x1="8" x2="144" y1="39" y2="39"/><ellipse cx="18" cy="50" fill="none" rx="3" ry="3" style="stroke: #038048; stroke-width: 1.0;"/><text fill="#000000" font-family="sans-serif" font-size="11" lengthAdjust="spacingAndGlyphs" textLength="110" x="27" y="53.2104">organization: string</text><ellipse cx="18" cy="62.8047" fill="none" rx="3" ry="3" style="stroke: #038048; stroke-width: 1.0;"/><text fill="#000000" font-family="sans-serif" font-size="11" lengthAdjust="spacingAndGlyphs" textLength="104" x="27" y="66.0151">component: string</text><ellipse cx="18" cy="75.6094" fill="none" rx="3" ry="3" style="stroke: #038048; stroke-width: 1.0;"/><text fill="#000000" font-family="sans-serif" font-size="11" lengthAdjust="spacingAndGlyphs" textLength="83" x="27" y="78.8198">version: string</text><ellipse cx="18" cy="88.4141" fill="none" rx="3" ry="3" style="stroke: #038048; stroke-width: 1.0;"/><text fill="#000000" font-family="sans-serif" font-size="11" lengthAdjust="spacingAndGlyphs" textLength="112" x="27" y="91.6245">environment: string</text><line style="stroke: #A80036; stroke-width: 1.5;" x1="8" x2="144" y1="98.2188" y2="98.2188"/><!--MD5=[d6892b6453992364b2dc6db4668fb122]
@startuml
class Installation {
  + organization: string
  + component: string
  + version: string
  + environment: string
}
@enduml

PlantUML version 1.2020.02(Sun Mar 01 10:22:07 UTC 2020)
(GPL source distribution)
Java Runtime: OpenJDK Runtime Environment
JVM: OpenJDK 64-Bit Server VM
Java Version: 11.0.20.1+1
Operating System: Linux
Default Encoding: UTF-8
Language: en
Country: null
--></g></svg>