<?xml version="1.0" encoding="us-ascii" standalone="no"?><svg xmlns="http://www.w3.org/2000/svg" xmlns:xlink="http://www.w3.org/1999/xlink" contentStyleType="text/css" height="196px" preserveAspectRatio="none" style="width:191px;height:196px;background:#FFFFFF;" version="1.1" viewBox="0 0 191 196" width="191px" zoomAndPan="magnify"><defs/><g><text fill="#888888" font-family="sans-serif" font-size="10" lengthAdjust="spacing" textLength="45" x="138" y="9.2822">Schema</text><text fill="#000000" font-family="sans-serif" font-size="14" font-weight="bold" lengthAdjust="spacing" textLength="95" x="44" y="35.6357">Installation</text><!--class Installation--><g id="elem_Installation"><rect codeLine="5" fill="#F1F1F1" height="113.1875" id="Installation" rx="2.5" ry="2.5" style="stroke:#181818;stroke-width:0.5;" width="170" x="7" y="56.9375"/><ellipse cx="48.1" cy="72.9375" fill="#ADD1B2" rx="11" ry="11" style="stroke:#181818;stroke-width:1.0;"/><path d="M50.4438,68.6094 C49.5063,68.1719 48.9125,68.0313 48.0375,68.0313 C45.4125,68.0313 43.4125,70.1094 43.4125,72.8281 L43.4125,73.9531 C43.4125,76.5313 45.5219,78.4219 48.4125,78.4219 C49.6313,78.4219 50.7875,78.125 51.5375,77.5781 C52.1156,77.1719 52.4438,76.7188 52.4438,76.3281 C52.4438,75.875 52.0531,75.4844 51.5844,75.4844 C51.3656,75.4844 51.1625,75.5625 50.975,75.75 C50.5219,76.2344 50.5219,76.2344 50.3344,76.3281 C49.9125,76.5938 49.225,76.7188 48.4594,76.7188 C46.4125,76.7188 45.1156,75.625 45.1156,73.9219 L45.1156,72.8281 C45.1156,71.0469 46.3656,69.7344 48.1,69.7344 C48.6781,69.7344 49.2875,69.8906 49.7563,70.1406 C50.2406,70.4219 50.4125,70.6406 50.5063,71.0469 C50.5688,71.4531 50.6,71.5781 50.7406,71.7031 C50.8813,71.8438 51.1156,71.9531 51.3344,71.9531 C51.6,71.9531 51.8656,71.8125 52.0375,71.5938 C52.1469,71.4375 52.1781,71.25 52.1781,70.8281 L52.1781,69.4063 C52.1781,68.9688 52.1625,68.8438 52.0688,68.6875 C51.9125,68.4219 51.6313,68.2813 51.3344,68.2813 C51.0375,68.2813 50.8344,68.375 50.6156,68.6875 L50.4438,68.6094 Z " fill="#000000"/><text fill="#000000" font-family="sans-serif" font-size="14" lengthAdjust="spacing" textLength="80" x="67.9" y="77.7842">Installation</text><line style="stroke:#181818;stroke-width:0.5;" x1="8" x2="176" y1="88.9375" y2="88.9375"/><ellipse cx="18" cy="102.5859" fill="none" rx="3" ry="3" style="stroke:#038048;stroke-width:1.0;"/><text fill="#000000" font-family="sans-serif" font-size="14" lengthAdjust="spacing" textLength="141" x="27" y="105.9326">organization: string</text><ellipse cx="18" cy="118.8828" fill="none" rx="3" ry="3" style="stroke:#038048;stroke-width:1.0;"/><text fill="#000000" font-family="sans-serif" font-size="14" lengthAdjust="spacing" textLength="135" x="27" y="122.2295">component: string</text><ellipse cx="18" cy="135.1797" fill="none" rx="3" ry="3" style="stroke:#038048;stroke-width:1.0;"/><text fill="#000000" font-family="sans-serif" font-size="14" lengthAdjust="spacing" textLength="103" x="27" y="138.5264">version: string</text><ellipse cx="18" cy="151.4766" fill="none" rx="3" ry="3" style="stroke:#038048;stroke-width:1.0;"/><text fill="#000000" font-family="sans-serif" font-size="14" lengthAdjust="spacing" textLength="144" x="27" y="154.8232">environment: string</text><line style="stroke:#181818;stroke-width:0.5;" x1="8" x2="176" y1="162.125" y2="162.125"/></g><text fill="#888888" font-family="sans-serif" font-size="10" lengthAdjust="spacing" textLength="137" x="23" y="186.4072">Common Gateway Plugin</text><!--SRC=[NOmx2W91343xEKLwRp2jXTW9dY2CSJQGZsJYYeftNzpAjNtlyP9JgCBHHg889hkLgtjILDYxgXiSCEc1JpZ9lRELYV3ojUSsaM8fJN2CpG3U1M077XsDNokgC3BO-YgQwysDB3TqfXZ_9TdCuQQ_xMS1]--></g></svg>