<?xml version="1.0" encoding="UTF-8" standalone="no"?><svg xmlns="http://www.w3.org/2000/svg" xmlns:xlink="http://www.w3.org/1999/xlink" contentScriptType="application/ecmascript" contentStyleType="text/css" height="168px" preserveAspectRatio="none" style="width:313px;height:168px;" version="1.1" viewBox="0 0 313 168" width="313px" zoomAndPan="magnify"><defs><filter height="300%" id="fbqe3ijvdzi2c" width="300%" x="-1" y="-1"><feGaussianBlur result="blurOut" stdDeviation="2.0"/><feColorMatrix in="blurOut" result="blurOut2" type="matrix" values="0 0 0 0 0 0 0 0 0 0 0 0 0 0 0 0 0 0 .4 0"/><feOffset dx="4.0" dy="4.0" in="blurOut2" result="blurOut3"/><feBlend in="SourceGraphic" in2="blurOut3" mode="normal"/></filter></defs><g><text fill="#888888" font-family="sans-serif" font-size="10" lengthAdjust="spacingAndGlyphs" textLength="40" x="261" y="9.2822">Schema</text><text fill="#000000" font-family="sans-serif" font-size="18" lengthAdjust="spacingAndGlyphs" textLength="96" x="102.5" y="28.3486">Installation</text><!--MD5=[0e52e9688cc90300983c8cb354940feb]
class Installation--><rect fill="#FEFECE" filter="url(#fbqe3ijvdzi2c)" height="99.2188" id="Installation" style="stroke: #A80036; stroke-width: 1.5;" width="138" x="81.5" y="39.5938"/><ellipse cx="113.15" cy="55.5938" fill="#ADD1B2" rx="11" ry="11" style="stroke: #A80036; stroke-width: 1.0;"/><path d="M116.1188,61.2344 Q115.5406,61.5313 114.9,61.6719 Q114.2594,61.8281 113.5563,61.8281 Q111.0563,61.8281 109.7281,60.1875 Q108.4156,58.5313 108.4156,55.4063 Q108.4156,52.2813 109.7281,50.625 Q111.0563,48.9688 113.5563,48.9688 Q114.2594,48.9688 114.9,49.125 Q115.5563,49.2813 116.1188,49.5781 L116.1188,52.2969 Q115.4938,51.7188 114.9,51.4531 Q114.3063,51.1719 113.6813,51.1719 Q112.3375,51.1719 111.65,52.25 Q110.9625,53.3125 110.9625,55.4063 Q110.9625,57.5 111.65,58.5781 Q112.3375,59.6406 113.6813,59.6406 Q114.3063,59.6406 114.9,59.375 Q115.4938,59.0938 116.1188,58.5156 L116.1188,61.2344 Z "/><text fill="#000000" font-family="sans-serif" font-size="12" lengthAdjust="spacingAndGlyphs" textLength="69" x="130.85" y="59.748">Installation</text><line style="stroke: #A80036; stroke-width: 1.5;" x1="82.5" x2="218.5" y1="71.5938" y2="71.5938"/><ellipse cx="92.5" cy="82.5938" fill="none" rx="3" ry="3" style="stroke: #038048; stroke-width: 1.0;"/><text fill="#000000" font-family="sans-serif" font-size="11" lengthAdjust="spacingAndGlyphs" textLength="110" x="101.5" y="85.8042">organization: string</text><ellipse cx="92.5" cy="95.3984" fill="none" rx="3" ry="3" style="stroke: #038048; stroke-width: 1.0;"/><text fill="#000000" font-family="sans-serif" font-size="11" lengthAdjust="spacingAndGlyphs" textLength="104" x="101.5" y="98.6089">component: string</text><ellipse cx="92.5" cy="108.2031" fill="none" rx="3" ry="3" style="stroke: #038048; stroke-width: 1.0;"/><text fill="#000000" font-family="sans-serif" font-size="11" lengthAdjust="spacingAndGlyphs" textLength="83" x="101.5" y="111.4136">version: string</text><ellipse cx="92.5" cy="121.0078" fill="none" rx="3" ry="3" style="stroke: #038048; stroke-width: 1.0;"/><text fill="#000000" font-family="sans-serif" font-size="11" lengthAdjust="spacingAndGlyphs" textLength="112" x="101.5" y="124.2183">environment: string</text><line style="stroke: #A80036; stroke-width: 1.5;" x1="82.5" x2="218.5" y1="130.8125" y2="130.8125"/><text fill="#888888" font-family="sans-serif" font-size="10" lengthAdjust="spacingAndGlyphs" textLength="301" x="0" y="155.0947">Common Gateway Plugin | Opencatalogi | Opencatalogibundle</text><!--MD5=[6828d321043ce5dbcd969f4aeeae3c20]
@startuml
title: Installation
footer: Common Gateway Plugin | Opencatalogi | Opencatalogibundle 
header: Schema

class Installation {
  + organization: string
  + component: string
  + version: string
  + environment: string
}
@enduml

PlantUML version 1.2020.02(Sun Mar 01 10:22:07 UTC 2020)
(GPL source distribution)
Java Runtime: OpenJDK Runtime Environment
JVM: OpenJDK 64-Bit Server VM
Java Version: 11.0.20.1+1
Operating System: Linux
Default Encoding: UTF-8
Language: en
Country: null
--></g></svg>