<?xml version="1.0" encoding="us-ascii" standalone="no"?><svg xmlns="http://www.w3.org/2000/svg" xmlns:xlink="http://www.w3.org/1999/xlink" contentStyleType="text/css" height="180px" preserveAspectRatio="none" style="width:253px;height:180px;background:#FFFFFF;" version="1.1" viewBox="0 0 253 180" width="253px" zoomAndPan="magnify"><defs/><g><text fill="#888888" font-family="sans-serif" font-size="10" lengthAdjust="spacing" textLength="45" x="200" y="9.2822">Schema</text><text fill="#000000" font-family="sans-serif" font-size="14" font-weight="bold" lengthAdjust="spacing" textLength="144" x="50.5" y="35.6357">IntendedAudience</text><!--class IntendedAudience--><g id="elem_IntendedAudience"><rect codeLine="5" fill="#F1F1F1" height="96.8906" id="IntendedAudience" rx="2.5" ry="2.5" style="stroke:#181818;stroke-width:0.5;" width="232" x="7" y="56.9375"/><ellipse cx="53.25" cy="72.9375" fill="#ADD1B2" rx="11" ry="11" style="stroke:#181818;stroke-width:1.0;"/><path d="M55.5938,68.6094 C54.6563,68.1719 54.0625,68.0313 53.1875,68.0313 C50.5625,68.0313 48.5625,70.1094 48.5625,72.8281 L48.5625,73.9531 C48.5625,76.5313 50.6719,78.4219 53.5625,78.4219 C54.7813,78.4219 55.9375,78.125 56.6875,77.5781 C57.2656,77.1719 57.5938,76.7188 57.5938,76.3281 C57.5938,75.875 57.2031,75.4844 56.7344,75.4844 C56.5156,75.4844 56.3125,75.5625 56.125,75.75 C55.6719,76.2344 55.6719,76.2344 55.4844,76.3281 C55.0625,76.5938 54.375,76.7188 53.6094,76.7188 C51.5625,76.7188 50.2656,75.625 50.2656,73.9219 L50.2656,72.8281 C50.2656,71.0469 51.5156,69.7344 53.25,69.7344 C53.8281,69.7344 54.4375,69.8906 54.9063,70.1406 C55.3906,70.4219 55.5625,70.6406 55.6563,71.0469 C55.7188,71.4531 55.75,71.5781 55.8906,71.7031 C56.0313,71.8438 56.2656,71.9531 56.4844,71.9531 C56.75,71.9531 57.0156,71.8125 57.1875,71.5938 C57.2969,71.4375 57.3281,71.25 57.3281,70.8281 L57.3281,69.4063 C57.3281,68.9688 57.3125,68.8438 57.2188,68.6875 C57.0625,68.4219 56.7813,68.2813 56.4844,68.2813 C56.1875,68.2813 55.9844,68.375 55.7656,68.6875 L55.5938,68.6094 Z " fill="#000000"/><text fill="#000000" font-family="sans-serif" font-size="14" lengthAdjust="spacing" textLength="131" x="73.75" y="77.7842">IntendedAudience</text><line style="stroke:#181818;stroke-width:0.5;" x1="8" x2="238" y1="88.9375" y2="88.9375"/><ellipse cx="18" cy="102.5859" fill="none" rx="3" ry="3" style="stroke:#038048;stroke-width:1.0;"/><text fill="#000000" font-family="sans-serif" font-size="14" lengthAdjust="spacing" textLength="112" x="27" y="105.9326">countries: array</text><ellipse cx="18" cy="118.8828" fill="none" rx="3" ry="3" style="stroke:#038048;stroke-width:1.0;"/><text fill="#000000" font-family="sans-serif" font-size="14" lengthAdjust="spacing" textLength="206" x="27" y="122.2295">unsupportedCountries: array</text><ellipse cx="18" cy="135.1797" fill="none" rx="3" ry="3" style="stroke:#038048;stroke-width:1.0;"/><text fill="#000000" font-family="sans-serif" font-size="14" lengthAdjust="spacing" textLength="88" x="27" y="138.5264">scope: array</text><line style="stroke:#181818;stroke-width:0.5;" x1="8" x2="238" y1="145.8281" y2="145.8281"/></g><text fill="#888888" font-family="sans-serif" font-size="10" lengthAdjust="spacing" textLength="137" x="54" y="170.1104">Common Gateway Plugin</text><!--SRC=[RSmn2W8n44RXVaunlJT89rk8dU09XkHtDv3CX6I2BEBTHS5As_V1y-m5WS_gq8Hqd2b38-XcvkY15wlLb4_YkClEbpBNhBH1qbklSKCLebXaZ9y9FuZvmD6cUiyOWQLtsJznwfYjMNUavP-FQ0tVy7m1]--></g></svg>