<?xml version="1.0" encoding="UTF-8" standalone="no"?><svg xmlns="http://www.w3.org/2000/svg" xmlns:xlink="http://www.w3.org/1999/xlink" contentScriptType="application/ecmascript" contentStyleType="text/css" height="104px" preserveAspectRatio="none" style="width:209px;height:104px;" version="1.1" viewBox="0 0 209 104" width="209px" zoomAndPan="magnify"><defs><filter height="300%" id="fq6quov25j04h" width="300%" x="-1" y="-1"><feGaussianBlur result="blurOut" stdDeviation="2.0"/><feColorMatrix in="blurOut" result="blurOut2" type="matrix" values="0 0 0 0 0 0 0 0 0 0 0 0 0 0 0 0 0 0 .4 0"/><feOffset dx="4.0" dy="4.0" in="blurOut2" result="blurOut3"/><feBlend in="SourceGraphic" in2="blurOut3" mode="normal"/></filter></defs><g><!--MD5=[539e5a5b3c25e96748a72d84492de44e]
class IntendedAudience--><rect fill="#FEFECE" filter="url(#fq6quov25j04h)" height="86.4141" id="IntendedAudience" style="stroke: #A80036; stroke-width: 1.5;" width="191" x="7" y="7"/><ellipse cx="42.25" cy="23" fill="#ADD1B2" rx="11" ry="11" style="stroke: #A80036; stroke-width: 1.0;"/><path d="M45.2188,28.6406 Q44.6406,28.9375 44,29.0781 Q43.3594,29.2344 42.6563,29.2344 Q40.1563,29.2344 38.8281,27.5938 Q37.5156,25.9375 37.5156,22.8125 Q37.5156,19.6875 38.8281,18.0313 Q40.1563,16.375 42.6563,16.375 Q43.3594,16.375 44,16.5313 Q44.6563,16.6875 45.2188,16.9844 L45.2188,19.7031 Q44.5938,19.125 44,18.8594 Q43.4063,18.5781 42.7813,18.5781 Q41.4375,18.5781 40.75,19.6563 Q40.0625,20.7188 40.0625,22.8125 Q40.0625,24.9063 40.75,25.9844 Q41.4375,27.0469 42.7813,27.0469 Q43.4063,27.0469 44,26.7813 Q44.5938,26.5 45.2188,25.9219 L45.2188,28.6406 Z "/><text fill="#000000" font-family="sans-serif" font-size="12" lengthAdjust="spacingAndGlyphs" textLength="114" x="60.75" y="27.1543">IntendedAudience</text><line style="stroke: #A80036; stroke-width: 1.5;" x1="8" x2="197" y1="39" y2="39"/><ellipse cx="18" cy="50" fill="none" rx="3" ry="3" style="stroke: #038048; stroke-width: 1.0;"/><text fill="#000000" font-family="sans-serif" font-size="11" lengthAdjust="spacingAndGlyphs" textLength="91" x="27" y="53.2104">countries: array</text><ellipse cx="18" cy="62.8047" fill="none" rx="3" ry="3" style="stroke: #038048; stroke-width: 1.0;"/><text fill="#000000" font-family="sans-serif" font-size="11" lengthAdjust="spacingAndGlyphs" textLength="165" x="27" y="66.0151">unsupportedCountries: array</text><ellipse cx="18" cy="75.6094" fill="none" rx="3" ry="3" style="stroke: #038048; stroke-width: 1.0;"/><text fill="#000000" font-family="sans-serif" font-size="11" lengthAdjust="spacingAndGlyphs" textLength="72" x="27" y="78.8198">scope: array</text><line style="stroke: #A80036; stroke-width: 1.5;" x1="8" x2="197" y1="85.4141" y2="85.4141"/><!--MD5=[d44079b5ce4141b2b60e0c70d775c520]
@startuml
class IntendedAudience {
  + countries: array
  + unsupportedCountries: array
  + scope: array
}
@enduml

PlantUML version 1.2020.02(Sun Mar 01 10:22:07 UTC 2020)
(GPL source distribution)
Java Runtime: OpenJDK Runtime Environment
JVM: OpenJDK 64-Bit Server VM
Java Version: 11.0.20.1+1
Operating System: Linux
Default Encoding: UTF-8
Language: en
Country: null
--></g></svg>