<?xml version="1.0" encoding="us-ascii" standalone="no"?><svg xmlns="http://www.w3.org/2000/svg" xmlns:xlink="http://www.w3.org/1999/xlink" contentStyleType="text/css" height="180px" preserveAspectRatio="none" style="width:349px;height:180px;background:#FFFFFF;" version="1.1" viewBox="0 0 349 180" width="349px" zoomAndPan="magnify"><defs/><g><text fill="#888888" font-family="sans-serif" font-size="10" lengthAdjust="spacing" textLength="45" x="296" y="9.2822">Schema</text><text fill="#000000" font-family="sans-serif" font-size="14" font-weight="bold" lengthAdjust="spacing" textLength="144" x="98.5" y="35.6357">IntendedAudience</text><!--class IntendedAudience--><g id="elem_IntendedAudience"><rect codeLine="5" fill="#F1F1F1" height="96.8906" id="IntendedAudience" rx="2.5" ry="2.5" style="stroke:#181818;stroke-width:0.5;" width="232" x="55" y="56.9375"/><ellipse cx="101.25" cy="72.9375" fill="#ADD1B2" rx="11" ry="11" style="stroke:#181818;stroke-width:1.0;"/><path d="M103.5938,68.6094 C102.6563,68.1719 102.0625,68.0313 101.1875,68.0313 C98.5625,68.0313 96.5625,70.1094 96.5625,72.8281 L96.5625,73.9531 C96.5625,76.5313 98.6719,78.4219 101.5625,78.4219 C102.7813,78.4219 103.9375,78.125 104.6875,77.5781 C105.2656,77.1719 105.5938,76.7188 105.5938,76.3281 C105.5938,75.875 105.2031,75.4844 104.7344,75.4844 C104.5156,75.4844 104.3125,75.5625 104.125,75.75 C103.6719,76.2344 103.6719,76.2344 103.4844,76.3281 C103.0625,76.5938 102.375,76.7188 101.6094,76.7188 C99.5625,76.7188 98.2656,75.625 98.2656,73.9219 L98.2656,72.8281 C98.2656,71.0469 99.5156,69.7344 101.25,69.7344 C101.8281,69.7344 102.4375,69.8906 102.9063,70.1406 C103.3906,70.4219 103.5625,70.6406 103.6563,71.0469 C103.7188,71.4531 103.75,71.5781 103.8906,71.7031 C104.0313,71.8438 104.2656,71.9531 104.4844,71.9531 C104.75,71.9531 105.0156,71.8125 105.1875,71.5938 C105.2969,71.4375 105.3281,71.25 105.3281,70.8281 L105.3281,69.4063 C105.3281,68.9688 105.3125,68.8438 105.2188,68.6875 C105.0625,68.4219 104.7813,68.2813 104.4844,68.2813 C104.1875,68.2813 103.9844,68.375 103.7656,68.6875 L103.5938,68.6094 Z " fill="#000000"/><text fill="#000000" font-family="sans-serif" font-size="14" lengthAdjust="spacing" textLength="131" x="121.75" y="77.7842">IntendedAudience</text><line style="stroke:#181818;stroke-width:0.5;" x1="56" x2="286" y1="88.9375" y2="88.9375"/><ellipse cx="66" cy="102.5859" fill="none" rx="3" ry="3" style="stroke:#038048;stroke-width:1.0;"/><text fill="#000000" font-family="sans-serif" font-size="14" lengthAdjust="spacing" textLength="112" x="75" y="105.9326">countries: array</text><ellipse cx="66" cy="118.8828" fill="none" rx="3" ry="3" style="stroke:#038048;stroke-width:1.0;"/><text fill="#000000" font-family="sans-serif" font-size="14" lengthAdjust="spacing" textLength="206" x="75" y="122.2295">unsupportedCountries: array</text><ellipse cx="66" cy="135.1797" fill="none" rx="3" ry="3" style="stroke:#038048;stroke-width:1.0;"/><text fill="#000000" font-family="sans-serif" font-size="14" lengthAdjust="spacing" textLength="88" x="75" y="138.5264">scope: array</text><line style="stroke:#181818;stroke-width:0.5;" x1="56" x2="286" y1="145.8281" y2="145.8281"/></g><text fill="#888888" font-family="sans-serif" font-size="10" lengthAdjust="spacing" textLength="341" x="0" y="170.1104">Common Gateway Plugin | Opencatalogi | Opencatalogibundle</text><!--SRC=[ROqx3i8m44Hxds9xRk0EfK1K8762nHuIIywkPQ-5ei3T-KWqG3bldcOiMOQdlHWa8cvxJ900Tr4rL4-3phCAxTXmvOMEkOz9w4Q7yjJOEEkOlkAvIymWDu7ZQ-8K9ipiNCZSsiyJhOveGq6xM4redhXMNjwmI-kbQ3N4uL_VWXPymFq1]--></g></svg>