<?xml version="1.0" encoding="UTF-8" standalone="no"?><svg xmlns="http://www.w3.org/2000/svg" xmlns:xlink="http://www.w3.org/1999/xlink" contentScriptType="application/ecmascript" contentStyleType="text/css" height="155px" preserveAspectRatio="none" style="width:313px;height:155px;" version="1.1" viewBox="0 0 313 155" width="313px" zoomAndPan="magnify"><defs><filter height="300%" id="f11n9x11wpo877" width="300%" x="-1" y="-1"><feGaussianBlur result="blurOut" stdDeviation="2.0"/><feColorMatrix in="blurOut" result="blurOut2" type="matrix" values="0 0 0 0 0 0 0 0 0 0 0 0 0 0 0 0 0 0 .4 0"/><feOffset dx="4.0" dy="4.0" in="blurOut2" result="blurOut3"/><feBlend in="SourceGraphic" in2="blurOut3" mode="normal"/></filter></defs><g><text fill="#888888" font-family="sans-serif" font-size="10" lengthAdjust="spacingAndGlyphs" textLength="40" x="261" y="9.2822">Schema</text><text fill="#000000" font-family="sans-serif" font-size="18" lengthAdjust="spacingAndGlyphs" textLength="160" x="70.5" y="28.3486">IntendedAudience</text><!--MD5=[539e5a5b3c25e96748a72d84492de44e]
class IntendedAudience--><rect fill="#FEFECE" filter="url(#f11n9x11wpo877)" height="86.4141" id="IntendedAudience" style="stroke: #A80036; stroke-width: 1.5;" width="191" x="55" y="39.5938"/><ellipse cx="90.25" cy="55.5938" fill="#ADD1B2" rx="11" ry="11" style="stroke: #A80036; stroke-width: 1.0;"/><path d="M93.2188,61.2344 Q92.6406,61.5313 92,61.6719 Q91.3594,61.8281 90.6563,61.8281 Q88.1563,61.8281 86.8281,60.1875 Q85.5156,58.5313 85.5156,55.4063 Q85.5156,52.2813 86.8281,50.625 Q88.1563,48.9688 90.6563,48.9688 Q91.3594,48.9688 92,49.125 Q92.6563,49.2813 93.2188,49.5781 L93.2188,52.2969 Q92.5938,51.7188 92,51.4531 Q91.4063,51.1719 90.7813,51.1719 Q89.4375,51.1719 88.75,52.25 Q88.0625,53.3125 88.0625,55.4063 Q88.0625,57.5 88.75,58.5781 Q89.4375,59.6406 90.7813,59.6406 Q91.4063,59.6406 92,59.375 Q92.5938,59.0938 93.2188,58.5156 L93.2188,61.2344 Z "/><text fill="#000000" font-family="sans-serif" font-size="12" lengthAdjust="spacingAndGlyphs" textLength="114" x="108.75" y="59.748">IntendedAudience</text><line style="stroke: #A80036; stroke-width: 1.5;" x1="56" x2="245" y1="71.5938" y2="71.5938"/><ellipse cx="66" cy="82.5938" fill="none" rx="3" ry="3" style="stroke: #038048; stroke-width: 1.0;"/><text fill="#000000" font-family="sans-serif" font-size="11" lengthAdjust="spacingAndGlyphs" textLength="91" x="75" y="85.8042">countries: array</text><ellipse cx="66" cy="95.3984" fill="none" rx="3" ry="3" style="stroke: #038048; stroke-width: 1.0;"/><text fill="#000000" font-family="sans-serif" font-size="11" lengthAdjust="spacingAndGlyphs" textLength="165" x="75" y="98.6089">unsupportedCountries: array</text><ellipse cx="66" cy="108.2031" fill="none" rx="3" ry="3" style="stroke: #038048; stroke-width: 1.0;"/><text fill="#000000" font-family="sans-serif" font-size="11" lengthAdjust="spacingAndGlyphs" textLength="72" x="75" y="111.4136">scope: array</text><line style="stroke: #A80036; stroke-width: 1.5;" x1="56" x2="245" y1="118.0078" y2="118.0078"/><text fill="#888888" font-family="sans-serif" font-size="10" lengthAdjust="spacingAndGlyphs" textLength="301" x="0" y="142.29">Common Gateway Plugin | Opencatalogi | Opencatalogibundle</text><!--MD5=[359a6b6e0923411e766ab398deafe643]
@startuml
title: IntendedAudience
footer: Common Gateway Plugin | Opencatalogi | Opencatalogibundle 
header: Schema

class IntendedAudience {
  + countries: array
  + unsupportedCountries: array
  + scope: array
}
@enduml

PlantUML version 1.2020.02(Sun Mar 01 10:22:07 UTC 2020)
(GPL source distribution)
Java Runtime: OpenJDK Runtime Environment
JVM: OpenJDK 64-Bit Server VM
Java Version: 11.0.20.1+1
Operating System: Linux
Default Encoding: UTF-8
Language: en
Country: null
--></g></svg>