<?xml version="1.0" encoding="UTF-8" standalone="no"?><svg xmlns="http://www.w3.org/2000/svg" xmlns:xlink="http://www.w3.org/1999/xlink" contentScriptType="application/ecmascript" contentStyleType="text/css" height="117px" preserveAspectRatio="none" style="width:191px;height:117px;" version="1.1" viewBox="0 0 191 117" width="191px" zoomAndPan="magnify"><defs><filter height="300%" id="f13z1v2p3dn2o0" width="300%" x="-1" y="-1"><feGaussianBlur result="blurOut" stdDeviation="2.0"/><feColorMatrix in="blurOut" result="blurOut2" type="matrix" values="0 0 0 0 0 0 0 0 0 0 0 0 0 0 0 0 0 0 .4 0"/><feOffset dx="4.0" dy="4.0" in="blurOut2" result="blurOut3"/><feBlend in="SourceGraphic" in2="blurOut3" mode="normal"/></filter></defs><g><!--MD5=[8d7da490062e4024d56bafdc45c0d366]
class Legal--><rect fill="#FEFECE" filter="url(#f13z1v2p3dn2o0)" height="99.2188" id="Legal" style="stroke: #A80036; stroke-width: 1.5;" width="173" x="7" y="7"/><ellipse cx="72.75" cy="23" fill="#ADD1B2" rx="11" ry="11" style="stroke: #A80036; stroke-width: 1.0;"/><path d="M75.7188,28.6406 Q75.1406,28.9375 74.5,29.0781 Q73.8594,29.2344 73.1563,29.2344 Q70.6563,29.2344 69.3281,27.5938 Q68.0156,25.9375 68.0156,22.8125 Q68.0156,19.6875 69.3281,18.0313 Q70.6563,16.375 73.1563,16.375 Q73.8594,16.375 74.5,16.5313 Q75.1563,16.6875 75.7188,16.9844 L75.7188,19.7031 Q75.0938,19.125 74.5,18.8594 Q73.9063,18.5781 73.2813,18.5781 Q71.9375,18.5781 71.25,19.6563 Q70.5625,20.7188 70.5625,22.8125 Q70.5625,24.9063 71.25,25.9844 Q71.9375,27.0469 73.2813,27.0469 Q73.9063,27.0469 74.5,26.7813 Q75.0938,26.5 75.7188,25.9219 L75.7188,28.6406 Z "/><text fill="#000000" font-family="sans-serif" font-size="12" lengthAdjust="spacingAndGlyphs" textLength="33" x="93.25" y="27.1543">Legal</text><line style="stroke: #A80036; stroke-width: 1.5;" x1="8" x2="179" y1="39" y2="39"/><ellipse cx="18" cy="50" fill="none" rx="3" ry="3" style="stroke: #038048; stroke-width: 1.0;"/><text fill="#000000" font-family="sans-serif" font-size="11" lengthAdjust="spacingAndGlyphs" textLength="81" x="27" y="53.2104">license: string</text><ellipse cx="18" cy="62.8047" fill="none" rx="3" ry="3" style="stroke: #038048; stroke-width: 1.0;"/><text fill="#000000" font-family="sans-serif" font-size="11" lengthAdjust="spacingAndGlyphs" textLength="147" x="27" y="66.0151">mainCopyrightOwner: Any</text><ellipse cx="18" cy="75.6094" fill="none" rx="3" ry="3" style="stroke: #038048; stroke-width: 1.0;"/><text fill="#000000" font-family="sans-serif" font-size="11" lengthAdjust="spacingAndGlyphs" textLength="91" x="27" y="78.8198">repoOwner: Any</text><ellipse cx="18" cy="88.4141" fill="none" rx="3" ry="3" style="stroke: #038048; stroke-width: 1.0;"/><text fill="#000000" font-family="sans-serif" font-size="11" lengthAdjust="spacingAndGlyphs" textLength="104" x="27" y="91.6245">authorsFile: string</text><line style="stroke: #A80036; stroke-width: 1.5;" x1="8" x2="179" y1="98.2188" y2="98.2188"/><!--MD5=[fddba2c1b86ca3e1e05b9f427a248a66]
@startuml
class Legal {
  + license: string
  + mainCopyrightOwner: Any
  + repoOwner: Any
  + authorsFile: string
}
@enduml

PlantUML version 1.2020.02(Sun Mar 01 10:22:07 UTC 2020)
(GPL source distribution)
Java Runtime: OpenJDK Runtime Environment
JVM: OpenJDK 64-Bit Server VM
Java Version: 11.0.20.1+1
Operating System: Linux
Default Encoding: UTF-8
Language: en
Country: null
--></g></svg>