<?xml version="1.0" encoding="UTF-8" standalone="no"?><svg xmlns="http://www.w3.org/2000/svg" xmlns:xlink="http://www.w3.org/1999/xlink" contentScriptType="application/ecmascript" contentStyleType="text/css" height="168px" preserveAspectRatio="none" style="width:313px;height:168px;" version="1.1" viewBox="0 0 313 168" width="313px" zoomAndPan="magnify"><defs><filter height="300%" id="f132mruryblvz2" width="300%" x="-1" y="-1"><feGaussianBlur result="blurOut" stdDeviation="2.0"/><feColorMatrix in="blurOut" result="blurOut2" type="matrix" values="0 0 0 0 0 0 0 0 0 0 0 0 0 0 0 0 0 0 .4 0"/><feOffset dx="4.0" dy="4.0" in="blurOut2" result="blurOut3"/><feBlend in="SourceGraphic" in2="blurOut3" mode="normal"/></filter></defs><g><text fill="#888888" font-family="sans-serif" font-size="10" lengthAdjust="spacingAndGlyphs" textLength="40" x="261" y="9.2822">Schema</text><text fill="#000000" font-family="sans-serif" font-size="18" lengthAdjust="spacingAndGlyphs" textLength="47" x="127" y="28.3486">Legal</text><!--MD5=[8d7da490062e4024d56bafdc45c0d366]
class Legal--><rect fill="#FEFECE" filter="url(#f132mruryblvz2)" height="99.2188" id="Legal" style="stroke: #A80036; stroke-width: 1.5;" width="173" x="64" y="39.5938"/><ellipse cx="129.75" cy="55.5938" fill="#ADD1B2" rx="11" ry="11" style="stroke: #A80036; stroke-width: 1.0;"/><path d="M132.7188,61.2344 Q132.1406,61.5313 131.5,61.6719 Q130.8594,61.8281 130.1563,61.8281 Q127.6563,61.8281 126.3281,60.1875 Q125.0156,58.5313 125.0156,55.4063 Q125.0156,52.2813 126.3281,50.625 Q127.6563,48.9688 130.1563,48.9688 Q130.8594,48.9688 131.5,49.125 Q132.1563,49.2813 132.7188,49.5781 L132.7188,52.2969 Q132.0938,51.7188 131.5,51.4531 Q130.9063,51.1719 130.2813,51.1719 Q128.9375,51.1719 128.25,52.25 Q127.5625,53.3125 127.5625,55.4063 Q127.5625,57.5 128.25,58.5781 Q128.9375,59.6406 130.2813,59.6406 Q130.9063,59.6406 131.5,59.375 Q132.0938,59.0938 132.7188,58.5156 L132.7188,61.2344 Z "/><text fill="#000000" font-family="sans-serif" font-size="12" lengthAdjust="spacingAndGlyphs" textLength="33" x="150.25" y="59.748">Legal</text><line style="stroke: #A80036; stroke-width: 1.5;" x1="65" x2="236" y1="71.5938" y2="71.5938"/><ellipse cx="75" cy="82.5938" fill="none" rx="3" ry="3" style="stroke: #038048; stroke-width: 1.0;"/><text fill="#000000" font-family="sans-serif" font-size="11" lengthAdjust="spacingAndGlyphs" textLength="81" x="84" y="85.8042">license: string</text><ellipse cx="75" cy="95.3984" fill="none" rx="3" ry="3" style="stroke: #038048; stroke-width: 1.0;"/><text fill="#000000" font-family="sans-serif" font-size="11" lengthAdjust="spacingAndGlyphs" textLength="147" x="84" y="98.6089">mainCopyrightOwner: Any</text><ellipse cx="75" cy="108.2031" fill="none" rx="3" ry="3" style="stroke: #038048; stroke-width: 1.0;"/><text fill="#000000" font-family="sans-serif" font-size="11" lengthAdjust="spacingAndGlyphs" textLength="91" x="84" y="111.4136">repoOwner: Any</text><ellipse cx="75" cy="121.0078" fill="none" rx="3" ry="3" style="stroke: #038048; stroke-width: 1.0;"/><text fill="#000000" font-family="sans-serif" font-size="11" lengthAdjust="spacingAndGlyphs" textLength="104" x="84" y="124.2183">authorsFile: string</text><line style="stroke: #A80036; stroke-width: 1.5;" x1="65" x2="236" y1="130.8125" y2="130.8125"/><text fill="#888888" font-family="sans-serif" font-size="10" lengthAdjust="spacingAndGlyphs" textLength="301" x="0" y="155.0947">Common Gateway Plugin | Opencatalogi | Opencatalogibundle</text><!--MD5=[c510d46cc14347c3567bf3fc1441ca33]
@startuml
title: Legal
footer: Common Gateway Plugin | Opencatalogi | Opencatalogibundle 
header: Schema

class Legal {
  + license: string
  + mainCopyrightOwner: Any
  + repoOwner: Any
  + authorsFile: string
}
@enduml

PlantUML version 1.2020.02(Sun Mar 01 10:22:07 UTC 2020)
(GPL source distribution)
Java Runtime: OpenJDK Runtime Environment
JVM: OpenJDK 64-Bit Server VM
Java Version: 11.0.20.1+1
Operating System: Linux
Default Encoding: UTF-8
Language: en
Country: null
--></g></svg>