<?xml version="1.0" encoding="us-ascii" standalone="no"?><svg xmlns="http://www.w3.org/2000/svg" xmlns:xlink="http://www.w3.org/1999/xlink" contentStyleType="text/css" height="196px" preserveAspectRatio="none" style="width:349px;height:196px;background:#FFFFFF;" version="1.1" viewBox="0 0 349 196" width="349px" zoomAndPan="magnify"><defs/><g><text fill="#888888" font-family="sans-serif" font-size="10" lengthAdjust="spacing" textLength="45" x="296" y="9.2822">Schema</text><text fill="#000000" font-family="sans-serif" font-size="14" font-weight="bold" lengthAdjust="spacing" textLength="43" x="149" y="35.6357">Legal</text><!--class Legal--><g id="elem_Legal"><rect codeLine="5" fill="#F1F1F1" height="113.1875" id="Legal" rx="2.5" ry="2.5" style="stroke:#181818;stroke-width:0.5;" width="215" x="63.5" y="56.9375"/><ellipse cx="147.75" cy="72.9375" fill="#ADD1B2" rx="11" ry="11" style="stroke:#181818;stroke-width:1.0;"/><path d="M150.0938,68.6094 C149.1563,68.1719 148.5625,68.0313 147.6875,68.0313 C145.0625,68.0313 143.0625,70.1094 143.0625,72.8281 L143.0625,73.9531 C143.0625,76.5313 145.1719,78.4219 148.0625,78.4219 C149.2813,78.4219 150.4375,78.125 151.1875,77.5781 C151.7656,77.1719 152.0938,76.7188 152.0938,76.3281 C152.0938,75.875 151.7031,75.4844 151.2344,75.4844 C151.0156,75.4844 150.8125,75.5625 150.625,75.75 C150.1719,76.2344 150.1719,76.2344 149.9844,76.3281 C149.5625,76.5938 148.875,76.7188 148.1094,76.7188 C146.0625,76.7188 144.7656,75.625 144.7656,73.9219 L144.7656,72.8281 C144.7656,71.0469 146.0156,69.7344 147.75,69.7344 C148.3281,69.7344 148.9375,69.8906 149.4063,70.1406 C149.8906,70.4219 150.0625,70.6406 150.1563,71.0469 C150.2188,71.4531 150.25,71.5781 150.3906,71.7031 C150.5313,71.8438 150.7656,71.9531 150.9844,71.9531 C151.25,71.9531 151.5156,71.8125 151.6875,71.5938 C151.7969,71.4375 151.8281,71.25 151.8281,70.8281 L151.8281,69.4063 C151.8281,68.9688 151.8125,68.8438 151.7188,68.6875 C151.5625,68.4219 151.2813,68.2813 150.9844,68.2813 C150.6875,68.2813 150.4844,68.375 150.2656,68.6875 L150.0938,68.6094 Z " fill="#000000"/><text fill="#000000" font-family="sans-serif" font-size="14" lengthAdjust="spacing" textLength="38" x="168.25" y="77.7842">Legal</text><line style="stroke:#181818;stroke-width:0.5;" x1="64.5" x2="277.5" y1="88.9375" y2="88.9375"/><ellipse cx="74.5" cy="102.5859" fill="none" rx="3" ry="3" style="stroke:#038048;stroke-width:1.0;"/><text fill="#000000" font-family="sans-serif" font-size="14" lengthAdjust="spacing" textLength="101" x="83.5" y="105.9326">license: string</text><ellipse cx="74.5" cy="118.8828" fill="none" rx="3" ry="3" style="stroke:#038048;stroke-width:1.0;"/><text fill="#000000" font-family="sans-serif" font-size="14" lengthAdjust="spacing" textLength="189" x="83.5" y="122.2295">mainCopyrightOwner: Any</text><ellipse cx="74.5" cy="135.1797" fill="none" rx="3" ry="3" style="stroke:#038048;stroke-width:1.0;"/><text fill="#000000" font-family="sans-serif" font-size="14" lengthAdjust="spacing" textLength="116" x="83.5" y="138.5264">repoOwner: Any</text><ellipse cx="74.5" cy="151.4766" fill="none" rx="3" ry="3" style="stroke:#038048;stroke-width:1.0;"/><text fill="#000000" font-family="sans-serif" font-size="14" lengthAdjust="spacing" textLength="130" x="83.5" y="154.8232">authorsFile: string</text><line style="stroke:#181818;stroke-width:0.5;" x1="64.5" x2="277.5" y1="162.125" y2="162.125"/></g><text fill="#888888" font-family="sans-serif" font-size="10" lengthAdjust="spacing" textLength="341" x="0" y="186.4072">Common Gateway Plugin | Opencatalogi | Opencatalogibundle</text><!--SRC=[NSr12i9030NG_PmYUs_GdHHq8rJm174Qfu5CKcPIIb7lhgqBeSl_Fxplx48DN2YXX8UPKscWjPnDuOnECovmbIcnmWkwaJIYerZYNRnFsWj160ZxbRZ5WJA640Lh_V7m300748wazVjPlR2chSl8sjgu54w3TxEkmb6NRIiqsgx2oGShzSJoPzuV]--></g></svg>