<?xml version="1.0" encoding="us-ascii" standalone="no"?><svg xmlns="http://www.w3.org/2000/svg" xmlns:xlink="http://www.w3.org/1999/xlink" contentStyleType="text/css" height="196px" preserveAspectRatio="none" style="width:236px;height:196px;background:#FFFFFF;" version="1.1" viewBox="0 0 236 196" width="236px" zoomAndPan="magnify"><defs/><g><text fill="#888888" font-family="sans-serif" font-size="10" lengthAdjust="spacing" textLength="45" x="183" y="9.2822">Schema</text><text fill="#000000" font-family="sans-serif" font-size="14" font-weight="bold" lengthAdjust="spacing" textLength="43" x="92.5" y="35.6357">Legal</text><!--class Legal--><g id="elem_Legal"><rect codeLine="5" fill="#F1F1F1" height="113.1875" id="Legal" rx="2.5" ry="2.5" style="stroke:#181818;stroke-width:0.5;" width="215" x="7" y="56.9375"/><ellipse cx="91.25" cy="72.9375" fill="#ADD1B2" rx="11" ry="11" style="stroke:#181818;stroke-width:1.0;"/><path d="M93.5938,68.6094 C92.6563,68.1719 92.0625,68.0313 91.1875,68.0313 C88.5625,68.0313 86.5625,70.1094 86.5625,72.8281 L86.5625,73.9531 C86.5625,76.5313 88.6719,78.4219 91.5625,78.4219 C92.7813,78.4219 93.9375,78.125 94.6875,77.5781 C95.2656,77.1719 95.5938,76.7188 95.5938,76.3281 C95.5938,75.875 95.2031,75.4844 94.7344,75.4844 C94.5156,75.4844 94.3125,75.5625 94.125,75.75 C93.6719,76.2344 93.6719,76.2344 93.4844,76.3281 C93.0625,76.5938 92.375,76.7188 91.6094,76.7188 C89.5625,76.7188 88.2656,75.625 88.2656,73.9219 L88.2656,72.8281 C88.2656,71.0469 89.5156,69.7344 91.25,69.7344 C91.8281,69.7344 92.4375,69.8906 92.9063,70.1406 C93.3906,70.4219 93.5625,70.6406 93.6563,71.0469 C93.7188,71.4531 93.75,71.5781 93.8906,71.7031 C94.0313,71.8438 94.2656,71.9531 94.4844,71.9531 C94.75,71.9531 95.0156,71.8125 95.1875,71.5938 C95.2969,71.4375 95.3281,71.25 95.3281,70.8281 L95.3281,69.4063 C95.3281,68.9688 95.3125,68.8438 95.2188,68.6875 C95.0625,68.4219 94.7813,68.2813 94.4844,68.2813 C94.1875,68.2813 93.9844,68.375 93.7656,68.6875 L93.5938,68.6094 Z " fill="#000000"/><text fill="#000000" font-family="sans-serif" font-size="14" lengthAdjust="spacing" textLength="38" x="111.75" y="77.7842">Legal</text><line style="stroke:#181818;stroke-width:0.5;" x1="8" x2="221" y1="88.9375" y2="88.9375"/><ellipse cx="18" cy="102.5859" fill="none" rx="3" ry="3" style="stroke:#038048;stroke-width:1.0;"/><text fill="#000000" font-family="sans-serif" font-size="14" lengthAdjust="spacing" textLength="101" x="27" y="105.9326">license: string</text><ellipse cx="18" cy="118.8828" fill="none" rx="3" ry="3" style="stroke:#038048;stroke-width:1.0;"/><text fill="#000000" font-family="sans-serif" font-size="14" lengthAdjust="spacing" textLength="189" x="27" y="122.2295">mainCopyrightOwner: Any</text><ellipse cx="18" cy="135.1797" fill="none" rx="3" ry="3" style="stroke:#038048;stroke-width:1.0;"/><text fill="#000000" font-family="sans-serif" font-size="14" lengthAdjust="spacing" textLength="116" x="27" y="138.5264">repoOwner: Any</text><ellipse cx="18" cy="151.4766" fill="none" rx="3" ry="3" style="stroke:#038048;stroke-width:1.0;"/><text fill="#000000" font-family="sans-serif" font-size="14" lengthAdjust="spacing" textLength="130" x="27" y="154.8232">authorsFile: string</text><line style="stroke:#181818;stroke-width:0.5;" x1="8" x2="221" y1="162.125" y2="162.125"/></g><text fill="#888888" font-family="sans-serif" font-size="10" lengthAdjust="spacing" textLength="137" x="45.5" y="186.4072">Common Gateway Plugin</text><!--SRC=[NOn12i8m403lUSNU_K5lKj2BeE0BbhWc2vlTacmfeVXtRJq8NcUOSNQX0IwKKCBJpAaEC5effd16fmKxt6HEh24JFZPxZvaAXX05M_kMi0Q00mX7qlRPDQ-iQMS5MKURUkMK_RheTZXgtrsboVuGpfwjjXFBR_Dw0m00]--></g></svg>