<?xml version="1.0" encoding="us-ascii" standalone="no"?><svg xmlns="http://www.w3.org/2000/svg" xmlns:xlink="http://www.w3.org/1999/xlink" contentStyleType="text/css" height="164px" preserveAspectRatio="none" style="width:239px;height:164px;background:#FFFFFF;" version="1.1" viewBox="0 0 239 164" width="239px" zoomAndPan="magnify"><defs/><g><text fill="#888888" font-family="sans-serif" font-size="10" lengthAdjust="spacing" textLength="45" x="186" y="9.2822">Schema</text><text fill="#000000" font-family="sans-serif" font-size="14" font-weight="bold" lengthAdjust="spacing" textLength="100" x="65.5" y="35.6357">Localisation</text><!--class Localisation--><g id="elem_Localisation"><rect codeLine="5" fill="#F1F1F1" height="80.5938" id="Localisation" rx="2.5" ry="2.5" style="stroke:#181818;stroke-width:0.5;" width="218" x="7" y="56.9375"/><ellipse cx="69.25" cy="72.9375" fill="#ADD1B2" rx="11" ry="11" style="stroke:#181818;stroke-width:1.0;"/><path d="M71.5938,68.6094 C70.6563,68.1719 70.0625,68.0313 69.1875,68.0313 C66.5625,68.0313 64.5625,70.1094 64.5625,72.8281 L64.5625,73.9531 C64.5625,76.5313 66.6719,78.4219 69.5625,78.4219 C70.7813,78.4219 71.9375,78.125 72.6875,77.5781 C73.2656,77.1719 73.5938,76.7188 73.5938,76.3281 C73.5938,75.875 73.2031,75.4844 72.7344,75.4844 C72.5156,75.4844 72.3125,75.5625 72.125,75.75 C71.6719,76.2344 71.6719,76.2344 71.4844,76.3281 C71.0625,76.5938 70.375,76.7188 69.6094,76.7188 C67.5625,76.7188 66.2656,75.625 66.2656,73.9219 L66.2656,72.8281 C66.2656,71.0469 67.5156,69.7344 69.25,69.7344 C69.8281,69.7344 70.4375,69.8906 70.9063,70.1406 C71.3906,70.4219 71.5625,70.6406 71.6563,71.0469 C71.7188,71.4531 71.75,71.5781 71.8906,71.7031 C72.0313,71.8438 72.2656,71.9531 72.4844,71.9531 C72.75,71.9531 73.0156,71.8125 73.1875,71.5938 C73.2969,71.4375 73.3281,71.25 73.3281,70.8281 L73.3281,69.4063 C73.3281,68.9688 73.3125,68.8438 73.2188,68.6875 C73.0625,68.4219 72.7813,68.2813 72.4844,68.2813 C72.1875,68.2813 71.9844,68.375 71.7656,68.6875 L71.5938,68.6094 Z " fill="#000000"/><text fill="#000000" font-family="sans-serif" font-size="14" lengthAdjust="spacing" textLength="85" x="89.75" y="77.7842">Localisation</text><line style="stroke:#181818;stroke-width:0.5;" x1="8" x2="224" y1="88.9375" y2="88.9375"/><ellipse cx="18" cy="102.5859" fill="none" rx="3" ry="3" style="stroke:#038048;stroke-width:1.0;"/><text fill="#000000" font-family="sans-serif" font-size="14" lengthAdjust="spacing" textLength="192" x="27" y="105.9326">localisationReady: boolean</text><ellipse cx="18" cy="118.8828" fill="none" rx="3" ry="3" style="stroke:#038048;stroke-width:1.0;"/><text fill="#000000" font-family="sans-serif" font-size="14" lengthAdjust="spacing" textLength="183" x="27" y="122.2295">availableLanguages: array</text><line style="stroke:#181818;stroke-width:0.5;" x1="8" x2="224" y1="129.5313" y2="129.5313"/></g><text fill="#888888" font-family="sans-serif" font-size="10" lengthAdjust="spacing" textLength="137" x="47" y="153.8135">Common Gateway Plugin</text><!--SRC=[LOmx3W8n30Lxdy8zDqXBGRC5WXEy3IORoOcbn0kAqDwTJyMsCvhnx2g19ulGtE7PAjtDN5hWevLYbKzmUMBmMTUKAos2szTUuo85H57H-sx0Bs8-iFwXooSQWMSp5TIVnWDPCQjCg6b5aXuOhM7GzWO0]--></g></svg>