<?xml version="1.0" encoding="UTF-8" standalone="no"?><svg xmlns="http://www.w3.org/2000/svg" xmlns:xlink="http://www.w3.org/1999/xlink" contentScriptType="application/ecmascript" contentStyleType="text/css" height="142px" preserveAspectRatio="none" style="width:313px;height:142px;" version="1.1" viewBox="0 0 313 142" width="313px" zoomAndPan="magnify"><defs><filter height="300%" id="fla5jzl1be5z1" width="300%" x="-1" y="-1"><feGaussianBlur result="blurOut" stdDeviation="2.0"/><feColorMatrix in="blurOut" result="blurOut2" type="matrix" values="0 0 0 0 0 0 0 0 0 0 0 0 0 0 0 0 0 0 .4 0"/><feOffset dx="4.0" dy="4.0" in="blurOut2" result="blurOut3"/><feBlend in="SourceGraphic" in2="blurOut3" mode="normal"/></filter></defs><g><text fill="#888888" font-family="sans-serif" font-size="10" lengthAdjust="spacingAndGlyphs" textLength="40" x="261" y="9.2822">Schema</text><text fill="#000000" font-family="sans-serif" font-size="18" lengthAdjust="spacingAndGlyphs" textLength="102" x="99.5" y="28.3486">Localisation</text><!--MD5=[900fa6024050920a1238f52169ef2fe7]
class Localisation--><rect fill="#FEFECE" filter="url(#fla5jzl1be5z1)" height="73.6094" id="Localisation" style="stroke: #A80036; stroke-width: 1.5;" width="177" x="62" y="39.5938"/><ellipse cx="109.25" cy="55.5938" fill="#ADD1B2" rx="11" ry="11" style="stroke: #A80036; stroke-width: 1.0;"/><path d="M112.2188,61.2344 Q111.6406,61.5313 111,61.6719 Q110.3594,61.8281 109.6563,61.8281 Q107.1563,61.8281 105.8281,60.1875 Q104.5156,58.5313 104.5156,55.4063 Q104.5156,52.2813 105.8281,50.625 Q107.1563,48.9688 109.6563,48.9688 Q110.3594,48.9688 111,49.125 Q111.6563,49.2813 112.2188,49.5781 L112.2188,52.2969 Q111.5938,51.7188 111,51.4531 Q110.4063,51.1719 109.7813,51.1719 Q108.4375,51.1719 107.75,52.25 Q107.0625,53.3125 107.0625,55.4063 Q107.0625,57.5 107.75,58.5781 Q108.4375,59.6406 109.7813,59.6406 Q110.4063,59.6406 111,59.375 Q111.5938,59.0938 112.2188,58.5156 L112.2188,61.2344 Z "/><text fill="#000000" font-family="sans-serif" font-size="12" lengthAdjust="spacingAndGlyphs" textLength="74" x="129.75" y="59.748">Localisation</text><line style="stroke: #A80036; stroke-width: 1.5;" x1="63" x2="238" y1="71.5938" y2="71.5938"/><ellipse cx="73" cy="82.5938" fill="none" rx="3" ry="3" style="stroke: #038048; stroke-width: 1.0;"/><text fill="#000000" font-family="sans-serif" font-size="11" lengthAdjust="spacingAndGlyphs" textLength="151" x="82" y="85.8042">localisationReady: boolean</text><ellipse cx="73" cy="95.3984" fill="none" rx="3" ry="3" style="stroke: #038048; stroke-width: 1.0;"/><text fill="#000000" font-family="sans-serif" font-size="11" lengthAdjust="spacingAndGlyphs" textLength="150" x="82" y="98.6089">availableLanguages: array</text><line style="stroke: #A80036; stroke-width: 1.5;" x1="63" x2="238" y1="105.2031" y2="105.2031"/><text fill="#888888" font-family="sans-serif" font-size="10" lengthAdjust="spacingAndGlyphs" textLength="301" x="0" y="129.4854">Common Gateway Plugin | Opencatalogi | Opencatalogibundle</text><!--MD5=[98fc1f084632609df05bf38fa34c507c]
@startuml
title: Localisation
footer: Common Gateway Plugin | Opencatalogi | Opencatalogibundle 
header: Schema

class Localisation {
  + localisationReady: boolean
  + availableLanguages: array
}
@enduml

PlantUML version 1.2020.02(Sun Mar 01 10:22:07 UTC 2020)
(GPL source distribution)
Java Runtime: OpenJDK Runtime Environment
JVM: OpenJDK 64-Bit Server VM
Java Version: 11.0.20.1+1
Operating System: Linux
Default Encoding: UTF-8
Language: en
Country: null
--></g></svg>