<?xml version="1.0" encoding="UTF-8" standalone="no"?><svg xmlns="http://www.w3.org/2000/svg" xmlns:xlink="http://www.w3.org/1999/xlink" contentScriptType="application/ecmascript" contentStyleType="text/css" height="155px" preserveAspectRatio="none" style="width:313px;height:155px;" version="1.1" viewBox="0 0 313 155" width="313px" zoomAndPan="magnify"><defs><filter height="300%" id="f8lsi7ub6bcxz" width="300%" x="-1" y="-1"><feGaussianBlur result="blurOut" stdDeviation="2.0"/><feColorMatrix in="blurOut" result="blurOut2" type="matrix" values="0 0 0 0 0 0 0 0 0 0 0 0 0 0 0 0 0 0 .4 0"/><feOffset dx="4.0" dy="4.0" in="blurOut2" result="blurOut3"/><feBlend in="SourceGraphic" in2="blurOut3" mode="normal"/></filter></defs><g><text fill="#888888" font-family="sans-serif" font-size="10" lengthAdjust="spacingAndGlyphs" textLength="40" x="261" y="9.2822">Schema</text><text fill="#000000" font-family="sans-serif" font-size="18" lengthAdjust="spacingAndGlyphs" textLength="112" x="94.5" y="28.3486">Maintenance</text><!--MD5=[0b72f93f1e261292994a4d0c795fdf98]
class Maintenance--><rect fill="#FEFECE" filter="url(#f8lsi7ub6bcxz)" height="86.4141" id="Maintenance" style="stroke: #A80036; stroke-width: 1.5;" width="129" x="86" y="39.5938"/><ellipse cx="108.2" cy="55.5938" fill="#ADD1B2" rx="11" ry="11" style="stroke: #A80036; stroke-width: 1.0;"/><path d="M111.1688,61.2344 Q110.5906,61.5313 109.95,61.6719 Q109.3094,61.8281 108.6063,61.8281 Q106.1063,61.8281 104.7781,60.1875 Q103.4656,58.5313 103.4656,55.4063 Q103.4656,52.2813 104.7781,50.625 Q106.1063,48.9688 108.6063,48.9688 Q109.3094,48.9688 109.95,49.125 Q110.6063,49.2813 111.1688,49.5781 L111.1688,52.2969 Q110.5438,51.7188 109.95,51.4531 Q109.3563,51.1719 108.7313,51.1719 Q107.3875,51.1719 106.7,52.25 Q106.0125,53.3125 106.0125,55.4063 Q106.0125,57.5 106.7,58.5781 Q107.3875,59.6406 108.7313,59.6406 Q109.3563,59.6406 109.95,59.375 Q110.5438,59.0938 111.1688,58.5156 L111.1688,61.2344 Z "/><text fill="#000000" font-family="sans-serif" font-size="12" lengthAdjust="spacingAndGlyphs" textLength="81" x="123.8" y="59.748">Maintenance</text><line style="stroke: #A80036; stroke-width: 1.5;" x1="87" x2="214" y1="71.5938" y2="71.5938"/><ellipse cx="97" cy="82.5938" fill="none" rx="3" ry="3" style="stroke: #038048; stroke-width: 1.0;"/><text fill="#000000" font-family="sans-serif" font-size="11" lengthAdjust="spacingAndGlyphs" textLength="65" x="106" y="85.8042">type: string</text><ellipse cx="97" cy="95.3984" fill="none" rx="3" ry="3" style="stroke: #038048; stroke-width: 1.0;"/><text fill="#000000" font-family="sans-serif" font-size="11" lengthAdjust="spacingAndGlyphs" textLength="103" x="106" y="98.6089">contractors: array</text><ellipse cx="97" cy="108.2031" fill="none" rx="3" ry="3" style="stroke: #038048; stroke-width: 1.0;"/><text fill="#000000" font-family="sans-serif" font-size="11" lengthAdjust="spacingAndGlyphs" textLength="86" x="106" y="111.4136">contacts: array</text><line style="stroke: #A80036; stroke-width: 1.5;" x1="87" x2="214" y1="118.0078" y2="118.0078"/><text fill="#888888" font-family="sans-serif" font-size="10" lengthAdjust="spacingAndGlyphs" textLength="301" x="0" y="142.29">Common Gateway Plugin | Opencatalogi | Opencatalogibundle</text><!--MD5=[1f7e9054b44c644731e5ce150babf627]
@startuml
title: Maintenance
footer: Common Gateway Plugin | Opencatalogi | Opencatalogibundle 
header: Schema

class Maintenance {
  + type: string
  + contractors: array
  + contacts: array
}
@enduml

PlantUML version 1.2020.02(Sun Mar 01 10:22:07 UTC 2020)
(GPL source distribution)
Java Runtime: OpenJDK Runtime Environment
JVM: OpenJDK 64-Bit Server VM
Java Version: 11.0.20.1+1
Operating System: Linux
Default Encoding: UTF-8
Language: en
Country: null
--></g></svg>