<?xml version="1.0" encoding="us-ascii" standalone="no"?><svg xmlns="http://www.w3.org/2000/svg" xmlns:xlink="http://www.w3.org/1999/xlink" contentStyleType="text/css" height="180px" preserveAspectRatio="none" style="width:176px;height:180px;background:#FFFFFF;" version="1.1" viewBox="0 0 176 180" width="176px" zoomAndPan="magnify"><defs/><g><text fill="#888888" font-family="sans-serif" font-size="10" lengthAdjust="spacing" textLength="45" x="123" y="9.2822">Schema</text><text fill="#000000" font-family="sans-serif" font-size="14" font-weight="bold" lengthAdjust="spacing" textLength="104" x="32" y="35.6357">Maintenance</text><!--class Maintenance--><g id="elem_Maintenance"><rect codeLine="5" fill="#F1F1F1" height="96.8906" id="Maintenance" rx="2.5" ry="2.5" style="stroke:#181818;stroke-width:0.5;" width="155" x="7" y="56.9375"/><ellipse cx="35.95" cy="72.9375" fill="#ADD1B2" rx="11" ry="11" style="stroke:#181818;stroke-width:1.0;"/><path d="M38.2938,68.6094 C37.3563,68.1719 36.7625,68.0313 35.8875,68.0313 C33.2625,68.0313 31.2625,70.1094 31.2625,72.8281 L31.2625,73.9531 C31.2625,76.5313 33.3719,78.4219 36.2625,78.4219 C37.4813,78.4219 38.6375,78.125 39.3875,77.5781 C39.9656,77.1719 40.2938,76.7188 40.2938,76.3281 C40.2938,75.875 39.9031,75.4844 39.4344,75.4844 C39.2156,75.4844 39.0125,75.5625 38.825,75.75 C38.3719,76.2344 38.3719,76.2344 38.1844,76.3281 C37.7625,76.5938 37.075,76.7188 36.3094,76.7188 C34.2625,76.7188 32.9656,75.625 32.9656,73.9219 L32.9656,72.8281 C32.9656,71.0469 34.2156,69.7344 35.95,69.7344 C36.5281,69.7344 37.1375,69.8906 37.6063,70.1406 C38.0906,70.4219 38.2625,70.6406 38.3563,71.0469 C38.4188,71.4531 38.45,71.5781 38.5906,71.7031 C38.7313,71.8438 38.9656,71.9531 39.1844,71.9531 C39.45,71.9531 39.7156,71.8125 39.8875,71.5938 C39.9969,71.4375 40.0281,71.25 40.0281,70.8281 L40.0281,69.4063 C40.0281,68.9688 40.0125,68.8438 39.9188,68.6875 C39.7625,68.4219 39.4813,68.2813 39.1844,68.2813 C38.8875,68.2813 38.6844,68.375 38.4656,68.6875 L38.2938,68.6094 Z " fill="#000000"/><text fill="#000000" font-family="sans-serif" font-size="14" lengthAdjust="spacing" textLength="92" x="53.05" y="77.7842">Maintenance</text><line style="stroke:#181818;stroke-width:0.5;" x1="8" x2="161" y1="88.9375" y2="88.9375"/><ellipse cx="18" cy="102.5859" fill="none" rx="3" ry="3" style="stroke:#038048;stroke-width:1.0;"/><text fill="#000000" font-family="sans-serif" font-size="14" lengthAdjust="spacing" textLength="85" x="27" y="105.9326">type: string</text><ellipse cx="18" cy="118.8828" fill="none" rx="3" ry="3" style="stroke:#038048;stroke-width:1.0;"/><text fill="#000000" font-family="sans-serif" font-size="14" lengthAdjust="spacing" textLength="129" x="27" y="122.2295">contractors: array</text><ellipse cx="18" cy="135.1797" fill="none" rx="3" ry="3" style="stroke:#038048;stroke-width:1.0;"/><text fill="#000000" font-family="sans-serif" font-size="14" lengthAdjust="spacing" textLength="108" x="27" y="138.5264">contacts: array</text><line style="stroke:#181818;stroke-width:0.5;" x1="8" x2="161" y1="145.8281" y2="145.8281"/></g><text fill="#888888" font-family="sans-serif" font-size="10" lengthAdjust="spacing" textLength="137" x="15.5" y="170.1104">Common Gateway Plugin</text><!--SRC=[JSmn2iCm38NXNQVGtXjupT2fKEW97gwQ66mfo2h5bDwzIOVGzVjvBqfKINn1qH25Pg67MOWddgmrKpuZv8N1r_gSYz8YkE_rbXTf8CeLlV_l-KtC9uwnRhyzlEZyWsmQZXpcFJ7SCGxUzB3F5m00]--></g></svg>