<?xml version="1.0" encoding="UTF-8" standalone="no"?><svg xmlns="http://www.w3.org/2000/svg" xmlns:xlink="http://www.w3.org/1999/xlink" contentScriptType="application/ecmascript" contentStyleType="text/css" height="104px" preserveAspectRatio="none" style="width:147px;height:104px;" version="1.1" viewBox="0 0 147 104" width="147px" zoomAndPan="magnify"><defs><filter height="300%" id="f1wy8tfhsfuoht" width="300%" x="-1" y="-1"><feGaussianBlur result="blurOut" stdDeviation="2.0"/><feColorMatrix in="blurOut" result="blurOut2" type="matrix" values="0 0 0 0 0 0 0 0 0 0 0 0 0 0 0 0 0 0 .4 0"/><feOffset dx="4.0" dy="4.0" in="blurOut2" result="blurOut3"/><feBlend in="SourceGraphic" in2="blurOut3" mode="normal"/></filter></defs><g><!--MD5=[0b72f93f1e261292994a4d0c795fdf98]
class Maintenance--><rect fill="#FEFECE" filter="url(#f1wy8tfhsfuoht)" height="86.4141" id="Maintenance" style="stroke: #A80036; stroke-width: 1.5;" width="129" x="7" y="7"/><ellipse cx="29.2" cy="23" fill="#ADD1B2" rx="11" ry="11" style="stroke: #A80036; stroke-width: 1.0;"/><path d="M32.1688,28.6406 Q31.5906,28.9375 30.95,29.0781 Q30.3094,29.2344 29.6063,29.2344 Q27.1063,29.2344 25.7781,27.5938 Q24.4656,25.9375 24.4656,22.8125 Q24.4656,19.6875 25.7781,18.0313 Q27.1063,16.375 29.6063,16.375 Q30.3094,16.375 30.95,16.5313 Q31.6063,16.6875 32.1688,16.9844 L32.1688,19.7031 Q31.5438,19.125 30.95,18.8594 Q30.3563,18.5781 29.7313,18.5781 Q28.3875,18.5781 27.7,19.6563 Q27.0125,20.7188 27.0125,22.8125 Q27.0125,24.9063 27.7,25.9844 Q28.3875,27.0469 29.7313,27.0469 Q30.3563,27.0469 30.95,26.7813 Q31.5438,26.5 32.1688,25.9219 L32.1688,28.6406 Z "/><text fill="#000000" font-family="sans-serif" font-size="12" lengthAdjust="spacingAndGlyphs" textLength="81" x="44.8" y="27.1543">Maintenance</text><line style="stroke: #A80036; stroke-width: 1.5;" x1="8" x2="135" y1="39" y2="39"/><ellipse cx="18" cy="50" fill="none" rx="3" ry="3" style="stroke: #038048; stroke-width: 1.0;"/><text fill="#000000" font-family="sans-serif" font-size="11" lengthAdjust="spacingAndGlyphs" textLength="65" x="27" y="53.2104">type: string</text><ellipse cx="18" cy="62.8047" fill="none" rx="3" ry="3" style="stroke: #038048; stroke-width: 1.0;"/><text fill="#000000" font-family="sans-serif" font-size="11" lengthAdjust="spacingAndGlyphs" textLength="103" x="27" y="66.0151">contractors: array</text><ellipse cx="18" cy="75.6094" fill="none" rx="3" ry="3" style="stroke: #038048; stroke-width: 1.0;"/><text fill="#000000" font-family="sans-serif" font-size="11" lengthAdjust="spacingAndGlyphs" textLength="86" x="27" y="78.8198">contacts: array</text><line style="stroke: #A80036; stroke-width: 1.5;" x1="8" x2="135" y1="85.4141" y2="85.4141"/><!--MD5=[7ab33e232c4fc8eee56635c1e02dc6bf]
@startuml
class Maintenance {
  + type: string
  + contractors: array
  + contacts: array
}
@enduml

PlantUML version 1.2020.02(Sun Mar 01 10:22:07 UTC 2020)
(GPL source distribution)
Java Runtime: OpenJDK Runtime Environment
JVM: OpenJDK 64-Bit Server VM
Java Version: 11.0.20.1+1
Operating System: Linux
Default Encoding: UTF-8
Language: en
Country: null
--></g></svg>