<?xml version="1.0" encoding="us-ascii" standalone="no"?><svg xmlns="http://www.w3.org/2000/svg" xmlns:xlink="http://www.w3.org/1999/xlink" contentStyleType="text/css" height="180px" preserveAspectRatio="none" style="width:349px;height:180px;background:#FFFFFF;" version="1.1" viewBox="0 0 349 180" width="349px" zoomAndPan="magnify"><defs/><g><text fill="#888888" font-family="sans-serif" font-size="10" lengthAdjust="spacing" textLength="45" x="296" y="9.2822">Schema</text><text fill="#000000" font-family="sans-serif" font-size="14" font-weight="bold" lengthAdjust="spacing" textLength="104" x="118.5" y="35.6357">Maintenance</text><!--class Maintenance--><g id="elem_Maintenance"><rect codeLine="5" fill="#F1F1F1" height="96.8906" id="Maintenance" rx="2.5" ry="2.5" style="stroke:#181818;stroke-width:0.5;" width="155" x="93.5" y="56.9375"/><ellipse cx="122.45" cy="72.9375" fill="#ADD1B2" rx="11" ry="11" style="stroke:#181818;stroke-width:1.0;"/><path d="M124.7938,68.6094 C123.8563,68.1719 123.2625,68.0313 122.3875,68.0313 C119.7625,68.0313 117.7625,70.1094 117.7625,72.8281 L117.7625,73.9531 C117.7625,76.5313 119.8719,78.4219 122.7625,78.4219 C123.9813,78.4219 125.1375,78.125 125.8875,77.5781 C126.4656,77.1719 126.7938,76.7188 126.7938,76.3281 C126.7938,75.875 126.4031,75.4844 125.9344,75.4844 C125.7156,75.4844 125.5125,75.5625 125.325,75.75 C124.8719,76.2344 124.8719,76.2344 124.6844,76.3281 C124.2625,76.5938 123.575,76.7188 122.8094,76.7188 C120.7625,76.7188 119.4656,75.625 119.4656,73.9219 L119.4656,72.8281 C119.4656,71.0469 120.7156,69.7344 122.45,69.7344 C123.0281,69.7344 123.6375,69.8906 124.1063,70.1406 C124.5906,70.4219 124.7625,70.6406 124.8563,71.0469 C124.9188,71.4531 124.95,71.5781 125.0906,71.7031 C125.2313,71.8438 125.4656,71.9531 125.6844,71.9531 C125.95,71.9531 126.2156,71.8125 126.3875,71.5938 C126.4969,71.4375 126.5281,71.25 126.5281,70.8281 L126.5281,69.4063 C126.5281,68.9688 126.5125,68.8438 126.4188,68.6875 C126.2625,68.4219 125.9813,68.2813 125.6844,68.2813 C125.3875,68.2813 125.1844,68.375 124.9656,68.6875 L124.7938,68.6094 Z " fill="#000000"/><text fill="#000000" font-family="sans-serif" font-size="14" lengthAdjust="spacing" textLength="92" x="139.55" y="77.7842">Maintenance</text><line style="stroke:#181818;stroke-width:0.5;" x1="94.5" x2="247.5" y1="88.9375" y2="88.9375"/><ellipse cx="104.5" cy="102.5859" fill="none" rx="3" ry="3" style="stroke:#038048;stroke-width:1.0;"/><text fill="#000000" font-family="sans-serif" font-size="14" lengthAdjust="spacing" textLength="85" x="113.5" y="105.9326">type: string</text><ellipse cx="104.5" cy="118.8828" fill="none" rx="3" ry="3" style="stroke:#038048;stroke-width:1.0;"/><text fill="#000000" font-family="sans-serif" font-size="14" lengthAdjust="spacing" textLength="129" x="113.5" y="122.2295">contractors: array</text><ellipse cx="104.5" cy="135.1797" fill="none" rx="3" ry="3" style="stroke:#038048;stroke-width:1.0;"/><text fill="#000000" font-family="sans-serif" font-size="14" lengthAdjust="spacing" textLength="108" x="113.5" y="138.5264">contacts: array</text><line style="stroke:#181818;stroke-width:0.5;" x1="94.5" x2="247.5" y1="145.8281" y2="145.8281"/></g><text fill="#888888" font-family="sans-serif" font-size="10" lengthAdjust="spacing" textLength="341" x="0" y="170.1104">Common Gateway Plugin | Opencatalogi | Opencatalogibundle</text><!--SRC=[NSqn3i8m38NXFQVmpWsoCZ0Xa3Z1mpLffCIk4bUe0kvEOQWGu_k6ztls8f6EoEgYK9PmCtDfaVPMgoaTu7B7GkSofwpqfDCaod0KI_blNcSTYb0O1SFduiAZL8J01Rt_HkWHY7RaoxJ6kxUiwGjiwWtirdeaj8PburKtUxq1]--></g></svg>