<?xml version="1.0" encoding="us-ascii" standalone="no"?><svg xmlns="http://www.w3.org/2000/svg" xmlns:xlink="http://www.w3.org/1999/xlink" contentStyleType="text/css" height="196px" preserveAspectRatio="none" style="width:196px;height:196px;background:#FFFFFF;" version="1.1" viewBox="0 0 196 196" width="196px" zoomAndPan="magnify"><defs/><g><text fill="#888888" font-family="sans-serif" font-size="10" lengthAdjust="spacing" textLength="45" x="143" y="9.2822">Schema</text><text fill="#000000" font-family="sans-serif" font-size="14" font-weight="bold" lengthAdjust="spacing" textLength="16" x="86" y="35.6357">Nl</text><!--class Nl--><g id="elem_Nl"><rect codeLine="5" fill="#F1F1F1" height="113.1875" id="Nl" rx="2.5" ry="2.5" style="stroke:#181818;stroke-width:0.5;" width="175" x="7" y="56.9375"/><ellipse cx="83.25" cy="72.9375" fill="#ADD1B2" rx="11" ry="11" style="stroke:#181818;stroke-width:1.0;"/><path d="M85.5938,68.6094 C84.6563,68.1719 84.0625,68.0313 83.1875,68.0313 C80.5625,68.0313 78.5625,70.1094 78.5625,72.8281 L78.5625,73.9531 C78.5625,76.5313 80.6719,78.4219 83.5625,78.4219 C84.7813,78.4219 85.9375,78.125 86.6875,77.5781 C87.2656,77.1719 87.5938,76.7188 87.5938,76.3281 C87.5938,75.875 87.2031,75.4844 86.7344,75.4844 C86.5156,75.4844 86.3125,75.5625 86.125,75.75 C85.6719,76.2344 85.6719,76.2344 85.4844,76.3281 C85.0625,76.5938 84.375,76.7188 83.6094,76.7188 C81.5625,76.7188 80.2656,75.625 80.2656,73.9219 L80.2656,72.8281 C80.2656,71.0469 81.5156,69.7344 83.25,69.7344 C83.8281,69.7344 84.4375,69.8906 84.9063,70.1406 C85.3906,70.4219 85.5625,70.6406 85.6563,71.0469 C85.7188,71.4531 85.75,71.5781 85.8906,71.7031 C86.0313,71.8438 86.2656,71.9531 86.4844,71.9531 C86.75,71.9531 87.0156,71.8125 87.1875,71.5938 C87.2969,71.4375 87.3281,71.25 87.3281,70.8281 L87.3281,69.4063 C87.3281,68.9688 87.3125,68.8438 87.2188,68.6875 C87.0625,68.4219 86.7813,68.2813 86.4844,68.2813 C86.1875,68.2813 85.9844,68.375 85.7656,68.6875 L85.5938,68.6094 Z " fill="#000000"/><text fill="#000000" font-family="sans-serif" font-size="14" lengthAdjust="spacing" textLength="14" x="103.75" y="77.7842">Nl</text><line style="stroke:#181818;stroke-width:0.5;" x1="8" x2="181" y1="88.9375" y2="88.9375"/><ellipse cx="18" cy="102.5859" fill="none" rx="3" ry="3" style="stroke:#038048;stroke-width:1.0;"/><text fill="#000000" font-family="sans-serif" font-size="14" lengthAdjust="spacing" textLength="149" x="27" y="105.9326">commonground: Any</text><ellipse cx="18" cy="118.8828" fill="none" rx="3" ry="3" style="stroke:#038048;stroke-width:1.0;"/><text fill="#000000" font-family="sans-serif" font-size="14" lengthAdjust="spacing" textLength="90" x="27" y="122.2295">gemma: Any</text><ellipse cx="18" cy="135.1797" fill="none" rx="3" ry="3" style="stroke:#038048;stroke-width:1.0;"/><text fill="#000000" font-family="sans-serif" font-size="14" lengthAdjust="spacing" textLength="88" x="27" y="138.5264">apm: object</text><ellipse cx="18" cy="151.4766" fill="none" rx="3" ry="3" style="stroke:#038048;stroke-width:1.0;"/><text fill="#000000" font-family="sans-serif" font-size="14" lengthAdjust="spacing" textLength="67" x="27" y="154.8232">upl: array</text><line style="stroke:#181818;stroke-width:0.5;" x1="8" x2="181" y1="162.125" y2="162.125"/></g><text fill="#888888" font-family="sans-serif" font-size="10" lengthAdjust="spacing" textLength="137" x="25.5" y="186.4072">Common Gateway Plugin</text><!--SRC=[HOin3i8m34Ltd-Blt20ROc13I9p0f2OjYkCgTOIYYhi3MHZVUtg-U9Q0IwQ7cKiDE9cg5PpPvSKTrzpIKcWMddxr5cTH9egPj-sxOIVWW3YcLAsLAU1O-h19LFcFl6g0tPyIVN1RSm3NoftU7m00]--></g></svg>