<?xml version="1.0" encoding="UTF-8" standalone="no"?><svg xmlns="http://www.w3.org/2000/svg" xmlns:xlink="http://www.w3.org/1999/xlink" contentScriptType="application/ecmascript" contentStyleType="text/css" height="117px" preserveAspectRatio="none" style="width:161px;height:117px;" version="1.1" viewBox="0 0 161 117" width="161px" zoomAndPan="magnify"><defs><filter height="300%" id="f11q93vnairn82" width="300%" x="-1" y="-1"><feGaussianBlur result="blurOut" stdDeviation="2.0"/><feColorMatrix in="blurOut" result="blurOut2" type="matrix" values="0 0 0 0 0 0 0 0 0 0 0 0 0 0 0 0 0 0 .4 0"/><feOffset dx="4.0" dy="4.0" in="blurOut2" result="blurOut3"/><feBlend in="SourceGraphic" in2="blurOut3" mode="normal"/></filter></defs><g><!--MD5=[51b69caeafcb93eadd33909222e10a21]
class Nl--><rect fill="#FEFECE" filter="url(#f11q93vnairn82)" height="99.2188" id="Nl" style="stroke: #A80036; stroke-width: 1.5;" width="143" x="7" y="7"/><ellipse cx="68.25" cy="23" fill="#ADD1B2" rx="11" ry="11" style="stroke: #A80036; stroke-width: 1.0;"/><path d="M71.2188,28.6406 Q70.6406,28.9375 70,29.0781 Q69.3594,29.2344 68.6563,29.2344 Q66.1563,29.2344 64.8281,27.5938 Q63.5156,25.9375 63.5156,22.8125 Q63.5156,19.6875 64.8281,18.0313 Q66.1563,16.375 68.6563,16.375 Q69.3594,16.375 70,16.5313 Q70.6563,16.6875 71.2188,16.9844 L71.2188,19.7031 Q70.5938,19.125 70,18.8594 Q69.4063,18.5781 68.7813,18.5781 Q67.4375,18.5781 66.75,19.6563 Q66.0625,20.7188 66.0625,22.8125 Q66.0625,24.9063 66.75,25.9844 Q67.4375,27.0469 68.7813,27.0469 Q69.4063,27.0469 70,26.7813 Q70.5938,26.5 71.2188,25.9219 L71.2188,28.6406 Z "/><text fill="#000000" font-family="sans-serif" font-size="12" lengthAdjust="spacingAndGlyphs" textLength="12" x="88.75" y="27.1543">Nl</text><line style="stroke: #A80036; stroke-width: 1.5;" x1="8" x2="149" y1="39" y2="39"/><ellipse cx="18" cy="50" fill="none" rx="3" ry="3" style="stroke: #038048; stroke-width: 1.0;"/><text fill="#000000" font-family="sans-serif" font-size="11" lengthAdjust="spacingAndGlyphs" textLength="117" x="27" y="53.2104">commonground: Any</text><ellipse cx="18" cy="62.8047" fill="none" rx="3" ry="3" style="stroke: #038048; stroke-width: 1.0;"/><text fill="#000000" font-family="sans-serif" font-size="11" lengthAdjust="spacingAndGlyphs" textLength="71" x="27" y="66.0151">gemma: Any</text><ellipse cx="18" cy="75.6094" fill="none" rx="3" ry="3" style="stroke: #038048; stroke-width: 1.0;"/><text fill="#000000" font-family="sans-serif" font-size="11" lengthAdjust="spacingAndGlyphs" textLength="67" x="27" y="78.8198">apm: object</text><ellipse cx="18" cy="88.4141" fill="none" rx="3" ry="3" style="stroke: #038048; stroke-width: 1.0;"/><text fill="#000000" font-family="sans-serif" font-size="11" lengthAdjust="spacingAndGlyphs" textLength="55" x="27" y="91.6245">upl: array</text><line style="stroke: #A80036; stroke-width: 1.5;" x1="8" x2="149" y1="98.2188" y2="98.2188"/><!--MD5=[851eb5807ef40d52777315ee0a101119]
@startuml
class Nl {
  + commonground: Any
  + gemma: Any
  + apm: object
  + upl: array
}
@enduml

PlantUML version 1.2020.02(Sun Mar 01 10:22:07 UTC 2020)
(GPL source distribution)
Java Runtime: OpenJDK Runtime Environment
JVM: OpenJDK 64-Bit Server VM
Java Version: 11.0.20.1+1
Operating System: Linux
Default Encoding: UTF-8
Language: en
Country: null
--></g></svg>