<?xml version="1.0" encoding="us-ascii" standalone="no"?><svg xmlns="http://www.w3.org/2000/svg" xmlns:xlink="http://www.w3.org/1999/xlink" contentStyleType="text/css" height="196px" preserveAspectRatio="none" style="width:349px;height:196px;background:#FFFFFF;" version="1.1" viewBox="0 0 349 196" width="349px" zoomAndPan="magnify"><defs/><g><text fill="#888888" font-family="sans-serif" font-size="10" lengthAdjust="spacing" textLength="45" x="296" y="9.2822">Schema</text><text fill="#000000" font-family="sans-serif" font-size="14" font-weight="bold" lengthAdjust="spacing" textLength="16" x="162.5" y="35.6357">Nl</text><!--class Nl--><g id="elem_Nl"><rect codeLine="5" fill="#F1F1F1" height="113.1875" id="Nl" rx="2.5" ry="2.5" style="stroke:#181818;stroke-width:0.5;" width="175" x="83.5" y="56.9375"/><ellipse cx="159.75" cy="72.9375" fill="#ADD1B2" rx="11" ry="11" style="stroke:#181818;stroke-width:1.0;"/><path d="M162.0938,68.6094 C161.1563,68.1719 160.5625,68.0313 159.6875,68.0313 C157.0625,68.0313 155.0625,70.1094 155.0625,72.8281 L155.0625,73.9531 C155.0625,76.5313 157.1719,78.4219 160.0625,78.4219 C161.2813,78.4219 162.4375,78.125 163.1875,77.5781 C163.7656,77.1719 164.0938,76.7188 164.0938,76.3281 C164.0938,75.875 163.7031,75.4844 163.2344,75.4844 C163.0156,75.4844 162.8125,75.5625 162.625,75.75 C162.1719,76.2344 162.1719,76.2344 161.9844,76.3281 C161.5625,76.5938 160.875,76.7188 160.1094,76.7188 C158.0625,76.7188 156.7656,75.625 156.7656,73.9219 L156.7656,72.8281 C156.7656,71.0469 158.0156,69.7344 159.75,69.7344 C160.3281,69.7344 160.9375,69.8906 161.4063,70.1406 C161.8906,70.4219 162.0625,70.6406 162.1563,71.0469 C162.2188,71.4531 162.25,71.5781 162.3906,71.7031 C162.5313,71.8438 162.7656,71.9531 162.9844,71.9531 C163.25,71.9531 163.5156,71.8125 163.6875,71.5938 C163.7969,71.4375 163.8281,71.25 163.8281,70.8281 L163.8281,69.4063 C163.8281,68.9688 163.8125,68.8438 163.7188,68.6875 C163.5625,68.4219 163.2813,68.2813 162.9844,68.2813 C162.6875,68.2813 162.4844,68.375 162.2656,68.6875 L162.0938,68.6094 Z " fill="#000000"/><text fill="#000000" font-family="sans-serif" font-size="14" lengthAdjust="spacing" textLength="14" x="180.25" y="77.7842">Nl</text><line style="stroke:#181818;stroke-width:0.5;" x1="84.5" x2="257.5" y1="88.9375" y2="88.9375"/><ellipse cx="94.5" cy="102.5859" fill="none" rx="3" ry="3" style="stroke:#038048;stroke-width:1.0;"/><text fill="#000000" font-family="sans-serif" font-size="14" lengthAdjust="spacing" textLength="149" x="103.5" y="105.9326">commonground: Any</text><ellipse cx="94.5" cy="118.8828" fill="none" rx="3" ry="3" style="stroke:#038048;stroke-width:1.0;"/><text fill="#000000" font-family="sans-serif" font-size="14" lengthAdjust="spacing" textLength="90" x="103.5" y="122.2295">gemma: Any</text><ellipse cx="94.5" cy="135.1797" fill="none" rx="3" ry="3" style="stroke:#038048;stroke-width:1.0;"/><text fill="#000000" font-family="sans-serif" font-size="14" lengthAdjust="spacing" textLength="88" x="103.5" y="138.5264">apm: object</text><ellipse cx="94.5" cy="151.4766" fill="none" rx="3" ry="3" style="stroke:#038048;stroke-width:1.0;"/><text fill="#000000" font-family="sans-serif" font-size="14" lengthAdjust="spacing" textLength="67" x="103.5" y="154.8232">upl: array</text><line style="stroke:#181818;stroke-width:0.5;" x1="84.5" x2="257.5" y1="162.125" y2="162.125"/></g><text fill="#888888" font-family="sans-serif" font-size="10" lengthAdjust="spacing" textLength="341" x="0" y="186.4072">Common Gateway Plugin | Opencatalogi | Opencatalogibundle</text><!--SRC=[NSmn3W8X48NXdbEytXlG6GixDV44i-p8OWQ6i113rBkxqfXO_YylNmrLsE8avgPQkLWSD4PDE5Bb1tLSfFcGyC8vSt9KITI7lvnQceLX5gRvIrpTmf6CSKBhkjbu6c07DsHVTBjRx5CVg-SOwPUKeuLETtPrTCjYGQLGD-yF]--></g></svg>