<?xml version="1.0" encoding="UTF-8" standalone="no"?><svg xmlns="http://www.w3.org/2000/svg" xmlns:xlink="http://www.w3.org/1999/xlink" contentScriptType="application/ecmascript" contentStyleType="text/css" height="168px" preserveAspectRatio="none" style="width:313px;height:168px;" version="1.1" viewBox="0 0 313 168" width="313px" zoomAndPan="magnify"><defs><filter height="300%" id="f1s2vxj5d07i5f" width="300%" x="-1" y="-1"><feGaussianBlur result="blurOut" stdDeviation="2.0"/><feColorMatrix in="blurOut" result="blurOut2" type="matrix" values="0 0 0 0 0 0 0 0 0 0 0 0 0 0 0 0 0 0 .4 0"/><feOffset dx="4.0" dy="4.0" in="blurOut2" result="blurOut3"/><feBlend in="SourceGraphic" in2="blurOut3" mode="normal"/></filter></defs><g><text fill="#888888" font-family="sans-serif" font-size="10" lengthAdjust="spacingAndGlyphs" textLength="40" x="261" y="9.2822">Schema</text><text fill="#000000" font-family="sans-serif" font-size="18" lengthAdjust="spacingAndGlyphs" textLength="19" x="141" y="28.3486">Nl</text><!--MD5=[51b69caeafcb93eadd33909222e10a21]
class Nl--><rect fill="#FEFECE" filter="url(#f1s2vxj5d07i5f)" height="99.2188" id="Nl" style="stroke: #A80036; stroke-width: 1.5;" width="143" x="79" y="39.5938"/><ellipse cx="140.25" cy="55.5938" fill="#ADD1B2" rx="11" ry="11" style="stroke: #A80036; stroke-width: 1.0;"/><path d="M143.2188,61.2344 Q142.6406,61.5313 142,61.6719 Q141.3594,61.8281 140.6563,61.8281 Q138.1563,61.8281 136.8281,60.1875 Q135.5156,58.5313 135.5156,55.4063 Q135.5156,52.2813 136.8281,50.625 Q138.1563,48.9688 140.6563,48.9688 Q141.3594,48.9688 142,49.125 Q142.6563,49.2813 143.2188,49.5781 L143.2188,52.2969 Q142.5938,51.7188 142,51.4531 Q141.4063,51.1719 140.7813,51.1719 Q139.4375,51.1719 138.75,52.25 Q138.0625,53.3125 138.0625,55.4063 Q138.0625,57.5 138.75,58.5781 Q139.4375,59.6406 140.7813,59.6406 Q141.4063,59.6406 142,59.375 Q142.5938,59.0938 143.2188,58.5156 L143.2188,61.2344 Z "/><text fill="#000000" font-family="sans-serif" font-size="12" lengthAdjust="spacingAndGlyphs" textLength="12" x="160.75" y="59.748">Nl</text><line style="stroke: #A80036; stroke-width: 1.5;" x1="80" x2="221" y1="71.5938" y2="71.5938"/><ellipse cx="90" cy="82.5938" fill="none" rx="3" ry="3" style="stroke: #038048; stroke-width: 1.0;"/><text fill="#000000" font-family="sans-serif" font-size="11" lengthAdjust="spacingAndGlyphs" textLength="117" x="99" y="85.8042">commonground: Any</text><ellipse cx="90" cy="95.3984" fill="none" rx="3" ry="3" style="stroke: #038048; stroke-width: 1.0;"/><text fill="#000000" font-family="sans-serif" font-size="11" lengthAdjust="spacingAndGlyphs" textLength="71" x="99" y="98.6089">gemma: Any</text><ellipse cx="90" cy="108.2031" fill="none" rx="3" ry="3" style="stroke: #038048; stroke-width: 1.0;"/><text fill="#000000" font-family="sans-serif" font-size="11" lengthAdjust="spacingAndGlyphs" textLength="67" x="99" y="111.4136">apm: object</text><ellipse cx="90" cy="121.0078" fill="none" rx="3" ry="3" style="stroke: #038048; stroke-width: 1.0;"/><text fill="#000000" font-family="sans-serif" font-size="11" lengthAdjust="spacingAndGlyphs" textLength="55" x="99" y="124.2183">upl: array</text><line style="stroke: #A80036; stroke-width: 1.5;" x1="80" x2="221" y1="130.8125" y2="130.8125"/><text fill="#888888" font-family="sans-serif" font-size="10" lengthAdjust="spacingAndGlyphs" textLength="301" x="0" y="155.0947">Common Gateway Plugin | Opencatalogi | Opencatalogibundle</text><!--MD5=[cfaa4d4927e53d5e441311f79acbf104]
@startuml
title: Nl
footer: Common Gateway Plugin | Opencatalogi | Opencatalogibundle 
header: Schema

class Nl {
  + commonground: Any
  + gemma: Any
  + apm: object
  + upl: array
}
@enduml

PlantUML version 1.2020.02(Sun Mar 01 10:22:07 UTC 2020)
(GPL source distribution)
Java Runtime: OpenJDK Runtime Environment
JVM: OpenJDK 64-Bit Server VM
Java Version: 11.0.20.1+1
Operating System: Linux
Default Encoding: UTF-8
Language: en
Country: null
--></g></svg>