<?xml version="1.0" encoding="us-ascii" standalone="no"?><svg xmlns="http://www.w3.org/2000/svg" xmlns:xlink="http://www.w3.org/1999/xlink" contentStyleType="text/css" height="359px" preserveAspectRatio="none" style="width:189px;height:359px;background:#FFFFFF;" version="1.1" viewBox="0 0 189 359" width="189px" zoomAndPan="magnify"><defs/><g><text fill="#888888" font-family="sans-serif" font-size="10" lengthAdjust="spacing" textLength="45" x="136" y="9.2822">Schema</text><text fill="#000000" font-family="sans-serif" font-size="14" font-weight="bold" lengthAdjust="spacing" textLength="106" x="37.5" y="35.6357">Organisation</text><!--class Organisation--><g id="elem_Organisation"><rect codeLine="5" fill="#F1F1F1" height="276.1563" id="Organisation" rx="2.5" ry="2.5" style="stroke:#181818;stroke-width:0.5;" width="168" x="7" y="56.9375"/><ellipse cx="42.25" cy="72.9375" fill="#ADD1B2" rx="11" ry="11" style="stroke:#181818;stroke-width:1.0;"/><path d="M44.5938,68.6094 C43.6563,68.1719 43.0625,68.0313 42.1875,68.0313 C39.5625,68.0313 37.5625,70.1094 37.5625,72.8281 L37.5625,73.9531 C37.5625,76.5313 39.6719,78.4219 42.5625,78.4219 C43.7813,78.4219 44.9375,78.125 45.6875,77.5781 C46.2656,77.1719 46.5938,76.7188 46.5938,76.3281 C46.5938,75.875 46.2031,75.4844 45.7344,75.4844 C45.5156,75.4844 45.3125,75.5625 45.125,75.75 C44.6719,76.2344 44.6719,76.2344 44.4844,76.3281 C44.0625,76.5938 43.375,76.7188 42.6094,76.7188 C40.5625,76.7188 39.2656,75.625 39.2656,73.9219 L39.2656,72.8281 C39.2656,71.0469 40.5156,69.7344 42.25,69.7344 C42.8281,69.7344 43.4375,69.8906 43.9063,70.1406 C44.3906,70.4219 44.5625,70.6406 44.6563,71.0469 C44.7188,71.4531 44.75,71.5781 44.8906,71.7031 C45.0313,71.8438 45.2656,71.9531 45.4844,71.9531 C45.75,71.9531 46.0156,71.8125 46.1875,71.5938 C46.2969,71.4375 46.3281,71.25 46.3281,70.8281 L46.3281,69.4063 C46.3281,68.9688 46.3125,68.8438 46.2188,68.6875 C46.0625,68.4219 45.7813,68.2813 45.4844,68.2813 C45.1875,68.2813 44.9844,68.375 44.7656,68.6875 L44.5938,68.6094 Z " fill="#000000"/><text fill="#000000" font-family="sans-serif" font-size="14" lengthAdjust="spacing" textLength="91" x="60.75" y="77.7842">Organisation</text><line style="stroke:#181818;stroke-width:0.5;" x1="8" x2="174" y1="88.9375" y2="88.9375"/><ellipse cx="18" cy="102.5859" fill="none" rx="3" ry="3" style="stroke:#038048;stroke-width:1.0;"/><text fill="#000000" font-family="sans-serif" font-size="14" lengthAdjust="spacing" textLength="91" x="27" y="105.9326">name: string</text><ellipse cx="18" cy="118.8828" fill="none" rx="3" ry="3" style="stroke:#038048;stroke-width:1.0;"/><text fill="#000000" font-family="sans-serif" font-size="14" lengthAdjust="spacing" textLength="133" x="27" y="122.2295">description: string</text><ellipse cx="18" cy="135.1797" fill="none" rx="3" ry="3" style="stroke:#038048;stroke-width:1.0;"/><text fill="#000000" font-family="sans-serif" font-size="14" lengthAdjust="spacing" textLength="82" x="27" y="138.5264">logo: string</text><ellipse cx="18" cy="151.4766" fill="none" rx="3" ry="3" style="stroke:#038048;stroke-width:1.0;"/><text fill="#000000" font-family="sans-serif" font-size="14" lengthAdjust="spacing" textLength="109" x="27" y="154.8232">supports: array</text><ellipse cx="18" cy="167.7734" fill="none" rx="3" ry="3" style="stroke:#038048;stroke-width:1.0;"/><text fill="#000000" font-family="sans-serif" font-size="14" lengthAdjust="spacing" textLength="81" x="27" y="171.1201">owns: array</text><ellipse cx="18" cy="184.0703" fill="none" rx="3" ry="3" style="stroke:#038048;stroke-width:1.0;"/><text fill="#000000" font-family="sans-serif" font-size="14" lengthAdjust="spacing" textLength="76" x="27" y="187.417">uses: array</text><ellipse cx="18" cy="200.3672" fill="none" rx="3" ry="3" style="stroke:#038048;stroke-width:1.0;"/><text fill="#000000" font-family="sans-serif" font-size="14" lengthAdjust="spacing" textLength="94" x="27" y="203.7139">token: string</text><ellipse cx="18" cy="216.6641" fill="none" rx="3" ry="3" style="stroke:#038048;stroke-width:1.0;"/><text fill="#000000" font-family="sans-serif" font-size="14" lengthAdjust="spacing" textLength="98" x="27" y="220.0107">github: string</text><ellipse cx="18" cy="232.9609" fill="none" rx="3" ry="3" style="stroke:#038048;stroke-width:1.0;"/><text fill="#000000" font-family="sans-serif" font-size="14" lengthAdjust="spacing" textLength="93" x="27" y="236.3076">gitlab: string</text><ellipse cx="18" cy="249.2578" fill="none" rx="3" ry="3" style="stroke:#038048;stroke-width:1.0;"/><text fill="#000000" font-family="sans-serif" font-size="14" lengthAdjust="spacing" textLength="108" x="27" y="252.6045">website: string</text><ellipse cx="18" cy="265.5547" fill="none" rx="3" ry="3" style="stroke:#038048;stroke-width:1.0;"/><text fill="#000000" font-family="sans-serif" font-size="14" lengthAdjust="spacing" textLength="97" x="27" y="268.9014">phone: string</text><ellipse cx="18" cy="281.8516" fill="none" rx="3" ry="3" style="stroke:#038048;stroke-width:1.0;"/><text fill="#000000" font-family="sans-serif" font-size="14" lengthAdjust="spacing" textLength="90" x="27" y="285.1982">email: string</text><ellipse cx="18" cy="298.1484" fill="none" rx="3" ry="3" style="stroke:#038048;stroke-width:1.0;"/><text fill="#000000" font-family="sans-serif" font-size="14" lengthAdjust="spacing" textLength="85" x="27" y="301.4951">type: string</text><ellipse cx="18" cy="314.4453" fill="none" rx="3" ry="3" style="stroke:#038048;stroke-width:1.0;"/><text fill="#000000" font-family="sans-serif" font-size="14" lengthAdjust="spacing" textLength="142" x="27" y="317.792">catalogusAPI: string</text><line style="stroke:#181818;stroke-width:0.5;" x1="8" x2="174" y1="325.0938" y2="325.0938"/></g><text fill="#888888" font-family="sans-serif" font-size="10" lengthAdjust="spacing" textLength="137" x="22" y="349.376">Common Gateway Plugin</text><!--SRC=[NSyn3i8m30NGFQVmpWsw8GR4118dS5kJMgHn53kgAiJTQHcGpEZdho_Rs19rSAqHCoiQImuF4QFQmKdcMJASqMZ15MwfHSvX8XptxNsOQCOGXeIghW1U0U006UUjMQroZbyOIOVAPOyuJnB5WRPIf9fsWBNY-ZLPifkRafjDdkHh8zlK-dzAw6cXNjdyeMMIx6Nxb9CJMukF36YuVTBqUBly5kyF]--></g></svg>