<?xml version="1.0" encoding="UTF-8" standalone="no"?><svg xmlns="http://www.w3.org/2000/svg" xmlns:xlink="http://www.w3.org/1999/xlink" contentScriptType="application/ecmascript" contentStyleType="text/css" height="245px" preserveAspectRatio="none" style="width:157px;height:245px;" version="1.1" viewBox="0 0 157 245" width="157px" zoomAndPan="magnify"><defs><filter height="300%" id="fe815xypmvmok" width="300%" x="-1" y="-1"><feGaussianBlur result="blurOut" stdDeviation="2.0"/><feColorMatrix in="blurOut" result="blurOut2" type="matrix" values="0 0 0 0 0 0 0 0 0 0 0 0 0 0 0 0 0 0 .4 0"/><feOffset dx="4.0" dy="4.0" in="blurOut2" result="blurOut3"/><feBlend in="SourceGraphic" in2="blurOut3" mode="normal"/></filter></defs><g><!--MD5=[28b7f55834c064dbac0e48afbc220c74]
class Organisation--><rect fill="#FEFECE" filter="url(#fe815xypmvmok)" height="227.2656" id="Organisation" style="stroke: #A80036; stroke-width: 1.5;" width="139" x="7" y="7"/><ellipse cx="34.15" cy="23" fill="#ADD1B2" rx="11" ry="11" style="stroke: #A80036; stroke-width: 1.0;"/><path d="M37.1188,28.6406 Q36.5406,28.9375 35.9,29.0781 Q35.2594,29.2344 34.5563,29.2344 Q32.0563,29.2344 30.7281,27.5938 Q29.4156,25.9375 29.4156,22.8125 Q29.4156,19.6875 30.7281,18.0313 Q32.0563,16.375 34.5563,16.375 Q35.2594,16.375 35.9,16.5313 Q36.5563,16.6875 37.1188,16.9844 L37.1188,19.7031 Q36.4938,19.125 35.9,18.8594 Q35.3063,18.5781 34.6813,18.5781 Q33.3375,18.5781 32.65,19.6563 Q31.9625,20.7188 31.9625,22.8125 Q31.9625,24.9063 32.65,25.9844 Q33.3375,27.0469 34.6813,27.0469 Q35.3063,27.0469 35.9,26.7813 Q36.4938,26.5 37.1188,25.9219 L37.1188,28.6406 Z "/><text fill="#000000" font-family="sans-serif" font-size="12" lengthAdjust="spacingAndGlyphs" textLength="80" x="50.85" y="27.1543">Organisation</text><line style="stroke: #A80036; stroke-width: 1.5;" x1="8" x2="145" y1="39" y2="39"/><ellipse cx="18" cy="50" fill="none" rx="3" ry="3" style="stroke: #038048; stroke-width: 1.0;"/><text fill="#000000" font-family="sans-serif" font-size="11" lengthAdjust="spacingAndGlyphs" textLength="73" x="27" y="53.2104">name: string</text><ellipse cx="18" cy="62.8047" fill="none" rx="3" ry="3" style="stroke: #038048; stroke-width: 1.0;"/><text fill="#000000" font-family="sans-serif" font-size="11" lengthAdjust="spacingAndGlyphs" textLength="104" x="27" y="66.0151">description: string</text><ellipse cx="18" cy="75.6094" fill="none" rx="3" ry="3" style="stroke: #038048; stroke-width: 1.0;"/><text fill="#000000" font-family="sans-serif" font-size="11" lengthAdjust="spacingAndGlyphs" textLength="65" x="27" y="78.8198">logo: string</text><ellipse cx="18" cy="88.4141" fill="none" rx="3" ry="3" style="stroke: #038048; stroke-width: 1.0;"/><text fill="#000000" font-family="sans-serif" font-size="11" lengthAdjust="spacingAndGlyphs" textLength="89" x="27" y="91.6245">supports: array</text><ellipse cx="18" cy="101.2188" fill="none" rx="3" ry="3" style="stroke: #038048; stroke-width: 1.0;"/><text fill="#000000" font-family="sans-serif" font-size="11" lengthAdjust="spacingAndGlyphs" textLength="68" x="27" y="104.4292">owns: array</text><ellipse cx="18" cy="114.0234" fill="none" rx="3" ry="3" style="stroke: #038048; stroke-width: 1.0;"/><text fill="#000000" font-family="sans-serif" font-size="11" lengthAdjust="spacingAndGlyphs" textLength="66" x="27" y="117.2339">uses: array</text><ellipse cx="18" cy="126.8281" fill="none" rx="3" ry="3" style="stroke: #038048; stroke-width: 1.0;"/><text fill="#000000" font-family="sans-serif" font-size="11" lengthAdjust="spacingAndGlyphs" textLength="72" x="27" y="130.0386">token: string</text><ellipse cx="18" cy="139.6328" fill="none" rx="3" ry="3" style="stroke: #038048; stroke-width: 1.0;"/><text fill="#000000" font-family="sans-serif" font-size="11" lengthAdjust="spacingAndGlyphs" textLength="76" x="27" y="142.8433">github: string</text><ellipse cx="18" cy="152.4375" fill="none" rx="3" ry="3" style="stroke: #038048; stroke-width: 1.0;"/><text fill="#000000" font-family="sans-serif" font-size="11" lengthAdjust="spacingAndGlyphs" textLength="72" x="27" y="155.6479">gitlab: string</text><ellipse cx="18" cy="165.2422" fill="none" rx="3" ry="3" style="stroke: #038048; stroke-width: 1.0;"/><text fill="#000000" font-family="sans-serif" font-size="11" lengthAdjust="spacingAndGlyphs" textLength="85" x="27" y="168.4526">website: string</text><ellipse cx="18" cy="178.0469" fill="none" rx="3" ry="3" style="stroke: #038048; stroke-width: 1.0;"/><text fill="#000000" font-family="sans-serif" font-size="11" lengthAdjust="spacingAndGlyphs" textLength="76" x="27" y="181.2573">phone: string</text><ellipse cx="18" cy="190.8516" fill="none" rx="3" ry="3" style="stroke: #038048; stroke-width: 1.0;"/><text fill="#000000" font-family="sans-serif" font-size="11" lengthAdjust="spacingAndGlyphs" textLength="72" x="27" y="194.062">email: string</text><ellipse cx="18" cy="203.6563" fill="none" rx="3" ry="3" style="stroke: #038048; stroke-width: 1.0;"/><text fill="#000000" font-family="sans-serif" font-size="11" lengthAdjust="spacingAndGlyphs" textLength="65" x="27" y="206.8667">type: string</text><ellipse cx="18" cy="216.4609" fill="none" rx="3" ry="3" style="stroke: #038048; stroke-width: 1.0;"/><text fill="#000000" font-family="sans-serif" font-size="11" lengthAdjust="spacingAndGlyphs" textLength="113" x="27" y="219.6714">catalogusAPI: string</text><line style="stroke: #A80036; stroke-width: 1.5;" x1="8" x2="145" y1="226.2656" y2="226.2656"/><!--MD5=[afe732bc29bcb4376857c1115881af06]
@startuml
class Organisation {
  + name: string
  + description: string
  + logo: string
  + supports: array
  + owns: array
  + uses: array
  + token: string
  + github: string
  + gitlab: string
  + website: string
  + phone: string
  + email: string
  + type: string
  + catalogusAPI: string
}
@enduml

PlantUML version 1.2020.02(Sun Mar 01 10:22:07 UTC 2020)
(GPL source distribution)
Java Runtime: OpenJDK Runtime Environment
JVM: OpenJDK 64-Bit Server VM
Java Version: 11.0.20.1+1
Operating System: Linux
Default Encoding: UTF-8
Language: en
Country: null
--></g></svg>