<?xml version="1.0" encoding="us-ascii" standalone="no"?><svg xmlns="http://www.w3.org/2000/svg" xmlns:xlink="http://www.w3.org/1999/xlink" contentStyleType="text/css" height="180px" preserveAspectRatio="none" style="width:169px;height:180px;background:#FFFFFF;" version="1.1" viewBox="0 0 169 180" width="169px" zoomAndPan="magnify"><defs/><g><text fill="#888888" font-family="sans-serif" font-size="10" lengthAdjust="spacing" textLength="45" x="116" y="9.2822">Schema</text><text fill="#000000" font-family="sans-serif" font-size="14" font-weight="bold" lengthAdjust="spacing" textLength="51" x="55" y="35.6357">Owner</text><!--class Owner--><g id="elem_Owner"><rect codeLine="5" fill="#F1F1F1" height="96.8906" id="Owner" rx="2.5" ry="2.5" style="stroke:#181818;stroke-width:0.5;" width="148" x="7" y="56.9375"/><ellipse cx="53.75" cy="72.9375" fill="#ADD1B2" rx="11" ry="11" style="stroke:#181818;stroke-width:1.0;"/><path d="M56.0938,68.6094 C55.1563,68.1719 54.5625,68.0313 53.6875,68.0313 C51.0625,68.0313 49.0625,70.1094 49.0625,72.8281 L49.0625,73.9531 C49.0625,76.5313 51.1719,78.4219 54.0625,78.4219 C55.2813,78.4219 56.4375,78.125 57.1875,77.5781 C57.7656,77.1719 58.0938,76.7188 58.0938,76.3281 C58.0938,75.875 57.7031,75.4844 57.2344,75.4844 C57.0156,75.4844 56.8125,75.5625 56.625,75.75 C56.1719,76.2344 56.1719,76.2344 55.9844,76.3281 C55.5625,76.5938 54.875,76.7188 54.1094,76.7188 C52.0625,76.7188 50.7656,75.625 50.7656,73.9219 L50.7656,72.8281 C50.7656,71.0469 52.0156,69.7344 53.75,69.7344 C54.3281,69.7344 54.9375,69.8906 55.4063,70.1406 C55.8906,70.4219 56.0625,70.6406 56.1563,71.0469 C56.2188,71.4531 56.25,71.5781 56.3906,71.7031 C56.5313,71.8438 56.7656,71.9531 56.9844,71.9531 C57.25,71.9531 57.5156,71.8125 57.6875,71.5938 C57.7969,71.4375 57.8281,71.25 57.8281,70.8281 L57.8281,69.4063 C57.8281,68.9688 57.8125,68.8438 57.7188,68.6875 C57.5625,68.4219 57.2813,68.2813 56.9844,68.2813 C56.6875,68.2813 56.4844,68.375 56.2656,68.6875 L56.0938,68.6094 Z " fill="#000000"/><text fill="#000000" font-family="sans-serif" font-size="14" lengthAdjust="spacing" textLength="46" x="74.25" y="77.7842">Owner</text><line style="stroke:#181818;stroke-width:0.5;" x1="8" x2="154" y1="88.9375" y2="88.9375"/><ellipse cx="18" cy="102.5859" fill="none" rx="3" ry="3" style="stroke:#038048;stroke-width:1.0;"/><text fill="#000000" font-family="sans-serif" font-size="14" lengthAdjust="spacing" textLength="114" x="27" y="105.9326">fullName: string</text><ellipse cx="18" cy="118.8828" fill="none" rx="3" ry="3" style="stroke:#038048;stroke-width:1.0;"/><text fill="#000000" font-family="sans-serif" font-size="14" lengthAdjust="spacing" textLength="90" x="27" y="122.2295">email: string</text><ellipse cx="18" cy="135.1797" fill="none" rx="3" ry="3" style="stroke:#038048;stroke-width:1.0;"/><text fill="#000000" font-family="sans-serif" font-size="14" lengthAdjust="spacing" textLength="122" x="27" y="138.5264">pictureUrl: string</text><line style="stroke:#181818;stroke-width:0.5;" x1="8" x2="154" y1="145.8281" y2="145.8281"/></g><text fill="#888888" font-family="sans-serif" font-size="10" lengthAdjust="spacing" textLength="137" x="12" y="170.1104">Common Gateway Plugin</text><!--SRC=[LSmx3eCm30RWtQVmpWrOEtI3IbKFOAK6B3b9vJX2277tqZ8Wrkz_kBXoY_sSs638sTbQlEKOSy8xES-qu4FhA0acflSlVOQ98m44fLAE9Qw0sE1GLJkA-rznapJ-SU-ANkGZmQlnoqxUlW00]--></g></svg>