<?xml version="1.0" encoding="us-ascii" standalone="no"?><svg xmlns="http://www.w3.org/2000/svg" xmlns:xlink="http://www.w3.org/1999/xlink" contentStyleType="text/css" height="180px" preserveAspectRatio="none" style="width:349px;height:180px;background:#FFFFFF;" version="1.1" viewBox="0 0 349 180" width="349px" zoomAndPan="magnify"><defs/><g><text fill="#888888" font-family="sans-serif" font-size="10" lengthAdjust="spacing" textLength="45" x="296" y="9.2822">Schema</text><text fill="#000000" font-family="sans-serif" font-size="14" font-weight="bold" lengthAdjust="spacing" textLength="51" x="145" y="35.6357">Owner</text><!--class Owner--><g id="elem_Owner"><rect codeLine="5" fill="#F1F1F1" height="96.8906" id="Owner" rx="2.5" ry="2.5" style="stroke:#181818;stroke-width:0.5;" width="148" x="97" y="56.9375"/><ellipse cx="143.75" cy="72.9375" fill="#ADD1B2" rx="11" ry="11" style="stroke:#181818;stroke-width:1.0;"/><path d="M146.0938,68.6094 C145.1563,68.1719 144.5625,68.0313 143.6875,68.0313 C141.0625,68.0313 139.0625,70.1094 139.0625,72.8281 L139.0625,73.9531 C139.0625,76.5313 141.1719,78.4219 144.0625,78.4219 C145.2813,78.4219 146.4375,78.125 147.1875,77.5781 C147.7656,77.1719 148.0938,76.7188 148.0938,76.3281 C148.0938,75.875 147.7031,75.4844 147.2344,75.4844 C147.0156,75.4844 146.8125,75.5625 146.625,75.75 C146.1719,76.2344 146.1719,76.2344 145.9844,76.3281 C145.5625,76.5938 144.875,76.7188 144.1094,76.7188 C142.0625,76.7188 140.7656,75.625 140.7656,73.9219 L140.7656,72.8281 C140.7656,71.0469 142.0156,69.7344 143.75,69.7344 C144.3281,69.7344 144.9375,69.8906 145.4063,70.1406 C145.8906,70.4219 146.0625,70.6406 146.1563,71.0469 C146.2188,71.4531 146.25,71.5781 146.3906,71.7031 C146.5313,71.8438 146.7656,71.9531 146.9844,71.9531 C147.25,71.9531 147.5156,71.8125 147.6875,71.5938 C147.7969,71.4375 147.8281,71.25 147.8281,70.8281 L147.8281,69.4063 C147.8281,68.9688 147.8125,68.8438 147.7188,68.6875 C147.5625,68.4219 147.2813,68.2813 146.9844,68.2813 C146.6875,68.2813 146.4844,68.375 146.2656,68.6875 L146.0938,68.6094 Z " fill="#000000"/><text fill="#000000" font-family="sans-serif" font-size="14" lengthAdjust="spacing" textLength="46" x="164.25" y="77.7842">Owner</text><line style="stroke:#181818;stroke-width:0.5;" x1="98" x2="244" y1="88.9375" y2="88.9375"/><ellipse cx="108" cy="102.5859" fill="none" rx="3" ry="3" style="stroke:#038048;stroke-width:1.0;"/><text fill="#000000" font-family="sans-serif" font-size="14" lengthAdjust="spacing" textLength="114" x="117" y="105.9326">fullName: string</text><ellipse cx="108" cy="118.8828" fill="none" rx="3" ry="3" style="stroke:#038048;stroke-width:1.0;"/><text fill="#000000" font-family="sans-serif" font-size="14" lengthAdjust="spacing" textLength="90" x="117" y="122.2295">email: string</text><ellipse cx="108" cy="135.1797" fill="none" rx="3" ry="3" style="stroke:#038048;stroke-width:1.0;"/><text fill="#000000" font-family="sans-serif" font-size="14" lengthAdjust="spacing" textLength="122" x="117" y="138.5264">pictureUrl: string</text><line style="stroke:#181818;stroke-width:0.5;" x1="98" x2="244" y1="145.8281" y2="145.8281"/></g><text fill="#888888" font-family="sans-serif" font-size="10" lengthAdjust="spacing" textLength="341" x="0" y="170.1104">Common Gateway Plugin | Opencatalogi | Opencatalogibundle</text><!--SRC=[NOqn3i8m34NtdC8xD-ZAm4QH40SmgPjQSfpASLIXmjqfC20O_zFNUyukr46_A5aOIt6o3lObvw9mGAS5Rt2IbbZX3lrC6j5HIkA_UMqw246O28UNuXmdoXX25ApreuSr0EnWR297p5kqkh6cDzo-B3zavkZDw69V_7W2]--></g></svg>