<?xml version="1.0" encoding="UTF-8" standalone="no"?><svg xmlns="http://www.w3.org/2000/svg" xmlns:xlink="http://www.w3.org/1999/xlink" contentScriptType="application/ecmascript" contentStyleType="text/css" height="104px" preserveAspectRatio="none" style="width:140px;height:104px;" version="1.1" viewBox="0 0 140 104" width="140px" zoomAndPan="magnify"><defs><filter height="300%" id="fwtzw01zm2nsb" width="300%" x="-1" y="-1"><feGaussianBlur result="blurOut" stdDeviation="2.0"/><feColorMatrix in="blurOut" result="blurOut2" type="matrix" values="0 0 0 0 0 0 0 0 0 0 0 0 0 0 0 0 0 0 .4 0"/><feOffset dx="4.0" dy="4.0" in="blurOut2" result="blurOut3"/><feBlend in="SourceGraphic" in2="blurOut3" mode="normal"/></filter></defs><g><!--MD5=[08d6a551530ab71b272f9c2c40bfb385]
class Owner--><rect fill="#FEFECE" filter="url(#fwtzw01zm2nsb)" height="86.4141" id="Owner" style="stroke: #A80036; stroke-width: 1.5;" width="122" x="7" y="7"/><ellipse cx="44.95" cy="23" fill="#ADD1B2" rx="11" ry="11" style="stroke: #A80036; stroke-width: 1.0;"/><path d="M47.9188,28.6406 Q47.3406,28.9375 46.7,29.0781 Q46.0594,29.2344 45.3563,29.2344 Q42.8563,29.2344 41.5281,27.5938 Q40.2156,25.9375 40.2156,22.8125 Q40.2156,19.6875 41.5281,18.0313 Q42.8563,16.375 45.3563,16.375 Q46.0594,16.375 46.7,16.5313 Q47.3563,16.6875 47.9188,16.9844 L47.9188,19.7031 Q47.2938,19.125 46.7,18.8594 Q46.1063,18.5781 45.4813,18.5781 Q44.1375,18.5781 43.45,19.6563 Q42.7625,20.7188 42.7625,22.8125 Q42.7625,24.9063 43.45,25.9844 Q44.1375,27.0469 45.4813,27.0469 Q46.1063,27.0469 46.7,26.7813 Q47.2938,26.5 47.9188,25.9219 L47.9188,28.6406 Z "/><text fill="#000000" font-family="sans-serif" font-size="12" lengthAdjust="spacingAndGlyphs" textLength="39" x="64.05" y="27.1543">Owner</text><line style="stroke: #A80036; stroke-width: 1.5;" x1="8" x2="128" y1="39" y2="39"/><ellipse cx="18" cy="50" fill="none" rx="3" ry="3" style="stroke: #038048; stroke-width: 1.0;"/><text fill="#000000" font-family="sans-serif" font-size="11" lengthAdjust="spacingAndGlyphs" textLength="91" x="27" y="53.2104">fullName: string</text><ellipse cx="18" cy="62.8047" fill="none" rx="3" ry="3" style="stroke: #038048; stroke-width: 1.0;"/><text fill="#000000" font-family="sans-serif" font-size="11" lengthAdjust="spacingAndGlyphs" textLength="72" x="27" y="66.0151">email: string</text><ellipse cx="18" cy="75.6094" fill="none" rx="3" ry="3" style="stroke: #038048; stroke-width: 1.0;"/><text fill="#000000" font-family="sans-serif" font-size="11" lengthAdjust="spacingAndGlyphs" textLength="96" x="27" y="78.8198">pictureUrl: string</text><line style="stroke: #A80036; stroke-width: 1.5;" x1="8" x2="128" y1="85.4141" y2="85.4141"/><!--MD5=[e1a5dd7b3693b8d3861b832f99f60af4]
@startuml
class Owner {
  + fullName: string
  + email: string
  + pictureUrl: string
}
@enduml

PlantUML version 1.2020.02(Sun Mar 01 10:22:07 UTC 2020)
(GPL source distribution)
Java Runtime: OpenJDK Runtime Environment
JVM: OpenJDK 64-Bit Server VM
Java Version: 11.0.20.1+1
Operating System: Linux
Default Encoding: UTF-8
Language: en
Country: null
--></g></svg>