<?xml version="1.0" encoding="UTF-8" standalone="no"?><svg xmlns="http://www.w3.org/2000/svg" xmlns:xlink="http://www.w3.org/1999/xlink" contentScriptType="application/ecmascript" contentStyleType="text/css" height="155px" preserveAspectRatio="none" style="width:313px;height:155px;" version="1.1" viewBox="0 0 313 155" width="313px" zoomAndPan="magnify"><defs><filter height="300%" id="f1g3binpo83yfn" width="300%" x="-1" y="-1"><feGaussianBlur result="blurOut" stdDeviation="2.0"/><feColorMatrix in="blurOut" result="blurOut2" type="matrix" values="0 0 0 0 0 0 0 0 0 0 0 0 0 0 0 0 0 0 .4 0"/><feOffset dx="4.0" dy="4.0" in="blurOut2" result="blurOut3"/><feBlend in="SourceGraphic" in2="blurOut3" mode="normal"/></filter></defs><g><text fill="#888888" font-family="sans-serif" font-size="10" lengthAdjust="spacingAndGlyphs" textLength="40" x="261" y="9.2822">Schema</text><text fill="#000000" font-family="sans-serif" font-size="18" lengthAdjust="spacingAndGlyphs" textLength="60" x="120.5" y="28.3486">Owner</text><!--MD5=[08d6a551530ab71b272f9c2c40bfb385]
class Owner--><rect fill="#FEFECE" filter="url(#f1g3binpo83yfn)" height="86.4141" id="Owner" style="stroke: #A80036; stroke-width: 1.5;" width="122" x="89.5" y="39.5938"/><ellipse cx="127.45" cy="55.5938" fill="#ADD1B2" rx="11" ry="11" style="stroke: #A80036; stroke-width: 1.0;"/><path d="M130.4188,61.2344 Q129.8406,61.5313 129.2,61.6719 Q128.5594,61.8281 127.8563,61.8281 Q125.3563,61.8281 124.0281,60.1875 Q122.7156,58.5313 122.7156,55.4063 Q122.7156,52.2813 124.0281,50.625 Q125.3563,48.9688 127.8563,48.9688 Q128.5594,48.9688 129.2,49.125 Q129.8563,49.2813 130.4188,49.5781 L130.4188,52.2969 Q129.7938,51.7188 129.2,51.4531 Q128.6063,51.1719 127.9813,51.1719 Q126.6375,51.1719 125.95,52.25 Q125.2625,53.3125 125.2625,55.4063 Q125.2625,57.5 125.95,58.5781 Q126.6375,59.6406 127.9813,59.6406 Q128.6063,59.6406 129.2,59.375 Q129.7938,59.0938 130.4188,58.5156 L130.4188,61.2344 Z "/><text fill="#000000" font-family="sans-serif" font-size="12" lengthAdjust="spacingAndGlyphs" textLength="39" x="146.55" y="59.748">Owner</text><line style="stroke: #A80036; stroke-width: 1.5;" x1="90.5" x2="210.5" y1="71.5938" y2="71.5938"/><ellipse cx="100.5" cy="82.5938" fill="none" rx="3" ry="3" style="stroke: #038048; stroke-width: 1.0;"/><text fill="#000000" font-family="sans-serif" font-size="11" lengthAdjust="spacingAndGlyphs" textLength="91" x="109.5" y="85.8042">fullName: string</text><ellipse cx="100.5" cy="95.3984" fill="none" rx="3" ry="3" style="stroke: #038048; stroke-width: 1.0;"/><text fill="#000000" font-family="sans-serif" font-size="11" lengthAdjust="spacingAndGlyphs" textLength="72" x="109.5" y="98.6089">email: string</text><ellipse cx="100.5" cy="108.2031" fill="none" rx="3" ry="3" style="stroke: #038048; stroke-width: 1.0;"/><text fill="#000000" font-family="sans-serif" font-size="11" lengthAdjust="spacingAndGlyphs" textLength="96" x="109.5" y="111.4136">pictureUrl: string</text><line style="stroke: #A80036; stroke-width: 1.5;" x1="90.5" x2="210.5" y1="118.0078" y2="118.0078"/><text fill="#888888" font-family="sans-serif" font-size="10" lengthAdjust="spacingAndGlyphs" textLength="301" x="0" y="142.29">Common Gateway Plugin | Opencatalogi | Opencatalogibundle</text><!--MD5=[18d6bc1b07fdd775cb377b4f497d453e]
@startuml
title: Owner
footer: Common Gateway Plugin | Opencatalogi | Opencatalogibundle 
header: Schema

class Owner {
  + fullName: string
  + email: string
  + pictureUrl: string
}
@enduml

PlantUML version 1.2020.02(Sun Mar 01 10:22:07 UTC 2020)
(GPL source distribution)
Java Runtime: OpenJDK Runtime Environment
JVM: OpenJDK 64-Bit Server VM
Java Version: 11.0.20.1+1
Operating System: Linux
Default Encoding: UTF-8
Language: en
Country: null
--></g></svg>