<?xml version="1.0" encoding="UTF-8" standalone="no"?><svg xmlns="http://www.w3.org/2000/svg" xmlns:xlink="http://www.w3.org/1999/xlink" contentScriptType="application/ecmascript" contentStyleType="text/css" height="104px" preserveAspectRatio="none" style="width:151px;height:104px;" version="1.1" viewBox="0 0 151 104" width="151px" zoomAndPan="magnify"><defs><filter height="300%" id="f1kosodyynbnbk" width="300%" x="-1" y="-1"><feGaussianBlur result="blurOut" stdDeviation="2.0"/><feColorMatrix in="blurOut" result="blurOut2" type="matrix" values="0 0 0 0 0 0 0 0 0 0 0 0 0 0 0 0 0 0 .4 0"/><feOffset dx="4.0" dy="4.0" in="blurOut2" result="blurOut3"/><feBlend in="SourceGraphic" in2="blurOut3" mode="normal"/></filter></defs><g><!--MD5=[0a8a9a553ad28d76d3a1fd3918a25a86]
class Rating--><rect fill="#FEFECE" filter="url(#f1kosodyynbnbk)" height="86.4141" id="Rating" style="stroke: #A80036; stroke-width: 1.5;" width="133" x="7" y="7"/><ellipse cx="49.45" cy="23" fill="#ADD1B2" rx="11" ry="11" style="stroke: #A80036; stroke-width: 1.0;"/><path d="M52.4188,28.6406 Q51.8406,28.9375 51.2,29.0781 Q50.5594,29.2344 49.8563,29.2344 Q47.3563,29.2344 46.0281,27.5938 Q44.7156,25.9375 44.7156,22.8125 Q44.7156,19.6875 46.0281,18.0313 Q47.3563,16.375 49.8563,16.375 Q50.5594,16.375 51.2,16.5313 Q51.8563,16.6875 52.4188,16.9844 L52.4188,19.7031 Q51.7938,19.125 51.2,18.8594 Q50.6063,18.5781 49.9813,18.5781 Q48.6375,18.5781 47.95,19.6563 Q47.2625,20.7188 47.2625,22.8125 Q47.2625,24.9063 47.95,25.9844 Q48.6375,27.0469 49.9813,27.0469 Q50.6063,27.0469 51.2,26.7813 Q51.7938,26.5 52.4188,25.9219 L52.4188,28.6406 Z "/><text fill="#000000" font-family="sans-serif" font-size="12" lengthAdjust="spacingAndGlyphs" textLength="40" x="69.55" y="27.1543">Rating</text><line style="stroke: #A80036; stroke-width: 1.5;" x1="8" x2="139" y1="39" y2="39"/><ellipse cx="18" cy="50" fill="none" rx="3" ry="3" style="stroke: #038048; stroke-width: 1.0;"/><text fill="#000000" font-family="sans-serif" font-size="11" lengthAdjust="spacingAndGlyphs" textLength="81" x="27" y="53.2104">rating: integer</text><ellipse cx="18" cy="62.8047" fill="none" rx="3" ry="3" style="stroke: #038048; stroke-width: 1.0;"/><text fill="#000000" font-family="sans-serif" font-size="11" lengthAdjust="spacingAndGlyphs" textLength="107" x="27" y="66.0151">maxRating: integer</text><ellipse cx="18" cy="75.6094" fill="none" rx="3" ry="3" style="stroke: #038048; stroke-width: 1.0;"/><text fill="#000000" font-family="sans-serif" font-size="11" lengthAdjust="spacingAndGlyphs" textLength="78" x="27" y="78.8198">results: array</text><line style="stroke: #A80036; stroke-width: 1.5;" x1="8" x2="139" y1="85.4141" y2="85.4141"/><!--MD5=[eaae5c63674a37ad459abfb75ba3d7ef]
@startuml
class Rating {
  + rating: integer
  + maxRating: integer
  + results: array
}
@enduml

PlantUML version 1.2020.02(Sun Mar 01 10:22:07 UTC 2020)
(GPL source distribution)
Java Runtime: OpenJDK Runtime Environment
JVM: OpenJDK 64-Bit Server VM
Java Version: 11.0.20.1+1
Operating System: Linux
Default Encoding: UTF-8
Language: en
Country: null
--></g></svg>