<?xml version="1.0" encoding="us-ascii" standalone="no"?><svg xmlns="http://www.w3.org/2000/svg" xmlns:xlink="http://www.w3.org/1999/xlink" contentStyleType="text/css" height="180px" preserveAspectRatio="none" style="width:349px;height:180px;background:#FFFFFF;" version="1.1" viewBox="0 0 349 180" width="349px" zoomAndPan="magnify"><defs/><g><text fill="#888888" font-family="sans-serif" font-size="10" lengthAdjust="spacing" textLength="45" x="296" y="9.2822">Schema</text><text fill="#000000" font-family="sans-serif" font-size="14" font-weight="bold" lengthAdjust="spacing" textLength="54" x="143.5" y="35.6357">Rating</text><!--class Rating--><g id="elem_Rating"><rect codeLine="5" fill="#F1F1F1" height="96.8906" id="Rating" rx="2.5" ry="2.5" style="stroke:#181818;stroke-width:0.5;" width="165" x="88.5" y="56.9375"/><ellipse cx="143.25" cy="72.9375" fill="#ADD1B2" rx="11" ry="11" style="stroke:#181818;stroke-width:1.0;"/><path d="M145.5938,68.6094 C144.6563,68.1719 144.0625,68.0313 143.1875,68.0313 C140.5625,68.0313 138.5625,70.1094 138.5625,72.8281 L138.5625,73.9531 C138.5625,76.5313 140.6719,78.4219 143.5625,78.4219 C144.7813,78.4219 145.9375,78.125 146.6875,77.5781 C147.2656,77.1719 147.5938,76.7188 147.5938,76.3281 C147.5938,75.875 147.2031,75.4844 146.7344,75.4844 C146.5156,75.4844 146.3125,75.5625 146.125,75.75 C145.6719,76.2344 145.6719,76.2344 145.4844,76.3281 C145.0625,76.5938 144.375,76.7188 143.6094,76.7188 C141.5625,76.7188 140.2656,75.625 140.2656,73.9219 L140.2656,72.8281 C140.2656,71.0469 141.5156,69.7344 143.25,69.7344 C143.8281,69.7344 144.4375,69.8906 144.9063,70.1406 C145.3906,70.4219 145.5625,70.6406 145.6563,71.0469 C145.7188,71.4531 145.75,71.5781 145.8906,71.7031 C146.0313,71.8438 146.2656,71.9531 146.4844,71.9531 C146.75,71.9531 147.0156,71.8125 147.1875,71.5938 C147.2969,71.4375 147.3281,71.25 147.3281,70.8281 L147.3281,69.4063 C147.3281,68.9688 147.3125,68.8438 147.2188,68.6875 C147.0625,68.4219 146.7813,68.2813 146.4844,68.2813 C146.1875,68.2813 145.9844,68.375 145.7656,68.6875 L145.5938,68.6094 Z " fill="#000000"/><text fill="#000000" font-family="sans-serif" font-size="14" lengthAdjust="spacing" textLength="47" x="163.75" y="77.7842">Rating</text><line style="stroke:#181818;stroke-width:0.5;" x1="89.5" x2="252.5" y1="88.9375" y2="88.9375"/><ellipse cx="99.5" cy="102.5859" fill="none" rx="3" ry="3" style="stroke:#038048;stroke-width:1.0;"/><text fill="#000000" font-family="sans-serif" font-size="14" lengthAdjust="spacing" textLength="105" x="108.5" y="105.9326">rating: integer</text><ellipse cx="99.5" cy="118.8828" fill="none" rx="3" ry="3" style="stroke:#038048;stroke-width:1.0;"/><text fill="#000000" font-family="sans-serif" font-size="14" lengthAdjust="spacing" textLength="139" x="108.5" y="122.2295">maxRating: integer</text><ellipse cx="99.5" cy="135.1797" fill="none" rx="3" ry="3" style="stroke:#038048;stroke-width:1.0;"/><text fill="#000000" font-family="sans-serif" font-size="14" lengthAdjust="spacing" textLength="93" x="108.5" y="138.5264">results: array</text><line style="stroke:#181818;stroke-width:0.5;" x1="89.5" x2="252.5" y1="145.8281" y2="145.8281"/></g><text fill="#888888" font-family="sans-serif" font-size="10" lengthAdjust="spacing" textLength="341" x="0" y="170.1104">Common Gateway Plugin | Opencatalogi | Opencatalogibundle</text><!--SRC=[RSmn3i8m34RXFQVuTswGbO4HL4vWKfD6SXpak8AgS7T4nOGOtpSyBouSCP0NpU7QchD5x5kjJN4WvpijECcSY-A9uuqraPEqN7xoCkieZ30nZP_5EKrSAOGarFltZpK0EzWM4KMTCzjcbHx37pRkitYF83DQmkiD]--></g></svg>