<?xml version="1.0" encoding="us-ascii" standalone="no"?><svg xmlns="http://www.w3.org/2000/svg" xmlns:xlink="http://www.w3.org/1999/xlink" contentStyleType="text/css" height="180px" preserveAspectRatio="none" style="width:186px;height:180px;background:#FFFFFF;" version="1.1" viewBox="0 0 186 180" width="186px" zoomAndPan="magnify"><defs/><g><text fill="#888888" font-family="sans-serif" font-size="10" lengthAdjust="spacing" textLength="45" x="133" y="9.2822">Schema</text><text fill="#000000" font-family="sans-serif" font-size="14" font-weight="bold" lengthAdjust="spacing" textLength="54" x="62" y="35.6357">Rating</text><!--class Rating--><g id="elem_Rating"><rect codeLine="5" fill="#F1F1F1" height="96.8906" id="Rating" rx="2.5" ry="2.5" style="stroke:#181818;stroke-width:0.5;" width="165" x="7" y="56.9375"/><ellipse cx="61.75" cy="72.9375" fill="#ADD1B2" rx="11" ry="11" style="stroke:#181818;stroke-width:1.0;"/><path d="M64.0938,68.6094 C63.1563,68.1719 62.5625,68.0313 61.6875,68.0313 C59.0625,68.0313 57.0625,70.1094 57.0625,72.8281 L57.0625,73.9531 C57.0625,76.5313 59.1719,78.4219 62.0625,78.4219 C63.2813,78.4219 64.4375,78.125 65.1875,77.5781 C65.7656,77.1719 66.0938,76.7188 66.0938,76.3281 C66.0938,75.875 65.7031,75.4844 65.2344,75.4844 C65.0156,75.4844 64.8125,75.5625 64.625,75.75 C64.1719,76.2344 64.1719,76.2344 63.9844,76.3281 C63.5625,76.5938 62.875,76.7188 62.1094,76.7188 C60.0625,76.7188 58.7656,75.625 58.7656,73.9219 L58.7656,72.8281 C58.7656,71.0469 60.0156,69.7344 61.75,69.7344 C62.3281,69.7344 62.9375,69.8906 63.4063,70.1406 C63.8906,70.4219 64.0625,70.6406 64.1563,71.0469 C64.2188,71.4531 64.25,71.5781 64.3906,71.7031 C64.5313,71.8438 64.7656,71.9531 64.9844,71.9531 C65.25,71.9531 65.5156,71.8125 65.6875,71.5938 C65.7969,71.4375 65.8281,71.25 65.8281,70.8281 L65.8281,69.4063 C65.8281,68.9688 65.8125,68.8438 65.7188,68.6875 C65.5625,68.4219 65.2813,68.2813 64.9844,68.2813 C64.6875,68.2813 64.4844,68.375 64.2656,68.6875 L64.0938,68.6094 Z " fill="#000000"/><text fill="#000000" font-family="sans-serif" font-size="14" lengthAdjust="spacing" textLength="47" x="82.25" y="77.7842">Rating</text><line style="stroke:#181818;stroke-width:0.5;" x1="8" x2="171" y1="88.9375" y2="88.9375"/><ellipse cx="18" cy="102.5859" fill="none" rx="3" ry="3" style="stroke:#038048;stroke-width:1.0;"/><text fill="#000000" font-family="sans-serif" font-size="14" lengthAdjust="spacing" textLength="105" x="27" y="105.9326">rating: integer</text><ellipse cx="18" cy="118.8828" fill="none" rx="3" ry="3" style="stroke:#038048;stroke-width:1.0;"/><text fill="#000000" font-family="sans-serif" font-size="14" lengthAdjust="spacing" textLength="139" x="27" y="122.2295">maxRating: integer</text><ellipse cx="18" cy="135.1797" fill="none" rx="3" ry="3" style="stroke:#038048;stroke-width:1.0;"/><text fill="#000000" font-family="sans-serif" font-size="14" lengthAdjust="spacing" textLength="93" x="27" y="138.5264">results: array</text><line style="stroke:#181818;stroke-width:0.5;" x1="8" x2="171" y1="145.8281" y2="145.8281"/></g><text fill="#888888" font-family="sans-serif" font-size="10" lengthAdjust="spacing" textLength="137" x="20.5" y="170.1104">Common Gateway Plugin</text><!--SRC=[ROix2iCm40NxFSNhSmErAT86vmGFPoqBz87LciIOt3tOk7GvCumdpnemq5EDChNcQW7tLaghUD3rmnNFlCHKPLQ-z_eQPoqK6JDxFrTi0jnW1mIawXhL3bVu7IwqQL-ozm2QSPNV7m00]--></g></svg>