<?xml version="1.0" encoding="UTF-8" standalone="no"?><svg xmlns="http://www.w3.org/2000/svg" xmlns:xlink="http://www.w3.org/1999/xlink" contentScriptType="application/ecmascript" contentStyleType="text/css" height="155px" preserveAspectRatio="none" style="width:313px;height:155px;" version="1.1" viewBox="0 0 313 155" width="313px" zoomAndPan="magnify"><defs><filter height="300%" id="f159vdlkrlwyu" width="300%" x="-1" y="-1"><feGaussianBlur result="blurOut" stdDeviation="2.0"/><feColorMatrix in="blurOut" result="blurOut2" type="matrix" values="0 0 0 0 0 0 0 0 0 0 0 0 0 0 0 0 0 0 .4 0"/><feOffset dx="4.0" dy="4.0" in="blurOut2" result="blurOut3"/><feBlend in="SourceGraphic" in2="blurOut3" mode="normal"/></filter></defs><g><text fill="#888888" font-family="sans-serif" font-size="10" lengthAdjust="spacingAndGlyphs" textLength="40" x="261" y="9.2822">Schema</text><text fill="#000000" font-family="sans-serif" font-size="18" lengthAdjust="spacingAndGlyphs" textLength="57" x="122" y="28.3486">Rating</text><!--MD5=[0a8a9a553ad28d76d3a1fd3918a25a86]
class Rating--><rect fill="#FEFECE" filter="url(#f159vdlkrlwyu)" height="86.4141" id="Rating" style="stroke: #A80036; stroke-width: 1.5;" width="133" x="84" y="39.5938"/><ellipse cx="126.45" cy="55.5938" fill="#ADD1B2" rx="11" ry="11" style="stroke: #A80036; stroke-width: 1.0;"/><path d="M129.4188,61.2344 Q128.8406,61.5313 128.2,61.6719 Q127.5594,61.8281 126.8563,61.8281 Q124.3563,61.8281 123.0281,60.1875 Q121.7156,58.5313 121.7156,55.4063 Q121.7156,52.2813 123.0281,50.625 Q124.3563,48.9688 126.8563,48.9688 Q127.5594,48.9688 128.2,49.125 Q128.8563,49.2813 129.4188,49.5781 L129.4188,52.2969 Q128.7938,51.7188 128.2,51.4531 Q127.6063,51.1719 126.9813,51.1719 Q125.6375,51.1719 124.95,52.25 Q124.2625,53.3125 124.2625,55.4063 Q124.2625,57.5 124.95,58.5781 Q125.6375,59.6406 126.9813,59.6406 Q127.6063,59.6406 128.2,59.375 Q128.7938,59.0938 129.4188,58.5156 L129.4188,61.2344 Z "/><text fill="#000000" font-family="sans-serif" font-size="12" lengthAdjust="spacingAndGlyphs" textLength="40" x="146.55" y="59.748">Rating</text><line style="stroke: #A80036; stroke-width: 1.5;" x1="85" x2="216" y1="71.5938" y2="71.5938"/><ellipse cx="95" cy="82.5938" fill="none" rx="3" ry="3" style="stroke: #038048; stroke-width: 1.0;"/><text fill="#000000" font-family="sans-serif" font-size="11" lengthAdjust="spacingAndGlyphs" textLength="81" x="104" y="85.8042">rating: integer</text><ellipse cx="95" cy="95.3984" fill="none" rx="3" ry="3" style="stroke: #038048; stroke-width: 1.0;"/><text fill="#000000" font-family="sans-serif" font-size="11" lengthAdjust="spacingAndGlyphs" textLength="107" x="104" y="98.6089">maxRating: integer</text><ellipse cx="95" cy="108.2031" fill="none" rx="3" ry="3" style="stroke: #038048; stroke-width: 1.0;"/><text fill="#000000" font-family="sans-serif" font-size="11" lengthAdjust="spacingAndGlyphs" textLength="78" x="104" y="111.4136">results: array</text><line style="stroke: #A80036; stroke-width: 1.5;" x1="85" x2="216" y1="118.0078" y2="118.0078"/><text fill="#888888" font-family="sans-serif" font-size="10" lengthAdjust="spacingAndGlyphs" textLength="301" x="0" y="142.29">Common Gateway Plugin | Opencatalogi | Opencatalogibundle</text><!--MD5=[a710d310a7dc61aacd5685649f9a4be5]
@startuml
title: Rating
footer: Common Gateway Plugin | Opencatalogi | Opencatalogibundle 
header: Schema

class Rating {
  + rating: integer
  + maxRating: integer
  + results: array
}
@enduml

PlantUML version 1.2020.02(Sun Mar 01 10:22:07 UTC 2020)
(GPL source distribution)
Java Runtime: OpenJDK Runtime Environment
JVM: OpenJDK 64-Bit Server VM
Java Version: 11.0.20.1+1
Operating System: Linux
Default Encoding: UTF-8
Language: en
Country: null
--></g></svg>