<?xml version="1.0" encoding="UTF-8" standalone="no"?><svg xmlns="http://www.w3.org/2000/svg" xmlns:xlink="http://www.w3.org/1999/xlink" contentScriptType="application/ecmascript" contentStyleType="text/css" height="322px" preserveAspectRatio="none" style="width:313px;height:322px;" version="1.1" viewBox="0 0 313 322" width="313px" zoomAndPan="magnify"><defs><filter height="300%" id="fsbd9pctuzruu" width="300%" x="-1" y="-1"><feGaussianBlur result="blurOut" stdDeviation="2.0"/><feColorMatrix in="blurOut" result="blurOut2" type="matrix" values="0 0 0 0 0 0 0 0 0 0 0 0 0 0 0 0 0 0 .4 0"/><feOffset dx="4.0" dy="4.0" in="blurOut2" result="blurOut3"/><feBlend in="SourceGraphic" in2="blurOut3" mode="normal"/></filter></defs><g><text fill="#888888" font-family="sans-serif" font-size="10" lengthAdjust="spacingAndGlyphs" textLength="40" x="261" y="9.2822">Schema</text><text fill="#000000" font-family="sans-serif" font-size="18" lengthAdjust="spacingAndGlyphs" textLength="96" x="102.5" y="28.3486">Repository</text><!--MD5=[c05f8d4c5007184b0fb1ea93cdb8d9fe]
class Repository--><rect fill="#FEFECE" filter="url(#fsbd9pctuzruu)" height="252.875" id="Repository" style="stroke: #A80036; stroke-width: 1.5;" width="236" x="32.5" y="39.5938"/><ellipse cx="113.25" cy="55.5938" fill="#ADD1B2" rx="11" ry="11" style="stroke: #A80036; stroke-width: 1.0;"/><path d="M116.2188,61.2344 Q115.6406,61.5313 115,61.6719 Q114.3594,61.8281 113.6563,61.8281 Q111.1563,61.8281 109.8281,60.1875 Q108.5156,58.5313 108.5156,55.4063 Q108.5156,52.2813 109.8281,50.625 Q111.1563,48.9688 113.6563,48.9688 Q114.3594,48.9688 115,49.125 Q115.6563,49.2813 116.2188,49.5781 L116.2188,52.2969 Q115.5938,51.7188 115,51.4531 Q114.4063,51.1719 113.7813,51.1719 Q112.4375,51.1719 111.75,52.25 Q111.0625,53.3125 111.0625,55.4063 Q111.0625,57.5 111.75,58.5781 Q112.4375,59.6406 113.7813,59.6406 Q114.4063,59.6406 115,59.375 Q115.5938,59.0938 116.2188,58.5156 L116.2188,61.2344 Z "/><text fill="#000000" font-family="sans-serif" font-size="12" lengthAdjust="spacingAndGlyphs" textLength="66" x="133.75" y="59.748">Repository</text><line style="stroke: #A80036; stroke-width: 1.5;" x1="33.5" x2="267.5" y1="71.5938" y2="71.5938"/><ellipse cx="43.5" cy="82.5938" fill="none" rx="3" ry="3" style="stroke: #038048; stroke-width: 1.0;"/><text fill="#000000" font-family="sans-serif" font-size="11" lengthAdjust="spacingAndGlyphs" textLength="99" x="52.5" y="85.8042">organisation: Any</text><ellipse cx="43.5" cy="95.3984" fill="none" rx="3" ry="3" style="stroke: #038048; stroke-width: 1.0;"/><text fill="#000000" font-family="sans-serif" font-size="11" lengthAdjust="spacingAndGlyphs" textLength="91" x="52.5" y="98.6089">component: Any</text><ellipse cx="43.5" cy="108.2031" fill="none" rx="3" ry="3" style="stroke: #038048; stroke-width: 1.0;"/><text fill="#000000" font-family="sans-serif" font-size="11" lengthAdjust="spacingAndGlyphs" textLength="80" x="52.5" y="111.4136">source: string</text><ellipse cx="43.5" cy="121.0078" fill="none" rx="3" ry="3" style="stroke: #038048; stroke-width: 1.0;"/><text fill="#000000" font-family="sans-serif" font-size="11" lengthAdjust="spacingAndGlyphs" textLength="73" x="52.5" y="124.2183">name: string</text><ellipse cx="43.5" cy="133.8125" fill="none" rx="3" ry="3" style="stroke: #038048; stroke-width: 1.0;"/><text fill="#000000" font-family="sans-serif" font-size="11" lengthAdjust="spacingAndGlyphs" textLength="56" x="52.5" y="137.0229">url: string</text><ellipse cx="43.5" cy="146.6172" fill="none" rx="3" ry="3" style="stroke: #038048; stroke-width: 1.0;"/><text fill="#000000" font-family="sans-serif" font-size="11" lengthAdjust="spacingAndGlyphs" textLength="98" x="52.5" y="149.8276">avatar_url: string</text><ellipse cx="43.5" cy="159.4219" fill="none" rx="3" ry="3" style="stroke: #038048; stroke-width: 1.0;"/><text fill="#000000" font-family="sans-serif" font-size="11" lengthAdjust="spacingAndGlyphs" textLength="109" x="52.5" y="162.6323">last_change: string</text><ellipse cx="43.5" cy="172.2266" fill="none" rx="3" ry="3" style="stroke: #038048; stroke-width: 1.0;"/><text fill="#000000" font-family="sans-serif" font-size="11" lengthAdjust="spacingAndGlyphs" textLength="82" x="52.5" y="175.437">stars: number</text><ellipse cx="43.5" cy="185.0313" fill="none" rx="3" ry="3" style="stroke: #038048; stroke-width: 1.0;"/><text fill="#000000" font-family="sans-serif" font-size="11" lengthAdjust="spacingAndGlyphs" textLength="111" x="52.5" y="188.2417">fork_count: number</text><ellipse cx="43.5" cy="197.8359" fill="none" rx="3" ry="3" style="stroke: #038048; stroke-width: 1.0;"/><text fill="#000000" font-family="sans-serif" font-size="11" lengthAdjust="spacingAndGlyphs" textLength="154" x="52.5" y="201.0464">issue_open_count: number</text><ellipse cx="43.5" cy="210.6406" fill="none" rx="3" ry="3" style="stroke: #038048; stroke-width: 1.0;"/><text fill="#000000" font-family="sans-serif" font-size="11" lengthAdjust="spacingAndGlyphs" textLength="210" x="52.5" y="213.8511">merge_request_open_count: number</text><ellipse cx="43.5" cy="223.4453" fill="none" rx="3" ry="3" style="stroke: #038048; stroke-width: 1.0;"/><text fill="#000000" font-family="sans-serif" font-size="11" lengthAdjust="spacingAndGlyphs" textLength="180" x="52.5" y="226.6558">programming_languages: array</text><ellipse cx="43.5" cy="236.25" fill="none" rx="3" ry="3" style="stroke: #038048; stroke-width: 1.0;"/><text fill="#000000" font-family="sans-serif" font-size="11" lengthAdjust="spacingAndGlyphs" textLength="72" x="52.5" y="239.4604">topics: array</text><ellipse cx="43.5" cy="249.0547" fill="none" rx="3" ry="3" style="stroke: #038048; stroke-width: 1.0;"/><text fill="#000000" font-family="sans-serif" font-size="11" lengthAdjust="spacingAndGlyphs" textLength="83" x="52.5" y="252.2651">content: string</text><ellipse cx="43.5" cy="261.8594" fill="none" rx="3" ry="3" style="stroke: #038048; stroke-width: 1.0;"/><text fill="#000000" font-family="sans-serif" font-size="11" lengthAdjust="spacingAndGlyphs" textLength="122" x="52.5" y="265.0698">publiccode_url: string</text><ellipse cx="43.5" cy="274.6641" fill="none" rx="3" ry="3" style="stroke: #038048; stroke-width: 1.0;"/><text fill="#000000" font-family="sans-serif" font-size="11" lengthAdjust="spacingAndGlyphs" textLength="121" x="52.5" y="277.8745">default_owner: string</text><line style="stroke: #A80036; stroke-width: 1.5;" x1="33.5" x2="267.5" y1="284.4688" y2="284.4688"/><text fill="#888888" font-family="sans-serif" font-size="10" lengthAdjust="spacingAndGlyphs" textLength="301" x="0" y="308.751">Common Gateway Plugin | Opencatalogi | Opencatalogibundle</text><!--MD5=[4faba560e21e57bdb5a60bdadeb1df77]
@startuml
title: Repository
footer: Common Gateway Plugin | Opencatalogi | Opencatalogibundle 
header: Schema

class Repository {
  + organisation: Any
  + component: Any
  + source: string
  + name: string
  + url: string
  + avatar_url: string
  + last_change: string
  + stars: number
  + fork_count: number
  + issue_open_count: number
  + merge_request_open_count: number
  + programming_languages: array
  + topics: array
  + content: string
  + publiccode_url: string
  + default_owner: string
}
@enduml

PlantUML version 1.2020.02(Sun Mar 01 10:22:07 UTC 2020)
(GPL source distribution)
Java Runtime: OpenJDK Runtime Environment
JVM: OpenJDK 64-Bit Server VM
Java Version: 11.0.20.1+1
Operating System: Linux
Default Encoding: UTF-8
Language: en
Country: null
--></g></svg>