<?xml version="1.0" encoding="us-ascii" standalone="no"?><svg xmlns="http://www.w3.org/2000/svg" xmlns:xlink="http://www.w3.org/1999/xlink" contentStyleType="text/css" height="392px" preserveAspectRatio="none" style="width:349px;height:392px;background:#FFFFFF;" version="1.1" viewBox="0 0 349 392" width="349px" zoomAndPan="magnify"><defs/><g><text fill="#888888" font-family="sans-serif" font-size="10" lengthAdjust="spacing" textLength="45" x="296" y="9.2822">Schema</text><text fill="#000000" font-family="sans-serif" font-size="14" font-weight="bold" lengthAdjust="spacing" textLength="88" x="126.5" y="35.6357">Repository</text><!--class Repository--><g id="elem_Repository"><rect codeLine="5" fill="#F1F1F1" height="308.75" id="Repository" rx="2.5" ry="2.5" style="stroke:#181818;stroke-width:0.5;" width="292" x="25" y="56.9375"/><ellipse cx="127.25" cy="72.9375" fill="#ADD1B2" rx="11" ry="11" style="stroke:#181818;stroke-width:1.0;"/><path d="M129.5938,68.6094 C128.6563,68.1719 128.0625,68.0313 127.1875,68.0313 C124.5625,68.0313 122.5625,70.1094 122.5625,72.8281 L122.5625,73.9531 C122.5625,76.5313 124.6719,78.4219 127.5625,78.4219 C128.7813,78.4219 129.9375,78.125 130.6875,77.5781 C131.2656,77.1719 131.5938,76.7188 131.5938,76.3281 C131.5938,75.875 131.2031,75.4844 130.7344,75.4844 C130.5156,75.4844 130.3125,75.5625 130.125,75.75 C129.6719,76.2344 129.6719,76.2344 129.4844,76.3281 C129.0625,76.5938 128.375,76.7188 127.6094,76.7188 C125.5625,76.7188 124.2656,75.625 124.2656,73.9219 L124.2656,72.8281 C124.2656,71.0469 125.5156,69.7344 127.25,69.7344 C127.8281,69.7344 128.4375,69.8906 128.9063,70.1406 C129.3906,70.4219 129.5625,70.6406 129.6563,71.0469 C129.7188,71.4531 129.75,71.5781 129.8906,71.7031 C130.0313,71.8438 130.2656,71.9531 130.4844,71.9531 C130.75,71.9531 131.0156,71.8125 131.1875,71.5938 C131.2969,71.4375 131.3281,71.25 131.3281,70.8281 L131.3281,69.4063 C131.3281,68.9688 131.3125,68.8438 131.2188,68.6875 C131.0625,68.4219 130.7813,68.2813 130.4844,68.2813 C130.1875,68.2813 129.9844,68.375 129.7656,68.6875 L129.5938,68.6094 Z " fill="#000000"/><text fill="#000000" font-family="sans-serif" font-size="14" lengthAdjust="spacing" textLength="79" x="147.75" y="77.7842">Repository</text><line style="stroke:#181818;stroke-width:0.5;" x1="26" x2="316" y1="88.9375" y2="88.9375"/><ellipse cx="36" cy="102.5859" fill="none" rx="3" ry="3" style="stroke:#038048;stroke-width:1.0;"/><text fill="#000000" font-family="sans-serif" font-size="14" lengthAdjust="spacing" textLength="125" x="45" y="105.9326">organisation: Any</text><ellipse cx="36" cy="118.8828" fill="none" rx="3" ry="3" style="stroke:#038048;stroke-width:1.0;"/><text fill="#000000" font-family="sans-serif" font-size="14" lengthAdjust="spacing" textLength="120" x="45" y="122.2295">component: Any</text><ellipse cx="36" cy="135.1797" fill="none" rx="3" ry="3" style="stroke:#038048;stroke-width:1.0;"/><text fill="#000000" font-family="sans-serif" font-size="14" lengthAdjust="spacing" textLength="98" x="45" y="138.5264">source: string</text><ellipse cx="36" cy="151.4766" fill="none" rx="3" ry="3" style="stroke:#038048;stroke-width:1.0;"/><text fill="#000000" font-family="sans-serif" font-size="14" lengthAdjust="spacing" textLength="91" x="45" y="154.8232">name: string</text><ellipse cx="36" cy="167.7734" fill="none" rx="3" ry="3" style="stroke:#038048;stroke-width:1.0;"/><text fill="#000000" font-family="sans-serif" font-size="14" lengthAdjust="spacing" textLength="69" x="45" y="171.1201">url: string</text><ellipse cx="36" cy="184.0703" fill="none" rx="3" ry="3" style="stroke:#038048;stroke-width:1.0;"/><text fill="#000000" font-family="sans-serif" font-size="14" lengthAdjust="spacing" textLength="121" x="45" y="187.417">avatar_url: string</text><ellipse cx="36" cy="200.3672" fill="none" rx="3" ry="3" style="stroke:#038048;stroke-width:1.0;"/><text fill="#000000" font-family="sans-serif" font-size="14" lengthAdjust="spacing" textLength="136" x="45" y="203.7139">last_change: string</text><ellipse cx="36" cy="216.6641" fill="none" rx="3" ry="3" style="stroke:#038048;stroke-width:1.0;"/><text fill="#000000" font-family="sans-serif" font-size="14" lengthAdjust="spacing" textLength="100" x="45" y="220.0107">stars: number</text><ellipse cx="36" cy="232.9609" fill="none" rx="3" ry="3" style="stroke:#038048;stroke-width:1.0;"/><text fill="#000000" font-family="sans-serif" font-size="14" lengthAdjust="spacing" textLength="143" x="45" y="236.3076">fork_count: number</text><ellipse cx="36" cy="249.2578" fill="none" rx="3" ry="3" style="stroke:#038048;stroke-width:1.0;"/><text fill="#000000" font-family="sans-serif" font-size="14" lengthAdjust="spacing" textLength="192" x="45" y="252.6045">issue_open_count: number</text><ellipse cx="36" cy="265.5547" fill="none" rx="3" ry="3" style="stroke:#038048;stroke-width:1.0;"/><text fill="#000000" font-family="sans-serif" font-size="14" lengthAdjust="spacing" textLength="266" x="45" y="268.9014">merge_request_open_count: number</text><ellipse cx="36" cy="281.8516" fill="none" rx="3" ry="3" style="stroke:#038048;stroke-width:1.0;"/><text fill="#000000" font-family="sans-serif" font-size="14" lengthAdjust="spacing" textLength="221" x="45" y="285.1982">programming_languages: array</text><ellipse cx="36" cy="298.1484" fill="none" rx="3" ry="3" style="stroke:#038048;stroke-width:1.0;"/><text fill="#000000" font-family="sans-serif" font-size="14" lengthAdjust="spacing" textLength="90" x="45" y="301.4951">topics: array</text><ellipse cx="36" cy="314.4453" fill="none" rx="3" ry="3" style="stroke:#038048;stroke-width:1.0;"/><text fill="#000000" font-family="sans-serif" font-size="14" lengthAdjust="spacing" textLength="109" x="45" y="317.792">content: string</text><ellipse cx="36" cy="330.7422" fill="none" rx="3" ry="3" style="stroke:#038048;stroke-width:1.0;"/><text fill="#000000" font-family="sans-serif" font-size="14" lengthAdjust="spacing" textLength="155" x="45" y="334.0889">publiccode_url: string</text><ellipse cx="36" cy="347.0391" fill="none" rx="3" ry="3" style="stroke:#038048;stroke-width:1.0;"/><text fill="#000000" font-family="sans-serif" font-size="14" lengthAdjust="spacing" textLength="153" x="45" y="350.3857">default_owner: string</text><line style="stroke:#181818;stroke-width:0.5;" x1="26" x2="316" y1="357.6875" y2="357.6875"/></g><text fill="#888888" font-family="sans-serif" font-size="10" lengthAdjust="spacing" textLength="341" x="0" y="381.9697">Common Gateway Plugin | Opencatalogi | Opencatalogibundle</text><!--SRC=[TP51JiGm34NtFONttA0xn88b20uGUL8tZKZiuZWpge2xanOasW6MVdRodnEBbgY79vgbH1DTkb74I7kuavo5uHwDBhZ0OweXChp3mqpiqJ19Y5VbgVAG2Bg9S5YlUFOJPUmwdx2KNGQyTG0t81gGOq6BmZtSyh9HBtaM9hOVLAIgRvR5D7BO46C-WghfKEEvIQcxnit4d9-Gm_5uQSEb1wxvHBgHKVJ5UQcho0x7KYevQLl_qSoaWPpIQwKMyy_Gh18KSsxHBZMHYe5QDAhYrxecS_G7ueLjUv6TyLnFANel0_rQSg0HQse25rw_uRlpyGa0]--></g></svg>