<?xml version="1.0" encoding="us-ascii" standalone="no"?><svg xmlns="http://www.w3.org/2000/svg" xmlns:xlink="http://www.w3.org/1999/xlink" contentStyleType="text/css" height="180px" preserveAspectRatio="none" style="width:349px;height:180px;background:#FFFFFF;" version="1.1" viewBox="0 0 349 180" width="349px" zoomAndPan="magnify"><defs/><g><text fill="#888888" font-family="sans-serif" font-size="10" lengthAdjust="spacing" textLength="45" x="296" y="9.2822">Schema</text><text fill="#000000" font-family="sans-serif" font-size="14" font-weight="bold" lengthAdjust="spacing" textLength="55" x="143" y="35.6357">Source</text><!--class Source--><g id="elem_Source"><rect codeLine="5" fill="#F1F1F1" height="96.8906" id="Source" rx="2.5" ry="2.5" style="stroke:#181818;stroke-width:0.5;" width="159" x="91.5" y="56.9375"/><ellipse cx="142.25" cy="72.9375" fill="#ADD1B2" rx="11" ry="11" style="stroke:#181818;stroke-width:1.0;"/><path d="M144.5938,68.6094 C143.6563,68.1719 143.0625,68.0313 142.1875,68.0313 C139.5625,68.0313 137.5625,70.1094 137.5625,72.8281 L137.5625,73.9531 C137.5625,76.5313 139.6719,78.4219 142.5625,78.4219 C143.7813,78.4219 144.9375,78.125 145.6875,77.5781 C146.2656,77.1719 146.5938,76.7188 146.5938,76.3281 C146.5938,75.875 146.2031,75.4844 145.7344,75.4844 C145.5156,75.4844 145.3125,75.5625 145.125,75.75 C144.6719,76.2344 144.6719,76.2344 144.4844,76.3281 C144.0625,76.5938 143.375,76.7188 142.6094,76.7188 C140.5625,76.7188 139.2656,75.625 139.2656,73.9219 L139.2656,72.8281 C139.2656,71.0469 140.5156,69.7344 142.25,69.7344 C142.8281,69.7344 143.4375,69.8906 143.9063,70.1406 C144.3906,70.4219 144.5625,70.6406 144.6563,71.0469 C144.7188,71.4531 144.75,71.5781 144.8906,71.7031 C145.0313,71.8438 145.2656,71.9531 145.4844,71.9531 C145.75,71.9531 146.0156,71.8125 146.1875,71.5938 C146.2969,71.4375 146.3281,71.25 146.3281,70.8281 L146.3281,69.4063 C146.3281,68.9688 146.3125,68.8438 146.2188,68.6875 C146.0625,68.4219 145.7813,68.2813 145.4844,68.2813 C145.1875,68.2813 144.9844,68.375 144.7656,68.6875 L144.5938,68.6094 Z " fill="#000000"/><text fill="#000000" font-family="sans-serif" font-size="14" lengthAdjust="spacing" textLength="49" x="162.75" y="77.7842">Source</text><line style="stroke:#181818;stroke-width:0.5;" x1="92.5" x2="249.5" y1="88.9375" y2="88.9375"/><ellipse cx="102.5" cy="102.5859" fill="none" rx="3" ry="3" style="stroke:#038048;stroke-width:1.0;"/><text fill="#000000" font-family="sans-serif" font-size="14" lengthAdjust="spacing" textLength="91" x="111.5" y="105.9326">name: string</text><ellipse cx="102.5" cy="118.8828" fill="none" rx="3" ry="3" style="stroke:#038048;stroke-width:1.0;"/><text fill="#000000" font-family="sans-serif" font-size="14" lengthAdjust="spacing" textLength="133" x="111.5" y="122.2295">description: string</text><ellipse cx="102.5" cy="135.1797" fill="none" rx="3" ry="3" style="stroke:#038048;stroke-width:1.0;"/><text fill="#000000" font-family="sans-serif" font-size="14" lengthAdjust="spacing" textLength="109" x="111.5" y="138.5264">location: string</text><line style="stroke:#181818;stroke-width:0.5;" x1="92.5" x2="249.5" y1="145.8281" y2="145.8281"/></g><text fill="#888888" font-family="sans-serif" font-size="10" lengthAdjust="spacing" textLength="341" x="0" y="170.1104">Common Gateway Plugin | Opencatalogi | Opencatalogibundle</text><!--SRC=[NSqn3i8m38NXFQVmpWswCZ22r1EOnAIM7BjA7244lJi5CRICxnl-v-n20upMQwHmCtEg0noj55CueTCT7t2HdbdX1UUPDAAZMEQ_UUsQX21CXEcJ6ED41KE8Wgtz-l0C00TGBEjbyygQlv2enSgpi-dEnTRw5fSt]--></g></svg>