<?xml version="1.0" encoding="UTF-8" standalone="no"?><svg xmlns="http://www.w3.org/2000/svg" xmlns:xlink="http://www.w3.org/1999/xlink" contentScriptType="application/ecmascript" contentStyleType="text/css" height="155px" preserveAspectRatio="none" style="width:313px;height:155px;" version="1.1" viewBox="0 0 313 155" width="313px" zoomAndPan="magnify"><defs><filter height="300%" id="f1vsfdweir49h0" width="300%" x="-1" y="-1"><feGaussianBlur result="blurOut" stdDeviation="2.0"/><feColorMatrix in="blurOut" result="blurOut2" type="matrix" values="0 0 0 0 0 0 0 0 0 0 0 0 0 0 0 0 0 0 .4 0"/><feOffset dx="4.0" dy="4.0" in="blurOut2" result="blurOut3"/><feBlend in="SourceGraphic" in2="blurOut3" mode="normal"/></filter></defs><g><text fill="#888888" font-family="sans-serif" font-size="10" lengthAdjust="spacingAndGlyphs" textLength="40" x="261" y="9.2822">Schema</text><text fill="#000000" font-family="sans-serif" font-size="18" lengthAdjust="spacingAndGlyphs" textLength="61" x="120" y="28.3486">Source</text><!--MD5=[43d3c0ba1d3b9c6f5e40c8769cc5b343]
class Source--><rect fill="#FEFECE" filter="url(#f1vsfdweir49h0)" height="86.4141" id="Source" style="stroke: #A80036; stroke-width: 1.5;" width="130" x="85.5" y="39.5938"/><ellipse cx="124.8" cy="55.5938" fill="#ADD1B2" rx="11" ry="11" style="stroke: #A80036; stroke-width: 1.0;"/><path d="M127.7688,61.2344 Q127.1906,61.5313 126.55,61.6719 Q125.9094,61.8281 125.2063,61.8281 Q122.7063,61.8281 121.3781,60.1875 Q120.0656,58.5313 120.0656,55.4063 Q120.0656,52.2813 121.3781,50.625 Q122.7063,48.9688 125.2063,48.9688 Q125.9094,48.9688 126.55,49.125 Q127.2063,49.2813 127.7688,49.5781 L127.7688,52.2969 Q127.1438,51.7188 126.55,51.4531 Q125.9563,51.1719 125.3313,51.1719 Q123.9875,51.1719 123.3,52.25 Q122.6125,53.3125 122.6125,55.4063 Q122.6125,57.5 123.3,58.5781 Q123.9875,59.6406 125.3313,59.6406 Q125.9563,59.6406 126.55,59.375 Q127.1438,59.0938 127.7688,58.5156 L127.7688,61.2344 Z "/><text fill="#000000" font-family="sans-serif" font-size="12" lengthAdjust="spacingAndGlyphs" textLength="44" x="144.2" y="59.748">Source</text><line style="stroke: #A80036; stroke-width: 1.5;" x1="86.5" x2="214.5" y1="71.5938" y2="71.5938"/><ellipse cx="96.5" cy="82.5938" fill="none" rx="3" ry="3" style="stroke: #038048; stroke-width: 1.0;"/><text fill="#000000" font-family="sans-serif" font-size="11" lengthAdjust="spacingAndGlyphs" textLength="73" x="105.5" y="85.8042">name: string</text><ellipse cx="96.5" cy="95.3984" fill="none" rx="3" ry="3" style="stroke: #038048; stroke-width: 1.0;"/><text fill="#000000" font-family="sans-serif" font-size="11" lengthAdjust="spacingAndGlyphs" textLength="104" x="105.5" y="98.6089">description: string</text><ellipse cx="96.5" cy="108.2031" fill="none" rx="3" ry="3" style="stroke: #038048; stroke-width: 1.0;"/><text fill="#000000" font-family="sans-serif" font-size="11" lengthAdjust="spacingAndGlyphs" textLength="85" x="105.5" y="111.4136">location: string</text><line style="stroke: #A80036; stroke-width: 1.5;" x1="86.5" x2="214.5" y1="118.0078" y2="118.0078"/><text fill="#888888" font-family="sans-serif" font-size="10" lengthAdjust="spacingAndGlyphs" textLength="301" x="0" y="142.29">Common Gateway Plugin | Opencatalogi | Opencatalogibundle</text><!--MD5=[4fb2f6eb76e95863e1226e291f1f72ff]
@startuml
title: Source
footer: Common Gateway Plugin | Opencatalogi | Opencatalogibundle 
header: Schema

class Source {
  + name: string
  + description: string
  + location: string
}
@enduml

PlantUML version 1.2020.02(Sun Mar 01 10:22:07 UTC 2020)
(GPL source distribution)
Java Runtime: OpenJDK Runtime Environment
JVM: OpenJDK 64-Bit Server VM
Java Version: 11.0.20.1+1
Operating System: Linux
Default Encoding: UTF-8
Language: en
Country: null
--></g></svg>