<?xml version="1.0" encoding="us-ascii" standalone="no"?><svg xmlns="http://www.w3.org/2000/svg" xmlns:xlink="http://www.w3.org/1999/xlink" contentStyleType="text/css" height="180px" preserveAspectRatio="none" style="width:180px;height:180px;background:#FFFFFF;" version="1.1" viewBox="0 0 180 180" width="180px" zoomAndPan="magnify"><defs/><g><text fill="#888888" font-family="sans-serif" font-size="10" lengthAdjust="spacing" textLength="45" x="127" y="9.2822">Schema</text><text fill="#000000" font-family="sans-serif" font-size="14" font-weight="bold" lengthAdjust="spacing" textLength="55" x="58.5" y="35.6357">Source</text><!--class Source--><g id="elem_Source"><rect codeLine="5" fill="#F1F1F1" height="96.8906" id="Source" rx="2.5" ry="2.5" style="stroke:#181818;stroke-width:0.5;" width="159" x="7" y="56.9375"/><ellipse cx="57.75" cy="72.9375" fill="#ADD1B2" rx="11" ry="11" style="stroke:#181818;stroke-width:1.0;"/><path d="M60.0938,68.6094 C59.1563,68.1719 58.5625,68.0313 57.6875,68.0313 C55.0625,68.0313 53.0625,70.1094 53.0625,72.8281 L53.0625,73.9531 C53.0625,76.5313 55.1719,78.4219 58.0625,78.4219 C59.2813,78.4219 60.4375,78.125 61.1875,77.5781 C61.7656,77.1719 62.0938,76.7188 62.0938,76.3281 C62.0938,75.875 61.7031,75.4844 61.2344,75.4844 C61.0156,75.4844 60.8125,75.5625 60.625,75.75 C60.1719,76.2344 60.1719,76.2344 59.9844,76.3281 C59.5625,76.5938 58.875,76.7188 58.1094,76.7188 C56.0625,76.7188 54.7656,75.625 54.7656,73.9219 L54.7656,72.8281 C54.7656,71.0469 56.0156,69.7344 57.75,69.7344 C58.3281,69.7344 58.9375,69.8906 59.4063,70.1406 C59.8906,70.4219 60.0625,70.6406 60.1563,71.0469 C60.2188,71.4531 60.25,71.5781 60.3906,71.7031 C60.5313,71.8438 60.7656,71.9531 60.9844,71.9531 C61.25,71.9531 61.5156,71.8125 61.6875,71.5938 C61.7969,71.4375 61.8281,71.25 61.8281,70.8281 L61.8281,69.4063 C61.8281,68.9688 61.8125,68.8438 61.7188,68.6875 C61.5625,68.4219 61.2813,68.2813 60.9844,68.2813 C60.6875,68.2813 60.4844,68.375 60.2656,68.6875 L60.0938,68.6094 Z " fill="#000000"/><text fill="#000000" font-family="sans-serif" font-size="14" lengthAdjust="spacing" textLength="49" x="78.25" y="77.7842">Source</text><line style="stroke:#181818;stroke-width:0.5;" x1="8" x2="165" y1="88.9375" y2="88.9375"/><ellipse cx="18" cy="102.5859" fill="none" rx="3" ry="3" style="stroke:#038048;stroke-width:1.0;"/><text fill="#000000" font-family="sans-serif" font-size="14" lengthAdjust="spacing" textLength="91" x="27" y="105.9326">name: string</text><ellipse cx="18" cy="118.8828" fill="none" rx="3" ry="3" style="stroke:#038048;stroke-width:1.0;"/><text fill="#000000" font-family="sans-serif" font-size="14" lengthAdjust="spacing" textLength="133" x="27" y="122.2295">description: string</text><ellipse cx="18" cy="135.1797" fill="none" rx="3" ry="3" style="stroke:#038048;stroke-width:1.0;"/><text fill="#000000" font-family="sans-serif" font-size="14" lengthAdjust="spacing" textLength="109" x="27" y="138.5264">location: string</text><line style="stroke:#181818;stroke-width:0.5;" x1="8" x2="165" y1="145.8281" y2="145.8281"/></g><text fill="#888888" font-family="sans-serif" font-size="10" lengthAdjust="spacing" textLength="137" x="17.5" y="170.1104">Common Gateway Plugin</text><!--SRC=[LSmn3eCm38NXtQVmpWsoCdH5uWIMSS5IOgF4KLLLlJjGTM7zVhqN6baIpjuh2ppTGsh2qKjnmmU5lEYDK-wh6cn2orLdtgGG06TgxJ_53o0EQ5JEjnPLRVt18eshxg5kDy_ETCFl0G00]--></g></svg>