<?xml version="1.0" encoding="UTF-8" standalone="no"?><svg xmlns="http://www.w3.org/2000/svg" xmlns:xlink="http://www.w3.org/1999/xlink" contentScriptType="application/ecmascript" contentStyleType="text/css" height="104px" preserveAspectRatio="none" style="width:148px;height:104px;" version="1.1" viewBox="0 0 148 104" width="148px" zoomAndPan="magnify"><defs><filter height="300%" id="fdpew34f9b23g" width="300%" x="-1" y="-1"><feGaussianBlur result="blurOut" stdDeviation="2.0"/><feColorMatrix in="blurOut" result="blurOut2" type="matrix" values="0 0 0 0 0 0 0 0 0 0 0 0 0 0 0 0 0 0 .4 0"/><feOffset dx="4.0" dy="4.0" in="blurOut2" result="blurOut3"/><feBlend in="SourceGraphic" in2="blurOut3" mode="normal"/></filter></defs><g><!--MD5=[43d3c0ba1d3b9c6f5e40c8769cc5b343]
class Source--><rect fill="#FEFECE" filter="url(#fdpew34f9b23g)" height="86.4141" id="Source" style="stroke: #A80036; stroke-width: 1.5;" width="130" x="7" y="7"/><ellipse cx="46.3" cy="23" fill="#ADD1B2" rx="11" ry="11" style="stroke: #A80036; stroke-width: 1.0;"/><path d="M49.2688,28.6406 Q48.6906,28.9375 48.05,29.0781 Q47.4094,29.2344 46.7063,29.2344 Q44.2063,29.2344 42.8781,27.5938 Q41.5656,25.9375 41.5656,22.8125 Q41.5656,19.6875 42.8781,18.0313 Q44.2063,16.375 46.7063,16.375 Q47.4094,16.375 48.05,16.5313 Q48.7063,16.6875 49.2688,16.9844 L49.2688,19.7031 Q48.6438,19.125 48.05,18.8594 Q47.4563,18.5781 46.8313,18.5781 Q45.4875,18.5781 44.8,19.6563 Q44.1125,20.7188 44.1125,22.8125 Q44.1125,24.9063 44.8,25.9844 Q45.4875,27.0469 46.8313,27.0469 Q47.4563,27.0469 48.05,26.7813 Q48.6438,26.5 49.2688,25.9219 L49.2688,28.6406 Z "/><text fill="#000000" font-family="sans-serif" font-size="12" lengthAdjust="spacingAndGlyphs" textLength="44" x="65.7" y="27.1543">Source</text><line style="stroke: #A80036; stroke-width: 1.5;" x1="8" x2="136" y1="39" y2="39"/><ellipse cx="18" cy="50" fill="none" rx="3" ry="3" style="stroke: #038048; stroke-width: 1.0;"/><text fill="#000000" font-family="sans-serif" font-size="11" lengthAdjust="spacingAndGlyphs" textLength="73" x="27" y="53.2104">name: string</text><ellipse cx="18" cy="62.8047" fill="none" rx="3" ry="3" style="stroke: #038048; stroke-width: 1.0;"/><text fill="#000000" font-family="sans-serif" font-size="11" lengthAdjust="spacingAndGlyphs" textLength="104" x="27" y="66.0151">description: string</text><ellipse cx="18" cy="75.6094" fill="none" rx="3" ry="3" style="stroke: #038048; stroke-width: 1.0;"/><text fill="#000000" font-family="sans-serif" font-size="11" lengthAdjust="spacingAndGlyphs" textLength="85" x="27" y="78.8198">location: string</text><line style="stroke: #A80036; stroke-width: 1.5;" x1="8" x2="136" y1="85.4141" y2="85.4141"/><!--MD5=[0d545b5d7bf06587cc7b5bfcfd297ba5]
@startuml
class Source {
  + name: string
  + description: string
  + location: string
}
@enduml

PlantUML version 1.2020.02(Sun Mar 01 10:22:07 UTC 2020)
(GPL source distribution)
Java Runtime: OpenJDK Runtime Environment
JVM: OpenJDK 64-Bit Server VM
Java Version: 11.0.20.1+1
Operating System: Linux
Default Encoding: UTF-8
Language: en
Country: null
--></g></svg>