<?xml version="1.0" encoding="us-ascii" standalone="no"?><svg xmlns="http://www.w3.org/2000/svg" xmlns:xlink="http://www.w3.org/1999/xlink" contentStyleType="text/css" height="1234px" preserveAspectRatio="none" style="width:1442px;height:1234px;background:#FFFFFF;" version="1.1" viewBox="0 0 1442 1234" width="1442px" zoomAndPan="magnify"><defs/><g><text fill="#888888" font-family="sans-serif" font-size="10" lengthAdjust="spacing" textLength="70" x="1358.9197" y="9.2822">Components</text><text fill="#000000" font-family="sans-serif" font-size="14" font-weight="bold" lengthAdjust="spacing" textLength="181" x="623.9598" y="35.6357">Open Catalogi | Admin</text><!--cluster Azure--><g id="cluster_Azure"><path d="M1333.0149,859.9019 C1335.9638,853.8532 1341.8343,853.9236 1344.9487,859.7354 C1348.6762,853.8854 1353.4467,854.4162 1357.4568,859.4094 C1360.007,853.5027 1365.7796,852.92 1369.1776,858.548 C1371.4072,852.3732 1376.4352,852.3198 1380.1926,856.9973 C1384.0868,852.6604 1390.2457,852.4276 1392.2124,859.1015 C1395.4557,854.1789 1400.0464,853.015 1403.9461,858.3507 C1407.6487,854.0335 1412.8727,853.8901 1414.8894,860.1028 C1419.0266,854.8656 1422.6437,853.7653 1426.6306,860.2533 C1432.0227,863.9972 1432.9167,869.5131 1426.8959,873.4858 C1435.1327,876.6053 1435.9197,883.0812 1428.8055,888.1938 C1435.0412,891.7344 1435.8818,896.7509 1429.5595,901.0292 C1435.1961,906.4032 1434.5547,911.7298 1427.6564,915.4496 C1432.795,919.752 1432.6204,923.4674 1427.6454,927.7607 C1435.044,932.3169 1433.6968,937.5101 1427.208,941.6282 C1423.1126,946.9225 1418.5508,947.698 1414.8013,941.2623 C1411.8214,948.088 1406.5121,947.9745 1402.5037,942.2719 C1399.431,948.5471 1395.4499,949.362 1391.085,943.4863 C1388.0192,947.763 1383.7803,947.5042 1380.976,943.1789 C1376.8574,949.2937 1370.9451,948.1155 1368.6103,941.4525 C1365.4907,947.0919 1359.8479,949.0876 1355.5128,942.7858 C1351.5393,947.5988 1348.2453,948.3962 1344.7455,942.3175 C1340.6088,947.0806 1336.8138,946.6671 1333.1429,941.7586 C1325.0961,939.2044 1324.7921,933.544 1330.1946,928.0889 C1322.509,924.742 1320.886,920.2134 1326.8738,913.7089 C1320.4835,911.5241 1318.6462,905.6043 1324.6525,901.2155 C1319.0706,895.7103 1320.0093,891.6857 1326.9303,888.4033 C1321.1338,881.9315 1322.1861,875.4071 1331.1678,873.0011 C1324.7158,867.4467 1325.175,863.441 1333.0149,859.9019 " fill="none" style="stroke:#181818;stroke-width:1.0;"/><text fill="#000000" font-family="sans-serif" font-size="14" font-weight="bold" lengthAdjust="spacing" textLength="46" x="1355.9766" y="877.4326">Azure</text></g><!--cluster Internet--><g id="cluster_Internet"><path d="M345.4475,1091.1266 C348.8365,1084.3535 353.3053,1084.7755 357.6824,1090.1297 C360.4703,1084.0147 364.8599,1084.9321 368.4558,1089.2994 C371.9262,1083.2231 376.0778,1083.1263 380.6293,1088.1095 C383.0466,1082.8859 388.327,1081.6467 391.7043,1087.1151 C394.2714,1082.697 398.9204,1082.4367 401.8276,1086.7194 C404.2626,1081.2742 410.0953,1080.6356 413.8803,1085.073 C417.9836,1078.9918 423.9768,1080.09 426.2442,1086.8419 C429.0885,1081.9386 434.4502,1081.9632 437.05,1087.1049 C441.3915,1082.8988 445.1284,1083.0648 447.172,1089.3268 C450.894,1083.1768 454.7963,1082.7799 459.4997,1088.2892 C464.1353,1083.2198 469.5713,1084.3681 471.7083,1090.9152 C479.1542,1084.0891 486.0708,1088.7981 487.9766,1096.9375 C489.4804,1096.6805 490.3645,1097.5185 490.0723,1099.0463 C496.3066,1101.8132 497.3702,1106.7093 491.3404,1110.7995 C499.059,1113.7644 499.6306,1120.3486 492.6464,1124.6953 C499.3877,1127.6945 499.645,1133.1045 493.4893,1136.9881 C499.3608,1140.8847 498.9783,1146.2339 493.2102,1149.8783 C499.5737,1154.6346 499.1982,1160.7709 491.6558,1163.9961 C496.4086,1173.9214 494.4796,1183.3049 480.9766,1182.9375 C481.6414,1183.1088 481.9055,1183.679 481.3762,1184.2218 C478.3401,1189.7542 473.3787,1189.1114 470.4619,1184.0983 C467.9134,1190.4385 462.995,1190.7375 458.5901,1186.1072 C456.1528,1191.2572 451.9433,1190.4338 448.958,1186.7014 C446.7976,1193.2191 442.1995,1194.8083 437.169,1189.5826 C433.9507,1195.6358 428.7658,1194.6594 425.7816,1189.348 C422.0887,1195.2887 417.6292,1195.524 413.1067,1190.2889 C409.5584,1195.5065 404.9025,1195.8081 401.9027,1189.7442 C398.2117,1193.9495 394.2768,1193.103 391.9382,1188.2557 C387.8814,1193.7723 383.9156,1194.4616 379.8776,1188.2364 C376.0886,1192.2991 371.2899,1192.2753 369.168,1186.4337 C365.2007,1191.7815 359.1182,1191.9208 356.8489,1184.7614 C346.2541,1190.9054 340.0516,1188.0153 337.9766,1175.9375 C338.8974,1176.2565 339.3774,1176.8794 338.5567,1177.7544 C331.0643,1174.5782 330.5017,1168.9365 337.391,1164.4959 C330.4001,1161.5876 329.908,1156.735 334.7459,1151.4317 C327.5537,1147.3917 327.7862,1143.294 333.6206,1138.1504 C328.015,1133.1829 327.525,1128.1434 334.7334,1124.198 C329.7623,1119.2203 330.0821,1114.1213 336.5899,1110.7254 C328.9208,1101.0031 332.9629,1091.7188 344.9766,1089.9375 C345.7743,1090.0444 345.8433,1090.5471 345.4475,1091.1266 " fill="none" style="stroke:#181818;stroke-width:1.0;"/><text fill="#000000" font-family="sans-serif" font-size="14" font-weight="bold" lengthAdjust="spacing" textLength="66" x="379.9766" y="1107.9326">Internet</text></g><!--cluster Kubernetes--><g id="cluster_Kubernetes"><path d="M73.4798,368.5998 C100.4699,319.863 132.1501,325.411 162.4653,365.2597 C190.8279,330.0009 225.1042,323.3873 251.1637,367.8231 C278.0263,323.1756 307.1645,331.4095 336.1898,365.4873 C359.9131,324.9842 388.1661,326.7459 417.6769,359.0059 C451.8685,316.6571 487.2472,311.2562 514.9389,365.5476 C534.7048,322.5664 562.9615,323.5162 592.6806,355.1817 C623.3171,315.8073 660.0549,311.6565 689.3673,356.6983 C716.726,319.4631 743.1639,311.7798 774.5785,352.2507 C800.8837,320.2397 829.9812,314.4319 850.5667,358.0012 C882.6732,317.687 927.3484,310.4301 951.2029,366.6077 C972.8887,323.9637 998.779,325.6634 1027.6073,359.4694 C1054.1934,321.8242 1090.3621,323.5038 1115.4106,361.2598 C1146.3779,320.2357 1175.2878,318.6036 1201.9634,365.4854 C1224.1892,326.5925 1266.8339,315.1855 1291.9766,362.4375 C1295.5192,358.7513 1298.7449,358.0437 1301.4854,363.2912 C1349.5478,399.5753 1351.5259,442.0679 1293.1799,470.0757 C1356.5283,502.9696 1356.4895,537.966 1303.3181,581.465 C1356.072,605.6676 1350.213,654.0296 1309.6135,683.9658 C1350.3041,718.7511 1347.1349,750.3354 1301.8441,778.018 C1346.8459,815.7915 1351.186,847.4099 1298.6592,882.202 C1349.5441,925.7023 1347.2076,959.5059 1284.9766,988.4375 C1285.434,987.8052 1286.0822,987.83 1286.4331,988.552 C1268.7962,1029.8586 1228.6662,1031.4118 1205.6193,994.114 C1177.9609,1036.4997 1139.3897,1037.2071 1111.4843,994.3869 C1085.5498,1035.4587 1057.1567,1043.0531 1026.3419,999.2845 C1008.3028,1038.0043 971.2246,1039.137 946.6564,1006.5842 C919.7182,1041.8411 886.8289,1046.9305 863.3762,1002.9222 C829.2685,1046.7396 798.792,1040.9931 767.3741,999.8816 C748.9202,1038.591 717.0554,1042.763 691.0798,1007.6559 C662.0058,1062.2102 620.9979,1053.8744 591.8084,1007.7699 C559.7147,1043.8716 533.3788,1044.3903 507.076,1001.5539 C479.8325,1039.2664 450.5076,1045.8406 419.4644,1005.8375 C396.0685,1037.8078 368.6547,1045.6267 343.3386,1007.9359 C312.068,1046.9885 271.3644,1046.1508 245.6814,1001.4229 C215.2286,1043.8876 183.407,1034.9964 157.7166,996.2636 C125.7982,1034.163 79.949,1028.0105 60.9766,981.4375 C65.0837,983.8881 65.0611,987.2107 61.1219,989.8011 C16.6551,954.622 6,912.932 66.0435,882.5487 C19.5929,850.2565 25.6005,806.8774 71.0294,779.0097 C18.8344,756.1372 18.5848,709.3297 68.6901,683.9399 C11.9015,655.8111 19.1119,611.5107 65.5912,580.2943 C18.7339,549.6252 18.762,504.3578 71.4858,479.5131 C19.293,445.0839 13.9549,392.8708 67.9766,355.4375 C76.619,356.7275 77.4226,362.0479 73.4798,368.5998 " fill="none" style="stroke:#181818;stroke-width:1.0;"/><text fill="#000000" font-family="sans-serif" font-size="14" font-weight="bold" lengthAdjust="spacing" textLength="91" x="630.9766" y="373.4326">Kubernetes</text></g><!--cluster Layer 5 (interaction)--><g id="cluster_Layer 5 (interaction)"><path d="M79.4766,494.4375 L248.4766,494.4375 A3.75,3.75 0 0 1 250.9766,496.9375 L257.9766,516.7344 L310.4766,516.7344 A2.5,2.5 0 0 1 312.9766,519.2344 L312.9766,655.9375 A2.5,2.5 0 0 1 310.4766,658.4375 L79.4766,658.4375 A2.5,2.5 0 0 1 76.9766,655.9375 L76.9766,496.9375 A2.5,2.5 0 0 1 79.4766,494.4375 " fill="none" style="stroke:#000000;stroke-width:1.5;"/><line style="stroke:#000000;stroke-width:1.5;" x1="76.9766" x2="257.9766" y1="516.7344" y2="516.7344"/><text fill="#000000" font-family="sans-serif" font-size="14" font-weight="bold" lengthAdjust="spacing" textLength="168" x="80.9766" y="509.4326">Layer 5 (interaction)</text></g><!--cluster React Container 2--><g id="cluster_React Container 2"><path d="M103.4766,537.4375 L250.4766,537.4375 A3.75,3.75 0 0 1 252.9766,539.9375 L259.9766,559.7344 L286.4766,559.7344 A2.5,2.5 0 0 1 288.9766,562.2344 L288.9766,631.9375 A2.5,2.5 0 0 1 286.4766,634.4375 L103.4766,634.4375 A2.5,2.5 0 0 1 100.9766,631.9375 L100.9766,539.9375 A2.5,2.5 0 0 1 103.4766,537.4375 " fill="none" style="stroke:#000000;stroke-width:1.5;"/><line style="stroke:#000000;stroke-width:1.5;" x1="100.9766" x2="259.9766" y1="559.7344" y2="559.7344"/><text fill="#000000" font-family="sans-serif" font-size="14" font-weight="bold" lengthAdjust="spacing" textLength="146" x="104.9766" y="552.4326">React Container 2</text></g><!--cluster Layer 4 (Logic)--><g id="cluster_Layer 4 (Logic)"><path d="M339.4766,493.4375 L460.4766,493.4375 A3.75,3.75 0 0 1 462.9766,495.9375 L469.9766,515.7344 L1076.4766,515.7344 A2.5,2.5 0 0 1 1078.9766,518.2344 L1078.9766,969.9375 A2.5,2.5 0 0 1 1076.4766,972.4375 L339.4766,972.4375 A2.5,2.5 0 0 1 336.9766,969.9375 L336.9766,495.9375 A2.5,2.5 0 0 1 339.4766,493.4375 " fill="none" style="stroke:#000000;stroke-width:1.5;"/><line style="stroke:#000000;stroke-width:1.5;" x1="336.9766" x2="469.9766" y1="515.7344" y2="515.7344"/><text fill="#000000" font-family="sans-serif" font-size="14" font-weight="bold" lengthAdjust="spacing" textLength="120" x="340.9766" y="508.4326">Layer 4 (Logic)</text></g><!--cluster NGINX Container--><g id="cluster_NGINX Container"><path d="M533.4766,536.4375 L668.4766,536.4375 A3.75,3.75 0 0 1 670.9766,538.9375 L677.9766,558.7344 L678.4766,558.7344 A2.5,2.5 0 0 1 680.9766,561.2344 L680.9766,632.9375 A2.5,2.5 0 0 1 678.4766,635.4375 L533.4766,635.4375 A2.5,2.5 0 0 1 530.9766,632.9375 L530.9766,538.9375 A2.5,2.5 0 0 1 533.4766,536.4375 " fill="none" style="stroke:#000000;stroke-width:1.5;"/><line style="stroke:#000000;stroke-width:1.5;" x1="530.9766" x2="677.9766" y1="558.7344" y2="558.7344"/><text fill="#000000" font-family="sans-serif" font-size="14" font-weight="bold" lengthAdjust="spacing" textLength="134" x="534.9766" y="551.4326">NGINX Container</text></g><!--cluster Gateway Container--><g id="cluster_Gateway Container"><path d="M363.4766,707.4375 L519.4766,707.4375 A3.75,3.75 0 0 1 521.9766,709.9375 L528.9766,729.7344 L689.4766,729.7344 A2.5,2.5 0 0 1 691.9766,732.2344 L691.9766,945.9375 A2.5,2.5 0 0 1 689.4766,948.4375 L363.4766,948.4375 A2.5,2.5 0 0 1 360.9766,945.9375 L360.9766,709.9375 A2.5,2.5 0 0 1 363.4766,707.4375 " fill="none" style="stroke:#000000;stroke-width:1.5;"/><line style="stroke:#000000;stroke-width:1.5;" x1="360.9766" x2="528.9766" y1="729.7344" y2="729.7344"/><text fill="#000000" font-family="sans-serif" font-size="14" font-weight="bold" lengthAdjust="spacing" textLength="155" x="364.9766" y="722.4326">Gateway Container</text></g><!--cluster RedisContainer--><g id="cluster_RedisContainer"><path d="M718.4766,851.4375 L842.4766,851.4375 A3.75,3.75 0 0 1 844.9766,853.9375 L851.9766,873.7344 L852.4766,873.7344 A2.5,2.5 0 0 1 854.9766,876.2344 L854.9766,945.9375 A2.5,2.5 0 0 1 852.4766,948.4375 L718.4766,948.4375 A2.5,2.5 0 0 1 715.9766,945.9375 L715.9766,853.9375 A2.5,2.5 0 0 1 718.4766,851.4375 " fill="none" style="stroke:#000000;stroke-width:1.5;"/><line style="stroke:#000000;stroke-width:1.5;" x1="715.9766" x2="851.9766" y1="873.7344" y2="873.7344"/><text fill="#000000" font-family="sans-serif" font-size="14" font-weight="bold" lengthAdjust="spacing" textLength="123" x="719.9766" y="866.4326">RedisContainer</text></g><!--cluster MongoDB Container--><g id="cluster_MongoDB Container"><path d="M881.4766,851.9375 L1042.4766,851.9375 A3.75,3.75 0 0 1 1044.9766,854.4375 L1051.9766,874.2344 L1052.4766,874.2344 A2.5,2.5 0 0 1 1054.9766,876.7344 L1054.9766,945.4375 A2.5,2.5 0 0 1 1052.4766,947.9375 L881.4766,947.9375 A2.5,2.5 0 0 1 878.9766,945.4375 L878.9766,854.4375 A2.5,2.5 0 0 1 881.4766,851.9375 " fill="none" style="stroke:#000000;stroke-width:1.5;"/><line style="stroke:#000000;stroke-width:1.5;" x1="878.9766" x2="1051.9766" y1="874.2344" y2="874.2344"/><text fill="#000000" font-family="sans-serif" font-size="14" font-weight="bold" lengthAdjust="spacing" textLength="160" x="882.9766" y="866.9326">MongoDB Container</text></g><!--cluster Layer 1 (data)--><g id="cluster_Layer 1 (data)"><path d="M522.4766,1045.4375 L638.4766,1045.4375 A3.75,3.75 0 0 1 640.9766,1047.9375 L647.9766,1067.7344 L837.4766,1067.7344 A2.5,2.5 0 0 1 839.9766,1070.2344 L839.9766,1205.9375 A2.5,2.5 0 0 1 837.4766,1208.4375 L522.4766,1208.4375 A2.5,2.5 0 0 1 519.9766,1205.9375 L519.9766,1047.9375 A2.5,2.5 0 0 1 522.4766,1045.4375 " fill="none" style="stroke:#000000;stroke-width:1.5;"/><line style="stroke:#000000;stroke-width:1.5;" x1="519.9766" x2="647.9766" y1="1067.7344" y2="1067.7344"/><text fill="#000000" font-family="sans-serif" font-size="14" font-weight="bold" lengthAdjust="spacing" textLength="115" x="523.9766" y="1060.4326">Layer 1 (data)</text></g><!--cluster Database Service--><g id="cluster_Database Service"><path d="M553.0513,1097.8451 C559.176,1089.5392 565.0721,1089.1487 571.6537,1097.3296 C575.0514,1089.1585 582.3228,1085.0399 589.3103,1093.5239 C593.4296,1081.9953 603.2889,1081.9096 609.4407,1091.5953 C614.811,1083.3842 621.6125,1080.8884 628.0993,1090.4213 C632.2608,1080.9578 639.9461,1081.0807 646.2377,1088.0735 C651.0637,1080.1265 657.5725,1080.2198 662.1419,1088.3277 C667.5981,1078.6941 674.5428,1076.635 682.625,1085.405 C687.2934,1078.6112 695.7933,1078.5835 699.8048,1086.1887 C706.409,1079.1537 712.9487,1080.7778 716.8408,1089.1815 C723.0795,1080.0435 731.9342,1080.0919 736.7463,1090.625 C744.3672,1081.4324 750.7148,1084.0436 756.1775,1092.943 C761.0385,1086.5363 767.0908,1085.9133 771.7402,1093.1838 C779.8471,1084.5853 789.2016,1085.862 792.9025,1097.7379 C797.7287,1089.2299 803.5736,1089.5628 809.2878,1096.8146 C818.608,1103.333 818.0974,1109.2651 810.0621,1116.4672 C823.1529,1121.6601 822.4201,1132.6148 811.8769,1139.6573 C819.8225,1145.8891 818.1559,1152.2155 810.0466,1156.7256 C822.5113,1162.2824 821.9876,1172.7212 811.3694,1179.6122 C806.0995,1189.6435 797.789,1188.8418 791.8338,1180.3343 C785.7283,1189.3424 777.5892,1188.5386 771.8288,1179.9421 C767.4841,1187.2397 759.5127,1189.3874 754.95,1180.1648 C749.9735,1190.2617 743.3265,1188.6211 737.1789,1181.364 C732.4415,1192.4596 725.508,1194.1043 717.4116,1184.5848 C712.735,1192.3825 704.9055,1191.9719 700.8719,1183.914 C695.2865,1193.1525 689.4239,1193.0878 681.866,1186.2454 C676.0922,1194.1735 667.0046,1194.1886 662.8529,1184.4952 C657.3156,1192.7256 648.9012,1192.1277 645.4865,1182.4381 C640.306,1191.7072 633.6887,1191.6221 627.8167,1183.1258 C620.657,1191.2787 613.2296,1190.4523 607.407,1181.528 C601.7184,1189.5717 595.8402,1188.3876 591.421,1180.2723 C584.3683,1190.3636 575.8449,1189.4744 571.0382,1178.1361 C565.2626,1185.5147 558.1312,1186.7458 553.5845,1176.8915 C544.431,1173.6384 541.8821,1165.1106 550.523,1158.8397 C537.8418,1155.7093 538.2713,1146.1735 545.5349,1138.2186 C535.0421,1130.679 538.1753,1121.1436 548.5156,1116.4576 C541.2373,1109.2068 542.3546,1100.7155 553.0513,1097.8451 " fill="none" style="stroke:#181818;stroke-width:1.0;"/><text fill="#000000" font-family="sans-serif" font-size="14" font-weight="bold" lengthAdjust="spacing" textLength="140" x="609.9766" y="1114.4326">Database Service</text></g><!--entity identity--><g id="elem_identity"><rect fill="#F1F1F1" height="46.2969" rx="2.5" ry="2.5" style="stroke:#181818;stroke-width:0.5;" width="78" x="1339.9766" y="886.4375"/><rect fill="#F1F1F1" height="10" style="stroke:#181818;stroke-width:0.5;" width="15" x="1397.9766" y="891.4375"/><rect fill="#F1F1F1" height="2" style="stroke:#181818;stroke-width:0.5;" width="4" x="1395.9766" y="893.4375"/><rect fill="#F1F1F1" height="2" style="stroke:#181818;stroke-width:0.5;" width="4" x="1395.9766" y="897.4375"/><text fill="#000000" font-family="sans-serif" font-size="14" lengthAdjust="spacing" textLength="38" x="1354.9766" y="919.4326">ADFS</text></g><!--entity externalCatalog--><g id="elem_externalCatalog"><ellipse cx="412.9766" cy="1145.9375" fill="#F1F1F1" rx="8" ry="8" style="stroke:#181818;stroke-width:0.5;"/><text fill="#000000" font-family="sans-serif" font-size="14" lengthAdjust="spacing" textLength="119" x="353.4766" y="1175.9326">External Catalog</text></g><!--entity ingress--><g id="elem_ingress"><path d="M585.4766,386.4375 L585.4766,410.4375 M585.4766,398.4375 L602.4766,398.4375 " fill="none" style="stroke:#181818;stroke-width:0.5;"/><ellipse cx="614.4766" cy="398.4375" fill="#F1F1F1" rx="12" ry="12" style="stroke:#181818;stroke-width:0.5;"/><text fill="#000000" font-family="sans-serif" font-size="14" lengthAdjust="spacing" textLength="51" x="580.4766" y="427.4326">ingress</text></g><!--entity loki--><g id="elem_loki"><path d="M1094.9766,896.9375 C1094.9766,886.9375 1117.9766,886.9375 1117.9766,886.9375 C1117.9766,886.9375 1140.9766,886.9375 1140.9766,896.9375 L1140.9766,922.2344 C1140.9766,932.2344 1117.9766,932.2344 1117.9766,932.2344 C1117.9766,932.2344 1094.9766,932.2344 1094.9766,922.2344 L1094.9766,896.9375 " fill="#F1F1F1" style="stroke:#181818;stroke-width:0.5;"/><path d="M1094.9766,896.9375 C1094.9766,906.9375 1117.9766,906.9375 1117.9766,906.9375 C1117.9766,906.9375 1140.9766,906.9375 1140.9766,896.9375 " fill="none" style="stroke:#181818;stroke-width:0.5;"/><text fill="#000000" font-family="sans-serif" font-size="14" lengthAdjust="spacing" textLength="26" x="1104.9766" y="923.9326">loki</text></g><!--entity prometheus--><g id="elem_prometheus"><path d="M1175.9766,896.9375 C1175.9766,886.9375 1229.9766,886.9375 1229.9766,886.9375 C1229.9766,886.9375 1283.9766,886.9375 1283.9766,896.9375 L1283.9766,922.2344 C1283.9766,932.2344 1229.9766,932.2344 1229.9766,932.2344 C1229.9766,932.2344 1175.9766,932.2344 1175.9766,922.2344 L1175.9766,896.9375 " fill="#F1F1F1" style="stroke:#181818;stroke-width:0.5;"/><path d="M1175.9766,896.9375 C1175.9766,906.9375 1229.9766,906.9375 1229.9766,906.9375 C1229.9766,906.9375 1283.9766,906.9375 1283.9766,896.9375 " fill="none" style="stroke:#181818;stroke-width:0.5;"/><text fill="#000000" font-family="sans-serif" font-size="14" lengthAdjust="spacing" textLength="88" x="1185.9766" y="923.9326">prometheus</text></g><!--entity admin--><g id="elem_admin"><rect fill="#F1F1F1" height="46.2969" rx="2.5" ry="2.5" style="stroke:#181818;stroke-width:0.5;" width="156" x="116.9766" y="572.4375"/><rect fill="#F1F1F1" height="10" style="stroke:#181818;stroke-width:0.5;" width="15" x="252.9766" y="577.4375"/><rect fill="#F1F1F1" height="2" style="stroke:#181818;stroke-width:0.5;" width="4" x="250.9766" y="579.4375"/><rect fill="#F1F1F1" height="2" style="stroke:#181818;stroke-width:0.5;" width="4" x="250.9766" y="583.4375"/><text fill="#000000" font-family="sans-serif" font-size="14" lengthAdjust="spacing" textLength="116" x="131.9766" y="605.4326">Admin Interface</text></g><!--entity Nginx--><g id="elem_Nginx"><path d="M585.4766,575.4375 L585.4766,599.4375 M585.4766,587.4375 L602.4766,587.4375 " fill="none" style="stroke:#181818;stroke-width:0.5;"/><ellipse cx="614.4766" cy="587.4375" fill="#F1F1F1" rx="12" ry="12" style="stroke:#181818;stroke-width:0.5;"/><text fill="#000000" font-family="sans-serif" font-size="14" lengthAdjust="spacing" textLength="40" x="585.9766" y="616.4326">Nginx</text></g><!--entity Plugins--><g id="elem_Plugins"><rect fill="#F1F1F1" height="46.2969" rx="2.5" ry="2.5" style="stroke:#181818;stroke-width:0.5;" width="190" x="376.9766" y="886.4375"/><rect fill="#F1F1F1" height="10" style="stroke:#181818;stroke-width:0.5;" width="15" x="546.9766" y="891.4375"/><rect fill="#F1F1F1" height="2" style="stroke:#181818;stroke-width:0.5;" width="4" x="544.9766" y="893.4375"/><rect fill="#F1F1F1" height="2" style="stroke:#181818;stroke-width:0.5;" width="4" x="544.9766" y="897.4375"/><text fill="#000000" font-family="sans-serif" font-size="14" lengthAdjust="spacing" textLength="150" x="391.9766" y="919.4326">Open Catalogi plugin</text></g><!--entity Gateway--><g id="elem_Gateway"><rect fill="#F1F1F1" height="46.2969" rx="2.5" ry="2.5" style="stroke:#181818;stroke-width:0.5;" width="139" x="536.4766" y="742.4375"/><rect fill="#F1F1F1" height="10" style="stroke:#181818;stroke-width:0.5;" width="15" x="655.4766" y="747.4375"/><rect fill="#F1F1F1" height="2" style="stroke:#181818;stroke-width:0.5;" width="4" x="653.4766" y="749.4375"/><rect fill="#F1F1F1" height="2" style="stroke:#181818;stroke-width:0.5;" width="4" x="653.4766" y="753.4375"/><text fill="#000000" font-family="sans-serif" font-size="14" lengthAdjust="spacing" textLength="99" x="551.4766" y="775.4326">Web Gateway</text></g><!--entity ORM--><g id="elem_ORM"><rect fill="#F1F1F1" height="46.2969" rx="2.5" ry="2.5" style="stroke:#181818;stroke-width:0.5;" width="73" x="602.4766" y="886.4375"/><rect fill="#F1F1F1" height="10" style="stroke:#181818;stroke-width:0.5;" width="15" x="655.4766" y="891.4375"/><rect fill="#F1F1F1" height="2" style="stroke:#181818;stroke-width:0.5;" width="4" x="653.4766" y="893.4375"/><rect fill="#F1F1F1" height="2" style="stroke:#181818;stroke-width:0.5;" width="4" x="653.4766" y="897.4375"/><text fill="#000000" font-family="sans-serif" font-size="14" lengthAdjust="spacing" textLength="33" x="617.4766" y="919.4326">ORM</text></g><!--entity Redis--><g id="elem_Redis"><rect fill="#F1F1F1" height="46.2969" rx="2.5" ry="2.5" style="stroke:#181818;stroke-width:0.5;" width="79" x="732.4766" y="886.4375"/><rect fill="#F1F1F1" height="10" style="stroke:#181818;stroke-width:0.5;" width="15" x="791.4766" y="891.4375"/><rect fill="#F1F1F1" height="2" style="stroke:#181818;stroke-width:0.5;" width="4" x="789.4766" y="893.4375"/><rect fill="#F1F1F1" height="2" style="stroke:#181818;stroke-width:0.5;" width="4" x="789.4766" y="897.4375"/><text fill="#000000" font-family="sans-serif" font-size="14" lengthAdjust="spacing" textLength="39" x="747.4766" y="919.4326">Redis</text></g><!--entity MognoDB--><g id="elem_MognoDB"><path d="M895.4766,896.9375 C895.4766,886.9375 941.9766,886.9375 941.9766,886.9375 C941.9766,886.9375 988.4766,886.9375 988.4766,896.9375 L988.4766,922.2344 C988.4766,932.2344 941.9766,932.2344 941.9766,932.2344 C941.9766,932.2344 895.4766,932.2344 895.4766,922.2344 L895.4766,896.9375 " fill="#F1F1F1" style="stroke:#181818;stroke-width:0.5;"/><path d="M895.4766,896.9375 C895.4766,906.9375 941.9766,906.9375 941.9766,906.9375 C941.9766,906.9375 988.4766,906.9375 988.4766,896.9375 " fill="none" style="stroke:#181818;stroke-width:0.5;"/><text fill="#000000" font-family="sans-serif" font-size="14" lengthAdjust="spacing" textLength="69" x="905.4766" y="923.9326">MongoDB</text></g><!--entity db--><g id="elem_db"><path d="M559.9766,1133.4375 C559.9766,1123.4375 679.9766,1123.4375 679.9766,1123.4375 C679.9766,1123.4375 799.9766,1123.4375 799.9766,1133.4375 L799.9766,1158.7344 C799.9766,1168.7344 679.9766,1168.7344 679.9766,1168.7344 C679.9766,1168.7344 559.9766,1168.7344 559.9766,1158.7344 L559.9766,1133.4375 " fill="#F1F1F1" style="stroke:#181818;stroke-width:0.5;"/><path d="M559.9766,1133.4375 C559.9766,1143.4375 679.9766,1143.4375 679.9766,1143.4375 C679.9766,1143.4375 799.9766,1143.4375 799.9766,1133.4375 " fill="none" style="stroke:#181818;stroke-width:0.5;"/><text fill="#000000" font-family="sans-serif" font-size="14" lengthAdjust="spacing" textLength="220" x="569.9766" y="1160.4326">Postgress/MsSQL/MySql/Oracle</text></g><!--entity adminUser--><g id="elem_adminUser"><ellipse cx="539.9766" cy="63.9375" fill="#F1F1F1" rx="8" ry="8" style="stroke:#181818;stroke-width:0.5;"/><path d="M539.9766,71.9375 L539.9766,98.9375 M526.9766,79.9375 L552.9766,79.9375 M539.9766,98.9375 L526.9766,113.9375 M539.9766,98.9375 L552.9766,113.9375 " fill="none" style="stroke:#181818;stroke-width:0.5;"/><text fill="#000000" font-family="sans-serif" font-size="14" lengthAdjust="spacing" textLength="46" x="516.9766" y="128.4326">Admin</text></g><!--entity f5intern--><g id="elem_f5intern"><ellipse cx="539.9766" cy="246.4375" fill="#F1F1F1" rx="8" ry="8" style="stroke:#181818;stroke-width:0.5;"/><text fill="#000000" font-family="sans-serif" font-size="14" lengthAdjust="spacing" textLength="144" x="467.9766" y="276.4326">F5 Extern (port 443)</text></g><!--entity hipp--><g id="elem_hipp"><ellipse cx="671.9766" cy="216.9375" fill="#F1F1F1" rx="8" ry="8" style="stroke:#181818;stroke-width:0.5;"/><path d="M671.9766,224.9375 L671.9766,251.9375 M658.9766,232.9375 L684.9766,232.9375 M671.9766,251.9375 L658.9766,266.9375 M671.9766,251.9375 L684.9766,266.9375 " fill="none" style="stroke:#181818;stroke-width:0.5;"/><text fill="#000000" font-family="sans-serif" font-size="14" lengthAdjust="spacing" textLength="33" x="655.4766" y="281.4326">hipp</text></g><!--entity ui--><g id="elem_ui"><ellipse cx="1329.9766" cy="565.9375" fill="#F1F1F1" rx="8" ry="8" style="stroke:#181818;stroke-width:0.5;"/><path d="M1329.9766,573.9375 L1329.9766,600.9375 M1316.9766,581.9375 L1342.9766,581.9375 M1329.9766,600.9375 L1316.9766,615.9375 M1329.9766,600.9375 L1342.9766,615.9375 " fill="none" style="stroke:#181818;stroke-width:0.5;"/><text fill="#000000" font-family="sans-serif" font-size="14" lengthAdjust="spacing" textLength="12" x="1323.9766" y="630.4326">ui</text></g><!--link adminUser to f5intern--><g id="link_adminUser_f5intern"><path d="M539.9766,136.8475 C539.9766,169.0275 539.9766,211.2175 539.9766,232.2795 " fill="none" id="adminUser-f5intern" style="stroke:#181818;stroke-width:1.0;stroke-dasharray:7.0,7.0;"/><polygon fill="#181818" points="539.9766,131.7675,535.9766,140.7675,539.9766,136.7675,543.9766,140.7675,539.9766,131.7675" style="stroke:#181818;stroke-width:1.0;"/><polygon fill="#181818" points="539.9766,237.3975,543.9766,228.3975,539.9766,232.3975,535.9766,228.3975,539.9766,237.3975" style="stroke:#181818;stroke-width:1.0;"/><text fill="#000000" font-family="sans-serif" font-size="13" lengthAdjust="spacing" textLength="151" x="540.9766" y="174.5044">Browser MET JWT Claim</text></g><!--link f5intern to ingress--><g id="link_f5intern_ingress"><path d="M536.2826,260.9425 C532.3206,278.0195 527.7516,308.0165 536.9766,331.4375 C544.9206,351.6055 561.2376,369.5235 576.0106,382.6755 " fill="none" id="f5intern-ingress" style="stroke:#181818;stroke-width:1.0;stroke-dasharray:7.0,7.0;"/><polygon fill="#181818" points="537.5826,255.6745,531.5419,263.4533,536.3841,260.5287,539.3086,265.3709,537.5826,255.6745" style="stroke:#181818;stroke-width:1.0;"/><polygon fill="#181818" points="580.1286,386.2575,575.9609,377.3339,576.3552,382.977,570.7122,383.3714,580.1286,386.2575" style="stroke:#181818;stroke-width:1.0;"/><text fill="#000000" font-family="sans-serif" font-size="13" lengthAdjust="spacing" textLength="90" x="537.9766" y="327.5044">Alle endpionts</text></g><!--link hipp to ingress--><g id="link_hipp_ingress"><path d="M654.5396,289.1805 C642.8716,317.1125 627.8376,353.1025 617.6096,377.5895 " fill="none" id="hipp-ingress" style="stroke:#181818;stroke-width:1.0;stroke-dasharray:7.0,7.0;"/><polygon fill="#181818" points="656.5026,284.4815,649.3424,291.244,654.5752,289.0951,656.7241,294.3279,656.5026,284.4815" style="stroke:#181818;stroke-width:1.0;"/><polygon fill="#181818" points="615.6296,382.3285,622.7917,375.5679,617.5583,377.7154,615.4108,372.4821,615.6296,382.3285" style="stroke:#181818;stroke-width:1.0;"/><text fill="#000000" font-family="sans-serif" font-size="13" lengthAdjust="spacing" textLength="158" x="643.9766" y="327.5044">Catalogus uitwisselingen</text></g><!--link ingress to ui--><g id="link_ingress_ui"><path d="M636.7506,415.3855 C759.7366,447.1515 1214.0066,564.4835 1311.4766,589.6605 " fill="none" id="ingress-ui" style="stroke:#181818;stroke-width:1.0;stroke-dasharray:7.0,7.0;"/><polygon fill="#181818" points="631.7446,414.0925,639.4585,420.216,636.5858,415.3428,641.459,412.4701,631.7446,414.0925" style="stroke:#181818;stroke-width:1.0;"/><polygon fill="#181818" points="1316.3666,590.9225,1308.6608,584.7889,1311.5271,589.6659,1306.6502,592.5321,1316.3666,590.9225" style="stroke:#181818;stroke-width:1.0;"/><text fill="#000000" font-family="sans-serif" font-size="13" lengthAdjust="spacing" textLength="54" x="861.9766" y="473.5044">Exposes</text></g><!--link ingress to admin--><g id="link_ingress_admin"><path d="M575.3546,421.3705 C505.8196,453.0075 335.3066,530.5895 248.1496,570.2445 " fill="none" id="ingress-admin" style="stroke:#181818;stroke-width:1.0;stroke-dasharray:7.0,7.0;"/><polygon fill="#181818" points="580.2666,419.1355,570.4182,419.2241,575.716,421.2072,573.7329,426.5051,580.2666,419.1355" style="stroke:#181818;stroke-width:1.0;"/><polygon fill="#181818" points="243.5526,572.3365,253.4011,572.2516,248.104,570.2665,250.0892,564.9694,243.5526,572.3365" style="stroke:#181818;stroke-width:1.0;"/><text fill="#000000" font-family="sans-serif" font-size="13" lengthAdjust="spacing" textLength="54" x="485.9766" y="473.5044">Exposes</text></g><!--link ingress to Nginx--><g id="link_ingress_Nginx"><path d="M605.9766,436.0195 C605.9766,471.2655 605.9766,530.8145 605.9766,565.9955 " fill="none" id="ingress-Nginx" style="stroke:#181818;stroke-width:1.0;stroke-dasharray:7.0,7.0;"/><polygon fill="#181818" points="605.9766,430.7435,601.9766,439.7435,605.9766,435.7435,609.9766,439.7435,605.9766,430.7435" style="stroke:#181818;stroke-width:1.0;"/><polygon fill="#181818" points="605.9766,571.4255,609.9766,562.4255,605.9766,566.4255,601.9766,562.4255,605.9766,571.4255" style="stroke:#181818;stroke-width:1.0;"/><text fill="#000000" font-family="sans-serif" font-size="13" lengthAdjust="spacing" textLength="54" x="606.9766" y="473.5044">Exposes</text></g><!--link Nginx to Gateway--><g id="link_Nginx_Gateway"><path d="M605.9766,624.5695 C605.9766,655.8625 605.9766,706.0825 605.9766,737.0655 " fill="none" id="Nginx-Gateway" style="stroke:#181818;stroke-width:1.0;stroke-dasharray:7.0,7.0;"/><polygon fill="#181818" points="605.9766,619.4445,601.9766,628.4445,605.9766,624.4445,609.9766,628.4445,605.9766,619.4445" style="stroke:#181818;stroke-width:1.0;"/><polygon fill="#181818" points="605.9766,742.2425,609.9766,733.2425,605.9766,737.2425,601.9766,733.2425,605.9766,742.2425" style="stroke:#181818;stroke-width:1.0;"/><text fill="#000000" font-family="sans-serif" font-size="13" lengthAdjust="spacing" textLength="32" x="606.9766" y="687.5044">Runs</text></g><!--link Gateway to Plugins--><g id="link_Gateway_Plugins"><path d="M565.0586,791.7355 C554.0036,799.5635 542.4806,808.7095 532.9766,818.4375 C514.4926,837.3565 497.9676,862.5295 486.7946,881.4405 " fill="none" id="Gateway-Plugins" style="stroke:#181818;stroke-width:1.0;stroke-dasharray:7.0,7.0;"/><polygon fill="#181818" points="569.4316,788.6895,559.7601,790.5502,565.3285,791.5468,564.3319,797.1152,569.4316,788.6895" style="stroke:#181818;stroke-width:1.0;"/><polygon fill="#181818" points="484.0716,886.1065,492.0624,880.3491,486.5916,881.788,485.1528,876.3172,484.0716,886.1065" style="stroke:#181818;stroke-width:1.0;"/><text fill="#000000" font-family="sans-serif" font-size="13" lengthAdjust="spacing" textLength="76" x="533.9766" y="831.5044">Implements</text></g><!--link Gateway to identity--><g id="link_Gateway_identity"><path d="M681.1696,765.6005 C835.7196,764.9335 1183.4966,769.1605 1289.9766,818.4375 C1319.8866,832.2815 1345.3066,860.8005 1361.2266,882.0455 " fill="none" id="Gateway-identity" style="stroke:#181818;stroke-width:1.0;stroke-dasharray:7.0,7.0;"/><polygon fill="#181818" points="675.7536,765.6255,684.7718,769.5843,680.7536,765.6026,684.7353,761.5844,675.7536,765.6255" style="stroke:#181818;stroke-width:1.0;"/><polygon fill="#181818" points="1364.2766,886.1905,1362.1459,876.5749,1361.3056,882.169,1355.7115,881.3286,1364.2766,886.1905" style="stroke:#181818;stroke-width:1.0;"/><text fill="#000000" font-family="sans-serif" font-size="13" lengthAdjust="spacing" textLength="76" x="1316.9766" y="831.5044">Implements</text></g><!--link Gateway to loki--><g id="link_Gateway_loki"><path d="M675.6286,772.8225 C756.7756,781.8525 893.8996,802.0935 1004.9766,843.4375 C1035.9966,854.9835 1068.4566,874.5515 1090.5866,889.2075 " fill="none" id="Gateway-to-loki" style="stroke:#181818;stroke-width:1.0;stroke-dasharray:7.0,7.0;"/><polygon fill="#181818" points="1094.8666,892.0695,1089.5957,883.7498,1090.7059,889.2967,1085.1591,890.4069,1094.8666,892.0695" style="stroke:#181818;stroke-width:1.0;"/><text fill="#000000" font-family="sans-serif" font-size="13" lengthAdjust="spacing" textLength="47" x="973.9766" y="831.5044">Logs to</text></g><!--link Gateway to prometheus--><g id="link_Gateway_prometheus"><path d="M675.5376,770.5405 C804.5986,779.0585 1075.5866,801.4595 1158.9766,843.4375 C1177.9466,852.9845 1195.5666,869.0665 1208.5166,882.8445 " fill="none" id="Gateway-to-prometheus" style="stroke:#181818;stroke-width:1.0;stroke-dasharray:7.0,7.0;"/><polygon fill="#181818" points="1212.0466,886.6615,1208.878,877.3363,1208.6539,882.9887,1203.0015,882.7646,1212.0466,886.6615" style="stroke:#181818;stroke-width:1.0;"/><text fill="#000000" font-family="sans-serif" font-size="13" lengthAdjust="spacing" textLength="67" x="1135.9766" y="831.5044">Reports to</text></g><!--link Plugins to externalCatalog--><g id="link_Plugins_externalCatalog"><path d="M465.1856,937.4275 C452.4796,987.9285 425.5546,1094.9465 416.2336,1131.9934 " fill="none" id="Plugins-externalCatalog" style="stroke:#181818;stroke-width:1.0;stroke-dasharray:7.0,7.0;"/><polygon fill="#181818" points="466.4256,932.4985,460.3504,940.2504,465.2056,937.3474,468.1086,942.2025,466.4256,932.4985" style="stroke:#181818;stroke-width:1.0;"/><polygon fill="#181818" points="414.9896,1136.9365,421.0649,1129.1846,416.2097,1132.0876,413.3067,1127.2325,414.9896,1136.9365" style="stroke:#181818;stroke-width:1.0;"/><text fill="#000000" font-family="sans-serif" font-size="13" lengthAdjust="spacing" textLength="155" x="447.9766" y="1025.5044">exchanges based on pki</text></g><!--link Gateway to MognoDB--><g id="link_Gateway_MognoDB"><path d="M675.7606,786.9975 C720.1436,800.9585 778.3846,820.9315 827.9766,843.4375 C853.9306,855.2165 881.7426,871.0055 903.3976,884.0725 " fill="none" id="Gateway-to-MognoDB" style="stroke:#181818;stroke-width:1.0;stroke-dasharray:7.0,7.0;"/><polygon fill="#181818" points="907.9226,886.8165,902.3031,878.7282,903.648,884.2228,898.1533,885.5677,907.9226,886.8165" style="stroke:#181818;stroke-width:1.0;"/><text fill="#000000" font-family="sans-serif" font-size="13" lengthAdjust="spacing" textLength="35" x="805.9766" y="831.5044">Index</text></g><!--link Gateway to Redis--><g id="link_Gateway_Redis"><path d="M631.9146,788.6255 C661.7596,814.1555 710.6846,856.0075 742.0996,882.8795 " fill="none" id="Gateway-to-Redis" style="stroke:#181818;stroke-width:1.0;stroke-dasharray:7.0,7.0;"/><polygon fill="#181818" points="746.2216,886.4055,741.9819,877.5159,742.4218,883.1557,736.7821,883.5956,746.2216,886.4055" style="stroke:#181818;stroke-width:1.0;"/><text fill="#000000" font-family="sans-serif" font-size="13" lengthAdjust="spacing" textLength="40" x="685.9766" y="831.5044">Cache</text></g><!--link Gateway to ORM--><g id="link_Gateway_ORM"><path d="M611.1326,788.6255 C616.9446,813.6345 626.3966,854.3055 632.6506,881.2155 " fill="none" id="Gateway-to-ORM" style="stroke:#181818;stroke-width:1.0;stroke-dasharray:7.0,7.0;"/><polygon fill="#181818" points="633.8566,886.4055,635.7168,876.7339,632.7255,881.5351,627.9242,878.5438,633.8566,886.4055" style="stroke:#181818;stroke-width:1.0;"/><text fill="#000000" font-family="sans-serif" font-size="13" lengthAdjust="spacing" textLength="34" x="622.9766" y="831.5044">Store</text></g><!--link ORM to db--><g id="link_ORM_db"><path d="M642.8336,932.4985 C650.3776,975.6435 667.0596,1071.0595 675.2516,1117.9105 " fill="none" id="ORM-to-db" style="stroke:#181818;stroke-width:1.0;stroke-dasharray:7.0,7.0;"/><polygon fill="#181818" points="676.1596,1123.1055,678.5521,1113.5516,675.2997,1118.18,670.6713,1114.9276,676.1596,1123.1055" style="stroke:#181818;stroke-width:1.0;"/><text fill="#000000" font-family="sans-serif" font-size="13" lengthAdjust="spacing" textLength="43" x="660.9766" y="1025.5044">Persist</text></g><text fill="#888888" font-family="sans-serif" font-size="10" lengthAdjust="spacing" textLength="180" x="624.4598" y="1223.7197">Common Gateway | Components</text><!--SRC=[TLHDRzim3BthLn0vPPSMszABCGn8Fv6jIREaGmSKFIWsamYL9S-IbwHT__ieMdRYR3jP9XyVHV9HNdcD2TmLQE12UgdjIi5l66QvCc9fhSSoWGkRvzR0ZVIuaJjoaw6m1ertOeqoYvZ696JgRGaz9kc1T233wRl3KYX3Z4kP8lIkp-1gIty6-eKjFGm67zynUdd6A2D4gcsL4T5BLMBlLS3ZyF9w_WG1f3BAfVnElBMm4KUX9-H1cZg7r4rvd0AZCTe2ISFojLem2phY4GjRcKoME-WfiohHEGwFPv5H-48w16sVrVwlA6sEVeqLzQAGwRDSqJrkvGvBE8C-turQfAoXUbyF83CaCtNIUAaCWJy4DnKTkWUZfgIwVcuftJlS_2Z70FgtDCQKsLlVv6Oq-R4dP-fzTPELCbkkZK-1jerivjwDVUngfj0L1Ju5XYaV7K4USD6eXZtn789dOxRGjvDhXfboHudOncW-TKiUMxEob-T7bsj7iGTmSMExClHJz-tjhywzXtw8vCP5ELmsJ7CiVwcKPNZ0FhNEinPEnsx-xVPql9l_rATtD5-Dd35RrCdQ5O1F9oUVMur30kUbtGJx-EeUlZpSmuMMAXSjWE5HS0aCjKP0anMadh1gQrKKHv0uaif1fVn6EOUQV6X4HDJmIYMqVeLrwBeElkX_VAoDlOz_eNR5qIOmgsZqZMJO5VMGm2WlDERyHdG0pIx_4n40ORqI854xyBRZsQyQPSRmZZ0afgpfZvOz8KEwbjGI1s6A6T3RLj3-7l96eT2DJ8RRZej56DgShh7Z82qdCAUd3mKTWMtP8e4fbauv_mS0]--></g></svg>