<?xml version="1.0" encoding="us-ascii" standalone="no"?><svg xmlns="http://www.w3.org/2000/svg" xmlns:xlink="http://www.w3.org/1999/xlink" contentStyleType="text/css" height="1084px" preserveAspectRatio="none" style="width:1236px;height:1084px;background:#FFFFFF;" version="1.1" viewBox="0 0 1236 1084" width="1236px" zoomAndPan="magnify"><defs/><g><text fill="#888888" font-family="sans-serif" font-size="10" lengthAdjust="spacing" textLength="70" x="1152.5" y="9.2822">Components</text><text fill="#000000" font-family="sans-serif" font-size="14" font-weight="bold" lengthAdjust="spacing" textLength="182" x="520.25" y="35.6357">Open Catalogi | Extern</text><!--cluster Azure--><g id="cluster_Azure"><path d="M1122.5383,709.9019 C1125.4872,703.8532 1131.3577,703.9236 1134.4721,709.7354 C1138.1996,703.8854 1142.97,704.4162 1146.9802,709.4094 C1149.5304,703.5027 1155.303,702.92 1158.7009,708.548 C1160.9305,702.3732 1165.9586,702.3198 1169.716,706.9973 C1173.6101,702.6604 1179.7691,702.4276 1181.7357,709.1015 C1184.979,704.1789 1189.5698,703.015 1193.4694,708.3507 C1197.172,704.0335 1202.396,703.8901 1204.4127,710.1028 C1208.55,704.8656 1212.167,703.7653 1216.1539,710.2533 C1221.546,713.9972 1222.4401,719.5131 1216.4192,723.4858 C1224.6561,726.6053 1225.4431,733.0812 1218.3289,738.1938 C1224.5646,741.7344 1225.4052,746.7509 1219.0828,751.0292 C1224.7195,756.4032 1224.078,761.7298 1217.1798,765.4496 C1222.3184,769.752 1222.1438,773.4674 1217.1688,777.7607 C1224.5673,782.3169 1223.2202,787.5101 1216.7314,791.6282 C1212.636,796.9225 1208.0742,797.698 1204.3247,791.2623 C1201.3448,798.088 1196.0354,797.9745 1192.027,792.2719 C1188.9544,798.5471 1184.9732,799.362 1180.6084,793.4863 C1177.5425,797.763 1173.3036,797.5042 1170.4994,793.1789 C1166.3807,799.2937 1160.4684,798.1155 1158.1336,791.4525 C1155.0141,797.0919 1149.3712,799.0876 1145.0362,792.7858 C1141.0627,797.5988 1137.7687,798.3962 1134.2689,792.3175 C1130.1321,797.0806 1126.3371,796.6671 1122.6663,791.7586 C1114.6195,789.2044 1114.3155,783.544 1119.7179,778.0889 C1112.0323,774.742 1110.4094,770.2134 1116.3971,763.7089 C1110.0068,761.5241 1108.1696,755.6043 1114.1759,751.2155 C1108.594,745.7103 1109.5327,741.6857 1116.4536,738.4033 C1110.6572,731.9315 1111.7094,725.4071 1120.6912,723.0011 C1114.2392,717.4467 1114.6984,713.441 1122.5383,709.9019 " fill="none" style="stroke:#181818;stroke-width:1.0;"/><text fill="#000000" font-family="sans-serif" font-size="14" font-weight="bold" lengthAdjust="spacing" textLength="46" x="1145.5" y="727.4326">Azure</text></g><!--cluster Internet--><g id="cluster_Internet"><path d="M149.9709,941.1266 C153.3598,934.3535 157.8286,934.7755 162.2057,940.1297 C164.9937,934.0147 169.3832,934.9321 172.9791,939.2994 C176.4496,933.2231 180.6011,933.1263 185.1526,938.1095 C187.5699,932.8859 192.8504,931.6467 196.2277,937.1151 C198.7948,932.697 203.4438,932.4367 206.351,936.7194 C208.786,931.2742 214.6187,930.6356 218.4036,935.073 C222.507,928.9918 228.5002,930.09 230.7675,936.8419 C233.6118,931.9386 238.9735,931.9632 241.5734,937.1049 C245.9149,932.8988 249.6517,933.0648 251.6953,939.3268 C255.4174,933.1768 259.3197,932.7799 264.023,938.2892 C268.6587,933.2198 274.0947,934.3681 276.2317,940.9152 C283.6776,934.0891 290.5941,938.7981 292.5,946.9375 C294.0038,946.6805 294.8878,947.5185 294.5956,949.0463 C300.8299,951.8132 301.8936,956.7093 295.8638,960.7995 C303.5824,963.7644 304.154,970.3486 297.1697,974.6953 C303.9111,977.6945 304.1683,983.1045 298.0127,986.9881 C303.8842,990.8847 303.5016,996.2339 297.7335,999.8783 C304.0971,1004.6346 303.7215,1010.7709 296.1792,1013.9961 C300.932,1023.9214 299.003,1033.3049 285.5,1032.9375 C286.1648,1033.1088 286.4289,1033.679 285.8996,1034.2218 C282.8635,1039.7542 277.902,1039.1114 274.9852,1034.0983 C272.4367,1040.4385 267.5183,1040.7375 263.1134,1036.1072 C260.6761,1041.2572 256.4666,1040.4338 253.4814,1036.7014 C251.3209,1043.2191 246.7229,1044.8083 241.6924,1039.5826 C238.4741,1045.6358 233.2891,1044.6594 230.305,1039.348 C226.6121,1045.2887 222.1526,1045.524 217.63,1040.2889 C214.0818,1045.5065 209.4258,1045.8081 206.426,1039.7442 C202.7351,1043.9495 198.8001,1043.103 196.4615,1038.2557 C192.4047,1043.7723 188.439,1044.4616 184.401,1038.2364 C180.612,1042.2991 175.8133,1042.2753 173.6913,1036.4337 C169.7241,1041.7815 163.6416,1041.9208 161.3722,1034.7614 C150.7774,1040.9054 144.575,1038.0153 142.5,1025.9375 C143.4207,1026.2565 143.9008,1026.8794 143.0801,1027.7544 C135.5877,1024.5782 135.0251,1018.9365 141.9144,1014.4959 C134.9235,1011.5876 134.4313,1006.735 139.2692,1001.4317 C132.0771,997.3917 132.3096,993.294 138.1439,988.1504 C132.5384,983.1829 132.0484,978.1434 139.2568,974.198 C134.2856,969.2203 134.6055,964.1213 141.1132,960.7254 C133.4442,951.0031 137.4862,941.7188 149.5,939.9375 C150.2977,940.0444 150.3667,940.5471 149.9709,941.1266 " fill="none" style="stroke:#181818;stroke-width:1.0;"/><text fill="#000000" font-family="sans-serif" font-size="14" font-weight="bold" lengthAdjust="spacing" textLength="66" x="184.5" y="957.9326">Internet</text></g><!--cluster Kubernetes--><g id="cluster_Kubernetes"><path d="M124.7985,203.1921 C149.139,165.7514 182.1877,172.9425 197.4311,211.8468 C213.905,175.4372 246.8201,180.886 265.2533,209.8129 C279.9608,178.9847 307.4345,178.873 328.1204,202.97 C350.2527,173.02 373.5409,175.8128 392.7341,206.1216 C409.283,171.5152 441.0909,173.0102 461.7108,201.6841 C477.6001,167.2925 507.3463,159.7949 532.502,191.8052 C557.3033,163.1834 579.081,164.8443 597.7003,198.2981 C621.3882,164.0566 645.5779,165.6392 666.4518,201.0747 C683.3664,158.3255 717.9599,156.502 741.3723,195.0894 C763.2149,169.1908 789.4544,172.7379 805.1252,202.1973 C823.5417,171.2279 854.9319,168.0684 872.1788,203.3807 C895.3709,171.1414 924.8711,166.6435 945.2675,206.2257 C971.0187,179.3891 994.5978,171.3635 1016.028,210.8368 C1034.3615,177.3704 1061.8383,180.7645 1081.5,209.4375 C1086.4132,210.633 1087.6061,213.4441 1085.0297,217.8006 C1110.4606,230.1248 1119.8623,251.299 1094.7084,272.5634 C1125.2721,297.6382 1124.8311,319.5328 1087.151,336.5469 C1125.1887,361.5582 1120.0011,382.8692 1086.0401,406.741 C1116.4212,418.7427 1122.2874,438.445 1096.7596,461.4094 C1130.2649,476.5847 1125.6081,506.5094 1097.9076,522.8288 C1130.4742,546.6423 1121.237,576.3765 1089.9117,592.8991 C1120.8585,614.4547 1119.1925,636.9191 1086.5526,655.0373 C1114.8127,671.0503 1110.7909,697.5517 1084.5424,711.6284 C1115.2377,727.5229 1122.4363,752.0696 1091.7324,774.9372 C1113.1169,804.5995 1107.7772,823.609 1074.5,838.4375 C1080.8925,834.9126 1084.5528,836.4917 1086.1253,843.6718 C1064.9976,880.0783 1038.7531,886.3185 1013.2304,847.9567 C993.7125,882.2443 962.0614,878.9728 943.7496,846.6977 C921.1735,877.1495 898.4398,888.0272 872.1111,850.6617 C853.8109,881.7758 829.3742,880.2011 812.2251,849.5457 C784.8034,880.5065 755.6612,882.0497 732.972,844.1027 C719.3555,878.913 694.871,885.749 670.1031,854.7569 C646.4975,882.8721 616.6,880.6677 601.4273,845.592 C581.1255,883.5227 554.3882,883.4232 529.5817,850.1363 C509.0566,881.0589 485.5357,883.9784 462.4095,852.957 C439.8,882.1947 415.9779,878.6283 398.9973,847.0845 C374.609,876.6125 352.9585,877.1856 327.7431,848.0897 C306.134,880.0822 273.5683,877.453 254.4702,845.2247 C234.4198,875.9 211.8839,867.8895 193.9927,842.8797 C161.0739,882.6638 132.49,871.4004 110.5,831.4375 C116.6034,829.7102 119.3572,831.9486 118.4423,838.3202 C89.3814,822.0082 88.4809,800.2839 113.3921,779.3498 C78.1749,758.0894 85.1764,736.4869 111.773,713.702 C77.582,697.7782 73.7938,667.0685 108.4837,647.7114 C81.9178,628.0024 84.816,605.3866 115.3768,592.8561 C81.751,575.2682 75.4236,550.3076 103.9821,522.6299 C74.068,506.2868 74.757,477.1605 105.7334,462.5936 C79.4976,440.1619 86.4507,414.374 115.9841,401.2636 C90.5334,381.8334 91.243,362.3512 114.7372,341.8931 C84.6017,324.0065 88.8536,296.0088 115.2144,278.5478 C83.49,252.2878 77.3129,226.5379 117.5,202.4375 C119.9922,199.1807 123.0763,199.0026 124.7985,203.1921 " fill="none" style="stroke:#181818;stroke-width:1.0;"/><text fill="#000000" font-family="sans-serif" font-size="14" font-weight="bold" lengthAdjust="spacing" textLength="91" x="550.5" y="220.4326">Kubernetes</text></g><!--cluster Layer 4 (Logic)--><g id="cluster_Layer 4 (Logic)"><path d="M129,354.4375 L250,354.4375 A3.75,3.75 0 0 1 252.5,356.9375 L259.5,376.7344 L866,376.7344 A2.5,2.5 0 0 1 868.5,379.2344 L868.5,819.9375 A2.5,2.5 0 0 1 866,822.4375 L129,822.4375 A2.5,2.5 0 0 1 126.5,819.9375 L126.5,356.9375 A2.5,2.5 0 0 1 129,354.4375 " fill="none" style="stroke:#000000;stroke-width:1.5;"/><line style="stroke:#000000;stroke-width:1.5;" x1="126.5" x2="259.5" y1="376.7344" y2="376.7344"/><text fill="#000000" font-family="sans-serif" font-size="14" font-weight="bold" lengthAdjust="spacing" textLength="120" x="130.5" y="369.4326">Layer 4 (Logic)</text></g><!--cluster NGINX Container--><g id="cluster_NGINX Container"><path d="M612,397.4375 L747,397.4375 A3.75,3.75 0 0 1 749.5,399.9375 L756.5,419.7344 L757,419.7344 A2.5,2.5 0 0 1 759.5,422.2344 L759.5,493.9375 A2.5,2.5 0 0 1 757,496.4375 L612,496.4375 A2.5,2.5 0 0 1 609.5,493.9375 L609.5,399.9375 A2.5,2.5 0 0 1 612,397.4375 " fill="none" style="stroke:#000000;stroke-width:1.5;"/><line style="stroke:#000000;stroke-width:1.5;" x1="609.5" x2="756.5" y1="419.7344" y2="419.7344"/><text fill="#000000" font-family="sans-serif" font-size="14" font-weight="bold" lengthAdjust="spacing" textLength="134" x="613.5" y="412.4326">NGINX Container</text></g><!--cluster Gateway Container--><g id="cluster_Gateway Container"><path d="M153,557.4375 L309,557.4375 A3.75,3.75 0 0 1 311.5,559.9375 L318.5,579.7344 L479,579.7344 A2.5,2.5 0 0 1 481.5,582.2344 L481.5,795.9375 A2.5,2.5 0 0 1 479,798.4375 L153,798.4375 A2.5,2.5 0 0 1 150.5,795.9375 L150.5,559.9375 A2.5,2.5 0 0 1 153,557.4375 " fill="none" style="stroke:#000000;stroke-width:1.5;"/><line style="stroke:#000000;stroke-width:1.5;" x1="150.5" x2="318.5" y1="579.7344" y2="579.7344"/><text fill="#000000" font-family="sans-serif" font-size="14" font-weight="bold" lengthAdjust="spacing" textLength="155" x="154.5" y="572.4326">Gateway Container</text></g><!--cluster RedisContainer--><g id="cluster_RedisContainer"><path d="M508,701.4375 L632,701.4375 A3.75,3.75 0 0 1 634.5,703.9375 L641.5,723.7344 L642,723.7344 A2.5,2.5 0 0 1 644.5,726.2344 L644.5,795.9375 A2.5,2.5 0 0 1 642,798.4375 L508,798.4375 A2.5,2.5 0 0 1 505.5,795.9375 L505.5,703.9375 A2.5,2.5 0 0 1 508,701.4375 " fill="none" style="stroke:#000000;stroke-width:1.5;"/><line style="stroke:#000000;stroke-width:1.5;" x1="505.5" x2="641.5" y1="723.7344" y2="723.7344"/><text fill="#000000" font-family="sans-serif" font-size="14" font-weight="bold" lengthAdjust="spacing" textLength="123" x="509.5" y="716.4326">RedisContainer</text></g><!--cluster MongoDB Container--><g id="cluster_MongoDB Container"><path d="M671,701.9375 L832,701.9375 A3.75,3.75 0 0 1 834.5,704.4375 L841.5,724.2344 L842,724.2344 A2.5,2.5 0 0 1 844.5,726.7344 L844.5,795.4375 A2.5,2.5 0 0 1 842,797.9375 L671,797.9375 A2.5,2.5 0 0 1 668.5,795.4375 L668.5,704.4375 A2.5,2.5 0 0 1 671,701.9375 " fill="none" style="stroke:#000000;stroke-width:1.5;"/><line style="stroke:#000000;stroke-width:1.5;" x1="668.5" x2="841.5" y1="724.2344" y2="724.2344"/><text fill="#000000" font-family="sans-serif" font-size="14" font-weight="bold" lengthAdjust="spacing" textLength="160" x="672.5" y="716.9326">MongoDB Container</text></g><!--cluster Layer 1 (data)--><g id="cluster_Layer 1 (data)"><path d="M327,895.4375 L443,895.4375 A3.75,3.75 0 0 1 445.5,897.9375 L452.5,917.7344 L642,917.7344 A2.5,2.5 0 0 1 644.5,920.2344 L644.5,1055.9375 A2.5,2.5 0 0 1 642,1058.4375 L327,1058.4375 A2.5,2.5 0 0 1 324.5,1055.9375 L324.5,897.9375 A2.5,2.5 0 0 1 327,895.4375 " fill="none" style="stroke:#000000;stroke-width:1.5;"/><line style="stroke:#000000;stroke-width:1.5;" x1="324.5" x2="452.5" y1="917.7344" y2="917.7344"/><text fill="#000000" font-family="sans-serif" font-size="14" font-weight="bold" lengthAdjust="spacing" textLength="115" x="328.5" y="910.4326">Layer 1 (data)</text></g><!--cluster Database Service--><g id="cluster_Database Service"><path d="M357.5747,947.8451 C363.6993,939.5392 369.5955,939.1487 376.1771,947.3296 C379.5748,939.1585 386.8462,935.0399 393.8337,943.5239 C397.953,931.9953 407.8123,931.9096 413.964,941.5953 C419.3343,933.3842 426.1359,930.8884 432.6227,940.4213 C436.7841,930.9578 444.4695,931.0807 450.761,938.0735 C455.587,930.1265 462.0959,930.2198 466.6653,938.3277 C472.1215,928.6941 479.0662,926.635 487.1483,935.405 C491.8167,928.6112 500.3166,928.5835 504.3282,936.1887 C510.9324,929.1537 517.4721,930.7778 521.3642,939.1815 C527.6029,930.0435 536.4575,930.0919 541.2697,940.625 C548.8906,931.4324 555.2382,934.0436 560.7009,942.943 C565.5618,936.5363 571.6142,935.9133 576.2635,943.1838 C584.3704,934.5853 593.725,935.862 597.4258,947.7379 C602.2521,939.2299 608.0969,939.5628 613.8112,946.8146 C623.1314,953.333 622.6208,959.2651 614.5855,966.4672 C627.6762,971.6601 626.9435,982.6148 616.4003,989.6573 C624.3459,995.8891 622.6793,1002.2155 614.57,1006.7256 C627.0347,1012.2824 626.511,1022.7212 615.8928,1029.6122 C610.6228,1039.6435 602.3124,1038.8418 596.3571,1030.3343 C590.2517,1039.3424 582.1125,1038.5386 576.3522,1029.9421 C572.0074,1037.2397 564.0361,1039.3874 559.4734,1030.1648 C554.4969,1040.2617 547.8498,1038.6211 541.7023,1031.364 C536.9649,1042.4596 530.0313,1044.1043 521.935,1034.5848 C517.2583,1042.3825 509.4289,1041.9719 505.3953,1033.914 C499.8099,1043.1525 493.9473,1043.0878 486.3893,1036.2454 C480.6155,1044.1735 471.528,1044.1886 467.3763,1034.4952 C461.839,1042.7256 453.4245,1042.1277 450.0099,1032.4381 C444.8293,1041.7072 438.2121,1041.6221 432.34,1033.1258 C425.1804,1041.2787 417.753,1040.4523 411.9303,1031.528 C406.2418,1039.5717 400.3636,1038.3876 395.9443,1030.2723 C388.8917,1040.3636 380.3682,1039.4744 375.5615,1028.1361 C369.786,1035.5147 362.6546,1036.7458 358.1079,1026.8915 C348.9543,1023.6384 346.4054,1015.1106 355.0464,1008.8397 C342.3651,1005.7093 342.7946,996.1735 350.0583,988.2186 C339.5655,980.679 342.6986,971.1436 353.039,966.4576 C345.7606,959.2068 346.878,950.7155 357.5747,947.8451 " fill="none" style="stroke:#181818;stroke-width:1.0;"/><text fill="#000000" font-family="sans-serif" font-size="14" font-weight="bold" lengthAdjust="spacing" textLength="140" x="414.5" y="964.4326">Database Service</text></g><!--entity identity--><g id="elem_identity"><rect fill="#F1F1F1" height="46.2969" rx="2.5" ry="2.5" style="stroke:#181818;stroke-width:0.5;" width="78" x="1129.5" y="736.4375"/><rect fill="#F1F1F1" height="10" style="stroke:#181818;stroke-width:0.5;" width="15" x="1187.5" y="741.4375"/><rect fill="#F1F1F1" height="2" style="stroke:#181818;stroke-width:0.5;" width="4" x="1185.5" y="743.4375"/><rect fill="#F1F1F1" height="2" style="stroke:#181818;stroke-width:0.5;" width="4" x="1185.5" y="747.4375"/><text fill="#000000" font-family="sans-serif" font-size="14" lengthAdjust="spacing" textLength="38" x="1144.5" y="769.4326">ADFS</text></g><!--entity externalCatalog--><g id="elem_externalCatalog"><ellipse cx="217.5" cy="995.9375" fill="#F1F1F1" rx="8" ry="8" style="stroke:#181818;stroke-width:0.5;"/><text fill="#000000" font-family="sans-serif" font-size="14" lengthAdjust="spacing" textLength="119" x="158" y="1025.9326">External Catalog</text></g><!--entity ingress--><g id="elem_ingress"><path d="M1027,233.4375 L1027,257.4375 M1027,245.4375 L1044,245.4375 " fill="none" style="stroke:#181818;stroke-width:0.5;"/><ellipse cx="1056" cy="245.4375" fill="#F1F1F1" rx="12" ry="12" style="stroke:#181818;stroke-width:0.5;"/><text fill="#000000" font-family="sans-serif" font-size="14" lengthAdjust="spacing" textLength="51" x="1022" y="274.4326">ingress</text></g><!--entity loki--><g id="elem_loki"><path d="M884.5,746.9375 C884.5,736.9375 907.5,736.9375 907.5,736.9375 C907.5,736.9375 930.5,736.9375 930.5,746.9375 L930.5,772.2344 C930.5,782.2344 907.5,782.2344 907.5,782.2344 C907.5,782.2344 884.5,782.2344 884.5,772.2344 L884.5,746.9375 " fill="#F1F1F1" style="stroke:#181818;stroke-width:0.5;"/><path d="M884.5,746.9375 C884.5,756.9375 907.5,756.9375 907.5,756.9375 C907.5,756.9375 930.5,756.9375 930.5,746.9375 " fill="none" style="stroke:#181818;stroke-width:0.5;"/><text fill="#000000" font-family="sans-serif" font-size="14" lengthAdjust="spacing" textLength="26" x="894.5" y="773.9326">loki</text></g><!--entity prometheus--><g id="elem_prometheus"><path d="M965.5,746.9375 C965.5,736.9375 1019.5,736.9375 1019.5,736.9375 C1019.5,736.9375 1073.5,736.9375 1073.5,746.9375 L1073.5,772.2344 C1073.5,782.2344 1019.5,782.2344 1019.5,782.2344 C1019.5,782.2344 965.5,782.2344 965.5,772.2344 L965.5,746.9375 " fill="#F1F1F1" style="stroke:#181818;stroke-width:0.5;"/><path d="M965.5,746.9375 C965.5,756.9375 1019.5,756.9375 1019.5,756.9375 C1019.5,756.9375 1073.5,756.9375 1073.5,746.9375 " fill="none" style="stroke:#181818;stroke-width:0.5;"/><text fill="#000000" font-family="sans-serif" font-size="14" lengthAdjust="spacing" textLength="88" x="975.5" y="773.9326">prometheus</text></g><!--entity Nginx--><g id="elem_Nginx"><path d="M664,436.4375 L664,460.4375 M664,448.4375 L681,448.4375 " fill="none" style="stroke:#181818;stroke-width:0.5;"/><ellipse cx="693" cy="448.4375" fill="#F1F1F1" rx="12" ry="12" style="stroke:#181818;stroke-width:0.5;"/><text fill="#000000" font-family="sans-serif" font-size="14" lengthAdjust="spacing" textLength="40" x="664.5" y="477.4326">Nginx</text></g><!--entity Plugins--><g id="elem_Plugins"><rect fill="#F1F1F1" height="46.2969" rx="2.5" ry="2.5" style="stroke:#181818;stroke-width:0.5;" width="190" x="166.5" y="736.4375"/><rect fill="#F1F1F1" height="10" style="stroke:#181818;stroke-width:0.5;" width="15" x="336.5" y="741.4375"/><rect fill="#F1F1F1" height="2" style="stroke:#181818;stroke-width:0.5;" width="4" x="334.5" y="743.4375"/><rect fill="#F1F1F1" height="2" style="stroke:#181818;stroke-width:0.5;" width="4" x="334.5" y="747.4375"/><text fill="#000000" font-family="sans-serif" font-size="14" lengthAdjust="spacing" textLength="150" x="181.5" y="769.4326">Open Catalogi plugin</text></g><!--entity Gateway--><g id="elem_Gateway"><rect fill="#F1F1F1" height="46.2969" rx="2.5" ry="2.5" style="stroke:#181818;stroke-width:0.5;" width="139" x="326" y="592.4375"/><rect fill="#F1F1F1" height="10" style="stroke:#181818;stroke-width:0.5;" width="15" x="445" y="597.4375"/><rect fill="#F1F1F1" height="2" style="stroke:#181818;stroke-width:0.5;" width="4" x="443" y="599.4375"/><rect fill="#F1F1F1" height="2" style="stroke:#181818;stroke-width:0.5;" width="4" x="443" y="603.4375"/><text fill="#000000" font-family="sans-serif" font-size="14" lengthAdjust="spacing" textLength="99" x="341" y="625.4326">Web Gateway</text></g><!--entity ORM--><g id="elem_ORM"><rect fill="#F1F1F1" height="46.2969" rx="2.5" ry="2.5" style="stroke:#181818;stroke-width:0.5;" width="73" x="392" y="736.4375"/><rect fill="#F1F1F1" height="10" style="stroke:#181818;stroke-width:0.5;" width="15" x="445" y="741.4375"/><rect fill="#F1F1F1" height="2" style="stroke:#181818;stroke-width:0.5;" width="4" x="443" y="743.4375"/><rect fill="#F1F1F1" height="2" style="stroke:#181818;stroke-width:0.5;" width="4" x="443" y="747.4375"/><text fill="#000000" font-family="sans-serif" font-size="14" lengthAdjust="spacing" textLength="33" x="407" y="769.4326">ORM</text></g><!--entity Redis--><g id="elem_Redis"><rect fill="#F1F1F1" height="46.2969" rx="2.5" ry="2.5" style="stroke:#181818;stroke-width:0.5;" width="79" x="522" y="736.4375"/><rect fill="#F1F1F1" height="10" style="stroke:#181818;stroke-width:0.5;" width="15" x="581" y="741.4375"/><rect fill="#F1F1F1" height="2" style="stroke:#181818;stroke-width:0.5;" width="4" x="579" y="743.4375"/><rect fill="#F1F1F1" height="2" style="stroke:#181818;stroke-width:0.5;" width="4" x="579" y="747.4375"/><text fill="#000000" font-family="sans-serif" font-size="14" lengthAdjust="spacing" textLength="39" x="537" y="769.4326">Redis</text></g><!--entity MognoDB--><g id="elem_MognoDB"><path d="M685,746.9375 C685,736.9375 731.5,736.9375 731.5,736.9375 C731.5,736.9375 778,736.9375 778,746.9375 L778,772.2344 C778,782.2344 731.5,782.2344 731.5,782.2344 C731.5,782.2344 685,782.2344 685,772.2344 L685,746.9375 " fill="#F1F1F1" style="stroke:#181818;stroke-width:0.5;"/><path d="M685,746.9375 C685,756.9375 731.5,756.9375 731.5,756.9375 C731.5,756.9375 778,756.9375 778,746.9375 " fill="none" style="stroke:#181818;stroke-width:0.5;"/><text fill="#000000" font-family="sans-serif" font-size="14" lengthAdjust="spacing" textLength="69" x="695" y="773.9326">MongoDB</text></g><!--entity db--><g id="elem_db"><path d="M364.5,983.4375 C364.5,973.4375 484.5,973.4375 484.5,973.4375 C484.5,973.4375 604.5,973.4375 604.5,983.4375 L604.5,1008.7344 C604.5,1018.7344 484.5,1018.7344 484.5,1018.7344 C484.5,1018.7344 364.5,1018.7344 364.5,1008.7344 L364.5,983.4375 " fill="#F1F1F1" style="stroke:#181818;stroke-width:0.5;"/><path d="M364.5,983.4375 C364.5,993.4375 484.5,993.4375 484.5,993.4375 C484.5,993.4375 604.5,993.4375 604.5,983.4375 " fill="none" style="stroke:#181818;stroke-width:0.5;"/><text fill="#000000" font-family="sans-serif" font-size="14" lengthAdjust="spacing" textLength="220" x="374.5" y="1010.4326">Postgress/MsSQL/MySql/Oracle</text></g><!--entity externalCatalouge--><g id="elem_externalCatalouge"><ellipse cx="71.5" cy="63.9375" fill="#F1F1F1" rx="8" ry="8" style="stroke:#181818;stroke-width:0.5;"/><path d="M71.5,71.9375 L71.5,98.9375 M58.5,79.9375 L84.5,79.9375 M71.5,98.9375 L58.5,113.9375 M71.5,98.9375 L84.5,113.9375 " fill="none" style="stroke:#181818;stroke-width:0.5;"/><text fill="#000000" font-family="sans-serif" font-size="14" lengthAdjust="spacing" textLength="131" x="6" y="128.4326">Externe Catalogus</text></g><!--entity hipp--><g id="elem_hipp"><ellipse cx="1047.5" cy="93.4375" fill="#F1F1F1" rx="8" ry="8" style="stroke:#181818;stroke-width:0.5;"/><text fill="#000000" font-family="sans-serif" font-size="14" lengthAdjust="spacing" textLength="76" x="1009.5" y="123.4326">Mtls (PKIo)</text></g><!--entity Mtls--><g id="elem_Mtls"><ellipse cx="71.5" cy="223.9375" fill="#F1F1F1" rx="8" ry="8" style="stroke:#181818;stroke-width:0.5;"/><path d="M71.5,231.9375 L71.5,258.9375 M58.5,239.9375 L84.5,239.9375 M71.5,258.9375 L58.5,273.9375 M71.5,258.9375 L84.5,273.9375 " fill="none" style="stroke:#181818;stroke-width:0.5;"/><text fill="#000000" font-family="sans-serif" font-size="14" lengthAdjust="spacing" textLength="30" x="56.5" y="288.4326">Mtls</text></g><!--entity ui--><g id="elem_ui"><ellipse cx="1119.5" cy="426.9375" fill="#F1F1F1" rx="8" ry="8" style="stroke:#181818;stroke-width:0.5;"/><path d="M1119.5,434.9375 L1119.5,461.9375 M1106.5,442.9375 L1132.5,442.9375 M1119.5,461.9375 L1106.5,476.9375 M1119.5,461.9375 L1132.5,476.9375 " fill="none" style="stroke:#181818;stroke-width:0.5;"/><text fill="#000000" font-family="sans-serif" font-size="14" lengthAdjust="spacing" textLength="12" x="1113.5" y="491.4326">ui</text></g><!--entity admin--><g id="elem_admin"><ellipse cx="1207.5" cy="426.9375" fill="#F1F1F1" rx="8" ry="8" style="stroke:#181818;stroke-width:0.5;"/><path d="M1207.5,434.9375 L1207.5,461.9375 M1194.5,442.9375 L1220.5,442.9375 M1207.5,461.9375 L1194.5,476.9375 M1207.5,461.9375 L1220.5,476.9375 " fill="none" style="stroke:#181818;stroke-width:0.5;"/><text fill="#000000" font-family="sans-serif" font-size="14" lengthAdjust="spacing" textLength="44" x="1185.5" y="491.4326">admin</text></g><!--link externalCatalouge to Mtls--><g id="link_externalCatalouge_Mtls"><path d="M71.5,136.6165 C71.5,159.4145 71.5,187.4805 71.5,210.2755 " fill="none" id="externalCatalouge-Mtls" style="stroke:#181818;stroke-width:1.0;stroke-dasharray:7.0,7.0;"/><polygon fill="#181818" points="71.5,131.4815,67.5,140.4815,71.5,136.4815,75.5,140.4815,71.5,131.4815" style="stroke:#181818;stroke-width:1.0;"/><polygon fill="#181818" points="71.5,215.3525,75.5,206.3525,71.5,210.3525,67.5,206.3525,71.5,215.3525" style="stroke:#181818;stroke-width:1.0;"/><text fill="#000000" font-family="sans-serif" font-size="13" lengthAdjust="spacing" textLength="29" x="72.5" y="174.5044">PKIO</text></g><!--link hipp to ingress--><g id="link_hipp_ingress"><path d="M1047.5,107.6785 C1047.5,133.1745 1047.5,189.5995 1047.5,223.9895 " fill="none" id="hipp-ingress" style="stroke:#181818;stroke-width:1.0;stroke-dasharray:7.0,7.0;"/><polygon fill="#181818" points="1047.5,102.4895,1043.5,111.4895,1047.5,107.4895,1051.5,111.4895,1047.5,102.4895" style="stroke:#181818;stroke-width:1.0;"/><polygon fill="#181818" points="1047.5,229.3105,1051.5,220.3105,1047.5,224.3105,1043.5,220.3105,1047.5,229.3105" style="stroke:#181818;stroke-width:1.0;"/><text fill="#000000" font-family="sans-serif" font-size="13" lengthAdjust="spacing" textLength="158" x="1048.5" y="174.5044">Catalogus uitwisselingen</text></g><!--link ingress to ui--><g id="link_ingress_ui"><path d="M1058.16,282.6315 C1062.64,294.5805 1067.88,308.6685 1072.5,321.4375 C1083.64,352.2085 1095.86,387.0955 1105.05,413.5575 " fill="none" id="ingress-ui" style="stroke:#181818;stroke-width:1.0;stroke-dasharray:7.0,7.0;"/><polygon fill="#181818" points="1056.29,277.6515,1055.7074,287.4831,1058.0469,282.3327,1063.1973,284.6721,1056.29,277.6515" style="stroke:#181818;stroke-width:1.0;"/><polygon fill="#181818" points="1106.73,418.3975,1107.5535,408.5831,1105.0885,413.6746,1099.9969,411.2096,1106.73,418.3975" style="stroke:#181818;stroke-width:1.0;"/><text fill="#000000" font-family="sans-serif" font-size="13" lengthAdjust="spacing" textLength="54" x="1078.5" y="334.5044">Exposes</text></g><!--link ingress to admin--><g id="link_ingress_admin"><path d="M1077.76,270.6955 C1097.82,282.6485 1123.64,300.4295 1141.5,321.4375 C1164.6,348.6125 1181.93,385.2675 1193.02,413.3715 " fill="none" id="ingress-admin" style="stroke:#181818;stroke-width:1.0;stroke-dasharray:7.0,7.0;"/><polygon fill="#181818" points="1073.32,268.0845,1079.0598,276.0879,1077.633,270.614,1083.1069,269.1872,1073.32,268.0845" style="stroke:#181818;stroke-width:1.0;"/><polygon fill="#181818" points="1194.89,418.1595,1195.3528,408.3215,1193.0763,413.5001,1187.8977,411.2235,1194.89,418.1595" style="stroke:#181818;stroke-width:1.0;"/><text fill="#000000" font-family="sans-serif" font-size="13" lengthAdjust="spacing" textLength="54" x="1154.5" y="334.5044">Exposes</text></g><!--link ingress to Nginx--><g id="link_ingress_Nginx"><path d="M1017.5,271.0475 C948.96,309.0005 781.56,401.6935 713.745,439.2435 " fill="none" id="ingress-Nginx" style="stroke:#181818;stroke-width:1.0;stroke-dasharray:7.0,7.0;"/><polygon fill="#181818" points="1021.97,268.5715,1012.1598,269.4429,1017.5985,270.9985,1016.043,276.4373,1021.97,268.5715" style="stroke:#181818;stroke-width:1.0;"/><polygon fill="#181818" points="709.037,441.8505,718.8483,440.9913,713.4115,439.429,714.9738,433.9921,709.037,441.8505" style="stroke:#181818;stroke-width:1.0;"/><text fill="#000000" font-family="sans-serif" font-size="13" lengthAdjust="spacing" textLength="54" x="920.5" y="334.5044">Exposes</text></g><!--link Nginx to Gateway--><g id="link_Nginx_Gateway"><path d="M655.321,473.2895 C604.77,500.7515 500.582,557.3515 440.634,589.9185 " fill="none" id="Nginx-Gateway" style="stroke:#181818;stroke-width:1.0;stroke-dasharray:7.0,7.0;"/><polygon fill="#181818" points="659.86,470.8235,650.0423,471.6061,655.4668,473.2109,653.862,478.6353,659.86,470.8235" style="stroke:#181818;stroke-width:1.0;"/><polygon fill="#181818" points="436.041,592.4135,445.8588,591.6322,440.4346,590.0267,442.04,584.6025,436.041,592.4135" style="stroke:#181818;stroke-width:1.0;"/><text fill="#000000" font-family="sans-serif" font-size="13" lengthAdjust="spacing" textLength="32" x="558.5" y="537.5044">Runs</text></g><!--link Gateway to Plugins--><g id="link_Gateway_Plugins"><path d="M354.582,641.7355 C343.527,649.5635 332.004,658.7095 322.5,668.4375 C304.016,687.3565 287.491,712.5295 276.318,731.4405 " fill="none" id="Gateway-Plugins" style="stroke:#181818;stroke-width:1.0;stroke-dasharray:7.0,7.0;"/><polygon fill="#181818" points="358.955,638.6895,349.2835,640.5502,354.8519,641.5468,353.8552,647.1152,358.955,638.6895" style="stroke:#181818;stroke-width:1.0;"/><polygon fill="#181818" points="273.595,736.1065,281.5858,730.3491,276.115,731.788,274.6761,726.3172,273.595,736.1065" style="stroke:#181818;stroke-width:1.0;"/><text fill="#000000" font-family="sans-serif" font-size="13" lengthAdjust="spacing" textLength="76" x="323.5" y="681.5044">Implements</text></g><!--link Gateway to identity--><g id="link_Gateway_identity"><path d="M470.693,615.6005 C625.243,614.9335 973.02,619.1605 1079.5,668.4375 C1109.41,682.2815 1134.83,710.8005 1150.75,732.0455 " fill="none" id="Gateway-identity" style="stroke:#181818;stroke-width:1.0;stroke-dasharray:7.0,7.0;"/><polygon fill="#181818" points="465.277,615.6255,474.2952,619.5843,470.2769,615.6026,474.2586,611.5844,465.277,615.6255" style="stroke:#181818;stroke-width:1.0;"/><polygon fill="#181818" points="1153.8,736.1905,1151.6693,726.5749,1150.8289,732.169,1145.2348,731.3286,1153.8,736.1905" style="stroke:#181818;stroke-width:1.0;"/><text fill="#000000" font-family="sans-serif" font-size="13" lengthAdjust="spacing" textLength="76" x="1106.5" y="681.5044">Implements</text></g><!--link Gateway to loki--><g id="link_Gateway_loki"><path d="M465.152,622.8225 C546.299,631.8525 683.423,652.0935 794.5,693.4375 C825.52,704.9835 857.978,724.5515 880.106,739.2075 " fill="none" id="Gateway-to-loki" style="stroke:#181818;stroke-width:1.0;stroke-dasharray:7.0,7.0;"/><polygon fill="#181818" points="884.39,742.0695,879.1269,733.7448,880.2319,739.2927,874.6841,740.3977,884.39,742.0695" style="stroke:#181818;stroke-width:1.0;"/><text fill="#000000" font-family="sans-serif" font-size="13" lengthAdjust="spacing" textLength="47" x="763.5" y="681.5044">Logs to</text></g><!--link Gateway to prometheus--><g id="link_Gateway_prometheus"><path d="M465.061,620.5405 C594.122,629.0585 865.111,651.4595 948.5,693.4375 C967.466,702.9845 985.094,719.0665 998.042,732.8445 " fill="none" id="Gateway-to-prometheus" style="stroke:#181818;stroke-width:1.0;stroke-dasharray:7.0,7.0;"/><polygon fill="#181818" points="1001.567,736.6615,998.402,727.335,998.1757,732.9874,992.5234,732.7611,1001.567,736.6615" style="stroke:#181818;stroke-width:1.0;"/><text fill="#000000" font-family="sans-serif" font-size="13" lengthAdjust="spacing" textLength="67" x="925.5" y="681.5044">Reports to</text></g><!--link Plugins to externalCatalog--><g id="link_Plugins_externalCatalog"><path d="M256.436,787.4275 C246.96,837.9285 226.88,944.9465 219.929,981.9934 " fill="none" id="Plugins-externalCatalog" style="stroke:#181818;stroke-width:1.0;stroke-dasharray:7.0,7.0;"/><polygon fill="#181818" points="257.361,782.4985,251.7709,790.6072,256.4396,787.4129,259.6339,792.0815,257.361,782.4985" style="stroke:#181818;stroke-width:1.0;"/><polygon fill="#181818" points="219.001,986.9365,224.5922,978.8286,219.9231,982.0223,216.7295,977.3532,219.001,986.9365" style="stroke:#181818;stroke-width:1.0;"/><text fill="#000000" font-family="sans-serif" font-size="13" lengthAdjust="spacing" textLength="155" x="243.5" y="875.5044">exchanges based on pki</text></g><!--link Gateway to MognoDB--><g id="link_Gateway_MognoDB"><path d="M465.284,636.9975 C509.667,650.9585 567.908,670.9315 617.5,693.4375 C643.454,705.2165 671.266,721.0055 692.921,734.0725 " fill="none" id="Gateway-to-MognoDB" style="stroke:#181818;stroke-width:1.0;stroke-dasharray:7.0,7.0;"/><polygon fill="#181818" points="697.446,736.8165,691.8265,728.7282,693.1713,734.2228,687.6766,735.5677,697.446,736.8165" style="stroke:#181818;stroke-width:1.0;"/><text fill="#000000" font-family="sans-serif" font-size="13" lengthAdjust="spacing" textLength="35" x="595.5" y="681.5044">Index</text></g><!--link Gateway to Redis--><g id="link_Gateway_Redis"><path d="M421.438,638.6255 C451.283,664.1555 500.208,706.0075 531.623,732.8795 " fill="none" id="Gateway-to-Redis" style="stroke:#181818;stroke-width:1.0;stroke-dasharray:7.0,7.0;"/><polygon fill="#181818" points="535.745,736.4055,531.5052,727.5159,531.9452,733.1557,526.3055,733.5956,535.745,736.4055" style="stroke:#181818;stroke-width:1.0;"/><text fill="#000000" font-family="sans-serif" font-size="13" lengthAdjust="spacing" textLength="40" x="475.5" y="681.5044">Cache</text></g><!--link Gateway to ORM--><g id="link_Gateway_ORM"><path d="M400.656,638.6255 C406.468,663.6345 415.92,704.3055 422.174,731.2155 " fill="none" id="Gateway-to-ORM" style="stroke:#181818;stroke-width:1.0;stroke-dasharray:7.0,7.0;"/><polygon fill="#181818" points="423.38,736.4055,425.2402,726.7339,422.2488,731.5351,417.4476,728.5438,423.38,736.4055" style="stroke:#181818;stroke-width:1.0;"/><text fill="#000000" font-family="sans-serif" font-size="13" lengthAdjust="spacing" textLength="34" x="412.5" y="681.5044">Store</text></g><!--link ORM to db--><g id="link_ORM_db"><path d="M433.768,782.4985 C444.093,825.7315 466.95,921.4465 478.114,968.1955 " fill="none" id="ORM-to-db" style="stroke:#181818;stroke-width:1.0;stroke-dasharray:7.0,7.0;"/><polygon fill="#181818" points="479.286,973.1055,481.0858,963.4225,478.1245,968.2423,473.3047,965.2809,479.286,973.1055" style="stroke:#181818;stroke-width:1.0;"/><text fill="#000000" font-family="sans-serif" font-size="13" lengthAdjust="spacing" textLength="43" x="457.5" y="875.5044">Persist</text></g><text fill="#888888" font-family="sans-serif" font-size="10" lengthAdjust="spacing" textLength="180" x="521.25" y="1073.7197">Common Gateway | Components</text><!--SRC=[TLJ1Rjim3BthAmYVqak30JiPnO2kwOgWSP8bXmqeUf1jrX5gIvuahycw_liesexZj3jPudjybFWeU-LBZ65LeuORwMLf2WL_uNRlqMhnP0nzOxWnLMKqt4cFB_90E0Lger5x9tOeyuxJXuJClB4GjIhO2pSk0ka0EIhBDjeKA9Ico9FC4AB4bmucw_kvkM3oJjMr41dnSeYk_pGMerS13zUpRzj720ILKqdb3-BjI9jhBkk9UQ9ysvNjJ_F1MOeWqglSDoche2CTaPf6vz8U85AwiEZQgtHhaLDwAXr2QPxLiAkjgT3liA6M257Bx5aMT9A5FA25pp1PKBCpkkVhW2tlvikVr4ljfT9e0mP3xMMXz9uhyoeSzvZPcpFEVHWxMvSD9Ju6XJKl7L5-ODfRoqYt3icRX2Fq7TNQOAxSMI6ECPjNtCfZGc9qOMPVpmvtRDH0uCibfj2q8GaIUNlNkKym2PdSkCwiMQ-qHVjRPJma9-fhupmxDKtSzljYcXoslyhfoigiHAwOfssnTxC9LvUNNo1CPGmqbIiH1h8DTkR7mtX3e_oBSWvBmb0BqL5QVgDYUbUrSUZ6WCmhfV-3iSy3nbjeeSwc63ODsTZRpr3dRGppgYwnuaSv8lIlvaD688H1Ze46r84t8sGOQggCjR6UALt9LlxiMSKKo7QIUk8WE983_KngUYcdkftfT2ATutu4yK25FcSx704qbp5iwL-3WfR0iJmbfz0wvVm_]--></g></svg>